<svg width="388" height="99" viewBox="0 0 388 99" fill="none" xmlns="http://www.w3.org/2000/svg">
<path d="M5.096 81.652H14.456V83.862H5.096V81.652ZM5.33 89.738H15.938V92H2.73V73.8H15.574V76.062H5.33V89.738ZM17.5528 92L25.1188 81.678V83.68L17.9688 73.8H20.9328L26.6008 81.574L25.4308 81.6L31.0728 73.8H33.9068L26.8088 83.524V81.652L34.3748 92H31.3848L25.3528 83.706H26.4968L20.5428 92H17.5528ZM39.1956 81.652H48.5556V83.862H39.1956V81.652ZM39.4296 89.738H50.0376V92H36.8296V73.8H49.6736V76.062H39.4296V89.738ZM54.2476 92V73.8H56.3796L64.5436 87.554H63.3996L71.4596 73.8H73.5916L73.6176 92H71.1216L71.0956 77.726H71.6936L64.5176 89.79H63.3216L56.0936 77.726H56.7436V92H54.2476ZM79.0796 92V73.8H86.1776C87.7723 73.8 89.1329 74.0513 90.2596 74.554C91.3863 75.0567 92.2529 75.7847 92.8596 76.738C93.4663 77.6913 93.7696 78.8267 93.7696 80.144C93.7696 81.4613 93.4663 82.5967 92.8596 83.55C92.2529 84.486 91.3863 85.214 90.2596 85.734C89.1329 86.2367 87.7723 86.488 86.1776 86.488H80.5096L81.6796 85.266V92H79.0796ZM81.6796 85.526L80.5096 84.226H86.0996C87.7636 84.226 89.0203 83.8707 89.8696 83.16C90.7363 82.4493 91.1696 81.444 91.1696 80.144C91.1696 78.844 90.7363 77.8387 89.8696 77.128C89.0203 76.4173 87.7636 76.062 86.0996 76.062H80.5096L81.6796 74.762V85.526ZM97.5894 92V73.8H100.189V89.738H110.043V92H97.5894ZM115.393 81.652H124.753V83.862H115.393V81.652ZM115.627 89.738H126.235V92H113.027V73.8H125.871V76.062H115.627V89.738ZM135.749 92.208C134.362 92.208 133.036 92 131.771 91.584C130.506 91.1507 129.509 90.596 128.781 89.92L129.743 87.892C130.436 88.4987 131.32 89.0013 132.395 89.4C133.47 89.7987 134.588 89.998 135.749 89.998C136.806 89.998 137.664 89.8767 138.323 89.634C138.982 89.3913 139.467 89.062 139.779 88.646C140.091 88.2127 140.247 87.7273 140.247 87.19C140.247 86.566 140.039 86.0633 139.623 85.682C139.224 85.3007 138.696 84.9973 138.037 84.772C137.396 84.5293 136.685 84.3213 135.905 84.148C135.125 83.9747 134.336 83.7753 133.539 83.55C132.759 83.3073 132.04 83.004 131.381 82.64C130.74 82.276 130.22 81.7907 129.821 81.184C129.422 80.56 129.223 79.7627 129.223 78.792C129.223 77.856 129.466 76.998 129.951 76.218C130.454 75.4207 131.216 74.788 132.239 74.32C133.279 73.8347 134.596 73.592 136.191 73.592C137.248 73.592 138.297 73.7307 139.337 74.008C140.377 74.2853 141.278 74.684 142.041 75.204L141.183 77.284C140.403 76.764 139.58 76.3913 138.713 76.166C137.846 75.9233 137.006 75.802 136.191 75.802C135.168 75.802 134.328 75.932 133.669 76.192C133.01 76.452 132.525 76.7987 132.213 77.232C131.918 77.6653 131.771 78.1507 131.771 78.688C131.771 79.3293 131.97 79.8407 132.369 80.222C132.785 80.6033 133.314 80.9067 133.955 81.132C134.614 81.3573 135.333 81.5653 136.113 81.756C136.893 81.9293 137.673 82.1287 138.453 82.354C139.25 82.5793 139.97 82.874 140.611 83.238C141.27 83.602 141.798 84.0873 142.197 84.694C142.596 85.3007 142.795 86.0807 142.795 87.034C142.795 87.9527 142.544 88.8107 142.041 89.608C141.538 90.388 140.758 91.0207 139.701 91.506C138.661 91.974 137.344 92.208 135.749 92.208ZM153.576 92V73.8H161.246C163.187 73.8 164.894 74.1813 166.368 74.944C167.858 75.7067 169.011 76.7727 169.826 78.142C170.658 79.5113 171.074 81.0973 171.074 82.9C171.074 84.7027 170.658 86.2887 169.826 87.658C169.011 89.0273 167.858 90.0933 166.368 90.856C164.894 91.6187 163.187 92 161.246 92H153.576ZM156.176 89.738H161.09C162.598 89.738 163.898 89.452 164.99 88.88C166.099 88.308 166.957 87.5107 167.564 86.488C168.17 85.448 168.474 84.252 168.474 82.9C168.474 81.5307 168.17 80.3347 167.564 79.312C166.957 78.2893 166.099 77.492 164.99 76.92C163.898 76.348 162.598 76.062 161.09 76.062H156.176V89.738ZM173.323 79.806L174.623 74.528L174.961 76.036C174.459 76.036 174.034 75.88 173.687 75.568C173.358 75.256 173.193 74.84 173.193 74.32C173.193 73.7827 173.358 73.358 173.687 73.046C174.034 72.7167 174.45 72.552 174.935 72.552C175.438 72.552 175.845 72.7253 176.157 73.072C176.469 73.4013 176.625 73.8173 176.625 74.32C176.625 74.476 176.617 74.6407 176.599 74.814C176.582 74.97 176.539 75.152 176.469 75.36C176.417 75.568 176.331 75.8367 176.209 76.166L174.961 79.806H173.323ZM180.566 92V73.8H183.166V92H180.566ZM188.615 92V73.8H190.747L202.785 88.75H201.667V73.8H204.267V92H202.135L190.097 77.05H191.215V92H188.615ZM215.018 92.208C213.632 92.208 212.306 92 211.04 91.584C209.775 91.1507 208.778 90.596 208.05 89.92L209.012 87.892C209.706 88.4987 210.59 89.0013 211.664 89.4C212.739 89.7987 213.857 89.998 215.018 89.998C216.076 89.998 216.934 89.8767 217.592 89.634C218.251 89.3913 218.736 89.062 219.048 88.646C219.36 88.2127 219.516 87.7273 219.516 87.19C219.516 86.566 219.308 86.0633 218.892 85.682C218.494 85.3007 217.965 84.9973 217.306 84.772C216.665 84.5293 215.954 84.3213 215.174 84.148C214.394 83.9747 213.606 83.7753 212.808 83.55C212.028 83.3073 211.309 83.004 210.65 82.64C210.009 82.276 209.489 81.7907 209.09 81.184C208.692 80.56 208.492 79.7627 208.492 78.792C208.492 77.856 208.735 76.998 209.22 76.218C209.723 75.4207 210.486 74.788 211.508 74.32C212.548 73.8347 213.866 73.592 215.46 73.592C216.518 73.592 217.566 73.7307 218.606 74.008C219.646 74.2853 220.548 74.684 221.31 75.204L220.452 77.284C219.672 76.764 218.849 76.3913 217.982 76.166C217.116 75.9233 216.275 75.802 215.46 75.802C214.438 75.802 213.597 75.932 212.938 76.192C212.28 76.452 211.794 76.7987 211.482 77.232C211.188 77.6653 211.04 78.1507 211.04 78.688C211.04 79.3293 211.24 79.8407 211.638 80.222C212.054 80.6033 212.583 80.9067 213.224 81.132C213.883 81.3573 214.602 81.5653 215.382 81.756C216.162 81.9293 216.942 82.1287 217.722 82.354C218.52 82.5793 219.239 82.874 219.88 83.238C220.539 83.602 221.068 84.0873 221.466 84.694C221.865 85.3007 222.064 86.0807 222.064 87.034C222.064 87.9527 221.813 88.8107 221.31 89.608C220.808 90.388 220.028 91.0207 218.97 91.506C217.93 91.974 216.613 92.208 215.018 92.208ZM229.223 92V76.062H222.983V73.8H238.037V76.062H231.797V92H229.223ZM237.199 92L245.441 73.8H248.015L256.283 92H253.553L246.195 75.256H247.235L239.877 92H237.199ZM240.709 87.45L241.411 85.37H251.655L252.409 87.45H240.709ZM258.998 92V73.8H261.598V89.738H271.452V92H258.998ZM274.435 92V73.8H277.035V89.738H286.889V92H274.435ZM287.117 92L295.359 73.8H297.933L306.201 92H303.471L296.113 75.256H297.153L289.795 92H287.117ZM290.627 87.45L291.329 85.37H301.573L302.327 87.45H290.627ZM311.615 92V76.062H305.375V73.8H320.429V76.062H314.189V92H311.615ZM323.261 92V73.8H325.861V92H323.261ZM339.526 92.208C338.139 92.208 336.848 91.974 335.652 91.506C334.473 91.038 333.451 90.388 332.584 89.556C331.717 88.7067 331.041 87.7187 330.556 86.592C330.071 85.4653 329.828 84.2347 329.828 82.9C329.828 81.5653 330.071 80.3347 330.556 79.208C331.041 78.0813 331.717 77.102 332.584 76.27C333.451 75.4207 334.473 74.762 335.652 74.294C336.831 73.826 338.122 73.592 339.526 73.592C340.913 73.592 342.187 73.826 343.348 74.294C344.527 74.7447 345.549 75.3947 346.416 76.244C347.3 77.076 347.976 78.0553 348.444 79.182C348.929 80.3087 349.172 81.548 349.172 82.9C349.172 84.252 348.929 85.4913 348.444 86.618C347.976 87.7447 347.3 88.7327 346.416 89.582C345.549 90.414 344.527 91.064 343.348 91.532C342.187 91.9827 340.913 92.208 339.526 92.208ZM339.526 89.894C340.531 89.894 341.459 89.7207 342.308 89.374C343.175 89.0273 343.92 88.542 344.544 87.918C345.185 87.2767 345.679 86.5313 346.026 85.682C346.39 84.8327 346.572 83.9053 346.572 82.9C346.572 81.8947 346.39 80.9673 346.026 80.118C345.679 79.2687 345.185 78.532 344.544 77.908C343.92 77.2667 343.175 76.7727 342.308 76.426C341.459 76.0793 340.531 75.906 339.526 75.906C338.503 75.906 337.559 76.0793 336.692 76.426C335.843 76.7727 335.097 77.2667 334.456 77.908C333.815 78.532 333.312 79.2687 332.948 80.118C332.601 80.9673 332.428 81.8947 332.428 82.9C332.428 83.9053 332.601 84.8327 332.948 85.682C333.312 86.5313 333.815 87.2767 334.456 87.918C335.097 88.542 335.843 89.0273 336.692 89.374C337.559 89.7207 338.503 89.894 339.526 89.894ZM353.146 92V73.8H355.278L367.316 88.75H366.198V73.8H368.798V92H366.666L354.628 77.05H355.746V92H353.146ZM379.55 92.208C378.163 92.208 376.837 92 375.572 91.584C374.306 91.1507 373.31 90.596 372.582 89.92L373.544 87.892C374.237 88.4987 375.121 89.0013 376.196 89.4C377.27 89.7987 378.388 89.998 379.55 89.998C380.607 89.998 381.465 89.8767 382.124 89.634C382.782 89.3913 383.268 89.062 383.58 88.646C383.892 88.2127 384.048 87.7273 384.048 87.19C384.048 86.566 383.84 86.0633 383.424 85.682C383.025 85.3007 382.496 84.9973 381.838 84.772C381.196 84.5293 380.486 84.3213 379.706 84.148C378.926 83.9747 378.137 83.7753 377.34 83.55C376.56 83.3073 375.84 83.004 375.182 82.64C374.54 82.276 374.02 81.7907 373.622 81.184C373.223 80.56 373.024 79.7627 373.024 78.792C373.024 77.856 373.266 76.998 373.752 76.218C374.254 75.4207 375.017 74.788 376.04 74.32C377.08 73.8347 378.397 73.592 379.992 73.592C381.049 73.592 382.098 73.7307 383.138 74.008C384.178 74.2853 385.079 74.684 385.842 75.204L384.984 77.284C384.204 76.764 383.38 76.3913 382.514 76.166C381.647 75.9233 380.806 75.802 379.992 75.802C378.969 75.802 378.128 75.932 377.47 76.192C376.811 76.452 376.326 76.7987 376.014 77.232C375.719 77.6653 375.572 78.1507 375.572 78.688C375.572 79.3293 375.771 79.8407 376.17 80.222C376.586 80.6033 377.114 80.9067 377.756 81.132C378.414 81.3573 379.134 81.5653 379.914 81.756C380.694 81.9293 381.474 82.1287 382.254 82.354C383.051 82.5793 383.77 82.874 384.412 83.238C385.07 83.602 385.599 84.0873 385.998 84.694C386.396 85.3007 386.596 86.0807 386.596 87.034C386.596 87.9527 386.344 88.8107 385.842 89.608C385.339 90.388 384.559 91.0207 383.502 91.506C382.462 91.974 381.144 92.208 379.55 92.208Z" fill="#194099"/>
<path d="M60.36 38.36H63.96C64.7067 37.4267 65.2933 36.0667 65.72 34.28C66.1733 32.4933 66.4 30.72 66.4 28.96C66.4 24.7733 65.6133 21.72 64.04 19.8H60.36V38.36ZM54.92 43V15H66.52C70.3067 18.36 72.2 22.92 72.2 28.68C72.2 34.4133 70.4267 39.1867 66.88 43H54.92ZM75.3106 43V15H80.7906V38.36H89.1106V43H75.3106ZM104.647 15H115.287C116.967 15.56 118.393 16.6 119.567 18.12C120.767 19.6133 121.367 21.4533 121.367 23.64C121.367 27.2133 119.953 29.84 117.127 31.52L121.167 43H115.567L112.167 32.8H110.047V43H104.647V15ZM110.047 19.8V28.32H113.487C113.94 28.2133 114.433 27.76 114.967 26.96C115.527 26.1333 115.807 25.1733 115.807 24.08C115.807 22.9867 115.567 22.0267 115.087 21.2C114.633 20.3733 114.18 19.9067 113.727 19.8H110.047ZM124.256 43V15H138.616V19.8H129.736V26.48H137.656V31.12H129.736V38.36H138.776V43H124.256ZM141.873 43V15H156.473V19.8H147.353V26.8H155.273V31.44H147.353V43H141.873ZM158.787 15H169.427C171.107 15.56 172.534 16.6 173.707 18.12C174.907 19.6133 175.507 21.4533 175.507 23.64C175.507 27.2133 174.094 29.84 171.267 31.52L175.307 43H169.707L166.307 32.8H164.187V43H158.787V15ZM164.187 19.8V28.32H167.627C168.081 28.2133 168.574 27.76 169.107 26.96C169.667 26.1333 169.947 25.1733 169.947 24.08C169.947 22.9867 169.707 22.0267 169.227 21.2C168.774 20.3733 168.321 19.9067 167.867 19.8H164.187ZM178.397 43V15H183.877V43H178.397ZM201.013 43H192.533C190.613 41.24 189.213 39.1467 188.333 36.72C187.453 34.2933 187.013 31.76 187.013 29.12C187.013 26.4533 187.546 23.8267 188.613 21.24C189.679 18.6533 191.173 16.5733 193.093 15H202.813V19.8H195.373C194.679 20.6 194.079 21.8667 193.573 23.6C193.066 25.3067 192.813 27.1333 192.813 29.08C192.813 31 193.039 32.84 193.493 34.6C193.973 36.3333 194.559 37.5867 195.253 38.36H199.093V27.48H204.373V34.2C204.373 37.88 203.253 40.8133 201.013 43ZM207.498 43V15H221.858V19.8H212.978V26.48H220.898V31.12H212.978V38.36H222.018V43H207.498ZM225.115 15H235.755C237.435 15.56 238.862 16.6 240.035 18.12C241.235 19.6133 241.835 21.4533 241.835 23.64C241.835 27.2133 240.422 29.84 237.595 31.52L241.635 43H236.035L232.635 32.8H230.515V43H225.115V15ZM230.515 19.8V28.32H233.955C234.409 28.2133 234.902 27.76 235.435 26.96C235.995 26.1333 236.275 25.1733 236.275 24.08C236.275 22.9867 236.035 22.0267 235.555 21.2C235.102 20.3733 234.649 19.9067 234.195 19.8H230.515ZM256.645 43L255.805 38.56H249.485L248.645 43H243.205L248.605 15H256.885L262.005 43H256.645ZM252.565 20.2L251.005 29.52L250.125 34.28H255.125L254.205 29.52L252.645 20.2H252.565ZM266.432 19.8H260.392V15H277.912V19.8H271.872V43H266.432V19.8ZM280.233 43V15H285.713V43H280.233ZM302.608 15C304.475 16.52 305.862 18.56 306.768 21.12C307.675 23.68 308.128 26.32 308.128 29.04C308.128 31.7333 307.688 34.2933 306.808 36.72C305.928 39.1467 304.528 41.24 302.608 43H294.368C292.448 41.24 291.048 39.1467 290.168 36.72C289.288 34.2933 288.848 31.7333 288.848 29.04C288.848 26.32 289.302 23.68 290.208 21.12C291.115 18.56 292.502 16.52 294.368 15H302.608ZM297.048 38.36H299.928C300.595 37.5867 301.155 36.3333 301.608 34.6C302.088 32.84 302.328 30.9867 302.328 29.04C302.328 27.0933 302.102 25.2667 301.648 23.56C301.195 21.8267 300.635 20.5733 299.968 19.8H297.048C296.382 20.5733 295.808 21.8267 295.328 23.56C294.875 25.2667 294.648 27.0933 294.648 29.04C294.648 30.9867 294.875 32.84 295.328 34.6C295.808 36.3333 296.382 37.5867 297.048 38.36ZM323.728 43L316.248 27.52L316.048 27.6L316.288 32.32V43H311.248V15H315.288L322.648 31.08L322.848 31L322.408 26.08V15H327.448V43H323.728Z" fill="#194099"/>
<path d="M2 59H388" stroke="#194099"/>
</svg>
