<svg width="306" height="88" viewBox="0 0 306 88" fill="none" xmlns="http://www.w3.org/2000/svg">
<path d="M18.73 81V62.8H20.862L32.9 77.75H31.782V62.8H34.382V81H32.25L20.212 66.05H21.33V81H18.73ZM48.0456 81.208C46.6589 81.208 45.3676 80.974 44.1716 80.506C42.9929 80.038 41.9703 79.388 41.1036 78.556C40.2369 77.7067 39.5609 76.7187 39.0756 75.592C38.5903 74.4653 38.3476 73.2347 38.3476 71.9C38.3476 70.5653 38.5903 69.3347 39.0756 68.208C39.5609 67.0813 40.2369 66.102 41.1036 65.27C41.9703 64.4207 42.9929 63.762 44.1716 63.294C45.3503 62.826 46.6416 62.592 48.0456 62.592C49.4323 62.592 50.7063 62.826 51.8676 63.294C53.0463 63.7447 54.0689 64.3947 54.9356 65.244C55.8196 66.076 56.4956 67.0553 56.9636 68.182C57.4489 69.3087 57.6916 70.548 57.6916 71.9C57.6916 73.252 57.4489 74.4913 56.9636 75.618C56.4956 76.7447 55.8196 77.7327 54.9356 78.582C54.0689 79.414 53.0463 80.064 51.8676 80.532C50.7063 80.9827 49.4323 81.208 48.0456 81.208ZM48.0456 78.894C49.0509 78.894 49.9783 78.7207 50.8276 78.374C51.6943 78.0273 52.4396 77.542 53.0636 76.918C53.7049 76.2767 54.1989 75.5313 54.5456 74.682C54.9096 73.8327 55.0916 72.9053 55.0916 71.9C55.0916 70.8947 54.9096 69.9673 54.5456 69.118C54.1989 68.2687 53.7049 67.532 53.0636 66.908C52.4396 66.2667 51.6943 65.7727 50.8276 65.426C49.9783 65.0793 49.0509 64.906 48.0456 64.906C47.0229 64.906 46.0783 65.0793 45.2116 65.426C44.3623 65.7727 43.6169 66.2667 42.9756 66.908C42.3343 67.532 41.8316 68.2687 41.4676 69.118C41.1209 69.9673 40.9476 70.8947 40.9476 71.9C40.9476 72.9053 41.1209 73.8327 41.4676 74.682C41.8316 75.5313 42.3343 76.2767 42.9756 76.918C43.6169 77.542 44.3623 78.0273 45.2116 78.374C46.0783 78.7207 47.0229 78.894 48.0456 78.894ZM65.0256 81V65.062H58.7856V62.8H73.8396V65.062H67.5996V81H65.0256ZM76.6714 81V62.8H83.7694C85.3641 62.8 86.7247 63.0513 87.8514 63.554C88.9781 64.0567 89.8447 64.7847 90.4514 65.738C91.0581 66.6913 91.3614 67.8267 91.3614 69.144C91.3614 70.4613 91.0581 71.5967 90.4514 72.55C89.8447 73.486 88.9781 74.2053 87.8514 74.708C86.7247 75.2107 85.3641 75.462 83.7694 75.462H78.1014L79.2714 74.266V81H76.6714ZM88.8394 81L84.2114 74.396H86.9934L91.6734 81H88.8394ZM79.2714 74.526L78.1014 73.252H83.6914C85.3554 73.252 86.6121 72.8967 87.4614 72.186C88.3281 71.458 88.7614 70.444 88.7614 69.144C88.7614 67.844 88.3281 66.8387 87.4614 66.128C86.6121 65.4173 85.3554 65.062 83.6914 65.062H78.1014L79.2714 63.762V74.526ZM97.928 70.652H107.288V72.862H97.928V70.652ZM98.162 78.738H108.77V81H95.562V62.8H108.406V65.062H98.162V78.738ZM122.328 70.652H131.688V72.862H122.328V70.652ZM122.562 78.738H133.17V81H119.962V62.8H132.806V65.062H122.562V78.738ZM134.785 81L142.351 70.678V72.68L135.201 62.8H138.165L143.833 70.574L142.663 70.6L148.305 62.8H151.139L144.041 72.524V70.652L151.607 81H148.617L142.585 72.706H143.729L137.775 81H134.785ZM154.062 81V62.8H161.16C162.755 62.8 164.115 63.0513 165.242 63.554C166.369 64.0567 167.235 64.7847 167.842 65.738C168.449 66.6913 168.752 67.8267 168.752 69.144C168.752 70.4613 168.449 71.5967 167.842 72.55C167.235 73.486 166.369 74.214 165.242 74.734C164.115 75.2367 162.755 75.488 161.16 75.488H155.492L156.662 74.266V81H154.062ZM156.662 74.526L155.492 73.226H161.082C162.746 73.226 164.003 72.8707 164.852 72.16C165.719 71.4493 166.152 70.444 166.152 69.144C166.152 67.844 165.719 66.8387 164.852 66.128C164.003 65.4173 162.746 65.062 161.082 65.062H155.492L156.662 63.762V74.526ZM174.938 70.652H184.298V72.862H174.938V70.652ZM175.172 78.738H185.78V81H172.572V62.8H185.416V65.062H175.172V78.738ZM189.99 81V62.8H197.088C198.682 62.8 200.043 63.0513 201.17 63.554C202.296 64.0567 203.163 64.7847 203.77 65.738C204.376 66.6913 204.68 67.8267 204.68 69.144C204.68 70.4613 204.376 71.5967 203.77 72.55C203.163 73.486 202.296 74.2053 201.17 74.708C200.043 75.2107 198.682 75.462 197.088 75.462H191.42L192.59 74.266V81H189.99ZM202.158 81L197.53 74.396H200.312L204.992 81H202.158ZM192.59 74.526L191.42 73.252H197.01C198.674 73.252 199.93 72.8967 200.78 72.186C201.646 71.458 202.08 70.444 202.08 69.144C202.08 67.844 201.646 66.8387 200.78 66.128C199.93 65.4173 198.674 65.062 197.01 65.062H191.42L192.59 63.762V74.526ZM212.24 81V65.062H206V62.8H221.054V65.062H214.814V81H212.24ZM223.886 81V62.8H226.486V81H223.886ZM237.239 81.208C235.852 81.208 234.526 81 233.261 80.584C231.996 80.1507 230.999 79.596 230.271 78.92L231.233 76.892C231.926 77.4987 232.81 78.0013 233.885 78.4C234.96 78.7987 236.078 78.998 237.239 78.998C238.296 78.998 239.154 78.8767 239.813 78.634C240.472 78.3913 240.957 78.062 241.269 77.646C241.581 77.2127 241.737 76.7273 241.737 76.19C241.737 75.566 241.529 75.0633 241.113 74.682C240.714 74.3007 240.186 73.9973 239.527 73.772C238.886 73.5293 238.175 73.3213 237.395 73.148C236.615 72.9747 235.826 72.7753 235.029 72.55C234.249 72.3073 233.53 72.004 232.871 71.64C232.23 71.276 231.71 70.7907 231.311 70.184C230.912 69.56 230.713 68.7627 230.713 67.792C230.713 66.856 230.956 65.998 231.441 65.218C231.944 64.4207 232.706 63.788 233.729 63.32C234.769 62.8347 236.086 62.592 237.681 62.592C238.738 62.592 239.787 62.7307 240.827 63.008C241.867 63.2853 242.768 63.684 243.531 64.204L242.673 66.284C241.893 65.764 241.07 65.3913 240.203 65.166C239.336 64.9233 238.496 64.802 237.681 64.802C236.658 64.802 235.818 64.932 235.159 65.192C234.5 65.452 234.015 65.7987 233.703 66.232C233.408 66.6653 233.261 67.1507 233.261 67.688C233.261 68.3293 233.46 68.8407 233.859 69.222C234.275 69.6033 234.804 69.9067 235.445 70.132C236.104 70.3573 236.823 70.5653 237.603 70.756C238.383 70.9293 239.163 71.1287 239.943 71.354C240.74 71.5793 241.46 71.874 242.101 72.238C242.76 72.602 243.288 73.0873 243.687 73.694C244.086 74.3007 244.285 75.0807 244.285 76.034C244.285 76.9527 244.034 77.8107 243.531 78.608C243.028 79.388 242.248 80.0207 241.191 80.506C240.151 80.974 238.834 81.208 237.239 81.208ZM250.45 70.652H259.81V72.862H250.45V70.652ZM250.684 78.738H261.292V81H248.084V62.8H260.928V65.062H250.684V78.738Z" fill="#093CB2"/>
<path d="M7.36 28.36H10.96C11.7067 27.4267 12.2933 26.0667 12.72 24.28C13.1733 22.4933 13.4 20.72 13.4 18.96C13.4 14.7733 12.6133 11.72 11.04 9.8H7.36V28.36ZM1.92 33V5H13.52C17.3067 8.36 19.2 12.92 19.2 18.68C19.2 24.4133 17.4267 29.1867 13.88 33H1.92ZM22.3106 33V5H27.7906V28.36H36.1106V33H22.3106ZM51.6466 5H62.2866C63.9666 5.56 65.3932 6.6 66.5666 8.12C67.7666 9.61333 68.3666 11.4533 68.3666 13.64C68.3666 17.2133 66.9532 19.84 64.1266 21.52L68.1666 33H62.5666L59.1666 22.8H57.0466V33H51.6466V5ZM57.0466 9.8V18.32H60.4866C60.9399 18.2133 61.4332 17.76 61.9666 16.96C62.5266 16.1333 62.8066 15.1733 62.8066 14.08C62.8066 12.9867 62.5666 12.0267 62.0866 11.2C61.6332 10.3733 61.1799 9.90667 60.7266 9.8H57.0466ZM71.2559 33V5H85.6159V9.8H76.7359V16.48H84.6559V21.12H76.7359V28.36H85.7759V33H71.2559ZM88.8731 33V5H103.473V9.8H94.3531V16.8H102.273V21.44H94.3531V33H88.8731ZM105.787 5H116.427C118.107 5.56 119.534 6.6 120.707 8.12C121.907 9.61333 122.507 11.4533 122.507 13.64C122.507 17.2133 121.094 19.84 118.267 21.52L122.307 33H116.707L113.307 22.8H111.187V33H105.787V5ZM111.187 9.8V18.32H114.627C115.081 18.2133 115.574 17.76 116.107 16.96C116.667 16.1333 116.947 15.1733 116.947 14.08C116.947 12.9867 116.707 12.0267 116.227 11.2C115.774 10.3733 115.321 9.90667 114.867 9.8H111.187ZM125.397 33V5H130.877V33H125.397ZM148.013 33H139.533C137.613 31.24 136.213 29.1467 135.333 26.72C134.453 24.2933 134.013 21.76 134.013 19.12C134.013 16.4533 134.546 13.8267 135.613 11.24C136.679 8.65333 138.173 6.57333 140.093 5H149.813V9.8H142.373C141.679 10.6 141.079 11.8667 140.573 13.6C140.066 15.3067 139.813 17.1333 139.813 19.08C139.813 21 140.039 22.84 140.493 24.6C140.973 26.3333 141.559 27.5867 142.253 28.36H146.093V17.48H151.373V24.2C151.373 27.88 150.253 30.8133 148.013 33ZM154.498 33V5H168.858V9.8H159.978V16.48H167.898V21.12H159.978V28.36H169.018V33H154.498ZM172.115 5H182.755C184.435 5.56 185.862 6.6 187.035 8.12C188.235 9.61333 188.835 11.4533 188.835 13.64C188.835 17.2133 187.422 19.84 184.595 21.52L188.635 33H183.035L179.635 22.8H177.515V33H172.115V5ZM177.515 9.8V18.32H180.955C181.409 18.2133 181.902 17.76 182.435 16.96C182.995 16.1333 183.275 15.1733 183.275 14.08C183.275 12.9867 183.035 12.0267 182.555 11.2C182.102 10.3733 181.649 9.90667 181.195 9.8H177.515ZM203.645 33L202.805 28.56H196.485L195.645 33H190.205L195.605 5H203.885L209.005 33H203.645ZM199.565 10.2L198.005 19.52L197.125 24.28H202.125L201.205 19.52L199.645 10.2H199.565ZM213.432 9.8H207.392V5H224.912V9.8H218.872V33H213.432V9.8ZM227.233 33V5H232.713V33H227.233ZM249.608 5C251.475 6.52 252.862 8.56 253.768 11.12C254.675 13.68 255.128 16.32 255.128 19.04C255.128 21.7333 254.688 24.2933 253.808 26.72C252.928 29.1467 251.528 31.24 249.608 33H241.368C239.448 31.24 238.048 29.1467 237.168 26.72C236.288 24.2933 235.848 21.7333 235.848 19.04C235.848 16.32 236.302 13.68 237.208 11.12C238.115 8.56 239.502 6.52 241.368 5H249.608ZM244.048 28.36H246.928C247.595 27.5867 248.155 26.3333 248.608 24.6C249.088 22.84 249.328 20.9867 249.328 19.04C249.328 17.0933 249.102 15.2667 248.648 13.56C248.195 11.8267 247.635 10.5733 246.968 9.8H244.048C243.382 10.5733 242.808 11.8267 242.328 13.56C241.875 15.2667 241.648 17.0933 241.648 19.04C241.648 20.9867 241.875 22.84 242.328 24.6C242.808 26.3333 243.382 27.5867 244.048 28.36ZM270.728 33L263.248 17.52L263.048 17.6L263.288 22.32V33H258.248V5H262.288L269.648 21.08L269.848 21L269.408 16.08V5H274.448V33H270.728Z" fill="#093CB2"/>
<path d="M2 48H276" stroke="#093CB2"/>
</svg>
