<svg width="150" height="128" viewBox="0 0 150 128" fill="none" xmlns="http://www.w3.org/2000/svg">
<g clip-path="url(#clip0_605_93)">
<path d="M139.518 116.819C138.931 124.262 134.89 127.983 127.397 127.983C123 127.983 118.612 127.983 114.215 127.983C107.932 127.975 106.483 126.549 106.409 120.319C106.392 119.237 106.409 118.155 106.409 116.802H43.5829C43.5829 118.499 43.6488 120.212 43.5664 121.917C43.3688 126.221 41.5409 127.942 37.0533 127.975C30.466 128.024 23.8706 128.016 17.2751 127.975C12.384 127.942 10.7702 126.254 10.7125 121.229C10.6961 119.762 10.7125 118.294 10.7125 116.893C1.57271 115.778 0 113.966 0 105.007C0 73.439 0 41.8714 0 10.312C0 2.56558 2.55256 0.049024 10.3832 0.049024C26.3161 0.049024 42.2408 0.049024 58.1737 0.049024C59.2688 0.049024 60.471 -0.14771 61.4344 0.229363C62.159 0.50807 63.0071 1.55732 63.0071 2.26228C63.0071 2.91806 62.0849 3.94272 61.3603 4.16404C60.224 4.51652 58.923 4.37717 57.6879 4.37717C42.1667 4.38537 26.6537 4.37717 11.1325 4.38537C5.15453 4.38537 4.37229 5.12312 4.37229 10.8694C4.36406 42.437 4.37229 73.9964 4.37229 105.564C4.37229 111.392 5.12982 112.138 11.0336 112.138C53.7438 112.138 96.4456 112.138 139.156 112.138C144.804 112.138 145.628 111.335 145.628 105.785C145.636 74.0866 145.636 42.3796 145.628 10.6809C145.628 5.1887 144.78 4.38537 139.098 4.37717C117.541 4.36897 95.9763 4.37717 74.4195 4.36897C73.1844 4.36897 71.8834 4.50013 70.7553 4.13125C70.0637 3.90993 69.1991 2.83609 69.2156 2.17211C69.232 1.47535 70.1048 0.434295 70.813 0.212969C71.9493 -0.139513 73.2503 0.0326295 74.4854 0.0326295C96.1821 0.0326295 117.879 0.0326295 139.576 0.0326295C147.447 0.0326295 150 2.52459 150 10.2464C150 41.9452 150 73.6521 150 105.351C150 113.909 148.254 115.852 139.526 116.802L139.518 116.819ZM14.1132 116.753C15.2907 119.524 16.04 123.254 17.0445 123.327C24.2082 123.836 31.4294 123.598 38.7825 123.598V116.753H14.1132ZM134.586 116.868H111.226C110.809 121.376 112.667 123.633 116.8 123.639C120.917 123.639 125.034 123.639 129.151 123.639C133.29 123.639 135.105 121.382 134.594 116.868H134.586Z" fill="#194099"/>
<path d="M65.222 48.3309C67.4123 52.1262 69.7673 53.6837 73.9666 53.7985C78.4707 53.9214 83.1805 55.2986 87.347 57.143C93.4567 59.8644 95.8445 65.5205 93.8025 71.8078C91.2335 79.71 86.2436 85.7186 77.9025 88.1367C72.7974 89.6205 69.7343 87.6859 68.3839 82.5544C67.3217 78.5214 66.2925 74.4801 65.3044 70.6438C59.8287 70.6192 56.8068 72.6194 54.1802 76.7672C51.8664 80.4231 48.1775 83.5135 44.4804 85.9317C39.3177 89.309 33.6526 88.3745 29.5438 83.8742C23.9117 77.7017 21.2768 70.3733 23.1624 62.0203C24.3975 56.5446 27.9382 54.8067 33.3562 56.4052C37.2427 57.5528 41.1456 58.6349 44.9333 59.7087C47.3624 54.6756 48.3504 50.6753 45.8226 45.7652C44.0523 42.3305 43.8382 37.8548 43.8135 33.83C43.7723 27.3706 47.6423 23.0178 54.0978 21.9686C62.1343 20.657 69.4132 22.7637 75.2429 28.4854C79.7634 32.9201 79.22 36.9859 74.2548 40.9042C71.1753 43.3388 68.1781 45.8881 65.2385 48.3227L65.222 48.3309ZM51.5041 48.1506C54.6248 47.7489 57.0621 47.5276 59.45 47.0767C60.3969 46.8964 61.385 46.3636 62.126 45.7242C65.115 43.1421 67.9146 40.3386 70.9694 37.8303C74.2548 35.1334 74.5348 33.3955 71.1917 30.6986C66.2348 26.6984 60.4216 25.3213 54.1719 26.4525C51.1089 27.0017 49.1244 29.051 48.4822 32.2233C47.313 38.0352 49.108 43.224 51.5041 48.1506ZM53.2826 71.5947C52.9286 71.2996 52.5745 71.0127 52.2122 70.7176C50.5983 68.906 49.0503 67.037 47.3377 65.3156C46.6542 64.6352 45.6744 64.1024 44.7357 63.8483C40.7998 62.7909 36.8063 61.9548 32.8786 60.8481C28.9674 59.7415 27.5841 60.4628 27.156 64.5451C26.5549 70.2258 28.2676 75.3327 31.7917 79.7592C35.0442 83.8414 39.1118 84.6693 43.2947 81.456C46.9754 78.6198 49.9808 74.9146 53.2826 71.5947ZM71.3564 57.2823C71.2329 57.7823 71.1176 58.2906 70.9941 58.7906C70.2284 61.094 69.3638 63.3729 68.7462 65.7173C68.4992 66.6518 68.6227 67.7748 68.9027 68.7257C69.9978 72.5046 71.3647 76.2098 72.3527 80.0133C73.4314 84.1693 74.7818 85.1202 78.6518 83.2676C83.8063 80.8002 87.3305 76.677 89.2902 71.3406C90.9535 66.8157 89.7431 62.9302 85.2885 61.1022C80.8668 59.2906 76.0169 58.5119 71.3564 57.2741V57.2823ZM58.116 67.242C62.4142 67.2666 65.9466 63.7417 65.9713 59.4136C65.996 55.0445 62.5871 51.6098 58.1984 51.5934C53.8343 51.577 50.3019 55.0281 50.2854 59.3234C50.269 63.5532 53.892 67.2174 58.1078 67.242H58.116Z" fill="#194099"/>
<path d="M11.1654 58.9628C11.0501 39.0845 23.533 21.3374 42.3807 14.5829C61.0391 7.89394 81.9701 13.591 94.5106 28.8379C95.8939 30.5183 97.1785 32.3381 98.1583 34.2645C98.5041 34.9449 98.1171 36.5679 97.5161 36.9778C96.9397 37.3794 95.5069 37.027 94.7329 36.5515C93.9836 36.0925 93.6131 35.0432 93.0614 34.2645C81.3608 17.6323 59.277 11.6237 40.6928 20.0259C21.985 28.4772 11.8324 49.2818 16.7975 68.9634C21.845 88.9483 40.3387 102.498 60.7839 101.17C87.0588 99.4654 105.322 75.3163 99.7475 49.6425C99.5993 48.9785 99.1793 48.2654 99.3028 47.667C99.591 46.2816 100.143 44.9537 100.587 43.6011C101.617 44.6422 103.313 45.5521 103.543 46.7407C104.391 51.1426 105.322 55.6511 105.207 60.1022C104.54 85.9071 83.057 106.228 57.2103 105.777C31.8494 105.335 11.2971 84.4562 11.1407 58.9628H11.1654Z" fill="#194099"/>
<path d="M58.3466 65.1025C55.0036 65.1926 52.2287 62.6679 52.0722 59.3972C51.9158 56.1675 54.5178 53.3476 57.8196 53.1837C61.3932 53.0033 64.234 55.5937 64.2587 59.0693C64.2834 62.4056 61.7226 65.0123 58.3466 65.1025Z" fill="#194099"/>
</g>
<defs>
<clipPath id="clip0_605_93">
<rect width="150" height="128" fill="white"/>
</clipPath>
</defs>
</svg>
