<svg width="149" height="126" viewBox="0 0 149 126" fill="none" xmlns="http://www.w3.org/2000/svg">
<path d="M0 1.30793C0.796935 0.259543 1.86079 -0.0112804 3.14902 0.000355276C7.92671 0.0544863 12.7044 0.0196637 17.4821 0.0235422C17.9154 0.0235422 18.3564 0.0119487 18.782 0.0815517C19.8729 0.26338 20.5035 0.944275 20.5615 2.04291C20.6234 3.2074 20.0508 4.05073 18.8941 4.22868C17.8071 4.39504 16.6852 4.35634 15.5749 4.36022C11.9114 4.37181 8.24395 4.3641 4.46047 4.3641C4.46047 9.66788 4.46047 14.8943 4.46047 20.1982C50.9144 20.1982 97.3605 20.1982 143.845 20.1982C143.845 14.9137 143.845 9.71821 143.845 4.3641C143.114 4.3641 142.453 4.3641 141.791 4.3641C104.243 4.3641 66.6982 4.3641 29.1497 4.36022C28.4766 4.36022 27.7919 4.37181 27.1303 4.25963C25.9659 4.06233 25.3624 3.2886 25.3895 2.1242C25.4166 0.959705 26.0587 0.236314 27.2271 0.0699583C27.7029 0.00419166 28.1903 0.0235422 28.67 0.0235422C67.4254 0.0235422 106.177 0.0196637 144.932 0.0235422C147.71 0.0235422 148.259 0.565147 148.259 3.28472C148.259 37.2586 148.259 71.2363 148.259 105.21C148.259 105.547 148.271 105.887 148.256 106.224C148.178 107.609 147.373 108.475 146.143 108.502C144.851 108.529 143.992 107.64 143.923 106.189C143.903 105.756 143.919 105.318 143.919 104.885C143.919 78.7762 143.919 52.6672 143.919 26.5581C143.919 25.9856 143.919 25.413 143.919 24.7438C139.443 24.7438 135.083 24.7438 130.468 24.7438C130.468 25.3511 130.468 25.9508 130.468 26.5543C130.468 39.0536 130.468 51.553 130.468 64.0523C130.468 66.9693 129.938 67.4954 126.982 67.4954C113.566 67.4954 100.15 67.4954 86.7335 67.4954C83.7663 67.4954 83.2673 67.0002 83.2673 64.0485C83.2673 51.5955 83.2673 39.1465 83.2673 26.6935C83.2673 26.0745 83.2673 25.4556 83.2673 24.7399C56.9261 24.7399 30.7397 24.7399 4.34443 24.7399C4.34443 27.1655 4.37924 29.6104 4.33282 32.0515C4.29801 33.831 2.7351 34.9336 1.29599 34.1869C0.777606 33.92 0.429422 33.3204 0.00388908 32.8716C0 22.3491 0 11.8266 0 1.30793ZM87.7007 24.7283C87.7007 34.2488 87.7007 43.6765 87.7007 53.1856C100.513 53.1856 113.256 53.1856 126.019 53.1856C126.019 43.6417 126.019 34.214 126.019 24.7283C113.206 24.7283 100.498 24.7283 87.7007 24.7283ZM126.023 57.7814C113.183 57.7814 100.44 57.7814 87.7393 57.7814C87.7393 59.6228 87.7393 61.325 87.7393 63.0388C100.575 63.0388 113.28 63.0388 126.023 63.0388C126.023 61.2205 126.023 59.5107 126.023 57.7814Z" fill="#194099"/>
<path d="M0 40.6901C0.754377 39.7655 1.54357 38.926 2.90917 39.4521C4.2477 39.9666 4.35215 41.0847 4.35215 42.3072C4.34055 68.126 4.34441 93.9449 4.34441 119.764C4.34441 120.332 4.34441 120.905 4.34441 121.559C8.64241 121.559 12.8205 121.559 17.2306 121.559C17.2306 120.847 17.2306 120.193 17.2306 119.539C17.2306 95.4575 17.2306 71.3757 17.2306 47.2938C17.2306 46.7638 17.2074 46.2299 17.25 45.6999C17.3622 44.2299 18.0701 43.5064 19.5557 43.4716C21.6795 43.4252 23.8034 43.4523 25.9272 43.4523C39.6336 43.4523 53.34 43.4523 67.0424 43.4523C70.47 43.4523 70.8066 43.7811 70.8066 47.1545C70.8066 71.3331 70.8066 95.5117 70.8066 119.69C70.8066 121.636 70.8066 121.64 72.7602 121.64C95.875 121.64 118.994 121.64 142.108 121.64C142.677 121.64 143.242 121.64 143.923 121.64C143.923 119.64 143.907 117.814 143.927 115.988C143.942 114.417 144.782 113.435 146.066 113.415C147.358 113.396 148.244 114.383 148.259 115.934C148.283 118.445 148.286 120.951 148.259 123.462C148.244 125.079 147.497 125.841 145.9 125.969C145.563 125.996 145.223 125.984 144.886 125.984C97.7358 125.984 50.5855 125.981 3.43919 126C2.08131 126 0.86658 125.837 0.00388908 124.665C0 96.6723 0 68.6831 0 40.6901ZM21.7105 47.8972C21.7105 72.5014 21.7105 97.0127 21.7105 121.52C36.6702 121.52 51.4946 121.52 66.35 121.52C66.35 96.9159 66.35 72.4356 66.35 47.8972C51.4134 47.8972 36.5813 47.8972 21.7105 47.8972Z" fill="#194099"/>
<path d="M44.0888 27.533C46.499 27.533 48.9091 27.5059 51.3192 27.5407C55.1452 27.5949 57.9229 30.2255 58.0312 33.8542C58.1356 37.4559 55.4857 40.3882 51.6712 40.4966C46.5647 40.6397 41.4505 40.6397 36.3478 40.4966C32.5411 40.3882 29.8834 37.4481 29.9956 33.8465C30.1078 30.2255 32.8932 27.5949 36.7153 27.5407C39.1719 27.5059 41.6323 27.533 44.0888 27.533ZM44.0501 31.8774C41.6439 31.8774 39.2376 31.8581 36.8314 31.8851C35.284 31.9045 34.4096 32.655 34.3555 33.92C34.2936 35.2469 35.1872 36.1793 36.7579 36.1947C41.5704 36.2373 46.3829 36.2373 51.1954 36.2024C52.8047 36.1909 53.6945 35.3204 53.6752 33.9974C53.6558 32.6782 52.7583 31.9045 51.1258 31.8851C48.7659 31.8581 46.41 31.8774 44.0501 31.8774Z" fill="#194099"/>
<path d="M107.506 28.8175C111.17 28.8175 114.83 28.8098 118.493 28.8214C120.176 28.8291 121.155 29.6493 121.155 30.9955C121.151 32.3495 120.18 33.1542 118.489 33.1581C111.116 33.1658 103.742 33.1658 96.3726 33.1581C94.682 33.1581 93.711 32.3457 93.7149 30.9917C93.7149 29.6415 94.6898 28.8291 96.3803 28.8214C100.083 28.8059 103.796 28.8175 107.506 28.8175Z" fill="#194099"/>
<path d="M107.43 40.9766C103.767 40.9766 100.107 40.9805 96.4437 40.9727C94.7029 40.9689 93.759 40.23 93.7164 38.8798C93.67 37.4678 94.6565 36.6361 96.4437 36.6361C103.767 36.6283 111.094 36.6283 118.417 36.6361C120.205 36.6361 121.191 37.4717 121.145 38.8798C121.102 40.23 120.154 40.9689 118.413 40.9727C114.758 40.9843 111.094 40.9766 107.43 40.9766Z" fill="#194099"/>
<path d="M107.438 48.7986C103.774 48.7986 100.115 48.8063 96.451 48.7947C94.6522 48.7909 93.6773 47.9785 93.716 46.5626C93.7547 45.2163 94.7102 44.4581 96.4395 44.4581C103.763 44.4503 111.09 44.4503 118.413 44.4581C120.204 44.4581 121.191 45.286 121.148 46.698C121.109 48.0481 120.158 48.7909 118.425 48.7948C114.761 48.8025 111.097 48.7986 107.438 48.7986Z" fill="#194099"/>
<path d="M46.2095 82.575C46.2095 84.045 46.1631 85.5151 46.2482 86.9813C46.2676 87.2986 46.7163 87.6583 47.049 87.8749C47.9349 88.4552 48.8905 88.9272 49.7686 89.5191C50.8247 90.227 51.1072 91.4225 50.5462 92.4205C49.9891 93.4109 48.6274 93.9757 47.6796 93.2213C45.1844 91.2329 42.9174 91.1748 40.4067 93.1981C39.4395 93.9757 38.1126 93.4573 37.5207 92.4747C36.9017 91.4379 37.2228 90.2309 38.3254 89.4649C38.4453 89.3837 38.5768 89.3218 38.6968 89.2444C42.1939 87.1051 42.3564 86.7492 41.6562 82.3236C40.4763 83.4996 39.4086 84.5634 38.3408 85.6273C37.9656 86.0025 37.6058 86.3971 37.2035 86.7376C36.2286 87.5577 35.0332 87.5422 34.2053 86.726C33.3349 85.8749 33.2923 84.5944 34.2363 83.6273C35.6135 82.2152 37.0681 80.8845 38.4917 79.5188C38.4492 79.3873 38.4028 79.2558 38.3602 79.1242C36.8166 79.1242 35.2731 79.0856 33.7334 79.1629C33.4703 79.1745 33.1879 79.6465 32.9945 79.956C32.4567 80.8109 31.9925 81.7162 31.4393 82.5595C30.7043 83.6776 29.4625 83.9832 28.4334 83.3758C27.4469 82.7916 26.9247 81.4492 27.7061 80.4937C29.7603 77.983 29.652 75.716 27.6829 73.2246C26.9285 72.2691 27.4817 70.919 28.4721 70.358C29.4702 69.7932 30.6462 70.0949 31.389 71.1124C31.5012 71.2671 31.594 71.4412 31.6946 71.6037C33.8378 75.1164 34.1666 75.2633 38.5923 74.5322C37.1222 73.0583 35.7373 71.6966 34.3872 70.3C33.3504 69.2284 33.2846 68.002 34.1589 67.0929C35.0409 66.1722 36.3253 66.1683 37.366 67.1703C38.7702 68.5282 40.1204 69.9441 41.8303 71.1936C41.8303 69.7274 41.869 68.2574 41.7993 66.7912C41.7839 66.4972 41.4202 66.149 41.1301 65.9556C40.3254 65.4256 39.4705 64.9807 38.6464 64.4778C37.3002 63.6576 36.8669 62.47 37.482 61.352C38.1281 60.1798 39.4202 59.9515 40.8786 60.764C41.6369 61.1856 42.3371 61.7466 43.1417 62.0367C43.6795 62.234 44.4106 62.2301 44.9445 62.0251C45.7879 61.704 46.5267 61.1199 47.3314 60.6788C48.6274 59.967 49.8615 60.203 50.5075 61.2591C51.1845 62.3655 50.7899 63.5958 49.494 64.4314C49.4553 64.4584 49.4088 64.4778 49.3702 64.5049C45.7917 66.7332 45.7453 66.8338 46.3604 71.418C47.4746 70.3232 48.4804 69.3367 49.4823 68.3502C49.9311 67.9092 50.3528 67.445 50.8247 67.0349C51.788 66.2032 52.9989 66.207 53.8229 67.0078C54.6933 67.8512 54.7359 69.1317 53.8229 70.1104C52.7049 71.3097 51.5172 72.4432 50.3644 73.6076C50.0974 73.8785 49.8576 74.1686 49.3779 74.7063C51.1187 74.7063 52.5966 74.7527 54.0627 74.6715C54.3877 74.6521 54.7668 74.2305 54.9796 73.9055C55.5599 73.0196 56.0357 72.0641 56.6121 71.1781C57.3433 70.0563 58.5851 69.7545 59.618 70.3774C60.6006 70.9693 61.119 72.3078 60.3337 73.2633C58.2602 75.7779 58.4226 78.0449 60.3685 80.5362C61.119 81.4957 60.5581 82.8497 59.5639 83.399C58.5658 83.9483 57.3897 83.6388 56.6508 82.6214C56.5657 82.5054 56.4729 82.3855 56.4303 82.25C55.3587 78.7567 52.7165 78.6561 49.5094 79.2519C50.3102 80.0643 51.0182 80.7838 51.7339 81.5034C52.4147 82.1882 53.1227 82.8458 53.7726 83.5576C54.7049 84.5712 54.732 85.7898 53.8887 86.6641C53.0066 87.5809 51.7184 87.5809 50.6816 86.5712C49.3005 85.225 47.9813 83.8168 46.6351 82.4357C46.4881 82.4899 46.3488 82.5324 46.2095 82.575Z" fill="#194099"/>
</svg>
