<svg width="35" height="57" viewBox="0 0 35 57" fill="none" xmlns="http://www.w3.org/2000/svg">
<path d="M17.6173 56.4001C17.1935 56.4001 16.7918 56.2062 16.5287 55.8711C16.3708 55.6689 12.6008 50.8463 8.78095 43.7246C6.53171 39.5336 4.73674 35.4173 3.44869 31.4922C1.82269 26.5422 1 21.8748 1 17.62C1 8.45686 8.45686 1 17.62 1C26.7832 1 34.2401 8.45686 34.2401 17.62C34.2401 21.8748 33.4146 26.5395 31.7914 31.4922C30.5033 35.4173 28.7084 39.5336 26.4591 43.7246C22.6365 50.8463 18.8693 55.6689 18.7114 55.8711C18.4483 56.2062 18.0466 56.4001 17.6228 56.4001H17.6173ZM17.6173 3.77001C9.98036 3.77001 3.76724 9.98314 3.76724 17.62C3.76724 26.6336 7.81976 36.0794 11.2213 42.4144C13.7199 47.0708 16.2323 50.7632 17.6173 52.6911C19.0078 50.7549 21.5368 47.0403 24.0381 42.3701C27.4259 36.0461 31.4673 26.617 31.4673 17.62C31.4673 9.98313 25.2542 3.77001 17.6173 3.77001V3.77001Z" fill="#194099" stroke="#194099"/>
<path d="M17.6172 25.9301C13.0356 25.9301 9.30713 22.2017 9.30713 17.6201C9.30713 13.0385 13.0356 9.31006 17.6172 9.31006C22.1987 9.31006 25.9272 13.0385 25.9272 17.6201C25.9272 22.2017 22.1987 25.9301 17.6172 25.9301ZM17.6172 12.0801C14.5618 12.0801 12.0771 14.5648 12.0771 17.6201C12.0771 20.6754 14.5618 23.1601 17.6172 23.1601C20.6725 23.1601 23.1572 20.6754 23.1572 17.6201C23.1572 14.5648 20.6725 12.0801 17.6172 12.0801Z" fill="#194099" stroke="#194099"/>
</svg>
