<svg width="57" height="58" viewBox="0 0 57 58" fill="none" xmlns="http://www.w3.org/2000/svg">
<path d="M44.995 56.9972C40.1214 56.9972 34.9368 55.5917 29.5843 52.8198C24.6501 50.2635 19.7764 46.6041 15.4889 42.2363C11.2014 37.8685 7.61013 32.9044 5.10037 27.8815C2.38147 22.4329 1 17.158 1 12.1994C1 8.9852 3.94456 5.88016 5.2077 4.69582C7.02672 2.9907 9.88872 1 11.9692 1C13.0039 1 14.2148 1.68877 15.7861 3.16709C16.9557 4.27024 18.2738 5.76536 19.592 7.49008C20.3873 8.53162 24.3528 13.8486 24.3528 16.3992C24.3528 18.4907 22.0275 19.9467 19.5672 21.4838C18.6151 22.0773 17.6326 22.6933 16.9226 23.2729C16.1631 23.8917 16.0283 24.2192 16.0063 24.292C18.6178 30.9165 26.6012 39.0389 33.1095 41.6932C33.1673 41.6736 33.4892 41.5448 34.1084 40.7608C34.6781 40.0384 35.2835 39.0361 35.8669 38.0701C37.3805 35.5671 38.8087 33.2012 40.8644 33.2012C43.3714 33.2012 48.5973 37.2358 49.621 38.0449C51.3162 39.3861 52.7857 40.7272 53.87 41.9172C55.323 43.5131 56 44.7478 56 45.8006C56 47.9173 54.0434 50.8375 52.3702 52.6966C51.2034 53.9901 48.1515 57 44.9923 57L44.995 56.9972ZM11.9554 3.79986C11.2179 3.81386 9.23376 4.73221 7.07626 6.75371C5.02882 8.67442 3.75468 10.7603 3.75468 12.1994C3.75468 31.0397 26.4966 54.1973 44.995 54.1973C46.4068 54.1973 48.457 52.8954 50.3448 50.8011C52.3344 48.5948 53.2371 46.5677 53.2508 45.8146C53.1628 45.2826 51.7153 43.2135 47.7552 40.1112C44.3511 37.4458 41.5909 36.015 40.8809 35.9982C40.8314 36.0123 40.5232 36.1327 39.8985 36.939C39.3564 37.6418 38.7757 38.6021 38.2116 39.5317C36.6705 42.0823 35.2147 44.493 33.0985 44.493C32.7572 44.493 32.4215 44.4258 32.0995 44.2942C24.8757 41.3544 16.3337 32.6636 13.4442 25.314C13.0975 24.432 13.0424 23.0489 14.7486 21.4754C15.6568 20.6382 16.9116 19.8543 18.128 19.0927C19.0416 18.5215 19.9883 17.9308 20.6763 17.3764C21.4688 16.7408 21.5872 16.4272 21.6009 16.3768C21.5817 15.6545 20.1782 12.8462 17.5583 9.38279C14.5092 5.35379 12.4755 3.88386 11.9527 3.79147L11.9554 3.79986Z" fill="#194099" stroke="#194099"/>
</svg>
