<svg width="87" height="55" viewBox="0 0 87 55" fill="none" xmlns="http://www.w3.org/2000/svg">
<path d="M80.1316 0H6.86842C3.08163 0 0 3.08458 0 6.875V48.125C0 51.9154 3.08163 55 6.86842 55H80.1316C83.9184 55 87 51.9154 87 48.125V6.875C87 3.08458 83.9184 0 80.1316 0ZM80.1316 4.58333C80.2689 4.58333 80.3972 4.59708 80.5299 4.62L46.0413 27.6329C44.7134 28.5175 42.2912 28.5175 40.9633 27.6329L6.47463 4.61999C6.60284 4.59708 6.73563 4.58333 6.873 4.58333H80.1361H80.1316ZM80.1316 50.4167H6.86842C5.60463 50.4167 4.57895 49.39 4.57895 48.125V8.86417L38.4219 31.4462C39.846 32.395 41.673 32.8717 43.5 32.8717C45.327 32.8717 47.154 32.395 48.578 31.4462L82.4211 8.86417V48.125C82.4211 49.39 81.3954 50.4167 80.1316 50.4167Z" fill="#194099"/>
</svg>
