<svg width="363" height="104" viewBox="0 0 363 104" fill="none" xmlns="http://www.w3.org/2000/svg">
<path d="M2.94 103V83.4H5.236L18.2 99.5H16.996V83.4H19.796V103H17.5L4.536 86.9H5.74V103H2.94ZM34.5107 103.224C33.0173 103.224 31.6267 102.972 30.3387 102.468C29.0693 101.964 27.968 101.264 27.0347 100.368C26.1013 99.4533 25.3733 98.3893 24.8507 97.176C24.328 95.9627 24.0667 94.6373 24.0667 93.2C24.0667 91.7627 24.328 90.4373 24.8507 89.224C25.3733 88.0107 26.1013 86.956 27.0347 86.06C27.968 85.1453 29.0693 84.436 30.3387 83.932C31.608 83.428 32.9987 83.176 34.5107 83.176C36.004 83.176 37.376 83.428 38.6267 83.932C39.896 84.4173 40.9973 85.1173 41.9307 86.032C42.8827 86.928 43.6107 87.9827 44.1147 89.196C44.6373 90.4093 44.8987 91.744 44.8987 93.2C44.8987 94.656 44.6373 95.9907 44.1147 97.204C43.6107 98.4173 42.8827 99.4813 41.9307 100.396C40.9973 101.292 39.896 101.992 38.6267 102.496C37.376 102.981 36.004 103.224 34.5107 103.224ZM34.5107 100.732C35.5933 100.732 36.592 100.545 37.5067 100.172C38.44 99.7987 39.2427 99.276 39.9147 98.604C40.6053 97.9133 41.1373 97.1107 41.5107 96.196C41.9027 95.2813 42.0987 94.2827 42.0987 93.2C42.0987 92.1173 41.9027 91.1187 41.5107 90.204C41.1373 89.2893 40.6053 88.496 39.9147 87.824C39.2427 87.1333 38.44 86.6013 37.5067 86.228C36.592 85.8547 35.5933 85.668 34.5107 85.668C33.4093 85.668 32.392 85.8547 31.4587 86.228C30.544 86.6013 29.7413 87.1333 29.0507 87.824C28.36 88.496 27.8187 89.2893 27.4267 90.204C27.0533 91.1187 26.8667 92.1173 26.8667 93.2C26.8667 94.2827 27.0533 95.2813 27.4267 96.196C27.8187 97.1107 28.36 97.9133 29.0507 98.604C29.7413 99.276 30.544 99.7987 31.4587 100.172C32.392 100.545 33.4093 100.732 34.5107 100.732ZM57.2983 103.224C54.7223 103.224 52.6969 102.487 51.2223 101.012C49.7476 99.5373 49.0103 97.3813 49.0103 94.544V83.4H51.8103V94.432C51.8103 96.616 52.2863 98.212 53.2383 99.22C54.2089 100.228 55.5716 100.732 57.3263 100.732C59.0996 100.732 60.4623 100.228 61.4143 99.22C62.3849 98.212 62.8703 96.616 62.8703 94.432V83.4H65.5863V94.544C65.5863 97.3813 64.8489 99.5373 63.3743 101.012C61.9183 102.487 59.8929 103.224 57.2983 103.224ZM77.0387 103.224C75.5454 103.224 74.1174 103 72.7547 102.552C71.3921 102.085 70.3187 101.488 69.5347 100.76L70.5707 98.576C71.3174 99.2293 72.2694 99.7707 73.4267 100.2C74.5841 100.629 75.7881 100.844 77.0387 100.844C78.1774 100.844 79.1014 100.713 79.8107 100.452C80.5201 100.191 81.0427 99.836 81.3787 99.388C81.7147 98.9213 81.8827 98.3987 81.8827 97.82C81.8827 97.148 81.6587 96.6067 81.2107 96.196C80.7814 95.7853 80.2121 95.4587 79.5027 95.216C78.8121 94.9547 78.0467 94.7307 77.2067 94.544C76.3667 94.3573 75.5174 94.1427 74.6587 93.9C73.8187 93.6387 73.0441 93.312 72.3347 92.92C71.6441 92.528 71.0841 92.0053 70.6547 91.352C70.2254 90.68 70.0107 89.8213 70.0107 88.776C70.0107 87.768 70.2721 86.844 70.7947 86.004C71.3361 85.1453 72.1574 84.464 73.2587 83.96C74.3787 83.4373 75.7974 83.176 77.5147 83.176C78.6534 83.176 79.7827 83.3253 80.9027 83.624C82.0227 83.9227 82.9934 84.352 83.8147 84.912L82.8907 87.152C82.0507 86.592 81.1641 86.1907 80.2307 85.948C79.2974 85.6867 78.3921 85.556 77.5147 85.556C76.4134 85.556 75.5081 85.696 74.7987 85.976C74.0894 86.256 73.5667 86.6293 73.2307 87.096C72.9134 87.5627 72.7547 88.0853 72.7547 88.664C72.7547 89.3547 72.9694 89.9053 73.3987 90.316C73.8467 90.7267 74.4161 91.0533 75.1067 91.296C75.8161 91.5387 76.5907 91.7627 77.4307 91.968C78.2707 92.1547 79.1107 92.3693 79.9507 92.612C80.8094 92.8547 81.5841 93.172 82.2747 93.564C82.9841 93.956 83.5534 94.4787 83.9827 95.132C84.4121 95.7853 84.6267 96.6253 84.6267 97.652C84.6267 98.6413 84.3561 99.5653 83.8147 100.424C83.2734 101.264 82.4334 101.945 81.2947 102.468C80.1747 102.972 78.7561 103.224 77.0387 103.224ZM105.001 103.224C103.508 103.224 102.126 102.981 100.857 102.496C99.6062 101.992 98.5142 101.292 97.5809 100.396C96.6662 99.4813 95.9475 98.4173 95.4249 97.204C94.9022 95.9907 94.6409 94.656 94.6409 93.2C94.6409 91.744 94.9022 90.4093 95.4249 89.196C95.9475 87.9827 96.6755 86.928 97.6089 86.032C98.5422 85.1173 99.6342 84.4173 100.885 83.932C102.154 83.428 103.536 83.176 105.029 83.176C106.541 83.176 107.932 83.4373 109.201 83.96C110.489 84.464 111.581 85.22 112.477 86.228L110.657 87.992C109.91 87.208 109.07 86.6293 108.137 86.256C107.204 85.864 106.205 85.668 105.141 85.668C104.04 85.668 103.013 85.8547 102.061 86.228C101.128 86.6013 100.316 87.124 99.6249 87.796C98.9342 88.468 98.3929 89.2707 98.0009 90.204C97.6275 91.1187 97.4409 92.1173 97.4409 93.2C97.4409 94.2827 97.6275 95.2907 98.0009 96.224C98.3929 97.1387 98.9342 97.932 99.6249 98.604C100.316 99.276 101.128 99.7987 102.061 100.172C103.013 100.545 104.04 100.732 105.141 100.732C106.205 100.732 107.204 100.545 108.137 100.172C109.07 99.78 109.91 99.1827 110.657 98.38L112.477 100.144C111.581 101.152 110.489 101.917 109.201 102.44C107.932 102.963 106.532 103.224 105.001 103.224ZM124.909 103.224C123.416 103.224 122.025 102.972 120.737 102.468C119.468 101.964 118.366 101.264 117.433 100.368C116.5 99.4533 115.772 98.3893 115.249 97.176C114.726 95.9627 114.465 94.6373 114.465 93.2C114.465 91.7627 114.726 90.4373 115.249 89.224C115.772 88.0107 116.5 86.956 117.433 86.06C118.366 85.1453 119.468 84.436 120.737 83.932C122.006 83.428 123.397 83.176 124.909 83.176C126.402 83.176 127.774 83.428 129.025 83.932C130.294 84.4173 131.396 85.1173 132.329 86.032C133.281 86.928 134.009 87.9827 134.513 89.196C135.036 90.4093 135.297 91.744 135.297 93.2C135.297 94.656 135.036 95.9907 134.513 97.204C134.009 98.4173 133.281 99.4813 132.329 100.396C131.396 101.292 130.294 101.992 129.025 102.496C127.774 102.981 126.402 103.224 124.909 103.224ZM124.909 100.732C125.992 100.732 126.99 100.545 127.905 100.172C128.838 99.7987 129.641 99.276 130.313 98.604C131.004 97.9133 131.536 97.1107 131.909 96.196C132.301 95.2813 132.497 94.2827 132.497 93.2C132.497 92.1173 132.301 91.1187 131.909 90.204C131.536 89.2893 131.004 88.496 130.313 87.824C129.641 87.1333 128.838 86.6013 127.905 86.228C126.99 85.8547 125.992 85.668 124.909 85.668C123.808 85.668 122.79 85.8547 121.857 86.228C120.942 86.6013 120.14 87.1333 119.449 87.824C118.758 88.496 118.217 89.2893 117.825 90.204C117.452 91.1187 117.265 92.1173 117.265 93.2C117.265 94.2827 117.452 95.2813 117.825 96.196C118.217 97.1107 118.758 97.9133 119.449 98.604C120.14 99.276 120.942 99.7987 121.857 100.172C122.79 100.545 123.808 100.732 124.909 100.732ZM139.577 103V83.4H141.873L154.837 99.5H153.633V83.4H156.433V103H154.137L141.173 86.9H142.377V103H139.577ZM166.191 103V85.836H159.471V83.4H175.683V85.836H168.963V103H166.191ZM174.781 103L183.657 83.4H186.429L195.333 103H192.393L184.469 84.968H185.589L177.665 103H174.781ZM178.561 98.1L179.317 95.86H190.349L191.161 98.1H178.561ZM206.747 103.224C205.254 103.224 203.872 102.981 202.603 102.496C201.352 101.992 200.26 101.292 199.327 100.396C198.412 99.4813 197.694 98.4173 197.171 97.204C196.648 95.9907 196.387 94.656 196.387 93.2C196.387 91.744 196.648 90.4093 197.171 89.196C197.694 87.9827 198.422 86.928 199.355 86.032C200.288 85.1173 201.38 84.4173 202.631 83.932C203.9 83.428 205.282 83.176 206.775 83.176C208.287 83.176 209.678 83.4373 210.947 83.96C212.235 84.464 213.327 85.22 214.223 86.228L212.403 87.992C211.656 87.208 210.816 86.6293 209.883 86.256C208.95 85.864 207.951 85.668 206.887 85.668C205.786 85.668 204.759 85.8547 203.807 86.228C202.874 86.6013 202.062 87.124 201.371 87.796C200.68 88.468 200.139 89.2707 199.747 90.204C199.374 91.1187 199.187 92.1173 199.187 93.2C199.187 94.2827 199.374 95.2907 199.747 96.224C200.139 97.1387 200.68 97.932 201.371 98.604C202.062 99.276 202.874 99.7987 203.807 100.172C204.759 100.545 205.786 100.732 206.887 100.732C207.951 100.732 208.95 100.545 209.883 100.172C210.816 99.78 211.656 99.1827 212.403 98.38L214.223 100.144C213.327 101.152 212.235 101.917 210.947 102.44C209.678 102.963 208.278 103.224 206.747 103.224ZM221.891 103V85.836H215.171V83.4H231.383V85.836H224.663V103H221.891ZM236.98 91.856H247.06V94.236H236.98V91.856ZM237.232 100.564H248.656V103H234.432V83.4H248.264V85.836H237.232V100.564ZM253.19 103V83.4H260.834C262.551 83.4 264.017 83.6707 265.23 84.212C266.443 84.7533 267.377 85.5373 268.03 86.564C268.683 87.5907 269.01 88.8133 269.01 90.232C269.01 91.6507 268.683 92.8733 268.03 93.9C267.377 94.908 266.443 95.6827 265.23 96.224C264.017 96.7653 262.551 97.036 260.834 97.036H254.73L255.99 95.748V103H253.19ZM266.294 103L261.31 95.888H264.306L269.346 103H266.294ZM255.99 96.028L254.73 94.656H260.75C262.542 94.656 263.895 94.2733 264.81 93.508C265.743 92.724 266.21 91.632 266.21 90.232C266.21 88.832 265.743 87.7493 264.81 86.984C263.895 86.2187 262.542 85.836 260.75 85.836H254.73L255.99 84.436V96.028Z" fill="#194099"/>
<path d="M7.728 28.128H11.508C12.292 27.148 12.908 25.72 13.356 23.844C13.832 21.968 14.07 20.106 14.07 18.258C14.07 13.862 13.244 10.656 11.592 8.64H7.728V28.128ZM2.016 33V3.6H14.196C18.172 7.128 20.16 11.916 20.16 17.964C20.16 23.984 18.298 28.996 14.574 33H2.016ZM23.4262 33V3.6H29.1802V28.128H37.9162V33H23.4262ZM53.5883 3.6H64.7603C66.5243 4.188 68.0223 5.28 69.2543 6.876C70.5143 8.444 71.1443 10.376 71.1443 12.672C71.1443 16.424 69.6603 19.182 66.6923 20.946L70.9343 33H65.0543L61.4843 22.29H59.2583V33H53.5883V3.6ZM59.2583 8.64V17.586H62.8703C63.3463 17.474 63.8643 16.998 64.4243 16.158C65.0123 15.29 65.3063 14.282 65.3063 13.134C65.3063 11.986 65.0543 10.978 64.5503 10.11C64.0743 9.242 63.5983 8.752 63.1223 8.64H59.2583ZM74.1781 33V3.6H89.2561V8.64H79.9321V15.654H88.2481V20.526H79.9321V28.128H89.4241V33H74.1781ZM92.6762 33V3.6H108.006V8.64H98.4302V15.99H106.746V20.862H98.4302V33H92.6762ZM110.436 3.6H121.608C123.372 4.188 124.87 5.28 126.102 6.876C127.362 8.444 127.992 10.376 127.992 12.672C127.992 16.424 126.508 19.182 123.54 20.946L127.782 33H121.902L118.332 22.29H116.106V33H110.436V3.6ZM116.106 8.64V17.586H119.718C120.194 17.474 120.712 16.998 121.272 16.158C121.86 15.29 122.154 14.282 122.154 13.134C122.154 11.986 121.902 10.978 121.398 10.11C120.922 9.242 120.446 8.752 119.97 8.64H116.106ZM131.026 33V3.6H136.78V33H131.026ZM154.773 33H145.869C143.853 31.152 142.383 28.954 141.459 26.406C140.535 23.858 140.073 21.198 140.073 18.426C140.073 15.626 140.633 12.868 141.753 10.152C142.873 7.436 144.441 5.252 146.457 3.6H156.663V8.64H148.851C148.123 9.48 147.493 10.81 146.961 12.63C146.429 14.422 146.163 16.34 146.163 18.384C146.163 20.4 146.401 22.332 146.877 24.18C147.381 26 147.997 27.316 148.725 28.128H152.757V16.704H158.301V23.76C158.301 27.624 157.125 30.704 154.773 33ZM161.582 33V3.6H176.66V8.64H167.336V15.654H175.652V20.526H167.336V28.128H176.828V33H161.582ZM180.08 3.6H191.252C193.016 4.188 194.514 5.28 195.746 6.876C197.006 8.444 197.636 10.376 197.636 12.672C197.636 16.424 196.152 19.182 193.184 20.946L197.426 33H191.546L187.976 22.29H185.75V33H180.08V3.6ZM185.75 8.64V17.586H189.362C189.838 17.474 190.356 16.998 190.916 16.158C191.504 15.29 191.798 14.282 191.798 13.134C191.798 11.986 191.546 10.978 191.042 10.11C190.566 9.242 190.09 8.752 189.614 8.64H185.75ZM213.186 33L212.304 28.338H205.668L204.786 33H199.074L204.744 3.6H213.438L218.814 33H213.186ZM208.902 9.06L207.264 18.846L206.34 23.844H211.59L210.624 18.846L208.986 9.06H208.902ZM223.463 8.64H217.121V3.6H235.517V8.64H229.175V33H223.463V8.64ZM237.954 33V3.6H243.708V33H237.954ZM261.448 3.6C263.408 5.196 264.864 7.338 265.816 10.026C266.768 12.714 267.244 15.486 267.244 18.342C267.244 21.17 266.782 23.858 265.858 26.406C264.934 28.954 263.464 31.152 261.448 33H252.796C250.78 31.152 249.31 28.954 248.386 26.406C247.462 23.858 247 21.17 247 18.342C247 15.486 247.476 12.714 248.428 10.026C249.38 7.338 250.836 5.196 252.796 3.6H261.448ZM255.61 28.128H258.634C259.334 27.316 259.922 26 260.398 24.18C260.902 22.332 261.154 20.386 261.154 18.342C261.154 16.298 260.916 14.38 260.44 12.588C259.964 10.768 259.376 9.452 258.676 8.64H255.61C254.91 9.452 254.308 10.768 253.804 12.588C253.328 14.38 253.09 16.298 253.09 18.342C253.09 20.386 253.328 22.332 253.804 24.18C254.308 26 254.91 27.316 255.61 28.128ZM283.624 33L275.77 16.746L275.56 16.83L275.812 21.786V33H270.52V3.6H274.762L282.49 20.484L282.7 20.4L282.238 15.234V3.6H287.53V33H283.624Z" fill="#194099"/>
<line y1="57.5" x2="293" y2="57.5" stroke="#194099"/>
</svg>
