<svg width="298" height="88" viewBox="0 0 298 88" fill="none" xmlns="http://www.w3.org/2000/svg">
<path d="M2.73 81V62.8H4.862L16.9 77.75H15.782V62.8H18.382V81H16.25L4.212 66.05H5.33V81H2.73ZM32.0456 81.208C30.6589 81.208 29.3676 80.974 28.1716 80.506C26.9929 80.038 25.9703 79.388 25.1036 78.556C24.2369 77.7067 23.5609 76.7187 23.0756 75.592C22.5903 74.4653 22.3476 73.2347 22.3476 71.9C22.3476 70.5653 22.5903 69.3347 23.0756 68.208C23.5609 67.0813 24.2369 66.102 25.1036 65.27C25.9703 64.4207 26.9929 63.762 28.1716 63.294C29.3503 62.826 30.6416 62.592 32.0456 62.592C33.4323 62.592 34.7063 62.826 35.8676 63.294C37.0463 63.7447 38.0689 64.3947 38.9356 65.244C39.8196 66.076 40.4956 67.0553 40.9636 68.182C41.4489 69.3087 41.6916 70.548 41.6916 71.9C41.6916 73.252 41.4489 74.4913 40.9636 75.618C40.4956 76.7447 39.8196 77.7327 38.9356 78.582C38.0689 79.414 37.0463 80.064 35.8676 80.532C34.7063 80.9827 33.4323 81.208 32.0456 81.208ZM32.0456 78.894C33.0509 78.894 33.9783 78.7207 34.8276 78.374C35.6943 78.0273 36.4396 77.542 37.0636 76.918C37.7049 76.2767 38.1989 75.5313 38.5456 74.682C38.9096 73.8327 39.0916 72.9053 39.0916 71.9C39.0916 70.8947 38.9096 69.9673 38.5456 69.118C38.1989 68.2687 37.7049 67.532 37.0636 66.908C36.4396 66.2667 35.6943 65.7727 34.8276 65.426C33.9783 65.0793 33.0509 64.906 32.0456 64.906C31.0229 64.906 30.0783 65.0793 29.2116 65.426C28.3623 65.7727 27.6169 66.2667 26.9756 66.908C26.3343 67.532 25.8316 68.2687 25.4676 69.118C25.1209 69.9673 24.9476 70.8947 24.9476 71.9C24.9476 72.9053 25.1209 73.8327 25.4676 74.682C25.8316 75.5313 26.3343 76.2767 26.9756 76.918C27.6169 77.542 28.3623 78.0273 29.2116 78.374C30.0783 78.7207 31.0229 78.894 32.0456 78.894ZM50.9695 81.208C49.5829 81.208 48.2569 81 46.9915 80.584C45.7262 80.1507 44.7295 79.596 44.0015 78.92L44.9635 76.892C45.6569 77.4987 46.5409 78.0013 47.6155 78.4C48.6902 78.7987 49.8082 78.998 50.9695 78.998C52.0269 78.998 52.8849 78.8767 53.5435 78.634C54.2022 78.3913 54.6875 78.062 54.9995 77.646C55.3115 77.2127 55.4675 76.7273 55.4675 76.19C55.4675 75.566 55.2595 75.0633 54.8435 74.682C54.4449 74.3007 53.9162 73.9973 53.2575 73.772C52.6162 73.5293 51.9055 73.3213 51.1255 73.148C50.3455 72.9747 49.5569 72.7753 48.7595 72.55C47.9795 72.3073 47.2602 72.004 46.6015 71.64C45.9602 71.276 45.4402 70.7907 45.0415 70.184C44.6429 69.56 44.4435 68.7627 44.4435 67.792C44.4435 66.856 44.6862 65.998 45.1715 65.218C45.6742 64.4207 46.4369 63.788 47.4595 63.32C48.4995 62.8347 49.8169 62.592 51.4115 62.592C52.4689 62.592 53.5175 62.7307 54.5575 63.008C55.5975 63.2853 56.4989 63.684 57.2615 64.204L56.4035 66.284C55.6235 65.764 54.8002 65.3913 53.9335 65.166C53.0669 64.9233 52.2262 64.802 51.4115 64.802C50.3889 64.802 49.5482 64.932 48.8895 65.192C48.2309 65.452 47.7455 65.7987 47.4335 66.232C47.1389 66.6653 46.9915 67.1507 46.9915 67.688C46.9915 68.3293 47.1909 68.8407 47.5895 69.222C48.0055 69.6033 48.5342 69.9067 49.1755 70.132C49.8342 70.3573 50.5535 70.5653 51.3335 70.756C52.1135 70.9293 52.8935 71.1287 53.6735 71.354C54.4709 71.5793 55.1902 71.874 55.8315 72.238C56.4902 72.602 57.0189 73.0873 57.4175 73.694C57.8162 74.3007 58.0155 75.0807 58.0155 76.034C58.0155 76.9527 57.7642 77.8107 57.2615 78.608C56.7589 79.388 55.9789 80.0207 54.9215 80.506C53.8815 80.974 52.5642 81.208 50.9695 81.208ZM68.7964 81V62.8H75.8944C77.4891 62.8 78.8497 63.0513 79.9764 63.554C81.1031 64.0567 81.9697 64.7847 82.5764 65.738C83.1831 66.6913 83.4864 67.8267 83.4864 69.144C83.4864 70.4613 83.1831 71.5967 82.5764 72.55C81.9697 73.486 81.1031 74.214 79.9764 74.734C78.8497 75.2367 77.4891 75.488 75.8944 75.488H70.2264L71.3964 74.266V81H68.7964ZM71.3964 74.526L70.2264 73.226H75.8164C77.4804 73.226 78.7371 72.8707 79.5864 72.16C80.4531 71.4493 80.8864 70.444 80.8864 69.144C80.8864 67.844 80.4531 66.8387 79.5864 66.128C78.7371 65.4173 77.4804 65.062 75.8164 65.062H70.2264L71.3964 63.762V74.526ZM87.3062 81V62.8H94.4042C95.9988 62.8 97.3595 63.0513 98.4862 63.554C99.6128 64.0567 100.48 64.7847 101.086 65.738C101.693 66.6913 101.996 67.8267 101.996 69.144C101.996 70.4613 101.693 71.5967 101.086 72.55C100.48 73.486 99.6128 74.2053 98.4862 74.708C97.3595 75.2107 95.9988 75.462 94.4042 75.462H88.7362L89.9062 74.266V81H87.3062ZM99.4742 81L94.8462 74.396H97.6282L102.308 81H99.4742ZM89.9062 74.526L88.7362 73.252H94.3262C95.9902 73.252 97.2468 72.8967 98.0962 72.186C98.9628 71.458 99.3962 70.444 99.3962 69.144C99.3962 67.844 98.9628 66.8387 98.0962 66.128C97.2468 65.4173 95.9902 65.062 94.3262 65.062H88.7362L89.9062 63.762V74.526ZM108.563 70.652H117.923V72.862H108.563V70.652ZM108.797 78.738H119.405V81H106.197V62.8H119.041V65.062H108.797V78.738ZM128.919 81.208C127.532 81.208 126.206 81 124.941 80.584C123.675 80.1507 122.679 79.596 121.951 78.92L122.913 76.892C123.606 77.4987 124.49 78.0013 125.565 78.4C126.639 78.7987 127.757 78.998 128.919 78.998C129.976 78.998 130.834 78.8767 131.493 78.634C132.151 78.3913 132.637 78.062 132.949 77.646C133.261 77.2127 133.417 76.7273 133.417 76.19C133.417 75.566 133.209 75.0633 132.793 74.682C132.394 74.3007 131.865 73.9973 131.207 73.772C130.565 73.5293 129.855 73.3213 129.075 73.148C128.295 72.9747 127.506 72.7753 126.709 72.55C125.929 72.3073 125.209 72.004 124.551 71.64C123.909 71.276 123.389 70.7907 122.991 70.184C122.592 69.56 122.393 68.7627 122.393 67.792C122.393 66.856 122.635 65.998 123.121 65.218C123.623 64.4207 124.386 63.788 125.409 63.32C126.449 62.8347 127.766 62.592 129.361 62.592C130.418 62.592 131.467 62.7307 132.507 63.008C133.547 63.2853 134.448 63.684 135.211 64.204L134.353 66.284C133.573 65.764 132.749 65.3913 131.883 65.166C131.016 64.9233 130.175 64.802 129.361 64.802C128.338 64.802 127.497 64.932 126.839 65.192C126.18 65.452 125.695 65.7987 125.383 66.232C125.088 66.6653 124.941 67.1507 124.941 67.688C124.941 68.3293 125.14 68.8407 125.539 69.222C125.955 69.6033 126.483 69.9067 127.125 70.132C127.783 70.3573 128.503 70.5653 129.283 70.756C130.063 70.9293 130.843 71.1287 131.623 71.354C132.42 71.5793 133.139 71.874 133.781 72.238C134.439 72.602 134.968 73.0873 135.367 73.694C135.765 74.3007 135.965 75.0807 135.965 76.034C135.965 76.9527 135.713 77.8107 135.211 78.608C134.708 79.388 133.928 80.0207 132.871 80.506C131.831 80.974 130.513 81.208 128.919 81.208ZM143.123 81V65.062H136.883V62.8H151.937V65.062H145.697V81H143.123ZM151.099 81L159.341 62.8H161.915L170.183 81H167.453L160.095 64.256H161.135L153.777 81H151.099ZM154.609 76.45L155.311 74.37H165.555L166.309 76.45H154.609ZM175.598 81V65.062H169.358V62.8H184.412V65.062H178.172V81H175.598ZM187.244 81V62.8H189.844V81H187.244ZM203.509 81.208C202.122 81.208 200.831 80.974 199.635 80.506C198.456 80.038 197.433 79.388 196.567 78.556C195.7 77.7067 195.024 76.7187 194.539 75.592C194.053 74.4653 193.811 73.2347 193.811 71.9C193.811 70.5653 194.053 69.3347 194.539 68.208C195.024 67.0813 195.7 66.102 196.567 65.27C197.433 64.4207 198.456 63.762 199.635 63.294C200.813 62.826 202.105 62.592 203.509 62.592C204.895 62.592 206.169 62.826 207.331 63.294C208.509 63.7447 209.532 64.3947 210.399 65.244C211.283 66.076 211.959 67.0553 212.427 68.182C212.912 69.3087 213.155 70.548 213.155 71.9C213.155 73.252 212.912 74.4913 212.427 75.618C211.959 76.7447 211.283 77.7327 210.399 78.582C209.532 79.414 208.509 80.064 207.331 80.532C206.169 80.9827 204.895 81.208 203.509 81.208ZM203.509 78.894C204.514 78.894 205.441 78.7207 206.29 78.374C207.157 78.0273 207.903 77.542 208.527 76.918C209.168 76.2767 209.662 75.5313 210.009 74.682C210.373 73.8327 210.555 72.9053 210.555 71.9C210.555 70.8947 210.373 69.9673 210.009 69.118C209.662 68.2687 209.168 67.532 208.527 66.908C207.903 66.2667 207.157 65.7727 206.29 65.426C205.441 65.0793 204.514 64.906 203.509 64.906C202.486 64.906 201.541 65.0793 200.675 65.426C199.825 65.7727 199.08 66.2667 198.439 66.908C197.797 67.532 197.295 68.2687 196.931 69.118C196.584 69.9673 196.411 70.8947 196.411 71.9C196.411 72.9053 196.584 73.8327 196.931 74.682C197.295 75.5313 197.797 76.2767 198.439 76.918C199.08 77.542 199.825 78.0273 200.675 78.374C201.541 78.7207 202.486 78.894 203.509 78.894ZM217.128 81V62.8H219.26L231.298 77.75H230.18V62.8H232.78V81H230.648L218.61 66.05H219.728V81H217.128ZM243.532 81.208C242.145 81.208 240.819 81 239.554 80.584C238.289 80.1507 237.292 79.596 236.564 78.92L237.526 76.892C238.219 77.4987 239.103 78.0013 240.178 78.4C241.253 78.7987 242.371 78.998 243.532 78.998C244.589 78.998 245.447 78.8767 246.106 78.634C246.765 78.3913 247.25 78.062 247.562 77.646C247.874 77.2127 248.03 76.7273 248.03 76.19C248.03 75.566 247.822 75.0633 247.406 74.682C247.007 74.3007 246.479 73.9973 245.82 73.772C245.179 73.5293 244.468 73.3213 243.688 73.148C242.908 72.9747 242.119 72.7753 241.322 72.55C240.542 72.3073 239.823 72.004 239.164 71.64C238.523 71.276 238.003 70.7907 237.604 70.184C237.205 69.56 237.006 68.7627 237.006 67.792C237.006 66.856 237.249 65.998 237.734 65.218C238.237 64.4207 238.999 63.788 240.022 63.32C241.062 62.8347 242.379 62.592 243.974 62.592C245.031 62.592 246.08 62.7307 247.12 63.008C248.16 63.2853 249.061 63.684 249.824 64.204L248.966 66.284C248.186 65.764 247.363 65.3913 246.496 65.166C245.629 64.9233 244.789 64.802 243.974 64.802C242.951 64.802 242.111 64.932 241.452 65.192C240.793 65.452 240.308 65.7987 239.996 66.232C239.701 66.6653 239.554 67.1507 239.554 67.688C239.554 68.3293 239.753 68.8407 240.152 69.222C240.568 69.6033 241.097 69.9067 241.738 70.132C242.397 70.3573 243.116 70.5653 243.896 70.756C244.676 70.9293 245.456 71.1287 246.236 71.354C247.033 71.5793 247.753 71.874 248.394 72.238C249.053 72.602 249.581 73.0873 249.98 73.694C250.379 74.3007 250.578 75.0807 250.578 76.034C250.578 76.9527 250.327 77.8107 249.824 78.608C249.321 79.388 248.541 80.0207 247.484 80.506C246.444 80.974 245.127 81.208 243.532 81.208Z" fill="#194099"/>
<path d="M7.36 28.36H10.96C11.7067 27.4267 12.2933 26.0667 12.72 24.28C13.1733 22.4933 13.4 20.72 13.4 18.96C13.4 14.7733 12.6133 11.72 11.04 9.8H7.36V28.36ZM1.92 33V5H13.52C17.3067 8.36 19.2 12.92 19.2 18.68C19.2 24.4133 17.4267 29.1867 13.88 33H1.92ZM22.3106 33V5H27.7906V28.36H36.1106V33H22.3106ZM51.6466 5H62.2866C63.9666 5.56 65.3932 6.6 66.5666 8.12C67.7666 9.61333 68.3666 11.4533 68.3666 13.64C68.3666 17.2133 66.9532 19.84 64.1266 21.52L68.1666 33H62.5666L59.1666 22.8H57.0466V33H51.6466V5ZM57.0466 9.8V18.32H60.4866C60.9399 18.2133 61.4332 17.76 61.9666 16.96C62.5266 16.1333 62.8066 15.1733 62.8066 14.08C62.8066 12.9867 62.5666 12.0267 62.0866 11.2C61.6332 10.3733 61.1799 9.90667 60.7266 9.8H57.0466ZM71.2559 33V5H85.6159V9.8H76.7359V16.48H84.6559V21.12H76.7359V28.36H85.7759V33H71.2559ZM88.8731 33V5H103.473V9.8H94.3531V16.8H102.273V21.44H94.3531V33H88.8731ZM105.787 5H116.427C118.107 5.56 119.534 6.6 120.707 8.12C121.907 9.61333 122.507 11.4533 122.507 13.64C122.507 17.2133 121.094 19.84 118.267 21.52L122.307 33H116.707L113.307 22.8H111.187V33H105.787V5ZM111.187 9.8V18.32H114.627C115.081 18.2133 115.574 17.76 116.107 16.96C116.667 16.1333 116.947 15.1733 116.947 14.08C116.947 12.9867 116.707 12.0267 116.227 11.2C115.774 10.3733 115.321 9.90667 114.867 9.8H111.187ZM125.397 33V5H130.877V33H125.397ZM148.013 33H139.533C137.613 31.24 136.213 29.1467 135.333 26.72C134.453 24.2933 134.013 21.76 134.013 19.12C134.013 16.4533 134.546 13.8267 135.613 11.24C136.679 8.65333 138.173 6.57333 140.093 5H149.813V9.8H142.373C141.679 10.6 141.079 11.8667 140.573 13.6C140.066 15.3067 139.813 17.1333 139.813 19.08C139.813 21 140.039 22.84 140.493 24.6C140.973 26.3333 141.559 27.5867 142.253 28.36H146.093V17.48H151.373V24.2C151.373 27.88 150.253 30.8133 148.013 33ZM154.498 33V5H168.858V9.8H159.978V16.48H167.898V21.12H159.978V28.36H169.018V33H154.498ZM172.115 5H182.755C184.435 5.56 185.862 6.6 187.035 8.12C188.235 9.61333 188.835 11.4533 188.835 13.64C188.835 17.2133 187.422 19.84 184.595 21.52L188.635 33H183.035L179.635 22.8H177.515V33H172.115V5ZM177.515 9.8V18.32H180.955C181.409 18.2133 181.902 17.76 182.435 16.96C182.995 16.1333 183.275 15.1733 183.275 14.08C183.275 12.9867 183.035 12.0267 182.555 11.2C182.102 10.3733 181.649 9.90667 181.195 9.8H177.515ZM203.645 33L202.805 28.56H196.485L195.645 33H190.205L195.605 5H203.885L209.005 33H203.645ZM199.565 10.2L198.005 19.52L197.125 24.28H202.125L201.205 19.52L199.645 10.2H199.565ZM213.432 9.8H207.392V5H224.912V9.8H218.872V33H213.432V9.8ZM227.233 33V5H232.713V33H227.233ZM249.608 5C251.475 6.52 252.862 8.56 253.768 11.12C254.675 13.68 255.128 16.32 255.128 19.04C255.128 21.7333 254.688 24.2933 253.808 26.72C252.928 29.1467 251.528 31.24 249.608 33H241.368C239.448 31.24 238.048 29.1467 237.168 26.72C236.288 24.2933 235.848 21.7333 235.848 19.04C235.848 16.32 236.302 13.68 237.208 11.12C238.115 8.56 239.502 6.52 241.368 5H249.608ZM244.048 28.36H246.928C247.595 27.5867 248.155 26.3333 248.608 24.6C249.088 22.84 249.328 20.9867 249.328 19.04C249.328 17.0933 249.102 15.2667 248.648 13.56C248.195 11.8267 247.635 10.5733 246.968 9.8H244.048C243.382 10.5733 242.808 11.8267 242.328 13.56C241.875 15.2667 241.648 17.0933 241.648 19.04C241.648 20.9867 241.875 22.84 242.328 24.6C242.808 26.3333 243.382 27.5867 244.048 28.36ZM270.728 33L263.248 17.52L263.048 17.6L263.288 22.32V33H258.248V5H262.288L269.648 21.08L269.848 21L269.408 16.08V5H274.448V33H270.728Z" fill="#194099"/>
<path d="M1.5 48L275 46" stroke="#194099"/>
</svg>
