<svg width="325" height="88" viewBox="0 0 325 88" fill="none" xmlns="http://www.w3.org/2000/svg">
<path d="M2.73 81V62.8H4.862L16.9 77.75H15.782V62.8H18.382V81H16.25L4.212 66.05H5.33V81H2.73ZM32.0456 81.208C30.6589 81.208 29.3676 80.974 28.1716 80.506C26.9929 80.038 25.9703 79.388 25.1036 78.556C24.2369 77.7067 23.5609 76.7187 23.0756 75.592C22.5903 74.4653 22.3476 73.2347 22.3476 71.9C22.3476 70.5653 22.5903 69.3347 23.0756 68.208C23.5609 67.0813 24.2369 66.102 25.1036 65.27C25.9703 64.4207 26.9929 63.762 28.1716 63.294C29.3503 62.826 30.6416 62.592 32.0456 62.592C33.4323 62.592 34.7063 62.826 35.8676 63.294C37.0463 63.7447 38.0689 64.3947 38.9356 65.244C39.8196 66.076 40.4956 67.0553 40.9636 68.182C41.4489 69.3087 41.6916 70.548 41.6916 71.9C41.6916 73.252 41.4489 74.4913 40.9636 75.618C40.4956 76.7447 39.8196 77.7327 38.9356 78.582C38.0689 79.414 37.0463 80.064 35.8676 80.532C34.7063 80.9827 33.4323 81.208 32.0456 81.208ZM32.0456 78.894C33.0509 78.894 33.9783 78.7207 34.8276 78.374C35.6943 78.0273 36.4396 77.542 37.0636 76.918C37.7049 76.2767 38.1989 75.5313 38.5456 74.682C38.9096 73.8327 39.0916 72.9053 39.0916 71.9C39.0916 70.8947 38.9096 69.9673 38.5456 69.118C38.1989 68.2687 37.7049 67.532 37.0636 66.908C36.4396 66.2667 35.6943 65.7727 34.8276 65.426C33.9783 65.0793 33.0509 64.906 32.0456 64.906C31.0229 64.906 30.0783 65.0793 29.2116 65.426C28.3623 65.7727 27.6169 66.2667 26.9756 66.908C26.3343 67.532 25.8316 68.2687 25.4676 69.118C25.1209 69.9673 24.9476 70.8947 24.9476 71.9C24.9476 72.9053 25.1209 73.8327 25.4676 74.682C25.8316 75.5313 26.3343 76.2767 26.9756 76.918C27.6169 77.542 28.3623 78.0273 29.2116 78.374C30.0783 78.7207 31.0229 78.894 32.0456 78.894ZM50.9695 81.208C49.5829 81.208 48.2569 81 46.9915 80.584C45.7262 80.1507 44.7295 79.596 44.0015 78.92L44.9635 76.892C45.6569 77.4987 46.5409 78.0013 47.6155 78.4C48.6902 78.7987 49.8082 78.998 50.9695 78.998C52.0269 78.998 52.8849 78.8767 53.5435 78.634C54.2022 78.3913 54.6875 78.062 54.9995 77.646C55.3115 77.2127 55.4675 76.7273 55.4675 76.19C55.4675 75.566 55.2595 75.0633 54.8435 74.682C54.4449 74.3007 53.9162 73.9973 53.2575 73.772C52.6162 73.5293 51.9055 73.3213 51.1255 73.148C50.3455 72.9747 49.5569 72.7753 48.7595 72.55C47.9795 72.3073 47.2602 72.004 46.6015 71.64C45.9602 71.276 45.4402 70.7907 45.0415 70.184C44.6429 69.56 44.4435 68.7627 44.4435 67.792C44.4435 66.856 44.6862 65.998 45.1715 65.218C45.6742 64.4207 46.4369 63.788 47.4595 63.32C48.4995 62.8347 49.8169 62.592 51.4115 62.592C52.4689 62.592 53.5175 62.7307 54.5575 63.008C55.5975 63.2853 56.4989 63.684 57.2615 64.204L56.4035 66.284C55.6235 65.764 54.8002 65.3913 53.9335 65.166C53.0669 64.9233 52.2262 64.802 51.4115 64.802C50.3889 64.802 49.5482 64.932 48.8895 65.192C48.2309 65.452 47.7455 65.7987 47.4335 66.232C47.1389 66.6653 46.9915 67.1507 46.9915 67.688C46.9915 68.3293 47.1909 68.8407 47.5895 69.222C48.0055 69.6033 48.5342 69.9067 49.1755 70.132C49.8342 70.3573 50.5535 70.5653 51.3335 70.756C52.1135 70.9293 52.8935 71.1287 53.6735 71.354C54.4709 71.5793 55.1902 71.874 55.8315 72.238C56.4902 72.602 57.0189 73.0873 57.4175 73.694C57.8162 74.3007 58.0155 75.0807 58.0155 76.034C58.0155 76.9527 57.7642 77.8107 57.2615 78.608C56.7589 79.388 55.9789 80.0207 54.9215 80.506C53.8815 80.974 52.5642 81.208 50.9695 81.208ZM74.1004 81.208C72.7137 81.208 71.3877 81 70.1224 80.584C68.8571 80.1507 67.8604 79.596 67.1324 78.92L68.0944 76.892C68.7877 77.4987 69.6717 78.0013 70.7464 78.4C71.8211 78.7987 72.9391 78.998 74.1004 78.998C75.1577 78.998 76.0157 78.8767 76.6744 78.634C77.3331 78.3913 77.8184 78.062 78.1304 77.646C78.4424 77.2127 78.5984 76.7273 78.5984 76.19C78.5984 75.566 78.3904 75.0633 77.9744 74.682C77.5757 74.3007 77.0471 73.9973 76.3884 73.772C75.7471 73.5293 75.0364 73.3213 74.2564 73.148C73.4764 72.9747 72.6877 72.7753 71.8904 72.55C71.1104 72.3073 70.3911 72.004 69.7324 71.64C69.0911 71.276 68.5711 70.7907 68.1724 70.184C67.7737 69.56 67.5744 68.7627 67.5744 67.792C67.5744 66.856 67.8171 65.998 68.3024 65.218C68.8051 64.4207 69.5677 63.788 70.5904 63.32C71.6304 62.8347 72.9477 62.592 74.5424 62.592C75.5997 62.592 76.6484 62.7307 77.6884 63.008C78.7284 63.2853 79.6297 63.684 80.3924 64.204L79.5344 66.284C78.7544 65.764 77.9311 65.3913 77.0644 65.166C76.1977 64.9233 75.3571 64.802 74.5424 64.802C73.5197 64.802 72.6791 64.932 72.0204 65.192C71.3617 65.452 70.8764 65.7987 70.5644 66.232C70.2697 66.6653 70.1224 67.1507 70.1224 67.688C70.1224 68.3293 70.3217 68.8407 70.7204 69.222C71.1364 69.6033 71.6651 69.9067 72.3064 70.132C72.9651 70.3573 73.6844 70.5653 74.4644 70.756C75.2444 70.9293 76.0244 71.1287 76.8044 71.354C77.6017 71.5793 78.3211 71.874 78.9624 72.238C79.6211 72.602 80.1497 73.0873 80.5484 73.694C80.9471 74.3007 81.1464 75.0807 81.1464 76.034C81.1464 76.9527 80.8951 77.8107 80.3924 78.608C79.8897 79.388 79.1097 80.0207 78.0524 80.506C77.0124 80.974 75.6951 81.208 74.1004 81.208ZM87.3108 70.652H96.6708V72.862H87.3108V70.652ZM87.5448 78.738H98.1528V81H84.9448V62.8H97.7888V65.062H87.5448V78.738ZM102.363 81V62.8H109.461C111.055 62.8 112.416 63.0513 113.543 63.554C114.669 64.0567 115.536 64.7847 116.143 65.738C116.749 66.6913 117.053 67.8267 117.053 69.144C117.053 70.4613 116.749 71.5967 116.143 72.55C115.536 73.486 114.669 74.2053 113.543 74.708C112.416 75.2107 111.055 75.462 109.461 75.462H103.793L104.963 74.266V81H102.363ZM114.531 81L109.903 74.396H112.685L117.365 81H114.531ZM104.963 74.526L103.793 73.252H109.383C111.047 73.252 112.303 72.8967 113.153 72.186C114.019 71.458 114.453 70.444 114.453 69.144C114.453 67.844 114.019 66.8387 113.153 66.128C112.303 65.4173 111.047 65.062 109.383 65.062H103.793L104.963 63.762V74.526ZM126.505 81L118.497 62.8H121.305L128.663 79.596H127.051L134.461 62.8H137.061L129.079 81H126.505ZM139.382 81V62.8H141.982V81H139.382ZM155.569 81.208C154.183 81.208 152.9 80.9827 151.721 80.532C150.56 80.064 149.546 79.414 148.679 78.582C147.83 77.7327 147.163 76.7447 146.677 75.618C146.192 74.4913 145.949 73.252 145.949 71.9C145.949 70.548 146.192 69.3087 146.677 68.182C147.163 67.0553 147.839 66.076 148.705 65.244C149.572 64.3947 150.586 63.7447 151.747 63.294C152.926 62.826 154.209 62.592 155.595 62.592C156.999 62.592 158.291 62.8347 159.469 63.32C160.665 63.788 161.679 64.49 162.511 65.426L160.821 67.064C160.128 66.336 159.348 65.7987 158.481 65.452C157.615 65.088 156.687 64.906 155.699 64.906C154.677 64.906 153.723 65.0793 152.839 65.426C151.973 65.7727 151.219 66.258 150.577 66.882C149.936 67.506 149.433 68.2513 149.069 69.118C148.723 69.9673 148.549 70.8947 148.549 71.9C148.549 72.9053 148.723 73.8413 149.069 74.708C149.433 75.5573 149.936 76.294 150.577 76.918C151.219 77.542 151.973 78.0273 152.839 78.374C153.723 78.7207 154.677 78.894 155.699 78.894C156.687 78.894 157.615 78.7207 158.481 78.374C159.348 78.01 160.128 77.4553 160.821 76.71L162.511 78.348C161.679 79.284 160.665 79.9947 159.469 80.48C158.291 80.9653 156.991 81.208 155.569 81.208ZM168.586 70.652H177.946V72.862H168.586V70.652ZM168.82 78.738H179.428V81H166.22V62.8H179.064V65.062H168.82V78.738ZM188.942 81.208C187.556 81.208 186.23 81 184.964 80.584C183.699 80.1507 182.702 79.596 181.974 78.92L182.936 76.892C183.63 77.4987 184.514 78.0013 185.588 78.4C186.663 78.7987 187.781 78.998 188.942 78.998C190 78.998 190.858 78.8767 191.516 78.634C192.175 78.3913 192.66 78.062 192.972 77.646C193.284 77.2127 193.44 76.7273 193.44 76.19C193.44 75.566 193.232 75.0633 192.816 74.682C192.418 74.3007 191.889 73.9973 191.23 73.772C190.589 73.5293 189.878 73.3213 189.098 73.148C188.318 72.9747 187.53 72.7753 186.732 72.55C185.952 72.3073 185.233 72.004 184.574 71.64C183.933 71.276 183.413 70.7907 183.014 70.184C182.616 69.56 182.416 68.7627 182.416 67.792C182.416 66.856 182.659 65.998 183.144 65.218C183.647 64.4207 184.41 63.788 185.432 63.32C186.472 62.8347 187.79 62.592 189.384 62.592C190.442 62.592 191.49 62.7307 192.53 63.008C193.57 63.2853 194.472 63.684 195.234 64.204L194.376 66.284C193.596 65.764 192.773 65.3913 191.906 65.166C191.04 64.9233 190.199 64.802 189.384 64.802C188.362 64.802 187.521 64.932 186.862 65.192C186.204 65.452 185.718 65.7987 185.406 66.232C185.112 66.6653 184.964 67.1507 184.964 67.688C184.964 68.3293 185.164 68.8407 185.562 69.222C185.978 69.6033 186.507 69.9067 187.148 70.132C187.807 70.3573 188.526 70.5653 189.306 70.756C190.086 70.9293 190.866 71.1287 191.646 71.354C192.444 71.5793 193.163 71.874 193.804 72.238C194.463 72.602 194.992 73.0873 195.39 73.694C195.789 74.3007 195.988 75.0807 195.988 76.034C195.988 76.9527 195.737 77.8107 195.234 78.608C194.732 79.388 193.952 80.0207 192.894 80.506C191.854 80.974 190.537 81.208 188.942 81.208Z" fill="#194099"/>
<path d="M7.36 28.36H10.96C11.7067 27.4267 12.2933 26.0667 12.72 24.28C13.1733 22.4933 13.4 20.72 13.4 18.96C13.4 14.7733 12.6133 11.72 11.04 9.8H7.36V28.36ZM1.92 33V5H13.52C17.3067 8.36 19.2 12.92 19.2 18.68C19.2 24.4133 17.4267 29.1867 13.88 33H1.92ZM22.3106 33V5H27.7906V28.36H36.1106V33H22.3106ZM51.6466 5H62.2866C63.9666 5.56 65.3932 6.6 66.5666 8.12C67.7666 9.61333 68.3666 11.4533 68.3666 13.64C68.3666 17.2133 66.9532 19.84 64.1266 21.52L68.1666 33H62.5666L59.1666 22.8H57.0466V33H51.6466V5ZM57.0466 9.8V18.32H60.4866C60.9399 18.2133 61.4332 17.76 61.9666 16.96C62.5266 16.1333 62.8066 15.1733 62.8066 14.08C62.8066 12.9867 62.5666 12.0267 62.0866 11.2C61.6332 10.3733 61.1799 9.90667 60.7266 9.8H57.0466ZM71.2559 33V5H85.6159V9.8H76.7359V16.48H84.6559V21.12H76.7359V28.36H85.7759V33H71.2559ZM88.8731 33V5H103.473V9.8H94.3531V16.8H102.273V21.44H94.3531V33H88.8731ZM105.787 5H116.427C118.107 5.56 119.534 6.6 120.707 8.12C121.907 9.61333 122.507 11.4533 122.507 13.64C122.507 17.2133 121.094 19.84 118.267 21.52L122.307 33H116.707L113.307 22.8H111.187V33H105.787V5ZM111.187 9.8V18.32H114.627C115.081 18.2133 115.574 17.76 116.107 16.96C116.667 16.1333 116.947 15.1733 116.947 14.08C116.947 12.9867 116.707 12.0267 116.227 11.2C115.774 10.3733 115.321 9.90667 114.867 9.8H111.187ZM125.397 33V5H130.877V33H125.397ZM148.013 33H139.533C137.613 31.24 136.213 29.1467 135.333 26.72C134.453 24.2933 134.013 21.76 134.013 19.12C134.013 16.4533 134.546 13.8267 135.613 11.24C136.679 8.65333 138.173 6.57333 140.093 5H149.813V9.8H142.373C141.679 10.6 141.079 11.8667 140.573 13.6C140.066 15.3067 139.813 17.1333 139.813 19.08C139.813 21 140.039 22.84 140.493 24.6C140.973 26.3333 141.559 27.5867 142.253 28.36H146.093V17.48H151.373V24.2C151.373 27.88 150.253 30.8133 148.013 33ZM154.498 33V5H168.858V9.8H159.978V16.48H167.898V21.12H159.978V28.36H169.018V33H154.498ZM172.115 5H182.755C184.435 5.56 185.862 6.6 187.035 8.12C188.235 9.61333 188.835 11.4533 188.835 13.64C188.835 17.2133 187.422 19.84 184.595 21.52L188.635 33H183.035L179.635 22.8H177.515V33H172.115V5ZM177.515 9.8V18.32H180.955C181.409 18.2133 181.902 17.76 182.435 16.96C182.995 16.1333 183.275 15.1733 183.275 14.08C183.275 12.9867 183.035 12.0267 182.555 11.2C182.102 10.3733 181.649 9.90667 181.195 9.8H177.515ZM203.645 33L202.805 28.56H196.485L195.645 33H190.205L195.605 5H203.885L209.005 33H203.645ZM199.565 10.2L198.005 19.52L197.125 24.28H202.125L201.205 19.52L199.645 10.2H199.565ZM213.432 9.8H207.392V5H224.912V9.8H218.872V33H213.432V9.8ZM227.233 33V5H232.713V33H227.233ZM249.608 5C251.475 6.52 252.862 8.56 253.768 11.12C254.675 13.68 255.128 16.32 255.128 19.04C255.128 21.7333 254.688 24.2933 253.808 26.72C252.928 29.1467 251.528 31.24 249.608 33H241.368C239.448 31.24 238.048 29.1467 237.168 26.72C236.288 24.2933 235.848 21.7333 235.848 19.04C235.848 16.32 236.302 13.68 237.208 11.12C238.115 8.56 239.502 6.52 241.368 5H249.608ZM244.048 28.36H246.928C247.595 27.5867 248.155 26.3333 248.608 24.6C249.088 22.84 249.328 20.9867 249.328 19.04C249.328 17.0933 249.102 15.2667 248.648 13.56C248.195 11.8267 247.635 10.5733 246.968 9.8H244.048C243.382 10.5733 242.808 11.8267 242.328 13.56C241.875 15.2667 241.648 17.0933 241.648 19.04C241.648 20.9867 241.875 22.84 242.328 24.6C242.808 26.3333 243.382 27.5867 244.048 28.36ZM270.728 33L263.248 17.52L263.048 17.6L263.288 22.32V33H258.248V5H262.288L269.648 21.08L269.848 21L269.408 16.08V5H274.448V33H270.728Z" fill="#194099"/>
<path d="M1 48H275" stroke="#194099"/>
</svg>
