<svg width="349" height="88" viewBox="0 0 349 88" fill="none" xmlns="http://www.w3.org/2000/svg">
<path d="M1.118 81V79.232L13.364 64.048L13.65 65.062H1.3V62.8H15.99V64.568L3.796 79.752L3.484 78.738H16.328V81H1.118ZM27.8308 81.208C26.4441 81.208 25.1528 80.974 23.9568 80.506C22.7781 80.038 21.7554 79.388 20.8888 78.556C20.0221 77.7067 19.3461 76.7187 18.8608 75.592C18.3754 74.4653 18.1328 73.2347 18.1328 71.9C18.1328 70.5653 18.3754 69.3347 18.8608 68.208C19.3461 67.0813 20.0221 66.102 20.8888 65.27C21.7554 64.4207 22.7781 63.762 23.9568 63.294C25.1354 62.826 26.4268 62.592 27.8308 62.592C29.2174 62.592 30.4914 62.826 31.6528 63.294C32.8314 63.7447 33.8541 64.3947 34.7208 65.244C35.6048 66.076 36.2808 67.0553 36.7488 68.182C37.2341 69.3087 37.4768 70.548 37.4768 71.9C37.4768 73.252 37.2341 74.4913 36.7488 75.618C36.2808 76.7447 35.6048 77.7327 34.7208 78.582C33.8541 79.414 32.8314 80.064 31.6528 80.532C30.4914 80.9827 29.2174 81.208 27.8308 81.208ZM27.8308 78.894C28.8361 78.894 29.7634 78.7207 30.6128 78.374C31.4794 78.0273 32.2248 77.542 32.8488 76.918C33.4901 76.2767 33.9841 75.5313 34.3308 74.682C34.6948 73.8327 34.8768 72.9053 34.8768 71.9C34.8768 70.8947 34.6948 69.9673 34.3308 69.118C33.9841 68.2687 33.4901 67.532 32.8488 66.908C32.2248 66.2667 31.4794 65.7727 30.6128 65.426C29.7634 65.0793 28.8361 64.906 27.8308 64.906C26.8081 64.906 25.8634 65.0793 24.9968 65.426C24.1474 65.7727 23.4021 66.2667 22.7608 66.908C22.1194 67.532 21.6168 68.2687 21.2528 69.118C20.9061 69.9673 20.7328 70.8947 20.7328 71.9C20.7328 72.9053 20.9061 73.8327 21.2528 74.682C21.6168 75.5313 22.1194 76.2767 22.7608 76.918C23.4021 77.542 24.1474 78.0273 24.9968 78.374C25.8634 78.7207 26.8081 78.894 27.8308 78.894ZM41.4507 81V62.8H43.5827L55.6207 77.75H54.5027V62.8H57.1027V81H54.9707L42.9327 66.05H44.0507V81H41.4507ZM64.9163 70.652H74.2763V72.862H64.9163V70.652ZM65.1503 78.738H75.7583V81H62.5503V62.8H75.3943V65.062H65.1503V78.738ZM85.2723 81.208C83.8856 81.208 82.5596 81 81.2943 80.584C80.0289 80.1507 79.0323 79.596 78.3043 78.92L79.2663 76.892C79.9596 77.4987 80.8436 78.0013 81.9183 78.4C82.9929 78.7987 84.1109 78.998 85.2723 78.998C86.3296 78.998 87.1876 78.8767 87.8463 78.634C88.5049 78.3913 88.9903 78.062 89.3023 77.646C89.6143 77.2127 89.7703 76.7273 89.7703 76.19C89.7703 75.566 89.5623 75.0633 89.1463 74.682C88.7476 74.3007 88.2189 73.9973 87.5603 73.772C86.9189 73.5293 86.2083 73.3213 85.4283 73.148C84.6483 72.9747 83.8596 72.7753 83.0623 72.55C82.2823 72.3073 81.5629 72.004 80.9043 71.64C80.2629 71.276 79.7429 70.7907 79.3443 70.184C78.9456 69.56 78.7463 68.7627 78.7463 67.792C78.7463 66.856 78.9889 65.998 79.4743 65.218C79.9769 64.4207 80.7396 63.788 81.7623 63.32C82.8023 62.8347 84.1196 62.592 85.7143 62.592C86.7716 62.592 87.8203 62.7307 88.8603 63.008C89.9003 63.2853 90.8016 63.684 91.5643 64.204L90.7063 66.284C89.9263 65.764 89.1029 65.3913 88.2363 65.166C87.3696 64.9233 86.5289 64.802 85.7143 64.802C84.6916 64.802 83.8509 64.932 83.1923 65.192C82.5336 65.452 82.0483 65.7987 81.7363 66.232C81.4416 66.6653 81.2943 67.1507 81.2943 67.688C81.2943 68.3293 81.4936 68.8407 81.8923 69.222C82.3083 69.6033 82.8369 69.9067 83.4783 70.132C84.1369 70.3573 84.8563 70.5653 85.6363 70.756C86.4163 70.9293 87.1963 71.1287 87.9763 71.354C88.7736 71.5793 89.4929 71.874 90.1343 72.238C90.7929 72.602 91.3216 73.0873 91.7203 73.694C92.1189 74.3007 92.3183 75.0807 92.3183 76.034C92.3183 76.9527 92.0669 77.8107 91.5643 78.608C91.0616 79.388 90.2816 80.0207 89.2243 80.506C88.1843 80.974 86.8669 81.208 85.2723 81.208ZM103.099 81V62.8H110.769C112.71 62.8 114.418 63.1813 115.891 63.944C117.382 64.7067 118.534 65.7727 119.349 67.142C120.181 68.5113 120.597 70.0973 120.597 71.9C120.597 73.7027 120.181 75.2887 119.349 76.658C118.534 78.0273 117.382 79.0933 115.891 79.856C114.418 80.6187 112.71 81 110.769 81H103.099ZM105.699 78.738H110.613C112.121 78.738 113.421 78.452 114.513 77.88C115.622 77.308 116.48 76.5107 117.087 75.488C117.694 74.448 117.997 73.252 117.997 71.9C117.997 70.5307 117.694 69.3347 117.087 68.312C116.48 67.2893 115.622 66.492 114.513 65.92C113.421 65.348 112.121 65.062 110.613 65.062H105.699V78.738ZM122.847 68.806L124.147 63.528L124.485 65.036C123.982 65.036 123.557 64.88 123.211 64.568C122.881 64.256 122.717 63.84 122.717 63.32C122.717 62.7827 122.881 62.358 123.211 62.046C123.557 61.7167 123.973 61.552 124.459 61.552C124.961 61.552 125.369 61.7253 125.681 62.072C125.993 62.4013 126.149 62.8173 126.149 63.32C126.149 63.476 126.14 63.6407 126.123 63.814C126.105 63.97 126.062 64.152 125.993 64.36C125.941 64.568 125.854 64.8367 125.733 65.166L124.485 68.806H122.847ZM130.089 81V62.8H132.689V81H130.089ZM138.138 81V62.8H140.27L152.308 77.75H151.19V62.8H153.79V81H151.658L139.62 66.05H140.738V81H138.138ZM162.852 81V65.062H156.612V62.8H171.666V65.062H165.426V81H162.852ZM176.864 70.652H186.224V72.862H176.864V70.652ZM177.098 78.738H187.706V81H174.498V62.8H187.342V65.062H177.098V78.738ZM191.916 81V62.8H199.014C200.608 62.8 201.969 63.0513 203.096 63.554C204.222 64.0567 205.089 64.7847 205.696 65.738C206.302 66.6913 206.606 67.8267 206.606 69.144C206.606 70.4613 206.302 71.5967 205.696 72.55C205.089 73.486 204.222 74.2053 203.096 74.708C201.969 75.2107 200.608 75.462 199.014 75.462H193.346L194.516 74.266V81H191.916ZM204.084 81L199.456 74.396H202.238L206.918 81H204.084ZM194.516 74.526L193.346 73.252H198.936C200.6 73.252 201.856 72.8967 202.706 72.186C203.572 71.458 204.006 70.444 204.006 69.144C204.006 67.844 203.572 66.8387 202.706 66.128C201.856 65.4173 200.6 65.062 198.936 65.062H193.346L194.516 63.762V74.526ZM216.058 81L208.05 62.8H210.858L218.216 79.596H216.604L224.014 62.8H226.614L218.632 81H216.058ZM231.301 70.652H240.661V72.862H231.301V70.652ZM231.535 78.738H242.143V81H228.935V62.8H241.779V65.062H231.535V78.738ZM246.353 81V62.8H248.485L260.523 77.75H259.405V62.8H262.005V81H259.873L247.835 66.05H248.953V81H246.353ZM271.067 81V65.062H264.827V62.8H279.881V65.062H273.641V81H271.067ZM282.712 81V62.8H285.312V81H282.712ZM298.977 81.208C297.591 81.208 296.299 80.974 295.103 80.506C293.925 80.038 292.902 79.388 292.035 78.556C291.169 77.7067 290.493 76.7187 290.007 75.592C289.522 74.4653 289.279 73.2347 289.279 71.9C289.279 70.5653 289.522 69.3347 290.007 68.208C290.493 67.0813 291.169 66.102 292.035 65.27C292.902 64.4207 293.925 63.762 295.103 63.294C296.282 62.826 297.573 62.592 298.977 62.592C300.364 62.592 301.638 62.826 302.799 63.294C303.978 63.7447 305.001 64.3947 305.867 65.244C306.751 66.076 307.427 67.0553 307.895 68.182C308.381 69.3087 308.623 70.548 308.623 71.9C308.623 73.252 308.381 74.4913 307.895 75.618C307.427 76.7447 306.751 77.7327 305.867 78.582C305.001 79.414 303.978 80.064 302.799 80.532C301.638 80.9827 300.364 81.208 298.977 81.208ZM298.977 78.894C299.983 78.894 300.91 78.7207 301.759 78.374C302.626 78.0273 303.371 77.542 303.995 76.918C304.637 76.2767 305.131 75.5313 305.477 74.682C305.841 73.8327 306.023 72.9053 306.023 71.9C306.023 70.8947 305.841 69.9673 305.477 69.118C305.131 68.2687 304.637 67.532 303.995 66.908C303.371 66.2667 302.626 65.7727 301.759 65.426C300.91 65.0793 299.983 64.906 298.977 64.906C297.955 64.906 297.01 65.0793 296.143 65.426C295.294 65.7727 294.549 66.2667 293.907 66.908C293.266 67.532 292.763 68.2687 292.399 69.118C292.053 69.9673 291.879 70.8947 291.879 71.9C291.879 72.9053 292.053 73.8327 292.399 74.682C292.763 75.5313 293.266 76.2767 293.907 76.918C294.549 77.542 295.294 78.0273 296.143 78.374C297.01 78.7207 297.955 78.894 298.977 78.894ZM312.597 81V62.8H314.729L326.767 77.75H325.649V62.8H328.249V81H326.117L314.079 66.05H315.197V81H312.597ZM339.001 81.208C337.614 81.208 336.288 81 335.023 80.584C333.757 80.1507 332.761 79.596 332.033 78.92L332.995 76.892C333.688 77.4987 334.572 78.0013 335.647 78.4C336.721 78.7987 337.839 78.998 339.001 78.998C340.058 78.998 340.916 78.8767 341.575 78.634C342.233 78.3913 342.719 78.062 343.031 77.646C343.343 77.2127 343.499 76.7273 343.499 76.19C343.499 75.566 343.291 75.0633 342.875 74.682C342.476 74.3007 341.947 73.9973 341.289 73.772C340.647 73.5293 339.937 73.3213 339.157 73.148C338.377 72.9747 337.588 72.7753 336.791 72.55C336.011 72.3073 335.291 72.004 334.633 71.64C333.991 71.276 333.471 70.7907 333.073 70.184C332.674 69.56 332.475 68.7627 332.475 67.792C332.475 66.856 332.717 65.998 333.203 65.218C333.705 64.4207 334.468 63.788 335.491 63.32C336.531 62.8347 337.848 62.592 339.443 62.592C340.5 62.592 341.549 62.7307 342.589 63.008C343.629 63.2853 344.53 63.684 345.293 64.204L344.435 66.284C343.655 65.764 342.831 65.3913 341.965 65.166C341.098 64.9233 340.257 64.802 339.443 64.802C338.42 64.802 337.579 64.932 336.921 65.192C336.262 65.452 335.777 65.7987 335.465 66.232C335.17 66.6653 335.023 67.1507 335.023 67.688C335.023 68.3293 335.222 68.8407 335.621 69.222C336.037 69.6033 336.565 69.9067 337.207 70.132C337.865 70.3573 338.585 70.5653 339.365 70.756C340.145 70.9293 340.925 71.1287 341.705 71.354C342.502 71.5793 343.221 71.874 343.863 72.238C344.521 72.602 345.05 73.0873 345.449 73.694C345.847 74.3007 346.047 75.0807 346.047 76.034C346.047 76.9527 345.795 77.8107 345.293 78.608C344.79 79.388 344.01 80.0207 342.953 80.506C341.913 80.974 340.595 81.208 339.001 81.208Z" fill="#194099"/>
<path d="M7.36 28.36H10.96C11.7067 27.4267 12.2933 26.0667 12.72 24.28C13.1733 22.4933 13.4 20.72 13.4 18.96C13.4 14.7733 12.6133 11.72 11.04 9.8H7.36V28.36ZM1.92 33V5H13.52C17.3067 8.36 19.2 12.92 19.2 18.68C19.2 24.4133 17.4267 29.1867 13.88 33H1.92ZM22.3106 33V5H27.7906V28.36H36.1106V33H22.3106ZM51.6466 5H62.2866C63.9666 5.56 65.3932 6.6 66.5666 8.12C67.7666 9.61333 68.3666 11.4533 68.3666 13.64C68.3666 17.2133 66.9532 19.84 64.1266 21.52L68.1666 33H62.5666L59.1666 22.8H57.0466V33H51.6466V5ZM57.0466 9.8V18.32H60.4866C60.9399 18.2133 61.4332 17.76 61.9666 16.96C62.5266 16.1333 62.8066 15.1733 62.8066 14.08C62.8066 12.9867 62.5666 12.0267 62.0866 11.2C61.6332 10.3733 61.1799 9.90667 60.7266 9.8H57.0466ZM71.2559 33V5H85.6159V9.8H76.7359V16.48H84.6559V21.12H76.7359V28.36H85.7759V33H71.2559ZM88.8731 33V5H103.473V9.8H94.3531V16.8H102.273V21.44H94.3531V33H88.8731ZM105.787 5H116.427C118.107 5.56 119.534 6.6 120.707 8.12C121.907 9.61333 122.507 11.4533 122.507 13.64C122.507 17.2133 121.094 19.84 118.267 21.52L122.307 33H116.707L113.307 22.8H111.187V33H105.787V5ZM111.187 9.8V18.32H114.627C115.081 18.2133 115.574 17.76 116.107 16.96C116.667 16.1333 116.947 15.1733 116.947 14.08C116.947 12.9867 116.707 12.0267 116.227 11.2C115.774 10.3733 115.321 9.90667 114.867 9.8H111.187ZM125.397 33V5H130.877V33H125.397ZM148.013 33H139.533C137.613 31.24 136.213 29.1467 135.333 26.72C134.453 24.2933 134.013 21.76 134.013 19.12C134.013 16.4533 134.546 13.8267 135.613 11.24C136.679 8.65333 138.173 6.57333 140.093 5H149.813V9.8H142.373C141.679 10.6 141.079 11.8667 140.573 13.6C140.066 15.3067 139.813 17.1333 139.813 19.08C139.813 21 140.039 22.84 140.493 24.6C140.973 26.3333 141.559 27.5867 142.253 28.36H146.093V17.48H151.373V24.2C151.373 27.88 150.253 30.8133 148.013 33ZM154.498 33V5H168.858V9.8H159.978V16.48H167.898V21.12H159.978V28.36H169.018V33H154.498ZM172.115 5H182.755C184.435 5.56 185.862 6.6 187.035 8.12C188.235 9.61333 188.835 11.4533 188.835 13.64C188.835 17.2133 187.422 19.84 184.595 21.52L188.635 33H183.035L179.635 22.8H177.515V33H172.115V5ZM177.515 9.8V18.32H180.955C181.409 18.2133 181.902 17.76 182.435 16.96C182.995 16.1333 183.275 15.1733 183.275 14.08C183.275 12.9867 183.035 12.0267 182.555 11.2C182.102 10.3733 181.649 9.90667 181.195 9.8H177.515ZM203.645 33L202.805 28.56H196.485L195.645 33H190.205L195.605 5H203.885L209.005 33H203.645ZM199.565 10.2L198.005 19.52L197.125 24.28H202.125L201.205 19.52L199.645 10.2H199.565ZM213.432 9.8H207.392V5H224.912V9.8H218.872V33H213.432V9.8ZM227.233 33V5H232.713V33H227.233ZM249.608 5C251.475 6.52 252.862 8.56 253.768 11.12C254.675 13.68 255.128 16.32 255.128 19.04C255.128 21.7333 254.688 24.2933 253.808 26.72C252.928 29.1467 251.528 31.24 249.608 33H241.368C239.448 31.24 238.048 29.1467 237.168 26.72C236.288 24.2933 235.848 21.7333 235.848 19.04C235.848 16.32 236.302 13.68 237.208 11.12C238.115 8.56 239.502 6.52 241.368 5H249.608ZM244.048 28.36H246.928C247.595 27.5867 248.155 26.3333 248.608 24.6C249.088 22.84 249.328 20.9867 249.328 19.04C249.328 17.0933 249.102 15.2667 248.648 13.56C248.195 11.8267 247.635 10.5733 246.968 9.8H244.048C243.382 10.5733 242.808 11.8267 242.328 13.56C241.875 15.2667 241.648 17.0933 241.648 19.04C241.648 20.9867 241.875 22.84 242.328 24.6C242.808 26.3333 243.382 27.5867 244.048 28.36ZM270.728 33L263.248 17.52L263.048 17.6L263.288 22.32V33H258.248V5H262.288L269.648 21.08L269.848 21L269.408 16.08V5H274.448V33H270.728Z" fill="#194099"/>
<path d="M2 48H349" stroke="#194099"/>
</svg>
