<svg width="311" height="89" viewBox="0 0 311 89" fill="none" xmlns="http://www.w3.org/2000/svg">
<path d="M2.73122 81.1318V62.9318H4.86322L16.9012 77.8818H15.7832V62.9318H18.3832V81.1318H16.2512L4.21322 66.1818H5.33122V81.1318H2.73122ZM32.0468 81.3398C30.6602 81.3398 29.3688 81.1058 28.1728 80.6378C26.9942 80.1698 25.9715 79.5198 25.1048 78.6878C24.2382 77.8385 23.5622 76.8505 23.0768 75.7238C22.5915 74.5972 22.3488 73.3665 22.3488 72.0318C22.3488 70.6972 22.5915 69.4665 23.0768 68.3398C23.5622 67.2132 24.2382 66.2338 25.1048 65.4018C25.9715 64.5525 26.9942 63.8938 28.1728 63.4258C29.3515 62.9578 30.6428 62.7238 32.0468 62.7238C33.4335 62.7238 34.7075 62.9578 35.8688 63.4258C37.0475 63.8765 38.0702 64.5265 38.9368 65.3758C39.8208 66.2078 40.4968 67.1872 40.9648 68.3138C41.4502 69.4405 41.6928 70.6798 41.6928 72.0318C41.6928 73.3838 41.4502 74.6232 40.9648 75.7498C40.4968 76.8765 39.8208 77.8645 38.9368 78.7138C38.0702 79.5458 37.0475 80.1958 35.8688 80.6638C34.7075 81.1145 33.4335 81.3398 32.0468 81.3398ZM32.0468 79.0258C33.0522 79.0258 33.9795 78.8525 34.8288 78.5058C35.6955 78.1592 36.4408 77.6738 37.0648 77.0498C37.7062 76.4085 38.2002 75.6632 38.5468 74.8138C38.9108 73.9645 39.0928 73.0372 39.0928 72.0318C39.0928 71.0265 38.9108 70.0992 38.5468 69.2498C38.2002 68.4005 37.7062 67.6638 37.0648 67.0398C36.4408 66.3985 35.6955 65.9045 34.8288 65.5578C33.9795 65.2112 33.0522 65.0378 32.0468 65.0378C31.0242 65.0378 30.0795 65.2112 29.2128 65.5578C28.3635 65.9045 27.6182 66.3985 26.9768 67.0398C26.3355 67.6638 25.8328 68.4005 25.4688 69.2498C25.1222 70.0992 24.9488 71.0265 24.9488 72.0318C24.9488 73.0372 25.1222 73.9645 25.4688 74.8138C25.8328 75.6632 26.3355 76.4085 26.9768 77.0498C27.6182 77.6738 28.3635 78.1592 29.2128 78.5058C30.0795 78.8525 31.0242 79.0258 32.0468 79.0258ZM50.9708 81.3398C49.5841 81.3398 48.2581 81.1318 46.9928 80.7158C45.7274 80.2825 44.7308 79.7278 44.0028 79.0518L44.9648 77.0238C45.6581 77.6305 46.5421 78.1332 47.6168 78.5318C48.6914 78.9305 49.8094 79.1298 50.9708 79.1298C52.0281 79.1298 52.8861 79.0085 53.5448 78.7658C54.2034 78.5232 54.6888 78.1938 55.0008 77.7778C55.3128 77.3445 55.4688 76.8592 55.4688 76.3218C55.4688 75.6978 55.2608 75.1952 54.8448 74.8138C54.4461 74.4325 53.9174 74.1292 53.2588 73.9038C52.6174 73.6612 51.9068 73.4532 51.1268 73.2798C50.3468 73.1065 49.5581 72.9072 48.7608 72.6818C47.9808 72.4392 47.2614 72.1358 46.6028 71.7718C45.9614 71.4078 45.4414 70.9225 45.0428 70.3158C44.6441 69.6918 44.4448 68.8945 44.4448 67.9238C44.4448 66.9878 44.6874 66.1298 45.1728 65.3498C45.6754 64.5525 46.4381 63.9198 47.4608 63.4518C48.5008 62.9665 49.8181 62.7238 51.4128 62.7238C52.4701 62.7238 53.5188 62.8625 54.5588 63.1398C55.5988 63.4172 56.5001 63.8158 57.2628 64.3358L56.4048 66.4158C55.6248 65.8958 54.8014 65.5232 53.9348 65.2978C53.0681 65.0552 52.2274 64.9338 51.4128 64.9338C50.3901 64.9338 49.5494 65.0638 48.8908 65.3238C48.2321 65.5838 47.7468 65.9305 47.4348 66.3638C47.1401 66.7972 46.9928 67.2825 46.9928 67.8198C46.9928 68.4612 47.1921 68.9725 47.5908 69.3538C48.0068 69.7352 48.5354 70.0385 49.1768 70.2638C49.8354 70.4892 50.5548 70.6972 51.3348 70.8878C52.1148 71.0612 52.8948 71.2605 53.6748 71.4858C54.4721 71.7112 55.1914 72.0058 55.8328 72.3698C56.4914 72.7338 57.0201 73.2192 57.4188 73.8258C57.8174 74.4325 58.0168 75.2125 58.0168 76.1658C58.0168 77.0845 57.7654 77.9425 57.2628 78.7398C56.7601 79.5198 55.9801 80.1525 54.9228 80.6378C53.8828 81.1058 52.5654 81.3398 50.9708 81.3398ZM68.7976 81.1318V62.9318H75.8956C77.4903 62.9318 78.851 63.1832 79.9776 63.6858C81.1043 64.1885 81.971 64.9165 82.5776 65.8698C83.1843 66.8232 83.4876 67.9585 83.4876 69.2758C83.4876 70.5932 83.1843 71.7285 82.5776 72.6818C81.971 73.6178 81.1043 74.3458 79.9776 74.8658C78.851 75.3685 77.4903 75.6198 75.8956 75.6198H70.2276L71.3976 74.3978V81.1318H68.7976ZM71.3976 74.6578L70.2276 73.3578H75.8176C77.4816 73.3578 78.7383 73.0025 79.5876 72.2918C80.4543 71.5812 80.8876 70.5758 80.8876 69.2758C80.8876 67.9758 80.4543 66.9705 79.5876 66.2598C78.7383 65.5492 77.4816 65.1938 75.8176 65.1938H70.2276L71.3976 63.8938V74.6578ZM83.6373 81.1318L91.8793 62.9318H94.4533L102.721 81.1318H99.9913L92.6333 64.3878H93.6733L86.3153 81.1318H83.6373ZM87.1473 76.5818L87.8493 74.5018H98.0933L98.8473 76.5818H87.1473ZM105.436 81.1318V62.9318H112.534C114.129 62.9318 115.49 63.1832 116.616 63.6858C117.743 64.1885 118.61 64.9165 119.216 65.8698C119.823 66.8232 120.126 67.9585 120.126 69.2758C120.126 70.5932 119.823 71.7285 119.216 72.6818C118.61 73.6178 117.743 74.3372 116.616 74.8398C115.49 75.3425 114.129 75.5938 112.534 75.5938H106.866L108.036 74.3978V81.1318H105.436ZM117.604 81.1318L112.976 74.5278H115.758L120.438 81.1318H117.604ZM108.036 74.6578L106.866 73.3838H112.456C114.12 73.3838 115.377 73.0285 116.226 72.3178C117.093 71.5898 117.526 70.5758 117.526 69.2758C117.526 67.9758 117.093 66.9705 116.226 66.2598C115.377 65.5492 114.12 65.1938 112.456 65.1938H106.866L108.036 63.8938V74.6578ZM127.687 81.1318V65.1938H121.447V62.9318H136.501V65.1938H130.261V81.1318H127.687ZM141.699 70.7838H151.059V72.9938H141.699V70.7838ZM141.933 78.8698H152.541V81.1318H139.333V62.9318H152.177V65.1938H141.933V78.8698ZM156.751 81.1318V62.9318H158.883L170.921 77.8818H169.803V62.9318H172.403V81.1318H170.271L158.233 66.1818H159.351V81.1318H156.751ZM175.094 81.1318L183.336 62.9318H185.91L194.178 81.1318H191.448L184.09 64.3878H185.13L177.772 81.1318H175.094ZM178.604 76.5818L179.306 74.5018H189.55L190.304 76.5818H178.604ZM196.893 81.1318V62.9318H199.493V81.1318H196.893ZM204.942 81.1318V62.9318H212.04C213.635 62.9318 214.995 63.1832 216.122 63.6858C217.249 64.1885 218.115 64.9165 218.722 65.8698C219.329 66.8232 219.632 67.9585 219.632 69.2758C219.632 70.5932 219.329 71.7285 218.722 72.6818C218.115 73.6178 217.249 74.3372 216.122 74.8398C214.995 75.3425 213.635 75.5938 212.04 75.5938H206.372L207.542 74.3978V81.1318H204.942ZM217.11 81.1318L212.482 74.5278H215.264L219.944 81.1318H217.11ZM207.542 74.6578L206.372 73.3838H211.962C213.626 73.3838 214.883 73.0285 215.732 72.3178C216.599 71.5898 217.032 70.5758 217.032 69.2758C217.032 67.9758 216.599 66.9705 215.732 66.2598C214.883 65.5492 213.626 65.1938 211.962 65.1938H206.372L207.542 63.8938V74.6578ZM226.199 70.7838H235.559V72.9938H226.199V70.7838ZM226.433 78.8698H237.041V81.1318H223.833V62.9318H236.677V65.1938H226.433V78.8698ZM246.555 81.3398C245.168 81.3398 243.842 81.1318 242.577 80.7158C241.311 80.2825 240.315 79.7278 239.587 79.0518L240.549 77.0238C241.242 77.6305 242.126 78.1332 243.201 78.5318C244.275 78.9305 245.393 79.1298 246.555 79.1298C247.612 79.1298 248.47 79.0085 249.129 78.7658C249.787 78.5232 250.273 78.1938 250.585 77.7778C250.897 77.3445 251.053 76.8592 251.053 76.3218C251.053 75.6978 250.845 75.1952 250.429 74.8138C250.03 74.4325 249.501 74.1292 248.843 73.9038C248.201 73.6612 247.491 73.4532 246.711 73.2798C245.931 73.1065 245.142 72.9072 244.345 72.6818C243.565 72.4392 242.845 72.1358 242.187 71.7718C241.545 71.4078 241.025 70.9225 240.627 70.3158C240.228 69.6918 240.029 68.8945 240.029 67.9238C240.029 66.9878 240.271 66.1298 240.757 65.3498C241.259 64.5525 242.022 63.9198 243.045 63.4518C244.085 62.9665 245.402 62.7238 246.997 62.7238C248.054 62.7238 249.103 62.8625 250.143 63.1398C251.183 63.4172 252.084 63.8158 252.847 64.3358L251.989 66.4158C251.209 65.8958 250.385 65.5232 249.519 65.2978C248.652 65.0552 247.811 64.9338 246.997 64.9338C245.974 64.9338 245.133 65.0638 244.475 65.3238C243.816 65.5838 243.331 65.9305 243.019 66.3638C242.724 66.7972 242.577 67.2825 242.577 67.8198C242.577 68.4612 242.776 68.9725 243.175 69.3538C243.591 69.7352 244.119 70.0385 244.761 70.2638C245.419 70.4892 246.139 70.6972 246.919 70.8878C247.699 71.0612 248.479 71.2605 249.259 71.4858C250.056 71.7112 250.775 72.0058 251.417 72.3698C252.075 72.7338 252.604 73.2192 253.003 73.8258C253.401 74.4325 253.601 75.2125 253.601 76.1658C253.601 77.0845 253.349 77.9425 252.847 78.7398C252.344 79.5198 251.564 80.1525 250.507 80.6378C249.467 81.1058 248.149 81.3398 246.555 81.3398Z" fill="#194099"/>
<path d="M7.36 28.36H10.96C11.7067 27.4267 12.2933 26.0667 12.72 24.28C13.1733 22.4933 13.4 20.72 13.4 18.96C13.4 14.7733 12.6133 11.72 11.04 9.8H7.36V28.36ZM1.92 33V5H13.52C17.3067 8.36 19.2 12.92 19.2 18.68C19.2 24.4133 17.4267 29.1867 13.88 33H1.92ZM22.3106 33V5H27.7906V28.36H36.1106V33H22.3106ZM51.6466 5H62.2866C63.9666 5.56 65.3932 6.6 66.5666 8.12C67.7666 9.61333 68.3666 11.4533 68.3666 13.64C68.3666 17.2133 66.9532 19.84 64.1266 21.52L68.1666 33H62.5666L59.1666 22.8H57.0466V33H51.6466V5ZM57.0466 9.8V18.32H60.4866C60.9399 18.2133 61.4332 17.76 61.9666 16.96C62.5266 16.1333 62.8066 15.1733 62.8066 14.08C62.8066 12.9867 62.5666 12.0267 62.0866 11.2C61.6332 10.3733 61.1799 9.90667 60.7266 9.8H57.0466ZM71.2559 33V5H85.6159V9.8H76.7359V16.48H84.6559V21.12H76.7359V28.36H85.7759V33H71.2559ZM88.8731 33V5H103.473V9.8H94.3531V16.8H102.273V21.44H94.3531V33H88.8731ZM105.787 5H116.427C118.107 5.56 119.534 6.6 120.707 8.12C121.907 9.61333 122.507 11.4533 122.507 13.64C122.507 17.2133 121.094 19.84 118.267 21.52L122.307 33H116.707L113.307 22.8H111.187V33H105.787V5ZM111.187 9.8V18.32H114.627C115.081 18.2133 115.574 17.76 116.107 16.96C116.667 16.1333 116.947 15.1733 116.947 14.08C116.947 12.9867 116.707 12.0267 116.227 11.2C115.774 10.3733 115.321 9.90667 114.867 9.8H111.187ZM125.397 33V5H130.877V33H125.397ZM148.013 33H139.533C137.613 31.24 136.213 29.1467 135.333 26.72C134.453 24.2933 134.013 21.76 134.013 19.12C134.013 16.4533 134.546 13.8267 135.613 11.24C136.679 8.65333 138.173 6.57333 140.093 5H149.813V9.8H142.373C141.679 10.6 141.079 11.8667 140.573 13.6C140.066 15.3067 139.813 17.1333 139.813 19.08C139.813 21 140.039 22.84 140.493 24.6C140.973 26.3333 141.559 27.5867 142.253 28.36H146.093V17.48H151.373V24.2C151.373 27.88 150.253 30.8133 148.013 33ZM154.498 33V5H168.858V9.8H159.978V16.48H167.898V21.12H159.978V28.36H169.018V33H154.498ZM172.115 5H182.755C184.435 5.56 185.862 6.6 187.035 8.12C188.235 9.61333 188.835 11.4533 188.835 13.64C188.835 17.2133 187.422 19.84 184.595 21.52L188.635 33H183.035L179.635 22.8H177.515V33H172.115V5ZM177.515 9.8V18.32H180.955C181.409 18.2133 181.902 17.76 182.435 16.96C182.995 16.1333 183.275 15.1733 183.275 14.08C183.275 12.9867 183.035 12.0267 182.555 11.2C182.102 10.3733 181.649 9.90667 181.195 9.8H177.515ZM203.645 33L202.805 28.56H196.485L195.645 33H190.205L195.605 5H203.885L209.005 33H203.645ZM199.565 10.2L198.005 19.52L197.125 24.28H202.125L201.205 19.52L199.645 10.2H199.565ZM213.432 9.8H207.392V5H224.912V9.8H218.872V33H213.432V9.8ZM227.233 33V5H232.713V33H227.233ZM249.608 5C251.475 6.52 252.862 8.56 253.768 11.12C254.675 13.68 255.128 16.32 255.128 19.04C255.128 21.7333 254.688 24.2933 253.808 26.72C252.928 29.1467 251.528 31.24 249.608 33H241.368C239.448 31.24 238.048 29.1467 237.168 26.72C236.288 24.2933 235.848 21.7333 235.848 19.04C235.848 16.32 236.302 13.68 237.208 11.12C238.115 8.56 239.502 6.52 241.368 5H249.608ZM244.048 28.36H246.928C247.595 27.5867 248.155 26.3333 248.608 24.6C249.088 22.84 249.328 20.9867 249.328 19.04C249.328 17.0933 249.102 15.2667 248.648 13.56C248.195 11.8267 247.635 10.5733 246.968 9.8H244.048C243.382 10.5733 242.808 11.8267 242.328 13.56C241.875 15.2667 241.648 17.0933 241.648 19.04C241.648 20.9867 241.875 22.84 242.328 24.6C242.808 26.3333 243.382 27.5867 244.048 28.36ZM270.728 33L263.248 17.52L263.048 17.6L263.288 22.32V33H258.248V5H262.288L269.648 21.08L269.848 21L269.408 16.08V5H274.448V33H270.728Z" fill="#194099"/>
<path d="M2 48H275" stroke="#194099"/>
</svg>
