<svg width="377" height="88" viewBox="0 0 377 88" fill="none" xmlns="http://www.w3.org/2000/svg">
<path d="M2.73 81V62.8H9.828C11.4227 62.8 12.7833 63.0513 13.91 63.554C15.0367 64.0567 15.9033 64.7847 16.51 65.738C17.1167 66.6913 17.42 67.8267 17.42 69.144C17.42 70.4613 17.1167 71.5967 16.51 72.55C15.9033 73.486 15.0367 74.2053 13.91 74.708C12.7833 75.2107 11.4227 75.462 9.828 75.462H4.16L5.33 74.266V81H2.73ZM14.898 81L10.27 74.396H13.052L17.732 81H14.898ZM5.33 74.526L4.16 73.252H9.75C11.414 73.252 12.6707 72.8967 13.52 72.186C14.3867 71.458 14.82 70.444 14.82 69.144C14.82 67.844 14.3867 66.8387 13.52 66.128C12.6707 65.4173 11.414 65.062 9.75 65.062H4.16L5.33 63.762V74.526ZM23.9866 70.652H33.3466V72.862H23.9866V70.652ZM24.2206 78.738H34.8286V81H21.6206V62.8H34.4646V65.062H24.2206V78.738ZM26.1186 61.318L29.6546 57.938H32.8266L28.4586 61.318H26.1186ZM41.3786 71.406H50.7646V73.642H41.3786V71.406ZM41.6386 81H39.0386V62.8H51.8826V65.062H41.6386V81ZM57.9085 70.652H67.2685V72.862H57.9085V70.652ZM58.1425 78.738H68.7505V81H55.5425V62.8H68.3865V65.062H58.1425V78.738ZM60.0405 61.318L63.5765 57.938H66.7485L62.3805 61.318H60.0405ZM72.9605 81V62.8H80.0585C81.6531 62.8 83.0138 63.0513 84.1405 63.554C85.2671 64.0567 86.1338 64.7847 86.7405 65.738C87.3471 66.6913 87.6505 67.8267 87.6505 69.144C87.6505 70.4613 87.3471 71.5967 86.7405 72.55C86.1338 73.486 85.2671 74.2053 84.1405 74.708C83.0138 75.2107 81.6531 75.462 80.0585 75.462H74.3905L75.5605 74.266V81H72.9605ZM85.1285 81L80.5005 74.396H83.2825L87.9625 81H85.1285ZM75.5605 74.526L74.3905 73.252H79.9805C81.6445 73.252 82.9011 72.8967 83.7505 72.186C84.6171 71.458 85.0505 70.444 85.0505 69.144C85.0505 67.844 84.6171 66.8387 83.7505 66.128C82.9011 65.4173 81.6445 65.062 79.9805 65.062H74.3905L75.5605 63.762V74.526ZM94.2171 70.652H103.577V72.862H94.2171V70.652ZM94.4511 78.738H105.059V81H91.8511V62.8H104.695V65.062H94.4511V78.738ZM109.269 81V62.8H111.401L123.439 77.75H122.321V62.8H124.921V81H122.789L110.751 66.05H111.869V81H109.269ZM138.507 81.208C137.12 81.208 135.837 80.9827 134.659 80.532C133.497 80.064 132.483 79.414 131.617 78.582C130.767 77.7327 130.1 76.7447 129.615 75.618C129.129 74.4913 128.887 73.252 128.887 71.9C128.887 70.548 129.129 69.3087 129.615 68.182C130.1 67.0553 130.776 66.076 131.643 65.244C132.509 64.3947 133.523 63.7447 134.685 63.294C135.863 62.826 137.146 62.592 138.533 62.592C139.937 62.592 141.228 62.8347 142.407 63.32C143.603 63.788 144.617 64.49 145.449 65.426L143.759 67.064C143.065 66.336 142.285 65.7987 141.419 65.452C140.552 65.088 139.625 64.906 138.637 64.906C137.614 64.906 136.661 65.0793 135.777 65.426C134.91 65.7727 134.156 66.258 133.515 66.882C132.873 67.506 132.371 68.2513 132.007 69.118C131.66 69.9673 131.487 70.8947 131.487 71.9C131.487 72.9053 131.66 73.8413 132.007 74.708C132.371 75.5573 132.873 76.294 133.515 76.918C134.156 77.542 134.91 78.0273 135.777 78.374C136.661 78.7207 137.614 78.894 138.637 78.894C139.625 78.894 140.552 78.7207 141.419 78.374C142.285 78.01 143.065 77.4553 143.759 76.71L145.449 78.348C144.617 79.284 143.603 79.9947 142.407 80.48C141.228 80.9653 139.928 81.208 138.507 81.208ZM151.524 70.652H160.884V72.862H151.524V70.652ZM151.758 78.738H162.366V81H149.158V62.8H162.002V65.062H151.758V78.738ZM171.88 81.208C170.493 81.208 169.167 81 167.902 80.584C166.636 80.1507 165.64 79.596 164.912 78.92L165.874 76.892C166.567 77.4987 167.451 78.0013 168.526 78.4C169.6 78.7987 170.718 78.998 171.88 78.998C172.937 78.998 173.795 78.8767 174.454 78.634C175.112 78.3913 175.598 78.062 175.91 77.646C176.222 77.2127 176.378 76.7273 176.378 76.19C176.378 75.566 176.17 75.0633 175.754 74.682C175.355 74.3007 174.826 73.9973 174.168 73.772C173.526 73.5293 172.816 73.3213 172.036 73.148C171.256 72.9747 170.467 72.7753 169.67 72.55C168.89 72.3073 168.17 72.004 167.512 71.64C166.87 71.276 166.35 70.7907 165.952 70.184C165.553 69.56 165.354 68.7627 165.354 67.792C165.354 66.856 165.596 65.998 166.082 65.218C166.584 64.4207 167.347 63.788 168.37 63.32C169.41 62.8347 170.727 62.592 172.322 62.592C173.379 62.592 174.428 62.7307 175.468 63.008C176.508 63.2853 177.409 63.684 178.172 64.204L177.314 66.284C176.534 65.764 175.71 65.3913 174.844 65.166C173.977 64.9233 173.136 64.802 172.322 64.802C171.299 64.802 170.458 64.932 169.8 65.192C169.141 65.452 168.656 65.7987 168.344 66.232C168.049 66.6653 167.902 67.1507 167.902 67.688C167.902 68.3293 168.101 68.8407 168.5 69.222C168.916 69.6033 169.444 69.9067 170.086 70.132C170.744 70.3573 171.464 70.5653 172.244 70.756C173.024 70.9293 173.804 71.1287 174.584 71.354C175.381 71.5793 176.1 71.874 176.742 72.238C177.4 72.602 177.929 73.0873 178.328 73.694C178.726 74.3007 178.926 75.0807 178.926 76.034C178.926 76.9527 178.674 77.8107 178.172 78.608C177.669 79.388 176.889 80.0207 175.832 80.506C174.792 80.974 173.474 81.208 171.88 81.208ZM197.845 81.208C196.458 81.208 195.175 80.9827 193.997 80.532C192.835 80.064 191.821 79.414 190.955 78.582C190.105 77.7327 189.438 76.7447 188.953 75.618C188.467 74.4913 188.225 73.252 188.225 71.9C188.225 70.548 188.467 69.3087 188.953 68.182C189.438 67.0553 190.114 66.076 190.981 65.244C191.847 64.3947 192.861 63.7447 194.023 63.294C195.201 62.826 196.484 62.592 197.871 62.592C199.275 62.592 200.566 62.8347 201.745 63.32C202.941 63.788 203.955 64.49 204.787 65.426L203.097 67.064C202.403 66.336 201.623 65.7987 200.757 65.452C199.89 65.088 198.963 64.906 197.975 64.906C196.952 64.906 195.999 65.0793 195.115 65.426C194.248 65.7727 193.494 66.258 192.853 66.882C192.211 67.506 191.709 68.2513 191.345 69.118C190.998 69.9673 190.825 70.8947 190.825 71.9C190.825 72.9053 190.998 73.8413 191.345 74.708C191.709 75.5573 192.211 76.294 192.853 76.918C193.494 77.542 194.248 78.0273 195.115 78.374C195.999 78.7207 196.952 78.894 197.975 78.894C198.963 78.894 199.89 78.7207 200.757 78.374C201.623 78.01 202.403 77.4553 203.097 76.71L204.787 78.348C203.955 79.284 202.941 79.9947 201.745 80.48C200.566 80.9653 199.266 81.208 197.845 81.208ZM208.496 81V62.8H211.096V78.738H220.95V81H208.496ZM223.933 81V62.8H226.533V81H223.933ZM234.348 70.652H243.708V72.862H234.348V70.652ZM234.582 78.738H245.19V81H231.982V62.8H244.826V65.062H234.582V78.738ZM249.4 81V62.8H251.532L263.57 77.75H262.452V62.8H265.052V81H262.92L250.882 66.05H252V81H249.4ZM274.114 81V65.062H267.874V62.8H282.928V65.062H276.688V81H274.114ZM290.835 81.208C289.448 81.208 288.122 81 286.857 80.584C285.591 80.1507 284.595 79.596 283.867 78.92L284.829 76.892C285.522 77.4987 286.406 78.0013 287.481 78.4C288.555 78.7987 289.673 78.998 290.835 78.998C291.892 78.998 292.75 78.8767 293.409 78.634C294.067 78.3913 294.553 78.062 294.865 77.646C295.177 77.2127 295.333 76.7273 295.333 76.19C295.333 75.566 295.125 75.0633 294.709 74.682C294.31 74.3007 293.781 73.9973 293.123 73.772C292.481 73.5293 291.771 73.3213 290.991 73.148C290.211 72.9747 289.422 72.7753 288.625 72.55C287.845 72.3073 287.125 72.004 286.467 71.64C285.825 71.276 285.305 70.7907 284.907 70.184C284.508 69.56 284.309 68.7627 284.309 67.792C284.309 66.856 284.551 65.998 285.037 65.218C285.539 64.4207 286.302 63.788 287.325 63.32C288.365 62.8347 289.682 62.592 291.277 62.592C292.334 62.592 293.383 62.7307 294.423 63.008C295.463 63.2853 296.364 63.684 297.127 64.204L296.269 66.284C295.489 65.764 294.665 65.3913 293.799 65.166C292.932 64.9233 292.091 64.802 291.277 64.802C290.254 64.802 289.413 64.932 288.755 65.192C288.096 65.452 287.611 65.7987 287.299 66.232C287.004 66.6653 286.857 67.1507 286.857 67.688C286.857 68.3293 287.056 68.8407 287.455 69.222C287.871 69.6033 288.399 69.9067 289.041 70.132C289.699 70.3573 290.419 70.5653 291.199 70.756C291.979 70.9293 292.759 71.1287 293.539 71.354C294.336 71.5793 295.055 71.874 295.697 72.238C296.355 72.602 296.884 73.0873 297.283 73.694C297.681 74.3007 297.881 75.0807 297.881 76.034C297.881 76.9527 297.629 77.8107 297.127 78.608C296.624 79.388 295.844 80.0207 294.787 80.506C293.747 80.974 292.429 81.208 290.835 81.208Z" fill="#194099"/>
<path d="M7.36 28.36H10.96C11.7067 27.4267 12.2933 26.0667 12.72 24.28C13.1733 22.4933 13.4 20.72 13.4 18.96C13.4 14.7733 12.6133 11.72 11.04 9.8H7.36V28.36ZM1.92 33V5H13.52C17.3067 8.36 19.2 12.92 19.2 18.68C19.2 24.4133 17.4267 29.1867 13.88 33H1.92ZM22.3106 33V5H27.7906V28.36H36.1106V33H22.3106ZM51.6466 5H62.2866C63.9666 5.56 65.3932 6.6 66.5666 8.12C67.7666 9.61333 68.3666 11.4533 68.3666 13.64C68.3666 17.2133 66.9532 19.84 64.1266 21.52L68.1666 33H62.5666L59.1666 22.8H57.0466V33H51.6466V5ZM57.0466 9.8V18.32H60.4866C60.9399 18.2133 61.4332 17.76 61.9666 16.96C62.5266 16.1333 62.8066 15.1733 62.8066 14.08C62.8066 12.9867 62.5666 12.0267 62.0866 11.2C61.6332 10.3733 61.1799 9.90667 60.7266 9.8H57.0466ZM71.2559 33V5H85.6159V9.8H76.7359V16.48H84.6559V21.12H76.7359V28.36H85.7759V33H71.2559ZM88.8731 33V5H103.473V9.8H94.3531V16.8H102.273V21.44H94.3531V33H88.8731ZM105.787 5H116.427C118.107 5.56 119.534 6.6 120.707 8.12C121.907 9.61333 122.507 11.4533 122.507 13.64C122.507 17.2133 121.094 19.84 118.267 21.52L122.307 33H116.707L113.307 22.8H111.187V33H105.787V5ZM111.187 9.8V18.32H114.627C115.081 18.2133 115.574 17.76 116.107 16.96C116.667 16.1333 116.947 15.1733 116.947 14.08C116.947 12.9867 116.707 12.0267 116.227 11.2C115.774 10.3733 115.321 9.90667 114.867 9.8H111.187ZM125.397 33V5H130.877V33H125.397ZM148.013 33H139.533C137.613 31.24 136.213 29.1467 135.333 26.72C134.453 24.2933 134.013 21.76 134.013 19.12C134.013 16.4533 134.546 13.8267 135.613 11.24C136.679 8.65333 138.173 6.57333 140.093 5H149.813V9.8H142.373C141.679 10.6 141.079 11.8667 140.573 13.6C140.066 15.3067 139.813 17.1333 139.813 19.08C139.813 21 140.039 22.84 140.493 24.6C140.973 26.3333 141.559 27.5867 142.253 28.36H146.093V17.48H151.373V24.2C151.373 27.88 150.253 30.8133 148.013 33ZM154.498 33V5H168.858V9.8H159.978V16.48H167.898V21.12H159.978V28.36H169.018V33H154.498ZM172.115 5H182.755C184.435 5.56 185.862 6.6 187.035 8.12C188.235 9.61333 188.835 11.4533 188.835 13.64C188.835 17.2133 187.422 19.84 184.595 21.52L188.635 33H183.035L179.635 22.8H177.515V33H172.115V5ZM177.515 9.8V18.32H180.955C181.409 18.2133 181.902 17.76 182.435 16.96C182.995 16.1333 183.275 15.1733 183.275 14.08C183.275 12.9867 183.035 12.0267 182.555 11.2C182.102 10.3733 181.649 9.90667 181.195 9.8H177.515ZM203.645 33L202.805 28.56H196.485L195.645 33H190.205L195.605 5H203.885L209.005 33H203.645ZM199.565 10.2L198.005 19.52L197.125 24.28H202.125L201.205 19.52L199.645 10.2H199.565ZM213.432 9.8H207.392V5H224.912V9.8H218.872V33H213.432V9.8ZM227.233 33V5H232.713V33H227.233ZM249.608 5C251.475 6.52 252.862 8.56 253.768 11.12C254.675 13.68 255.128 16.32 255.128 19.04C255.128 21.7333 254.688 24.2933 253.808 26.72C252.928 29.1467 251.528 31.24 249.608 33H241.368C239.448 31.24 238.048 29.1467 237.168 26.72C236.288 24.2933 235.848 21.7333 235.848 19.04C235.848 16.32 236.302 13.68 237.208 11.12C238.115 8.56 239.502 6.52 241.368 5H249.608ZM244.048 28.36H246.928C247.595 27.5867 248.155 26.3333 248.608 24.6C249.088 22.84 249.328 20.9867 249.328 19.04C249.328 17.0933 249.102 15.2667 248.648 13.56C248.195 11.8267 247.635 10.5733 246.968 9.8H244.048C243.382 10.5733 242.808 11.8267 242.328 13.56C241.875 15.2667 241.648 17.0933 241.648 19.04C241.648 20.9867 241.875 22.84 242.328 24.6C242.808 26.3333 243.382 27.5867 244.048 28.36ZM270.728 33L263.248 17.52L263.048 17.6L263.288 22.32V33H258.248V5H262.288L269.648 21.08L269.848 21L269.408 16.08V5H274.448V33H270.728Z" fill="#194099"/>
<path d="M2 48H299" stroke="#194099"/>
</svg>
