<svg width="311" height="88" viewBox="0 0 311 88" fill="none" xmlns="http://www.w3.org/2000/svg">
<path d="M2.73 81V62.8H4.862L16.9 77.75H15.782V62.8H18.382V81H16.25L4.212 66.05H5.33V81H2.73ZM32.0456 81.208C30.6589 81.208 29.3676 80.974 28.1716 80.506C26.9929 80.038 25.9703 79.388 25.1036 78.556C24.2369 77.7067 23.5609 76.7187 23.0756 75.592C22.5903 74.4653 22.3476 73.2347 22.3476 71.9C22.3476 70.5653 22.5903 69.3347 23.0756 68.208C23.5609 67.0813 24.2369 66.102 25.1036 65.27C25.9703 64.4207 26.9929 63.762 28.1716 63.294C29.3503 62.826 30.6416 62.592 32.0456 62.592C33.4323 62.592 34.7063 62.826 35.8676 63.294C37.0463 63.7447 38.0689 64.3947 38.9356 65.244C39.8196 66.076 40.4956 67.0553 40.9636 68.182C41.4489 69.3087 41.6916 70.548 41.6916 71.9C41.6916 73.252 41.4489 74.4913 40.9636 75.618C40.4956 76.7447 39.8196 77.7327 38.9356 78.582C38.0689 79.414 37.0463 80.064 35.8676 80.532C34.7063 80.9827 33.4323 81.208 32.0456 81.208ZM32.0456 78.894C33.0509 78.894 33.9783 78.7207 34.8276 78.374C35.6943 78.0273 36.4396 77.542 37.0636 76.918C37.7049 76.2767 38.1989 75.5313 38.5456 74.682C38.9096 73.8327 39.0916 72.9053 39.0916 71.9C39.0916 70.8947 38.9096 69.9673 38.5456 69.118C38.1989 68.2687 37.7049 67.532 37.0636 66.908C36.4396 66.2667 35.6943 65.7727 34.8276 65.426C33.9783 65.0793 33.0509 64.906 32.0456 64.906C31.0229 64.906 30.0783 65.0793 29.2116 65.426C28.3623 65.7727 27.6169 66.2667 26.9756 66.908C26.3343 67.532 25.8316 68.2687 25.4676 69.118C25.1209 69.9673 24.9476 70.8947 24.9476 71.9C24.9476 72.9053 25.1209 73.8327 25.4676 74.682C25.8316 75.5313 26.3343 76.2767 26.9756 76.918C27.6169 77.542 28.3623 78.0273 29.2116 78.374C30.0783 78.7207 31.0229 78.894 32.0456 78.894ZM49.0256 81V65.062H42.7856V62.8H57.8396V65.062H51.5996V81H49.0256ZM60.6714 81V62.8H67.7694C69.3641 62.8 70.7247 63.0513 71.8514 63.554C72.9781 64.0567 73.8447 64.7847 74.4514 65.738C75.0581 66.6913 75.3614 67.8267 75.3614 69.144C75.3614 70.4613 75.0581 71.5967 74.4514 72.55C73.8447 73.486 72.9781 74.2053 71.8514 74.708C70.7247 75.2107 69.3641 75.462 67.7694 75.462H62.1014L63.2714 74.266V81H60.6714ZM72.8394 81L68.2114 74.396H70.9934L75.6734 81H72.8394ZM63.2714 74.526L62.1014 73.252H67.6914C69.3554 73.252 70.6121 72.8967 71.4614 72.186C72.3281 71.458 72.7614 70.444 72.7614 69.144C72.7614 67.844 72.3281 66.8387 71.4614 66.128C70.6121 65.4173 69.3554 65.062 67.6914 65.062H62.1014L63.2714 63.762V74.526ZM81.928 70.652H91.288V72.862H81.928V70.652ZM82.162 78.738H92.77V81H79.562V62.8H92.406V65.062H82.162V78.738ZM106.328 70.652H115.688V72.862H106.328V70.652ZM106.562 78.738H117.17V81H103.962V62.8H116.806V65.062H106.562V78.738ZM118.785 81L126.351 70.678V72.68L119.201 62.8H122.165L127.833 70.574L126.663 70.6L132.305 62.8H135.139L128.041 72.524V70.652L135.607 81H132.617L126.585 72.706H127.729L121.775 81H118.785ZM138.062 81V62.8H145.16C146.755 62.8 148.115 63.0513 149.242 63.554C150.369 64.0567 151.235 64.7847 151.842 65.738C152.449 66.6913 152.752 67.8267 152.752 69.144C152.752 70.4613 152.449 71.5967 151.842 72.55C151.235 73.486 150.369 74.214 149.242 74.734C148.115 75.2367 146.755 75.488 145.16 75.488H139.492L140.662 74.266V81H138.062ZM140.662 74.526L139.492 73.226H145.082C146.746 73.226 148.003 72.8707 148.852 72.16C149.719 71.4493 150.152 70.444 150.152 69.144C150.152 67.844 149.719 66.8387 148.852 66.128C148.003 65.4173 146.746 65.062 145.082 65.062H139.492L140.662 63.762V74.526ZM158.938 70.652H168.298V72.862H158.938V70.652ZM159.172 78.738H169.78V81H156.572V62.8H169.416V65.062H159.172V78.738ZM173.99 81V62.8H181.088C182.682 62.8 184.043 63.0513 185.17 63.554C186.296 64.0567 187.163 64.7847 187.77 65.738C188.376 66.6913 188.68 67.8267 188.68 69.144C188.68 70.4613 188.376 71.5967 187.77 72.55C187.163 73.486 186.296 74.2053 185.17 74.708C184.043 75.2107 182.682 75.462 181.088 75.462H175.42L176.59 74.266V81H173.99ZM186.158 81L181.53 74.396H184.312L188.992 81H186.158ZM176.59 74.526L175.42 73.252H181.01C182.674 73.252 183.93 72.8967 184.78 72.186C185.646 71.458 186.08 70.444 186.08 69.144C186.08 67.844 185.646 66.8387 184.78 66.128C183.93 65.4173 182.674 65.062 181.01 65.062H175.42L176.59 63.762V74.526ZM196.24 81V65.062H190V62.8H205.054V65.062H198.814V81H196.24ZM207.886 81V62.8H210.486V81H207.886ZM221.239 81.208C219.852 81.208 218.526 81 217.261 80.584C215.996 80.1507 214.999 79.596 214.271 78.92L215.233 76.892C215.926 77.4987 216.81 78.0013 217.885 78.4C218.96 78.7987 220.078 78.998 221.239 78.998C222.296 78.998 223.154 78.8767 223.813 78.634C224.472 78.3913 224.957 78.062 225.269 77.646C225.581 77.2127 225.737 76.7273 225.737 76.19C225.737 75.566 225.529 75.0633 225.113 74.682C224.714 74.3007 224.186 73.9973 223.527 73.772C222.886 73.5293 222.175 73.3213 221.395 73.148C220.615 72.9747 219.826 72.7753 219.029 72.55C218.249 72.3073 217.53 72.004 216.871 71.64C216.23 71.276 215.71 70.7907 215.311 70.184C214.912 69.56 214.713 68.7627 214.713 67.792C214.713 66.856 214.956 65.998 215.441 65.218C215.944 64.4207 216.706 63.788 217.729 63.32C218.769 62.8347 220.086 62.592 221.681 62.592C222.738 62.592 223.787 62.7307 224.827 63.008C225.867 63.2853 226.768 63.684 227.531 64.204L226.673 66.284C225.893 65.764 225.07 65.3913 224.203 65.166C223.336 64.9233 222.496 64.802 221.681 64.802C220.658 64.802 219.818 64.932 219.159 65.192C218.5 65.452 218.015 65.7987 217.703 66.232C217.408 66.6653 217.261 67.1507 217.261 67.688C217.261 68.3293 217.46 68.8407 217.859 69.222C218.275 69.6033 218.804 69.9067 219.445 70.132C220.104 70.3573 220.823 70.5653 221.603 70.756C222.383 70.9293 223.163 71.1287 223.943 71.354C224.74 71.5793 225.46 71.874 226.101 72.238C226.76 72.602 227.288 73.0873 227.687 73.694C228.086 74.3007 228.285 75.0807 228.285 76.034C228.285 76.9527 228.034 77.8107 227.531 78.608C227.028 79.388 226.248 80.0207 225.191 80.506C224.151 80.974 222.834 81.208 221.239 81.208ZM234.45 70.652H243.81V72.862H234.45V70.652ZM234.684 78.738H245.292V81H232.084V62.8H244.928V65.062H234.684V78.738Z" fill="#194099"/>
<path d="M7.36 28.36H10.96C11.7067 27.4267 12.2933 26.0667 12.72 24.28C13.1733 22.4933 13.4 20.72 13.4 18.96C13.4 14.7733 12.6133 11.72 11.04 9.8H7.36V28.36ZM1.92 33V5H13.52C17.3067 8.36 19.2 12.92 19.2 18.68C19.2 24.4133 17.4267 29.1867 13.88 33H1.92ZM22.3106 33V5H27.7906V28.36H36.1106V33H22.3106ZM51.6466 5H62.2866C63.9666 5.56 65.3932 6.6 66.5666 8.12C67.7666 9.61333 68.3666 11.4533 68.3666 13.64C68.3666 17.2133 66.9532 19.84 64.1266 21.52L68.1666 33H62.5666L59.1666 22.8H57.0466V33H51.6466V5ZM57.0466 9.8V18.32H60.4866C60.9399 18.2133 61.4332 17.76 61.9666 16.96C62.5266 16.1333 62.8066 15.1733 62.8066 14.08C62.8066 12.9867 62.5666 12.0267 62.0866 11.2C61.6332 10.3733 61.1799 9.90667 60.7266 9.8H57.0466ZM71.2559 33V5H85.6159V9.8H76.7359V16.48H84.6559V21.12H76.7359V28.36H85.7759V33H71.2559ZM88.8731 33V5H103.473V9.8H94.3531V16.8H102.273V21.44H94.3531V33H88.8731ZM105.787 5H116.427C118.107 5.56 119.534 6.6 120.707 8.12C121.907 9.61333 122.507 11.4533 122.507 13.64C122.507 17.2133 121.094 19.84 118.267 21.52L122.307 33H116.707L113.307 22.8H111.187V33H105.787V5ZM111.187 9.8V18.32H114.627C115.081 18.2133 115.574 17.76 116.107 16.96C116.667 16.1333 116.947 15.1733 116.947 14.08C116.947 12.9867 116.707 12.0267 116.227 11.2C115.774 10.3733 115.321 9.90667 114.867 9.8H111.187ZM125.397 33V5H130.877V33H125.397ZM148.013 33H139.533C137.613 31.24 136.213 29.1467 135.333 26.72C134.453 24.2933 134.013 21.76 134.013 19.12C134.013 16.4533 134.546 13.8267 135.613 11.24C136.679 8.65333 138.173 6.57333 140.093 5H149.813V9.8H142.373C141.679 10.6 141.079 11.8667 140.573 13.6C140.066 15.3067 139.813 17.1333 139.813 19.08C139.813 21 140.039 22.84 140.493 24.6C140.973 26.3333 141.559 27.5867 142.253 28.36H146.093V17.48H151.373V24.2C151.373 27.88 150.253 30.8133 148.013 33ZM154.498 33V5H168.858V9.8H159.978V16.48H167.898V21.12H159.978V28.36H169.018V33H154.498ZM172.115 5H182.755C184.435 5.56 185.862 6.6 187.035 8.12C188.235 9.61333 188.835 11.4533 188.835 13.64C188.835 17.2133 187.422 19.84 184.595 21.52L188.635 33H183.035L179.635 22.8H177.515V33H172.115V5ZM177.515 9.8V18.32H180.955C181.409 18.2133 181.902 17.76 182.435 16.96C182.995 16.1333 183.275 15.1733 183.275 14.08C183.275 12.9867 183.035 12.0267 182.555 11.2C182.102 10.3733 181.649 9.90667 181.195 9.8H177.515ZM203.645 33L202.805 28.56H196.485L195.645 33H190.205L195.605 5H203.885L209.005 33H203.645ZM199.565 10.2L198.005 19.52L197.125 24.28H202.125L201.205 19.52L199.645 10.2H199.565ZM213.432 9.8H207.392V5H224.912V9.8H218.872V33H213.432V9.8ZM227.233 33V5H232.713V33H227.233ZM249.608 5C251.475 6.52 252.862 8.56 253.768 11.12C254.675 13.68 255.128 16.32 255.128 19.04C255.128 21.7333 254.688 24.2933 253.808 26.72C252.928 29.1467 251.528 31.24 249.608 33H241.368C239.448 31.24 238.048 29.1467 237.168 26.72C236.288 24.2933 235.848 21.7333 235.848 19.04C235.848 16.32 236.302 13.68 237.208 11.12C238.115 8.56 239.502 6.52 241.368 5H249.608ZM244.048 28.36H246.928C247.595 27.5867 248.155 26.3333 248.608 24.6C249.088 22.84 249.328 20.9867 249.328 19.04C249.328 17.0933 249.102 15.2667 248.648 13.56C248.195 11.8267 247.635 10.5733 246.968 9.8H244.048C243.382 10.5733 242.808 11.8267 242.328 13.56C241.875 15.2667 241.648 17.0933 241.648 19.04C241.648 20.9867 241.875 22.84 242.328 24.6C242.808 26.3333 243.382 27.5867 244.048 28.36ZM270.728 33L263.248 17.52L263.048 17.6L263.288 22.32V33H258.248V5H262.288L269.648 21.08L269.848 21L269.408 16.08V5H274.448V33H270.728Z" fill="#194099"/>
<path d="M2 48H276" stroke="#194099"/>
</svg>
