<svg width="363" height="35" viewBox="0 0 363 35" fill="none" xmlns="http://www.w3.org/2000/svg">
<path d="M7.728 28.128H11.508C12.292 27.148 12.908 25.72 13.356 23.844C13.832 21.968 14.07 20.106 14.07 18.258C14.07 13.862 13.244 10.656 11.592 8.64H7.728V28.128ZM2.016 33V3.6H14.196C18.172 7.128 20.16 11.916 20.16 17.964C20.16 23.984 18.298 28.996 14.574 33H2.016ZM23.4262 33V3.6H29.1802V28.128H37.9162V33H23.4262ZM53.5883 3.6H64.7603C66.5243 4.188 68.0223 5.28 69.2543 6.876C70.5143 8.444 71.1443 10.376 71.1443 12.672C71.1443 16.424 69.6603 19.182 66.6923 20.946L70.9343 33H65.0543L61.4843 22.29H59.2583V33H53.5883V3.6ZM59.2583 8.64V17.586H62.8703C63.3463 17.474 63.8643 16.998 64.4243 16.158C65.0123 15.29 65.3063 14.282 65.3063 13.134C65.3063 11.986 65.0543 10.978 64.5503 10.11C64.0743 9.242 63.5983 8.752 63.1223 8.64H59.2583ZM74.1781 33V3.6H89.2561V8.64H79.9321V15.654H88.2481V20.526H79.9321V28.128H89.4241V33H74.1781ZM92.6762 33V3.6H108.006V8.64H98.4302V15.99H106.746V20.862H98.4302V33H92.6762ZM110.436 3.6H121.608C123.372 4.188 124.87 5.28 126.102 6.876C127.362 8.444 127.992 10.376 127.992 12.672C127.992 16.424 126.508 19.182 123.54 20.946L127.782 33H121.902L118.332 22.29H116.106V33H110.436V3.6ZM116.106 8.64V17.586H119.718C120.194 17.474 120.712 16.998 121.272 16.158C121.86 15.29 122.154 14.282 122.154 13.134C122.154 11.986 121.902 10.978 121.398 10.11C120.922 9.242 120.446 8.752 119.97 8.64H116.106ZM131.026 33V3.6H136.78V33H131.026ZM154.773 33H145.869C143.853 31.152 142.383 28.954 141.459 26.406C140.535 23.858 140.073 21.198 140.073 18.426C140.073 15.626 140.633 12.868 141.753 10.152C142.873 7.436 144.441 5.252 146.457 3.6H156.663V8.64H148.851C148.123 9.48 147.493 10.81 146.961 12.63C146.429 14.422 146.163 16.34 146.163 18.384C146.163 20.4 146.401 22.332 146.877 24.18C147.381 26 147.997 27.316 148.725 28.128H152.757V16.704H158.301V23.76C158.301 27.624 157.125 30.704 154.773 33ZM161.582 33V3.6H176.66V8.64H167.336V15.654H175.652V20.526H167.336V28.128H176.828V33H161.582ZM180.08 3.6H191.252C193.016 4.188 194.514 5.28 195.746 6.876C197.006 8.444 197.636 10.376 197.636 12.672C197.636 16.424 196.152 19.182 193.184 20.946L197.426 33H191.546L187.976 22.29H185.75V33H180.08V3.6ZM185.75 8.64V17.586H189.362C189.838 17.474 190.356 16.998 190.916 16.158C191.504 15.29 191.798 14.282 191.798 13.134C191.798 11.986 191.546 10.978 191.042 10.11C190.566 9.242 190.09 8.752 189.614 8.64H185.75ZM213.186 33L212.304 28.338H205.668L204.786 33H199.074L204.744 3.6H213.438L218.814 33H213.186ZM208.902 9.06L207.264 18.846L206.34 23.844H211.59L210.624 18.846L208.986 9.06H208.902ZM223.463 8.64H217.121V3.6H235.517V8.64H229.175V33H223.463V8.64ZM237.954 33V3.6H243.708V33H237.954ZM261.448 3.6C263.408 5.196 264.864 7.338 265.816 10.026C266.768 12.714 267.244 15.486 267.244 18.342C267.244 21.17 266.782 23.858 265.858 26.406C264.934 28.954 263.464 31.152 261.448 33H252.796C250.78 31.152 249.31 28.954 248.386 26.406C247.462 23.858 247 21.17 247 18.342C247 15.486 247.476 12.714 248.428 10.026C249.38 7.338 250.836 5.196 252.796 3.6H261.448ZM255.61 28.128H258.634C259.334 27.316 259.922 26 260.398 24.18C260.902 22.332 261.154 20.386 261.154 18.342C261.154 16.298 260.916 14.38 260.44 12.588C259.964 10.768 259.376 9.452 258.676 8.64H255.61C254.91 9.452 254.308 10.768 253.804 12.588C253.328 14.38 253.09 16.298 253.09 18.342C253.09 20.386 253.328 22.332 253.804 24.18C254.308 26 254.91 27.316 255.61 28.128ZM283.624 33L275.77 16.746L275.56 16.83L275.812 21.786V33H270.52V3.6H274.762L282.49 20.484L282.7 20.4L282.238 15.234V3.6H287.53V33H283.624Z" fill="#194099"/>
</svg>
