<svg width="54" height="47" viewBox="0 0 54 47" fill="none" xmlns="http://www.w3.org/2000/svg">
<path d="M53.8335 4.39386V32.1289C53.8335 34.5465 51.8573 36.5228 49.4397 36.5228H2.80517C1.27019 36.5228 0.0134277 35.266 0.0134277 33.7311V4.39386C0.0134277 1.97628 1.98971 0 4.40729 0H49.4397C51.8572 0 53.8335 1.97628 53.8335 4.39386H53.8335Z" fill="white"/>
<path d="M53.8339 21.1344V23.4464C53.8339 23.7246 53.7572 24.0028 53.6229 24.2523L45.8616 37.7025L41.3431 45.5213C40.7195 46.6053 39.1461 46.5861 38.5417 45.4925L34.263 37.7025L25.8782 22.4391C25.293 21.3838 26.0413 20.0887 27.2501 20.0599L52.1934 19.5322C53.0952 19.513 53.8339 20.2422 53.8339 21.1344V21.1344Z" fill="white"/>
<path d="M7.11309 9.46876L8.29309 7.05118C8.437 6.75377 8.85912 6.75377 9.00302 7.05118L10.2022 9.45917C10.2598 9.57429 10.3749 9.66063 10.4996 9.67982L13.157 10.054C13.4832 10.1019 13.6175 10.5049 13.3777 10.7351L11.459 12.6155C11.363 12.7114 11.3247 12.8361 11.3439 12.9704L11.8139 15.6183C11.8715 15.9444 11.5261 16.1939 11.2383 16.0404L8.84951 14.8028C8.73439 14.7452 8.59049 14.7452 8.47537 14.8028L6.10575 16.0691C5.81794 16.2226 5.47257 15.9732 5.53014 15.6566L5.97144 13.0088C5.99063 12.8841 5.95225 12.7498 5.85632 12.6538L3.91841 10.7831C3.67857 10.5528 3.81288 10.1499 4.13906 10.1019L6.79649 9.69901C6.9308 9.67982 7.03633 9.59348 7.09389 9.47835L7.11309 9.46876Z" fill="#FFDE00"/>
<path d="M31.3754 9.46876L32.5554 7.05118C32.6993 6.75377 33.1214 6.75377 33.2654 7.05118L34.4646 9.45917C34.5221 9.57429 34.6372 9.66063 34.762 9.67982L37.4194 10.054C37.7456 10.1019 37.8799 10.5049 37.64 10.7351L35.7213 12.6155C35.6254 12.7114 35.587 12.8361 35.6062 12.9704L36.0763 15.6183C36.1338 15.9444 35.7885 16.1939 35.5007 16.0404L33.1119 14.8028C32.9967 14.7452 32.8528 14.7452 32.7377 14.8028L30.3681 16.0691C30.0803 16.2226 29.7349 15.9732 29.7925 15.6566L30.2338 13.0088C30.253 12.8841 30.2146 12.7498 30.1187 12.6538L28.1807 10.7831C27.9409 10.5528 28.0752 10.1499 28.4014 10.1019L31.0588 9.69901C31.1931 9.67982 31.2987 9.59348 31.3562 9.47835L31.3754 9.46876Z" fill="#FFDE00"/>
<path d="M19.2506 9.46876L20.4306 7.05118C20.5745 6.75377 20.9966 6.75377 21.1405 7.05118L22.3397 9.45917C22.3973 9.57429 22.5124 9.66063 22.6371 9.67982L25.2946 10.054C25.6207 10.1019 25.755 10.5049 25.5152 10.7351L23.5965 12.6155C23.5006 12.7114 23.4622 12.8361 23.4814 12.9704L23.9515 15.6183C24.009 15.9444 23.6636 16.1939 23.3758 16.0404L20.987 14.8028C20.8719 14.7452 20.728 14.7452 20.6129 14.8028L18.2433 16.0691C17.9555 16.2226 17.6101 15.9732 17.6676 15.6566L18.109 13.0088C18.1281 12.8841 18.0898 12.7498 17.9938 12.6538L16.0559 10.7831C15.8161 10.5528 15.9504 10.1499 16.2766 10.1019L18.934 9.69901C19.0683 9.67982 19.1738 9.59348 19.2314 9.47835L19.2506 9.46876Z" fill="#FFDE00"/>
<path d="M43.5111 9.46876L44.6911 7.05118C44.835 6.75377 45.2571 6.75377 45.401 7.05118L46.6002 9.45917C46.6578 9.57429 46.7729 9.66063 46.8976 9.67982L49.5551 10.054C49.8812 10.1019 50.0155 10.5049 49.7757 10.7351L47.857 12.6155C47.7611 12.7114 47.7227 12.8361 47.7419 12.9704L48.212 15.6183C48.2695 15.9444 47.9241 16.1939 47.6363 16.0404L45.2475 14.8028C45.1324 14.7452 44.9885 14.7452 44.8734 14.8028L42.5038 16.0691C42.2159 16.2226 41.8706 15.9732 41.9281 15.6566L42.3694 13.0088C42.3886 12.8841 42.3503 12.7498 42.2543 12.6538L40.3164 10.7831C40.0766 10.5528 40.2109 10.1499 40.5371 10.1019L43.1945 9.69901C43.3288 9.67982 43.4343 9.59348 43.4919 9.47835L43.5111 9.46876Z" fill="#FFDE00"/>
<line x1="3.35168" y1="21.1796" x2="49.4585" y2="21.1796" stroke="#CECFD4" stroke-width="2.5"/>
<line x1="3.35168" y1="27.1759" x2="33.514" y2="27.1759" stroke="#CECFD4" stroke-width="2.5"/>
</svg>
