<svg width="40" height="26" viewBox="0 0 40 26" fill="none" xmlns="http://www.w3.org/2000/svg">
<path d="M36.5187 0.800781H3.71678C2.02133 0.800781 0.641602 2.18051 0.641602 3.87596V22.327C0.641602 24.0225 2.02133 25.4022 3.71678 25.4022H36.5187C38.2141 25.4022 39.5939 24.0225 39.5939 22.327V3.87596C39.5939 2.18051 38.2141 0.800781 36.5187 0.800781ZM36.5187 2.8509C36.5802 2.8509 36.6376 2.85705 36.6971 2.8673L21.2556 13.161C20.661 13.5566 19.5765 13.5566 18.982 13.161L3.54047 2.8673C3.59787 2.85705 3.65733 2.8509 3.71883 2.8509H36.5207H36.5187ZM36.5187 23.3521H3.71678C3.15095 23.3521 2.69172 22.8929 2.69172 22.327V4.76571L17.8442 14.8667C18.4817 15.291 19.2997 15.5042 20.1177 15.5042C20.9357 15.5042 21.7537 15.291 22.3913 14.8667L37.5438 4.76571V22.327C37.5438 22.8929 37.0845 23.3521 36.5187 23.3521Z" fill="#194099"/>
</svg>
