<svg width="15" height="23" viewBox="0 0 15 23" fill="none" xmlns="http://www.w3.org/2000/svg">
<path d="M7.52767 21.903C7.36776 21.903 7.21621 21.8298 7.11692 21.7034C7.05735 21.6271 5.6349 19.8075 4.19364 17.1204C3.34498 15.5391 2.66772 13.986 2.18172 12.505C1.56822 10.6373 1.25781 8.87625 1.25781 7.2709C1.25781 3.81354 4.07136 1 7.52871 1C10.9861 1 13.7996 3.81354 13.7996 7.2709C13.7996 8.87625 13.4882 10.6363 12.8757 12.505C12.3897 13.986 11.7124 15.5391 10.8638 17.1204C9.42148 19.8075 8.00007 21.6271 7.9405 21.7034C7.84121 21.8298 7.68966 21.903 7.52976 21.903H7.52767ZM7.52767 2.04515C4.64619 2.04515 2.30192 4.38942 2.30192 7.2709C2.30192 10.6718 3.83097 14.2358 5.11441 16.626C6.05714 18.3829 7.00509 19.7761 7.52767 20.5035C8.05233 19.773 9.00655 18.3714 9.95032 16.6093C11.2285 14.2232 12.7534 10.6655 12.7534 7.2709C12.7534 4.38942 10.4091 2.04515 7.52767 2.04515V2.04515Z" fill="white" stroke="white"/>
<path d="M7.52755 10.4065C5.79888 10.4065 4.39211 8.99975 4.39211 7.27107C4.39211 5.54239 5.79888 4.13562 7.52755 4.13562C9.25623 4.13562 10.663 5.54239 10.663 7.27107C10.663 8.99975 9.25623 10.4065 7.52755 10.4065ZM7.52755 5.18077C6.37475 5.18077 5.43726 6.11827 5.43726 7.27107C5.43726 8.42387 6.37475 9.36137 7.52755 9.36137C8.68035 9.36137 9.61785 8.42387 9.61785 7.27107C9.61785 6.11827 8.68035 5.18077 7.52755 5.18077Z" fill="white" stroke="white"/>
</svg>
