<svg width="27" height="27" viewBox="0 0 27 27" fill="none" xmlns="http://www.w3.org/2000/svg">
<path d="M20.6134 25.6002C18.4351 25.6002 16.1177 24.9827 13.7253 23.765C11.5199 22.642 9.34158 21.0344 7.42523 19.1156C5.50887 17.1968 3.9037 15.016 2.78193 12.8093C1.56668 10.4157 0.949219 8.09839 0.949219 5.92004C0.949219 4.50799 2.26533 3.14391 2.82991 2.62361C3.64294 1.87454 4.92215 1 5.85204 1C6.31453 1 6.85573 1.30258 7.55807 1.95203C8.08082 2.43665 8.67 3.09348 9.25917 3.85116C9.61464 4.30873 11.3871 6.64452 11.3871 7.76506C11.3871 8.68388 10.3477 9.32348 9.2481 9.99876C8.82252 10.2595 8.3834 10.5301 8.06606 10.7847C7.72658 11.0566 7.66631 11.2005 7.65647 11.2325C8.82375 14.1427 12.392 17.7109 15.301 18.877C15.3268 18.8684 15.4707 18.8118 15.7475 18.4674C16.0021 18.15 16.2727 17.7097 16.5335 17.2853C17.21 16.1857 17.8483 15.1464 18.7672 15.1464C19.8877 15.1464 22.2235 16.9188 22.681 17.2743C23.4387 17.8634 24.0956 18.4526 24.5802 18.9754C25.2296 19.6765 25.5322 20.2189 25.5322 20.6814C25.5322 21.6113 24.6577 22.8942 23.9098 23.7109C23.3883 24.2792 22.0242 25.6014 20.6122 25.6014L20.6134 25.6002ZM5.84589 2.23001C5.51625 2.23616 4.62941 2.6396 3.66508 3.52767C2.74996 4.37146 2.18046 5.28782 2.18046 5.92004C2.18046 14.1968 12.3453 24.3702 20.6134 24.3702C21.2444 24.3702 22.1608 23.7982 23.0045 22.8782C23.8938 21.909 24.2973 21.0184 24.3034 20.6875C24.2641 20.4538 23.6171 19.5449 21.8471 18.182C20.3256 17.0111 19.0919 16.3825 18.7745 16.3751C18.7524 16.3813 18.6146 16.4342 18.3354 16.7884C18.0931 17.0971 17.8336 17.519 17.5814 17.9274C16.8926 19.0479 16.2419 20.107 15.2961 20.107C15.1435 20.107 14.9935 20.0775 14.8496 20.0197C11.6208 18.7281 7.80284 14.9102 6.51133 11.6814C6.35635 11.294 6.33175 10.6863 7.09435 9.99507C7.50026 9.6273 8.06114 9.28289 8.60481 8.94833C9.01317 8.69741 9.43629 8.43788 9.7438 8.19433C10.098 7.91512 10.1509 7.77736 10.1571 7.75522C10.1485 7.43788 9.52116 6.20418 8.35019 4.68265C6.98734 2.91267 6.07836 2.26691 5.84466 2.22632L5.84589 2.23001Z" fill="#194099" stroke="#104594"/>
</svg>
