<svg width="24" height="16" viewBox="0 0 24 16" fill="none" xmlns="http://www.w3.org/2000/svg">
<path d="M22.1053 0H1.89474C0.850105 0 0 0.897333 0 2V14C0 15.1027 0.850105 16 1.89474 16H22.1053C23.1499 16 24 15.1027 24 14V2C24 0.897333 23.1499 0 22.1053 0ZM22.1053 1.33333C22.1432 1.33333 22.1785 1.33733 22.2152 1.344L12.7011 8.03867C12.3347 8.296 11.6665 8.296 11.3002 8.03867L1.78611 1.344C1.82147 1.33733 1.85811 1.33333 1.896 1.33333H22.1065H22.1053ZM22.1053 14.6667H1.89474C1.54611 14.6667 1.26316 14.368 1.26316 14V2.57867L10.5992 9.148C10.992 9.424 11.496 9.56267 12 9.56267C12.504 9.56267 13.008 9.424 13.4008 9.148L22.7368 2.57867V14C22.7368 14.368 22.4539 14.6667 22.1053 14.6667Z" fill="white"/>
</svg>
