<svg width="20" height="20" viewBox="0 0 20 20" fill="none" xmlns="http://www.w3.org/2000/svg">
<path d="M15.3984 18.9991C13.8034 18.9991 12.1066 18.5473 10.3548 17.6564C8.74002 16.8347 7.145 15.6585 5.74182 14.2545C4.33864 12.8506 3.16331 11.255 2.34194 9.64047C1.45212 7.88915 1 6.19364 1 4.59982C1 3.56667 1.96367 2.56862 2.37706 2.18794C2.97238 1.63987 3.90904 1 4.58991 1C4.92855 1 5.32483 1.22139 5.83909 1.69657C6.22186 2.05115 6.65326 2.53172 7.08466 3.0861C7.34494 3.42088 8.64275 5.12989 8.64275 5.94975C8.64275 6.62202 7.88172 7.09 7.07655 7.58407C6.76494 7.77486 6.44341 7.97285 6.21105 8.15914C5.96247 8.35803 5.91834 8.46333 5.91114 8.48673C6.76584 10.616 9.37856 13.2268 11.5086 14.0799C11.5275 14.0736 11.6328 14.0323 11.8355 13.7803C12.0219 13.5481 12.2201 13.2259 12.411 12.9154C12.9063 12.1108 13.3738 11.3504 14.0465 11.3504C14.867 11.3504 16.5773 12.6472 16.9123 12.9073C17.4671 13.3384 17.9481 13.7695 18.3029 14.1519C18.7784 14.6649 19 15.0618 19 15.4002C19 16.0805 18.3597 17.0192 17.8121 17.6168C17.4302 18.0325 16.4314 19 15.3975 19L15.3984 18.9991ZM4.58541 1.89996C4.34404 1.90446 3.69469 2.19964 2.98859 2.84941C2.31852 3.46678 1.90153 4.13724 1.90153 4.59982C1.90153 10.6556 9.34434 18.0991 15.3984 18.0991C15.8604 18.0991 16.5314 17.6807 17.1492 17.0075C17.8004 16.2983 18.0958 15.6468 18.1003 15.4047C18.0715 15.2337 17.5977 14.5686 16.3017 13.5715C15.1876 12.7147 14.2843 12.2548 14.0519 12.2494C14.0357 12.2539 13.9349 12.2926 13.7304 12.5518C13.553 12.7777 13.363 13.0864 13.1783 13.3852C12.674 14.205 12.1975 14.9799 11.505 14.9799C11.3933 14.9799 11.2834 14.9583 11.178 14.916C8.81387 13.9711 6.01831 11.1776 5.07265 8.81521C4.95917 8.53173 4.94116 8.08715 5.49955 7.58137C5.79676 7.31229 6.20745 7.0603 6.60553 6.81551C6.90454 6.63192 7.21435 6.44203 7.43951 6.26384C7.69889 6.05955 7.73762 5.95875 7.74212 5.94255C7.73582 5.71037 7.2765 4.80771 6.4191 3.69447C5.4212 2.39943 4.75563 1.92696 4.58451 1.89726L4.58541 1.89996Z" fill="white" stroke="white"/>
</svg>
