<svg width="388" height="88" viewBox="0 0 388 88" fill="none" xmlns="http://www.w3.org/2000/svg">
<path d="M5.096 70.652H14.456V72.862H5.096V70.652ZM5.33 78.738H15.938V81H2.73V62.8H15.574V65.062H5.33V78.738ZM17.5528 81L25.1188 70.678V72.68L17.9688 62.8H20.9328L26.6008 70.574L25.4308 70.6L31.0728 62.8H33.9068L26.8088 72.524V70.652L34.3748 81H31.3848L25.3528 72.706H26.4968L20.5428 81H17.5528ZM39.1956 70.652H48.5556V72.862H39.1956V70.652ZM39.4296 78.738H50.0376V81H36.8296V62.8H49.6736V65.062H39.4296V78.738ZM54.2476 81V62.8H56.3796L64.5436 76.554H63.3996L71.4596 62.8H73.5916L73.6176 81H71.1216L71.0956 66.726H71.6936L64.5176 78.79H63.3216L56.0936 66.726H56.7436V81H54.2476ZM79.0796 81V62.8H86.1776C87.7723 62.8 89.1329 63.0513 90.2596 63.554C91.3863 64.0567 92.2529 64.7847 92.8596 65.738C93.4663 66.6913 93.7696 67.8267 93.7696 69.144C93.7696 70.4613 93.4663 71.5967 92.8596 72.55C92.2529 73.486 91.3863 74.214 90.2596 74.734C89.1329 75.2367 87.7723 75.488 86.1776 75.488H80.5096L81.6796 74.266V81H79.0796ZM81.6796 74.526L80.5096 73.226H86.0996C87.7636 73.226 89.0203 72.8707 89.8696 72.16C90.7363 71.4493 91.1696 70.444 91.1696 69.144C91.1696 67.844 90.7363 66.8387 89.8696 66.128C89.0203 65.4173 87.7636 65.062 86.0996 65.062H80.5096L81.6796 63.762V74.526ZM97.5894 81V62.8H100.189V78.738H110.043V81H97.5894ZM115.393 70.652H124.753V72.862H115.393V70.652ZM115.627 78.738H126.235V81H113.027V62.8H125.871V65.062H115.627V78.738ZM135.749 81.208C134.362 81.208 133.036 81 131.771 80.584C130.506 80.1507 129.509 79.596 128.781 78.92L129.743 76.892C130.436 77.4987 131.32 78.0013 132.395 78.4C133.47 78.7987 134.588 78.998 135.749 78.998C136.806 78.998 137.664 78.8767 138.323 78.634C138.982 78.3913 139.467 78.062 139.779 77.646C140.091 77.2127 140.247 76.7273 140.247 76.19C140.247 75.566 140.039 75.0633 139.623 74.682C139.224 74.3007 138.696 73.9973 138.037 73.772C137.396 73.5293 136.685 73.3213 135.905 73.148C135.125 72.9747 134.336 72.7753 133.539 72.55C132.759 72.3073 132.04 72.004 131.381 71.64C130.74 71.276 130.22 70.7907 129.821 70.184C129.422 69.56 129.223 68.7627 129.223 67.792C129.223 66.856 129.466 65.998 129.951 65.218C130.454 64.4207 131.216 63.788 132.239 63.32C133.279 62.8347 134.596 62.592 136.191 62.592C137.248 62.592 138.297 62.7307 139.337 63.008C140.377 63.2853 141.278 63.684 142.041 64.204L141.183 66.284C140.403 65.764 139.58 65.3913 138.713 65.166C137.846 64.9233 137.006 64.802 136.191 64.802C135.168 64.802 134.328 64.932 133.669 65.192C133.01 65.452 132.525 65.7987 132.213 66.232C131.918 66.6653 131.771 67.1507 131.771 67.688C131.771 68.3293 131.97 68.8407 132.369 69.222C132.785 69.6033 133.314 69.9067 133.955 70.132C134.614 70.3573 135.333 70.5653 136.113 70.756C136.893 70.9293 137.673 71.1287 138.453 71.354C139.25 71.5793 139.97 71.874 140.611 72.238C141.27 72.602 141.798 73.0873 142.197 73.694C142.596 74.3007 142.795 75.0807 142.795 76.034C142.795 76.9527 142.544 77.8107 142.041 78.608C141.538 79.388 140.758 80.0207 139.701 80.506C138.661 80.974 137.344 81.208 135.749 81.208ZM153.576 81V62.8H161.246C163.187 62.8 164.894 63.1813 166.368 63.944C167.858 64.7067 169.011 65.7727 169.826 67.142C170.658 68.5113 171.074 70.0973 171.074 71.9C171.074 73.7027 170.658 75.2887 169.826 76.658C169.011 78.0273 167.858 79.0933 166.368 79.856C164.894 80.6187 163.187 81 161.246 81H153.576ZM156.176 78.738H161.09C162.598 78.738 163.898 78.452 164.99 77.88C166.099 77.308 166.957 76.5107 167.564 75.488C168.17 74.448 168.474 73.252 168.474 71.9C168.474 70.5307 168.17 69.3347 167.564 68.312C166.957 67.2893 166.099 66.492 164.99 65.92C163.898 65.348 162.598 65.062 161.09 65.062H156.176V78.738ZM173.323 68.806L174.623 63.528L174.961 65.036C174.459 65.036 174.034 64.88 173.687 64.568C173.358 64.256 173.193 63.84 173.193 63.32C173.193 62.7827 173.358 62.358 173.687 62.046C174.034 61.7167 174.45 61.552 174.935 61.552C175.438 61.552 175.845 61.7253 176.157 62.072C176.469 62.4013 176.625 62.8173 176.625 63.32C176.625 63.476 176.617 63.6407 176.599 63.814C176.582 63.97 176.539 64.152 176.469 64.36C176.417 64.568 176.331 64.8367 176.209 65.166L174.961 68.806H173.323ZM180.566 81V62.8H183.166V81H180.566ZM188.615 81V62.8H190.747L202.785 77.75H201.667V62.8H204.267V81H202.135L190.097 66.05H191.215V81H188.615ZM215.018 81.208C213.632 81.208 212.306 81 211.04 80.584C209.775 80.1507 208.778 79.596 208.05 78.92L209.012 76.892C209.706 77.4987 210.59 78.0013 211.664 78.4C212.739 78.7987 213.857 78.998 215.018 78.998C216.076 78.998 216.934 78.8767 217.592 78.634C218.251 78.3913 218.736 78.062 219.048 77.646C219.36 77.2127 219.516 76.7273 219.516 76.19C219.516 75.566 219.308 75.0633 218.892 74.682C218.494 74.3007 217.965 73.9973 217.306 73.772C216.665 73.5293 215.954 73.3213 215.174 73.148C214.394 72.9747 213.606 72.7753 212.808 72.55C212.028 72.3073 211.309 72.004 210.65 71.64C210.009 71.276 209.489 70.7907 209.09 70.184C208.692 69.56 208.492 68.7627 208.492 67.792C208.492 66.856 208.735 65.998 209.22 65.218C209.723 64.4207 210.486 63.788 211.508 63.32C212.548 62.8347 213.866 62.592 215.46 62.592C216.518 62.592 217.566 62.7307 218.606 63.008C219.646 63.2853 220.548 63.684 221.31 64.204L220.452 66.284C219.672 65.764 218.849 65.3913 217.982 65.166C217.116 64.9233 216.275 64.802 215.46 64.802C214.438 64.802 213.597 64.932 212.938 65.192C212.28 65.452 211.794 65.7987 211.482 66.232C211.188 66.6653 211.04 67.1507 211.04 67.688C211.04 68.3293 211.24 68.8407 211.638 69.222C212.054 69.6033 212.583 69.9067 213.224 70.132C213.883 70.3573 214.602 70.5653 215.382 70.756C216.162 70.9293 216.942 71.1287 217.722 71.354C218.52 71.5793 219.239 71.874 219.88 72.238C220.539 72.602 221.068 73.0873 221.466 73.694C221.865 74.3007 222.064 75.0807 222.064 76.034C222.064 76.9527 221.813 77.8107 221.31 78.608C220.808 79.388 220.028 80.0207 218.97 80.506C217.93 80.974 216.613 81.208 215.018 81.208ZM229.223 81V65.062H222.983V62.8H238.037V65.062H231.797V81H229.223ZM237.199 81L245.441 62.8H248.015L256.283 81H253.553L246.195 64.256H247.235L239.877 81H237.199ZM240.709 76.45L241.411 74.37H251.655L252.409 76.45H240.709ZM258.998 81V62.8H261.598V78.738H271.452V81H258.998ZM274.435 81V62.8H277.035V78.738H286.889V81H274.435ZM287.117 81L295.359 62.8H297.933L306.201 81H303.471L296.113 64.256H297.153L289.795 81H287.117ZM290.627 76.45L291.329 74.37H301.573L302.327 76.45H290.627ZM311.615 81V65.062H305.375V62.8H320.429V65.062H314.189V81H311.615ZM323.261 81V62.8H325.861V81H323.261ZM339.526 81.208C338.139 81.208 336.848 80.974 335.652 80.506C334.473 80.038 333.451 79.388 332.584 78.556C331.717 77.7067 331.041 76.7187 330.556 75.592C330.071 74.4653 329.828 73.2347 329.828 71.9C329.828 70.5653 330.071 69.3347 330.556 68.208C331.041 67.0813 331.717 66.102 332.584 65.27C333.451 64.4207 334.473 63.762 335.652 63.294C336.831 62.826 338.122 62.592 339.526 62.592C340.913 62.592 342.187 62.826 343.348 63.294C344.527 63.7447 345.549 64.3947 346.416 65.244C347.3 66.076 347.976 67.0553 348.444 68.182C348.929 69.3087 349.172 70.548 349.172 71.9C349.172 73.252 348.929 74.4913 348.444 75.618C347.976 76.7447 347.3 77.7327 346.416 78.582C345.549 79.414 344.527 80.064 343.348 80.532C342.187 80.9827 340.913 81.208 339.526 81.208ZM339.526 78.894C340.531 78.894 341.459 78.7207 342.308 78.374C343.175 78.0273 343.92 77.542 344.544 76.918C345.185 76.2767 345.679 75.5313 346.026 74.682C346.39 73.8327 346.572 72.9053 346.572 71.9C346.572 70.8947 346.39 69.9673 346.026 69.118C345.679 68.2687 345.185 67.532 344.544 66.908C343.92 66.2667 343.175 65.7727 342.308 65.426C341.459 65.0793 340.531 64.906 339.526 64.906C338.503 64.906 337.559 65.0793 336.692 65.426C335.843 65.7727 335.097 66.2667 334.456 66.908C333.815 67.532 333.312 68.2687 332.948 69.118C332.601 69.9673 332.428 70.8947 332.428 71.9C332.428 72.9053 332.601 73.8327 332.948 74.682C333.312 75.5313 333.815 76.2767 334.456 76.918C335.097 77.542 335.843 78.0273 336.692 78.374C337.559 78.7207 338.503 78.894 339.526 78.894ZM353.146 81V62.8H355.278L367.316 77.75H366.198V62.8H368.798V81H366.666L354.628 66.05H355.746V81H353.146ZM379.55 81.208C378.163 81.208 376.837 81 375.572 80.584C374.306 80.1507 373.31 79.596 372.582 78.92L373.544 76.892C374.237 77.4987 375.121 78.0013 376.196 78.4C377.27 78.7987 378.388 78.998 379.55 78.998C380.607 78.998 381.465 78.8767 382.124 78.634C382.782 78.3913 383.268 78.062 383.58 77.646C383.892 77.2127 384.048 76.7273 384.048 76.19C384.048 75.566 383.84 75.0633 383.424 74.682C383.025 74.3007 382.496 73.9973 381.838 73.772C381.196 73.5293 380.486 73.3213 379.706 73.148C378.926 72.9747 378.137 72.7753 377.34 72.55C376.56 72.3073 375.84 72.004 375.182 71.64C374.54 71.276 374.02 70.7907 373.622 70.184C373.223 69.56 373.024 68.7627 373.024 67.792C373.024 66.856 373.266 65.998 373.752 65.218C374.254 64.4207 375.017 63.788 376.04 63.32C377.08 62.8347 378.397 62.592 379.992 62.592C381.049 62.592 382.098 62.7307 383.138 63.008C384.178 63.2853 385.079 63.684 385.842 64.204L384.984 66.284C384.204 65.764 383.38 65.3913 382.514 65.166C381.647 64.9233 380.806 64.802 379.992 64.802C378.969 64.802 378.128 64.932 377.47 65.192C376.811 65.452 376.326 65.7987 376.014 66.232C375.719 66.6653 375.572 67.1507 375.572 67.688C375.572 68.3293 375.771 68.8407 376.17 69.222C376.586 69.6033 377.114 69.9067 377.756 70.132C378.414 70.3573 379.134 70.5653 379.914 70.756C380.694 70.9293 381.474 71.1287 382.254 71.354C383.051 71.5793 383.77 71.874 384.412 72.238C385.07 72.602 385.599 73.0873 385.998 73.694C386.396 74.3007 386.596 75.0807 386.596 76.034C386.596 76.9527 386.344 77.8107 385.842 78.608C385.339 79.388 384.559 80.0207 383.502 80.506C382.462 80.974 381.144 81.208 379.55 81.208Z" fill="#194099"/>
<path d="M7.36 28.36H10.96C11.7067 27.4267 12.2933 26.0667 12.72 24.28C13.1733 22.4933 13.4 20.72 13.4 18.96C13.4 14.7733 12.6133 11.72 11.04 9.8H7.36V28.36ZM1.92 33V5H13.52C17.3067 8.36 19.2 12.92 19.2 18.68C19.2 24.4133 17.4267 29.1867 13.88 33H1.92ZM22.3106 33V5H27.7906V28.36H36.1106V33H22.3106ZM51.6466 5H62.2866C63.9666 5.56 65.3932 6.6 66.5666 8.12C67.7666 9.61333 68.3666 11.4533 68.3666 13.64C68.3666 17.2133 66.9532 19.84 64.1266 21.52L68.1666 33H62.5666L59.1666 22.8H57.0466V33H51.6466V5ZM57.0466 9.8V18.32H60.4866C60.9399 18.2133 61.4332 17.76 61.9666 16.96C62.5266 16.1333 62.8066 15.1733 62.8066 14.08C62.8066 12.9867 62.5666 12.0267 62.0866 11.2C61.6332 10.3733 61.1799 9.90667 60.7266 9.8H57.0466ZM71.2559 33V5H85.6159V9.8H76.7359V16.48H84.6559V21.12H76.7359V28.36H85.7759V33H71.2559ZM88.8731 33V5H103.473V9.8H94.3531V16.8H102.273V21.44H94.3531V33H88.8731ZM105.787 5H116.427C118.107 5.56 119.534 6.6 120.707 8.12C121.907 9.61333 122.507 11.4533 122.507 13.64C122.507 17.2133 121.094 19.84 118.267 21.52L122.307 33H116.707L113.307 22.8H111.187V33H105.787V5ZM111.187 9.8V18.32H114.627C115.081 18.2133 115.574 17.76 116.107 16.96C116.667 16.1333 116.947 15.1733 116.947 14.08C116.947 12.9867 116.707 12.0267 116.227 11.2C115.774 10.3733 115.321 9.90667 114.867 9.8H111.187ZM125.397 33V5H130.877V33H125.397ZM148.013 33H139.533C137.613 31.24 136.213 29.1467 135.333 26.72C134.453 24.2933 134.013 21.76 134.013 19.12C134.013 16.4533 134.546 13.8267 135.613 11.24C136.679 8.65333 138.173 6.57333 140.093 5H149.813V9.8H142.373C141.679 10.6 141.079 11.8667 140.573 13.6C140.066 15.3067 139.813 17.1333 139.813 19.08C139.813 21 140.039 22.84 140.493 24.6C140.973 26.3333 141.559 27.5867 142.253 28.36H146.093V17.48H151.373V24.2C151.373 27.88 150.253 30.8133 148.013 33ZM154.498 33V5H168.858V9.8H159.978V16.48H167.898V21.12H159.978V28.36H169.018V33H154.498ZM172.115 5H182.755C184.435 5.56 185.862 6.6 187.035 8.12C188.235 9.61333 188.835 11.4533 188.835 13.64C188.835 17.2133 187.422 19.84 184.595 21.52L188.635 33H183.035L179.635 22.8H177.515V33H172.115V5ZM177.515 9.8V18.32H180.955C181.409 18.2133 181.902 17.76 182.435 16.96C182.995 16.1333 183.275 15.1733 183.275 14.08C183.275 12.9867 183.035 12.0267 182.555 11.2C182.102 10.3733 181.649 9.90667 181.195 9.8H177.515ZM203.645 33L202.805 28.56H196.485L195.645 33H190.205L195.605 5H203.885L209.005 33H203.645ZM199.565 10.2L198.005 19.52L197.125 24.28H202.125L201.205 19.52L199.645 10.2H199.565ZM213.432 9.8H207.392V5H224.912V9.8H218.872V33H213.432V9.8ZM227.233 33V5H232.713V33H227.233ZM249.608 5C251.475 6.52 252.862 8.56 253.768 11.12C254.675 13.68 255.128 16.32 255.128 19.04C255.128 21.7333 254.688 24.2933 253.808 26.72C252.928 29.1467 251.528 31.24 249.608 33H241.368C239.448 31.24 238.048 29.1467 237.168 26.72C236.288 24.2933 235.848 21.7333 235.848 19.04C235.848 16.32 236.302 13.68 237.208 11.12C238.115 8.56 239.502 6.52 241.368 5H249.608ZM244.048 28.36H246.928C247.595 27.5867 248.155 26.3333 248.608 24.6C249.088 22.84 249.328 20.9867 249.328 19.04C249.328 17.0933 249.102 15.2667 248.648 13.56C248.195 11.8267 247.635 10.5733 246.968 9.8H244.048C243.382 10.5733 242.808 11.8267 242.328 13.56C241.875 15.2667 241.648 17.0933 241.648 19.04C241.648 20.9867 241.875 22.84 242.328 24.6C242.808 26.3333 243.382 27.5867 244.048 28.36ZM270.728 33L263.248 17.52L263.048 17.6L263.288 22.32V33H258.248V5H262.288L269.648 21.08L269.848 21L269.408 16.08V5H274.448V33H270.728Z" fill="#194099"/>
<path d="M2 48H388" stroke="#194099"/>
</svg>
