<svg width="277" height="99" viewBox="0 0 277 99" fill="none" xmlns="http://www.w3.org/2000/svg">
<path d="M15.73 92V73.8H17.862L29.9 88.75H28.782V73.8H31.382V92H29.25L17.212 77.05H18.33V92H15.73ZM45.0456 92.208C43.6589 92.208 42.3676 91.974 41.1716 91.506C39.9929 91.038 38.9703 90.388 38.1036 89.556C37.2369 88.7067 36.5609 87.7187 36.0756 86.592C35.5903 85.4653 35.3476 84.2347 35.3476 82.9C35.3476 81.5653 35.5903 80.3347 36.0756 79.208C36.5609 78.0813 37.2369 77.102 38.1036 76.27C38.9703 75.4207 39.9929 74.762 41.1716 74.294C42.3503 73.826 43.6416 73.592 45.0456 73.592C46.4323 73.592 47.7063 73.826 48.8676 74.294C50.0463 74.7447 51.0689 75.3947 51.9356 76.244C52.8196 77.076 53.4956 78.0553 53.9636 79.182C54.4489 80.3087 54.6916 81.548 54.6916 82.9C54.6916 84.252 54.4489 85.4913 53.9636 86.618C53.4956 87.7447 52.8196 88.7327 51.9356 89.582C51.0689 90.414 50.0463 91.064 48.8676 91.532C47.7063 91.9827 46.4323 92.208 45.0456 92.208ZM45.0456 89.894C46.0509 89.894 46.9783 89.7207 47.8276 89.374C48.6943 89.0273 49.4396 88.542 50.0636 87.918C50.7049 87.2767 51.1989 86.5313 51.5456 85.682C51.9096 84.8327 52.0916 83.9053 52.0916 82.9C52.0916 81.8947 51.9096 80.9673 51.5456 80.118C51.1989 79.2687 50.7049 78.532 50.0636 77.908C49.4396 77.2667 48.6943 76.7727 47.8276 76.426C46.9783 76.0793 46.0509 75.906 45.0456 75.906C44.0229 75.906 43.0783 76.0793 42.2116 76.426C41.3623 76.7727 40.6169 77.2667 39.9756 77.908C39.3343 78.532 38.8316 79.2687 38.4676 80.118C38.1209 80.9673 37.9476 81.8947 37.9476 82.9C37.9476 83.9053 38.1209 84.8327 38.4676 85.682C38.8316 86.5313 39.3343 87.2767 39.9756 87.918C40.6169 88.542 41.3623 89.0273 42.2116 89.374C43.0783 89.7207 44.0229 89.894 45.0456 89.894ZM63.9695 92.208C62.5829 92.208 61.2569 92 59.9915 91.584C58.7262 91.1507 57.7295 90.596 57.0015 89.92L57.9635 87.892C58.6569 88.4987 59.5409 89.0013 60.6155 89.4C61.6902 89.7987 62.8082 89.998 63.9695 89.998C65.0269 89.998 65.8849 89.8767 66.5435 89.634C67.2022 89.3913 67.6875 89.062 67.9995 88.646C68.3115 88.2127 68.4675 87.7273 68.4675 87.19C68.4675 86.566 68.2595 86.0633 67.8435 85.682C67.4449 85.3007 66.9162 84.9973 66.2575 84.772C65.6162 84.5293 64.9055 84.3213 64.1255 84.148C63.3455 83.9747 62.5569 83.7753 61.7595 83.55C60.9795 83.3073 60.2602 83.004 59.6015 82.64C58.9602 82.276 58.4402 81.7907 58.0415 81.184C57.6429 80.56 57.4435 79.7627 57.4435 78.792C57.4435 77.856 57.6862 76.998 58.1715 76.218C58.6742 75.4207 59.4369 74.788 60.4595 74.32C61.4995 73.8347 62.8169 73.592 64.4115 73.592C65.4689 73.592 66.5175 73.7307 67.5575 74.008C68.5975 74.2853 69.4989 74.684 70.2615 75.204L69.4035 77.284C68.6235 76.764 67.8002 76.3913 66.9335 76.166C66.0669 75.9233 65.2262 75.802 64.4115 75.802C63.3889 75.802 62.5482 75.932 61.8895 76.192C61.2309 76.452 60.7455 76.7987 60.4335 77.232C60.1389 77.6653 59.9915 78.1507 59.9915 78.688C59.9915 79.3293 60.1909 79.8407 60.5895 80.222C61.0055 80.6033 61.5342 80.9067 62.1755 81.132C62.8342 81.3573 63.5535 81.5653 64.3335 81.756C65.1135 81.9293 65.8935 82.1287 66.6735 82.354C67.4709 82.5793 68.1902 82.874 68.8315 83.238C69.4902 83.602 70.0189 84.0873 70.4175 84.694C70.8162 85.3007 71.0155 86.0807 71.0155 87.034C71.0155 87.9527 70.7642 88.8107 70.2615 89.608C69.7589 90.388 68.9789 91.0207 67.9215 91.506C66.8815 91.974 65.5642 92.208 63.9695 92.208ZM81.7964 92V73.8H88.8944C90.4891 73.8 91.8497 74.0513 92.9764 74.554C94.1031 75.0567 94.9697 75.7847 95.5764 76.738C96.1831 77.6913 96.4864 78.8267 96.4864 80.144C96.4864 81.4613 96.1831 82.5967 95.5764 83.55C94.9697 84.486 94.1031 85.214 92.9764 85.734C91.8497 86.2367 90.4891 86.488 88.8944 86.488H83.2264L84.3964 85.266V92H81.7964ZM84.3964 85.526L83.2264 84.226H88.8164C90.4804 84.226 91.7371 83.8707 92.5864 83.16C93.4531 82.4493 93.8864 81.444 93.8864 80.144C93.8864 78.844 93.4531 77.8387 92.5864 77.128C91.7371 76.4173 90.4804 76.062 88.8164 76.062H83.2264L84.3964 74.762V85.526ZM100.306 92V73.8H107.404C108.999 73.8 110.36 74.0513 111.486 74.554C112.613 75.0567 113.48 75.7847 114.086 76.738C114.693 77.6913 114.996 78.8267 114.996 80.144C114.996 81.4613 114.693 82.5967 114.086 83.55C113.48 84.486 112.613 85.2053 111.486 85.708C110.36 86.2107 108.999 86.462 107.404 86.462H101.736L102.906 85.266V92H100.306ZM112.474 92L107.846 85.396H110.628L115.308 92H112.474ZM102.906 85.526L101.736 84.252H107.326C108.99 84.252 110.247 83.8967 111.096 83.186C111.963 82.458 112.396 81.444 112.396 80.144C112.396 78.844 111.963 77.8387 111.096 77.128C110.247 76.4173 108.99 76.062 107.326 76.062H101.736L102.906 74.762V85.526ZM121.563 81.652H130.923V83.862H121.563V81.652ZM121.797 89.738H132.405V92H119.197V73.8H132.041V76.062H121.797V89.738ZM141.919 92.208C140.532 92.208 139.206 92 137.941 91.584C136.675 91.1507 135.679 90.596 134.951 89.92L135.913 87.892C136.606 88.4987 137.49 89.0013 138.565 89.4C139.639 89.7987 140.757 89.998 141.919 89.998C142.976 89.998 143.834 89.8767 144.493 89.634C145.151 89.3913 145.637 89.062 145.949 88.646C146.261 88.2127 146.417 87.7273 146.417 87.19C146.417 86.566 146.209 86.0633 145.793 85.682C145.394 85.3007 144.865 84.9973 144.207 84.772C143.565 84.5293 142.855 84.3213 142.075 84.148C141.295 83.9747 140.506 83.7753 139.709 83.55C138.929 83.3073 138.209 83.004 137.551 82.64C136.909 82.276 136.389 81.7907 135.991 81.184C135.592 80.56 135.393 79.7627 135.393 78.792C135.393 77.856 135.635 76.998 136.121 76.218C136.623 75.4207 137.386 74.788 138.409 74.32C139.449 73.8347 140.766 73.592 142.361 73.592C143.418 73.592 144.467 73.7307 145.507 74.008C146.547 74.2853 147.448 74.684 148.211 75.204L147.353 77.284C146.573 76.764 145.749 76.3913 144.883 76.166C144.016 75.9233 143.175 75.802 142.361 75.802C141.338 75.802 140.497 75.932 139.839 76.192C139.18 76.452 138.695 76.7987 138.383 77.232C138.088 77.6653 137.941 78.1507 137.941 78.688C137.941 79.3293 138.14 79.8407 138.539 80.222C138.955 80.6033 139.483 80.9067 140.125 81.132C140.783 81.3573 141.503 81.5653 142.283 81.756C143.063 81.9293 143.843 82.1287 144.623 82.354C145.42 82.5793 146.139 82.874 146.781 83.238C147.439 83.602 147.968 84.0873 148.367 84.694C148.765 85.3007 148.965 86.0807 148.965 87.034C148.965 87.9527 148.713 88.8107 148.211 89.608C147.708 90.388 146.928 91.0207 145.871 91.506C144.831 91.974 143.513 92.208 141.919 92.208ZM156.123 92V76.062H149.883V73.8H164.937V76.062H158.697V92H156.123ZM164.099 92L172.341 73.8H174.915L183.183 92H180.453L173.095 75.256H174.135L166.777 92H164.099ZM167.609 87.45L168.311 85.37H178.555L179.309 87.45H167.609ZM188.598 92V76.062H182.358V73.8H197.412V76.062H191.172V92H188.598ZM200.244 92V73.8H202.844V92H200.244ZM216.509 92.208C215.122 92.208 213.831 91.974 212.635 91.506C211.456 91.038 210.433 90.388 209.567 89.556C208.7 88.7067 208.024 87.7187 207.539 86.592C207.053 85.4653 206.811 84.2347 206.811 82.9C206.811 81.5653 207.053 80.3347 207.539 79.208C208.024 78.0813 208.7 77.102 209.567 76.27C210.433 75.4207 211.456 74.762 212.635 74.294C213.813 73.826 215.105 73.592 216.509 73.592C217.895 73.592 219.169 73.826 220.331 74.294C221.509 74.7447 222.532 75.3947 223.399 76.244C224.283 77.076 224.959 78.0553 225.427 79.182C225.912 80.3087 226.155 81.548 226.155 82.9C226.155 84.252 225.912 85.4913 225.427 86.618C224.959 87.7447 224.283 88.7327 223.399 89.582C222.532 90.414 221.509 91.064 220.331 91.532C219.169 91.9827 217.895 92.208 216.509 92.208ZM216.509 89.894C217.514 89.894 218.441 89.7207 219.29 89.374C220.157 89.0273 220.903 88.542 221.527 87.918C222.168 87.2767 222.662 86.5313 223.009 85.682C223.373 84.8327 223.555 83.9053 223.555 82.9C223.555 81.8947 223.373 80.9673 223.009 80.118C222.662 79.2687 222.168 78.532 221.527 77.908C220.903 77.2667 220.157 76.7727 219.29 76.426C218.441 76.0793 217.514 75.906 216.509 75.906C215.486 75.906 214.541 76.0793 213.675 76.426C212.825 76.7727 212.08 77.2667 211.439 77.908C210.797 78.532 210.295 79.2687 209.931 80.118C209.584 80.9673 209.411 81.8947 209.411 82.9C209.411 83.9053 209.584 84.8327 209.931 85.682C210.295 86.5313 210.797 87.2767 211.439 87.918C212.08 88.542 212.825 89.0273 213.675 89.374C214.541 89.7207 215.486 89.894 216.509 89.894ZM230.128 92V73.8H232.26L244.298 88.75H243.18V73.8H245.78V92H243.648L231.61 77.05H232.728V92H230.128ZM256.532 92.208C255.145 92.208 253.819 92 252.554 91.584C251.289 91.1507 250.292 90.596 249.564 89.92L250.526 87.892C251.219 88.4987 252.103 89.0013 253.178 89.4C254.253 89.7987 255.371 89.998 256.532 89.998C257.589 89.998 258.447 89.8767 259.106 89.634C259.765 89.3913 260.25 89.062 260.562 88.646C260.874 88.2127 261.03 87.7273 261.03 87.19C261.03 86.566 260.822 86.0633 260.406 85.682C260.007 85.3007 259.479 84.9973 258.82 84.772C258.179 84.5293 257.468 84.3213 256.688 84.148C255.908 83.9747 255.119 83.7753 254.322 83.55C253.542 83.3073 252.823 83.004 252.164 82.64C251.523 82.276 251.003 81.7907 250.604 81.184C250.205 80.56 250.006 79.7627 250.006 78.792C250.006 77.856 250.249 76.998 250.734 76.218C251.237 75.4207 251.999 74.788 253.022 74.32C254.062 73.8347 255.379 73.592 256.974 73.592C258.031 73.592 259.08 73.7307 260.12 74.008C261.16 74.2853 262.061 74.684 262.824 75.204L261.966 77.284C261.186 76.764 260.363 76.3913 259.496 76.166C258.629 75.9233 257.789 75.802 256.974 75.802C255.951 75.802 255.111 75.932 254.452 76.192C253.793 76.452 253.308 76.7987 252.996 77.232C252.701 77.6653 252.554 78.1507 252.554 78.688C252.554 79.3293 252.753 79.8407 253.152 80.222C253.568 80.6033 254.097 80.9067 254.738 81.132C255.397 81.3573 256.116 81.5653 256.896 81.756C257.676 81.9293 258.456 82.1287 259.236 82.354C260.033 82.5793 260.753 82.874 261.394 83.238C262.053 83.602 262.581 84.0873 262.98 84.694C263.379 85.3007 263.578 86.0807 263.578 87.034C263.578 87.9527 263.327 88.8107 262.824 89.608C262.321 90.388 261.541 91.0207 260.484 91.506C259.444 91.974 258.127 92.208 256.532 92.208Z" fill="#194099"/>
<path d="M7.36 38.36H10.96C11.7067 37.4267 12.2933 36.0667 12.72 34.28C13.1733 32.4933 13.4 30.72 13.4 28.96C13.4 24.7733 12.6133 21.72 11.04 19.8H7.36V38.36ZM1.92 43V15H13.52C17.3067 18.36 19.2 22.92 19.2 28.68C19.2 34.4133 17.4267 39.1867 13.88 43H1.92ZM22.3106 43V15H27.7906V38.36H36.1106V43H22.3106ZM51.6466 15H62.2866C63.9666 15.56 65.3932 16.6 66.5666 18.12C67.7666 19.6133 68.3666 21.4533 68.3666 23.64C68.3666 27.2133 66.9532 29.84 64.1266 31.52L68.1666 43H62.5666L59.1666 32.8H57.0466V43H51.6466V15ZM57.0466 19.8V28.32H60.4866C60.9399 28.2133 61.4332 27.76 61.9666 26.96C62.5266 26.1333 62.8066 25.1733 62.8066 24.08C62.8066 22.9867 62.5666 22.0267 62.0866 21.2C61.6332 20.3733 61.1799 19.9067 60.7266 19.8H57.0466ZM71.2559 43V15H85.6159V19.8H76.7359V26.48H84.6559V31.12H76.7359V38.36H85.7759V43H71.2559ZM88.8731 43V15H103.473V19.8H94.3531V26.8H102.273V31.44H94.3531V43H88.8731ZM105.787 15H116.427C118.107 15.56 119.534 16.6 120.707 18.12C121.907 19.6133 122.507 21.4533 122.507 23.64C122.507 27.2133 121.094 29.84 118.267 31.52L122.307 43H116.707L113.307 32.8H111.187V43H105.787V15ZM111.187 19.8V28.32H114.627C115.081 28.2133 115.574 27.76 116.107 26.96C116.667 26.1333 116.947 25.1733 116.947 24.08C116.947 22.9867 116.707 22.0267 116.227 21.2C115.774 20.3733 115.321 19.9067 114.867 19.8H111.187ZM125.397 43V15H130.877V43H125.397ZM148.013 43H139.533C137.613 41.24 136.213 39.1467 135.333 36.72C134.453 34.2933 134.013 31.76 134.013 29.12C134.013 26.4533 134.546 23.8267 135.613 21.24C136.679 18.6533 138.173 16.5733 140.093 15H149.813V19.8H142.373C141.679 20.6 141.079 21.8667 140.573 23.6C140.066 25.3067 139.813 27.1333 139.813 29.08C139.813 31 140.039 32.84 140.493 34.6C140.973 36.3333 141.559 37.5867 142.253 38.36H146.093V27.48H151.373V34.2C151.373 37.88 150.253 40.8133 148.013 43ZM154.498 43V15H168.858V19.8H159.978V26.48H167.898V31.12H159.978V38.36H169.018V43H154.498ZM172.115 15H182.755C184.435 15.56 185.862 16.6 187.035 18.12C188.235 19.6133 188.835 21.4533 188.835 23.64C188.835 27.2133 187.422 29.84 184.595 31.52L188.635 43H183.035L179.635 32.8H177.515V43H172.115V15ZM177.515 19.8V28.32H180.955C181.409 28.2133 181.902 27.76 182.435 26.96C182.995 26.1333 183.275 25.1733 183.275 24.08C183.275 22.9867 183.035 22.0267 182.555 21.2C182.102 20.3733 181.649 19.9067 181.195 19.8H177.515ZM203.645 43L202.805 38.56H196.485L195.645 43H190.205L195.605 15H203.885L209.005 43H203.645ZM199.565 20.2L198.005 29.52L197.125 34.28H202.125L201.205 29.52L199.645 20.2H199.565ZM213.432 19.8H207.392V15H224.912V19.8H218.872V43H213.432V19.8ZM227.233 43V15H232.713V43H227.233ZM249.608 15C251.475 16.52 252.862 18.56 253.768 21.12C254.675 23.68 255.128 26.32 255.128 29.04C255.128 31.7333 254.688 34.2933 253.808 36.72C252.928 39.1467 251.528 41.24 249.608 43H241.368C239.448 41.24 238.048 39.1467 237.168 36.72C236.288 34.2933 235.848 31.7333 235.848 29.04C235.848 26.32 236.302 23.68 237.208 21.12C238.115 18.56 239.502 16.52 241.368 15H249.608ZM244.048 38.36H246.928C247.595 37.5867 248.155 36.3333 248.608 34.6C249.088 32.84 249.328 30.9867 249.328 29.04C249.328 27.0933 249.102 25.2667 248.648 23.56C248.195 21.8267 247.635 20.5733 246.968 19.8H244.048C243.382 20.5733 242.808 21.8267 242.328 23.56C241.875 25.2667 241.648 27.0933 241.648 29.04C241.648 30.9867 241.875 32.84 242.328 34.6C242.808 36.3333 243.382 37.5867 244.048 38.36ZM270.728 43L263.248 27.52L263.048 27.6L263.288 32.32V43H258.248V15H262.288L269.648 31.08L269.848 31L269.408 26.08V15H274.448V43H270.728Z" fill="#194099"/>
<path d="M1.5 59L275 57" stroke="#194099"/>
</svg>
