<svg width="277" height="99" viewBox="0 0 277 99" fill="none" xmlns="http://www.w3.org/2000/svg">
<path d="M41.73 92V73.8H43.862L55.9 88.75H54.782V73.8H57.382V92H55.25L43.212 77.05H44.33V92H41.73ZM71.0456 92.208C69.6589 92.208 68.3676 91.974 67.1716 91.506C65.9929 91.038 64.9703 90.388 64.1036 89.556C63.2369 88.7067 62.5609 87.7187 62.0756 86.592C61.5903 85.4653 61.3476 84.2347 61.3476 82.9C61.3476 81.5653 61.5903 80.3347 62.0756 79.208C62.5609 78.0813 63.2369 77.102 64.1036 76.27C64.9703 75.4207 65.9929 74.762 67.1716 74.294C68.3503 73.826 69.6416 73.592 71.0456 73.592C72.4323 73.592 73.7063 73.826 74.8676 74.294C76.0463 74.7447 77.0689 75.3947 77.9356 76.244C78.8196 77.076 79.4956 78.0553 79.9636 79.182C80.4489 80.3087 80.6916 81.548 80.6916 82.9C80.6916 84.252 80.4489 85.4913 79.9636 86.618C79.4956 87.7447 78.8196 88.7327 77.9356 89.582C77.0689 90.414 76.0463 91.064 74.8676 91.532C73.7063 91.9827 72.4323 92.208 71.0456 92.208ZM71.0456 89.894C72.0509 89.894 72.9783 89.7207 73.8276 89.374C74.6943 89.0273 75.4396 88.542 76.0636 87.918C76.7049 87.2767 77.1989 86.5313 77.5456 85.682C77.9096 84.8327 78.0916 83.9053 78.0916 82.9C78.0916 81.8947 77.9096 80.9673 77.5456 80.118C77.1989 79.2687 76.7049 78.532 76.0636 77.908C75.4396 77.2667 74.6943 76.7727 73.8276 76.426C72.9783 76.0793 72.0509 75.906 71.0456 75.906C70.0229 75.906 69.0783 76.0793 68.2116 76.426C67.3623 76.7727 66.6169 77.2667 65.9756 77.908C65.3343 78.532 64.8316 79.2687 64.4676 80.118C64.1209 80.9673 63.9476 81.8947 63.9476 82.9C63.9476 83.9053 64.1209 84.8327 64.4676 85.682C64.8316 86.5313 65.3343 87.2767 65.9756 87.918C66.6169 88.542 67.3623 89.0273 68.2116 89.374C69.0783 89.7207 70.0229 89.894 71.0456 89.894ZM89.9695 92.208C88.5829 92.208 87.2569 92 85.9915 91.584C84.7262 91.1507 83.7295 90.596 83.0015 89.92L83.9635 87.892C84.6569 88.4987 85.5409 89.0013 86.6155 89.4C87.6902 89.7987 88.8082 89.998 89.9695 89.998C91.0269 89.998 91.8849 89.8767 92.5435 89.634C93.2022 89.3913 93.6875 89.062 93.9995 88.646C94.3115 88.2127 94.4675 87.7273 94.4675 87.19C94.4675 86.566 94.2595 86.0633 93.8435 85.682C93.4449 85.3007 92.9162 84.9973 92.2575 84.772C91.6162 84.5293 90.9055 84.3213 90.1255 84.148C89.3455 83.9747 88.5569 83.7753 87.7595 83.55C86.9795 83.3073 86.2602 83.004 85.6015 82.64C84.9602 82.276 84.4402 81.7907 84.0415 81.184C83.6429 80.56 83.4435 79.7627 83.4435 78.792C83.4435 77.856 83.6862 76.998 84.1715 76.218C84.6742 75.4207 85.4369 74.788 86.4595 74.32C87.4995 73.8347 88.8169 73.592 90.4115 73.592C91.4689 73.592 92.5175 73.7307 93.5575 74.008C94.5975 74.2853 95.4989 74.684 96.2615 75.204L95.4035 77.284C94.6235 76.764 93.8002 76.3913 92.9335 76.166C92.0669 75.9233 91.2262 75.802 90.4115 75.802C89.3889 75.802 88.5482 75.932 87.8895 76.192C87.2309 76.452 86.7455 76.7987 86.4335 77.232C86.1389 77.6653 85.9915 78.1507 85.9915 78.688C85.9915 79.3293 86.1909 79.8407 86.5895 80.222C87.0055 80.6033 87.5342 80.9067 88.1755 81.132C88.8342 81.3573 89.5535 81.5653 90.3335 81.756C91.1135 81.9293 91.8935 82.1287 92.6735 82.354C93.4709 82.5793 94.1902 82.874 94.8315 83.238C95.4902 83.602 96.0189 84.0873 96.4175 84.694C96.8162 85.3007 97.0155 86.0807 97.0155 87.034C97.0155 87.9527 96.7642 88.8107 96.2615 89.608C95.7589 90.388 94.9789 91.0207 93.9215 91.506C92.8815 91.974 91.5642 92.208 89.9695 92.208ZM113.1 92.208C111.714 92.208 110.388 92 109.122 91.584C107.857 91.1507 106.86 90.596 106.132 89.92L107.094 87.892C107.788 88.4987 108.672 89.0013 109.746 89.4C110.821 89.7987 111.939 89.998 113.1 89.998C114.158 89.998 115.016 89.8767 115.674 89.634C116.333 89.3913 116.818 89.062 117.13 88.646C117.442 88.2127 117.598 87.7273 117.598 87.19C117.598 86.566 117.39 86.0633 116.974 85.682C116.576 85.3007 116.047 84.9973 115.388 84.772C114.747 84.5293 114.036 84.3213 113.256 84.148C112.476 83.9747 111.688 83.7753 110.89 83.55C110.11 83.3073 109.391 83.004 108.732 82.64C108.091 82.276 107.571 81.7907 107.172 81.184C106.774 80.56 106.574 79.7627 106.574 78.792C106.574 77.856 106.817 76.998 107.302 76.218C107.805 75.4207 108.568 74.788 109.59 74.32C110.63 73.8347 111.948 73.592 113.542 73.592C114.6 73.592 115.648 73.7307 116.688 74.008C117.728 74.2853 118.63 74.684 119.392 75.204L118.534 77.284C117.754 76.764 116.931 76.3913 116.064 76.166C115.198 75.9233 114.357 75.802 113.542 75.802C112.52 75.802 111.679 75.932 111.02 76.192C110.362 76.452 109.876 76.7987 109.564 77.232C109.27 77.6653 109.122 78.1507 109.122 78.688C109.122 79.3293 109.322 79.8407 109.72 80.222C110.136 80.6033 110.665 80.9067 111.306 81.132C111.965 81.3573 112.684 81.5653 113.464 81.756C114.244 81.9293 115.024 82.1287 115.804 82.354C116.602 82.5793 117.321 82.874 117.962 83.238C118.621 83.602 119.15 84.0873 119.548 84.694C119.947 85.3007 120.146 86.0807 120.146 87.034C120.146 87.9527 119.895 88.8107 119.392 89.608C118.89 90.388 118.11 91.0207 117.052 91.506C116.012 91.974 114.695 92.208 113.1 92.208ZM126.311 81.652H135.671V83.862H126.311V81.652ZM126.545 89.738H137.153V92H123.945V73.8H136.789V76.062H126.545V89.738ZM141.363 92V73.8H148.461C150.055 73.8 151.416 74.0513 152.543 74.554C153.669 75.0567 154.536 75.7847 155.143 76.738C155.749 77.6913 156.053 78.8267 156.053 80.144C156.053 81.4613 155.749 82.5967 155.143 83.55C154.536 84.486 153.669 85.2053 152.543 85.708C151.416 86.2107 150.055 86.462 148.461 86.462H142.793L143.963 85.266V92H141.363ZM153.531 92L148.903 85.396H151.685L156.365 92H153.531ZM143.963 85.526L142.793 84.252H148.383C150.047 84.252 151.303 83.8967 152.153 83.186C153.019 82.458 153.453 81.444 153.453 80.144C153.453 78.844 153.019 77.8387 152.153 77.128C151.303 76.4173 150.047 76.062 148.383 76.062H142.793L143.963 74.762V85.526ZM165.505 92L157.497 73.8H160.305L167.663 90.596H166.051L173.461 73.8H176.061L168.079 92H165.505ZM178.382 92V73.8H180.982V92H178.382ZM194.569 92.208C193.183 92.208 191.9 91.9827 190.721 91.532C189.56 91.064 188.546 90.414 187.679 89.582C186.83 88.7327 186.163 87.7447 185.677 86.618C185.192 85.4913 184.949 84.252 184.949 82.9C184.949 81.548 185.192 80.3087 185.677 79.182C186.163 78.0553 186.839 77.076 187.705 76.244C188.572 75.3947 189.586 74.7447 190.747 74.294C191.926 73.826 193.209 73.592 194.595 73.592C195.999 73.592 197.291 73.8347 198.469 74.32C199.665 74.788 200.679 75.49 201.511 76.426L199.821 78.064C199.128 77.336 198.348 76.7987 197.481 76.452C196.615 76.088 195.687 75.906 194.699 75.906C193.677 75.906 192.723 76.0793 191.839 76.426C190.973 76.7727 190.219 77.258 189.577 77.882C188.936 78.506 188.433 79.2513 188.069 80.118C187.723 80.9673 187.549 81.8947 187.549 82.9C187.549 83.9053 187.723 84.8413 188.069 85.708C188.433 86.5573 188.936 87.294 189.577 87.918C190.219 88.542 190.973 89.0273 191.839 89.374C192.723 89.7207 193.677 89.894 194.699 89.894C195.687 89.894 196.615 89.7207 197.481 89.374C198.348 89.01 199.128 88.4553 199.821 87.71L201.511 89.348C200.679 90.284 199.665 90.9947 198.469 91.48C197.291 91.9653 195.991 92.208 194.569 92.208ZM207.586 81.652H216.946V83.862H207.586V81.652ZM207.82 89.738H218.428V92H205.22V73.8H218.064V76.062H207.82V89.738ZM227.942 92.208C226.556 92.208 225.23 92 223.964 91.584C222.699 91.1507 221.702 90.596 220.974 89.92L221.936 87.892C222.63 88.4987 223.514 89.0013 224.588 89.4C225.663 89.7987 226.781 89.998 227.942 89.998C229 89.998 229.858 89.8767 230.516 89.634C231.175 89.3913 231.66 89.062 231.972 88.646C232.284 88.2127 232.44 87.7273 232.44 87.19C232.44 86.566 232.232 86.0633 231.816 85.682C231.418 85.3007 230.889 84.9973 230.23 84.772C229.589 84.5293 228.878 84.3213 228.098 84.148C227.318 83.9747 226.53 83.7753 225.732 83.55C224.952 83.3073 224.233 83.004 223.574 82.64C222.933 82.276 222.413 81.7907 222.014 81.184C221.616 80.56 221.416 79.7627 221.416 78.792C221.416 77.856 221.659 76.998 222.144 76.218C222.647 75.4207 223.41 74.788 224.432 74.32C225.472 73.8347 226.79 73.592 228.384 73.592C229.442 73.592 230.49 73.7307 231.53 74.008C232.57 74.2853 233.472 74.684 234.234 75.204L233.376 77.284C232.596 76.764 231.773 76.3913 230.906 76.166C230.04 75.9233 229.199 75.802 228.384 75.802C227.362 75.802 226.521 75.932 225.862 76.192C225.204 76.452 224.718 76.7987 224.406 77.232C224.112 77.6653 223.964 78.1507 223.964 78.688C223.964 79.3293 224.164 79.8407 224.562 80.222C224.978 80.6033 225.507 80.9067 226.148 81.132C226.807 81.3573 227.526 81.5653 228.306 81.756C229.086 81.9293 229.866 82.1287 230.646 82.354C231.444 82.5793 232.163 82.874 232.804 83.238C233.463 83.602 233.992 84.0873 234.39 84.694C234.789 85.3007 234.988 86.0807 234.988 87.034C234.988 87.9527 234.737 88.8107 234.234 89.608C233.732 90.388 232.952 91.0207 231.894 91.506C230.854 91.974 229.537 92.208 227.942 92.208Z" fill="#194099"/>
<path d="M7.36 38.36H10.96C11.7067 37.4267 12.2933 36.0667 12.72 34.28C13.1733 32.4933 13.4 30.72 13.4 28.96C13.4 24.7733 12.6133 21.72 11.04 19.8H7.36V38.36ZM1.92 43V15H13.52C17.3067 18.36 19.2 22.92 19.2 28.68C19.2 34.4133 17.4267 39.1867 13.88 43H1.92ZM22.3106 43V15H27.7906V38.36H36.1106V43H22.3106ZM51.6466 15H62.2866C63.9666 15.56 65.3932 16.6 66.5666 18.12C67.7666 19.6133 68.3666 21.4533 68.3666 23.64C68.3666 27.2133 66.9532 29.84 64.1266 31.52L68.1666 43H62.5666L59.1666 32.8H57.0466V43H51.6466V15ZM57.0466 19.8V28.32H60.4866C60.9399 28.2133 61.4332 27.76 61.9666 26.96C62.5266 26.1333 62.8066 25.1733 62.8066 24.08C62.8066 22.9867 62.5666 22.0267 62.0866 21.2C61.6332 20.3733 61.1799 19.9067 60.7266 19.8H57.0466ZM71.2559 43V15H85.6159V19.8H76.7359V26.48H84.6559V31.12H76.7359V38.36H85.7759V43H71.2559ZM88.8731 43V15H103.473V19.8H94.3531V26.8H102.273V31.44H94.3531V43H88.8731ZM105.787 15H116.427C118.107 15.56 119.534 16.6 120.707 18.12C121.907 19.6133 122.507 21.4533 122.507 23.64C122.507 27.2133 121.094 29.84 118.267 31.52L122.307 43H116.707L113.307 32.8H111.187V43H105.787V15ZM111.187 19.8V28.32H114.627C115.081 28.2133 115.574 27.76 116.107 26.96C116.667 26.1333 116.947 25.1733 116.947 24.08C116.947 22.9867 116.707 22.0267 116.227 21.2C115.774 20.3733 115.321 19.9067 114.867 19.8H111.187ZM125.397 43V15H130.877V43H125.397ZM148.013 43H139.533C137.613 41.24 136.213 39.1467 135.333 36.72C134.453 34.2933 134.013 31.76 134.013 29.12C134.013 26.4533 134.546 23.8267 135.613 21.24C136.679 18.6533 138.173 16.5733 140.093 15H149.813V19.8H142.373C141.679 20.6 141.079 21.8667 140.573 23.6C140.066 25.3067 139.813 27.1333 139.813 29.08C139.813 31 140.039 32.84 140.493 34.6C140.973 36.3333 141.559 37.5867 142.253 38.36H146.093V27.48H151.373V34.2C151.373 37.88 150.253 40.8133 148.013 43ZM154.498 43V15H168.858V19.8H159.978V26.48H167.898V31.12H159.978V38.36H169.018V43H154.498ZM172.115 15H182.755C184.435 15.56 185.862 16.6 187.035 18.12C188.235 19.6133 188.835 21.4533 188.835 23.64C188.835 27.2133 187.422 29.84 184.595 31.52L188.635 43H183.035L179.635 32.8H177.515V43H172.115V15ZM177.515 19.8V28.32H180.955C181.409 28.2133 181.902 27.76 182.435 26.96C182.995 26.1333 183.275 25.1733 183.275 24.08C183.275 22.9867 183.035 22.0267 182.555 21.2C182.102 20.3733 181.649 19.9067 181.195 19.8H177.515ZM203.645 43L202.805 38.56H196.485L195.645 43H190.205L195.605 15H203.885L209.005 43H203.645ZM199.565 20.2L198.005 29.52L197.125 34.28H202.125L201.205 29.52L199.645 20.2H199.565ZM213.432 19.8H207.392V15H224.912V19.8H218.872V43H213.432V19.8ZM227.233 43V15H232.713V43H227.233ZM249.608 15C251.475 16.52 252.862 18.56 253.768 21.12C254.675 23.68 255.128 26.32 255.128 29.04C255.128 31.7333 254.688 34.2933 253.808 36.72C252.928 39.1467 251.528 41.24 249.608 43H241.368C239.448 41.24 238.048 39.1467 237.168 36.72C236.288 34.2933 235.848 31.7333 235.848 29.04C235.848 26.32 236.302 23.68 237.208 21.12C238.115 18.56 239.502 16.52 241.368 15H249.608ZM244.048 38.36H246.928C247.595 37.5867 248.155 36.3333 248.608 34.6C249.088 32.84 249.328 30.9867 249.328 29.04C249.328 27.0933 249.102 25.2667 248.648 23.56C248.195 21.8267 247.635 20.5733 246.968 19.8H244.048C243.382 20.5733 242.808 21.8267 242.328 23.56C241.875 25.2667 241.648 27.0933 241.648 29.04C241.648 30.9867 241.875 32.84 242.328 34.6C242.808 36.3333 243.382 37.5867 244.048 38.36ZM270.728 43L263.248 27.52L263.048 27.6L263.288 32.32V43H258.248V15H262.288L269.648 31.08L269.848 31L269.408 26.08V15H274.448V43H270.728Z" fill="#194099"/>
<path d="M1 59H275" stroke="#194099"/>
</svg>
