<svg width="349" height="99" viewBox="0 0 349 99" fill="none" xmlns="http://www.w3.org/2000/svg">
<path d="M1.118 92V90.232L13.364 75.048L13.65 76.062H1.3V73.8H15.99V75.568L3.796 90.752L3.484 89.738H16.328V92H1.118ZM27.8308 92.208C26.4441 92.208 25.1528 91.974 23.9568 91.506C22.7781 91.038 21.7554 90.388 20.8888 89.556C20.0221 88.7067 19.3461 87.7187 18.8608 86.592C18.3754 85.4653 18.1328 84.2347 18.1328 82.9C18.1328 81.5653 18.3754 80.3347 18.8608 79.208C19.3461 78.0813 20.0221 77.102 20.8888 76.27C21.7554 75.4207 22.7781 74.762 23.9568 74.294C25.1354 73.826 26.4268 73.592 27.8308 73.592C29.2174 73.592 30.4914 73.826 31.6528 74.294C32.8314 74.7447 33.8541 75.3947 34.7208 76.244C35.6048 77.076 36.2808 78.0553 36.7488 79.182C37.2341 80.3087 37.4768 81.548 37.4768 82.9C37.4768 84.252 37.2341 85.4913 36.7488 86.618C36.2808 87.7447 35.6048 88.7327 34.7208 89.582C33.8541 90.414 32.8314 91.064 31.6528 91.532C30.4914 91.9827 29.2174 92.208 27.8308 92.208ZM27.8308 89.894C28.8361 89.894 29.7634 89.7207 30.6128 89.374C31.4794 89.0273 32.2248 88.542 32.8488 87.918C33.4901 87.2767 33.9841 86.5313 34.3308 85.682C34.6948 84.8327 34.8768 83.9053 34.8768 82.9C34.8768 81.8947 34.6948 80.9673 34.3308 80.118C33.9841 79.2687 33.4901 78.532 32.8488 77.908C32.2248 77.2667 31.4794 76.7727 30.6128 76.426C29.7634 76.0793 28.8361 75.906 27.8308 75.906C26.8081 75.906 25.8634 76.0793 24.9968 76.426C24.1474 76.7727 23.4021 77.2667 22.7608 77.908C22.1194 78.532 21.6168 79.2687 21.2528 80.118C20.9061 80.9673 20.7328 81.8947 20.7328 82.9C20.7328 83.9053 20.9061 84.8327 21.2528 85.682C21.6168 86.5313 22.1194 87.2767 22.7608 87.918C23.4021 88.542 24.1474 89.0273 24.9968 89.374C25.8634 89.7207 26.8081 89.894 27.8308 89.894ZM41.4507 92V73.8H43.5827L55.6207 88.75H54.5027V73.8H57.1027V92H54.9707L42.9327 77.05H44.0507V92H41.4507ZM64.9163 81.652H74.2763V83.862H64.9163V81.652ZM65.1503 89.738H75.7583V92H62.5503V73.8H75.3943V76.062H65.1503V89.738ZM85.2723 92.208C83.8856 92.208 82.5596 92 81.2943 91.584C80.0289 91.1507 79.0323 90.596 78.3043 89.92L79.2663 87.892C79.9596 88.4987 80.8436 89.0013 81.9183 89.4C82.9929 89.7987 84.1109 89.998 85.2723 89.998C86.3296 89.998 87.1876 89.8767 87.8463 89.634C88.5049 89.3913 88.9903 89.062 89.3023 88.646C89.6143 88.2127 89.7703 87.7273 89.7703 87.19C89.7703 86.566 89.5623 86.0633 89.1463 85.682C88.7476 85.3007 88.2189 84.9973 87.5603 84.772C86.9189 84.5293 86.2083 84.3213 85.4283 84.148C84.6483 83.9747 83.8596 83.7753 83.0623 83.55C82.2823 83.3073 81.5629 83.004 80.9043 82.64C80.2629 82.276 79.7429 81.7907 79.3443 81.184C78.9456 80.56 78.7463 79.7627 78.7463 78.792C78.7463 77.856 78.9889 76.998 79.4743 76.218C79.9769 75.4207 80.7396 74.788 81.7623 74.32C82.8023 73.8347 84.1196 73.592 85.7143 73.592C86.7716 73.592 87.8203 73.7307 88.8603 74.008C89.9003 74.2853 90.8016 74.684 91.5643 75.204L90.7063 77.284C89.9263 76.764 89.1029 76.3913 88.2363 76.166C87.3696 75.9233 86.5289 75.802 85.7143 75.802C84.6916 75.802 83.8509 75.932 83.1923 76.192C82.5336 76.452 82.0483 76.7987 81.7363 77.232C81.4416 77.6653 81.2943 78.1507 81.2943 78.688C81.2943 79.3293 81.4936 79.8407 81.8923 80.222C82.3083 80.6033 82.8369 80.9067 83.4783 81.132C84.1369 81.3573 84.8563 81.5653 85.6363 81.756C86.4163 81.9293 87.1963 82.1287 87.9763 82.354C88.7736 82.5793 89.4929 82.874 90.1343 83.238C90.7929 83.602 91.3216 84.0873 91.7203 84.694C92.1189 85.3007 92.3183 86.0807 92.3183 87.034C92.3183 87.9527 92.0669 88.8107 91.5643 89.608C91.0616 90.388 90.2816 91.0207 89.2243 91.506C88.1843 91.974 86.8669 92.208 85.2723 92.208ZM103.099 92V73.8H110.769C112.71 73.8 114.418 74.1813 115.891 74.944C117.382 75.7067 118.534 76.7727 119.349 78.142C120.181 79.5113 120.597 81.0973 120.597 82.9C120.597 84.7027 120.181 86.2887 119.349 87.658C118.534 89.0273 117.382 90.0933 115.891 90.856C114.418 91.6187 112.71 92 110.769 92H103.099ZM105.699 89.738H110.613C112.121 89.738 113.421 89.452 114.513 88.88C115.622 88.308 116.48 87.5107 117.087 86.488C117.694 85.448 117.997 84.252 117.997 82.9C117.997 81.5307 117.694 80.3347 117.087 79.312C116.48 78.2893 115.622 77.492 114.513 76.92C113.421 76.348 112.121 76.062 110.613 76.062H105.699V89.738ZM122.847 79.806L124.147 74.528L124.485 76.036C123.982 76.036 123.557 75.88 123.211 75.568C122.881 75.256 122.717 74.84 122.717 74.32C122.717 73.7827 122.881 73.358 123.211 73.046C123.557 72.7167 123.973 72.552 124.459 72.552C124.961 72.552 125.369 72.7253 125.681 73.072C125.993 73.4013 126.149 73.8173 126.149 74.32C126.149 74.476 126.14 74.6407 126.123 74.814C126.105 74.97 126.062 75.152 125.993 75.36C125.941 75.568 125.854 75.8367 125.733 76.166L124.485 79.806H122.847ZM130.089 92V73.8H132.689V92H130.089ZM138.138 92V73.8H140.27L152.308 88.75H151.19V73.8H153.79V92H151.658L139.62 77.05H140.738V92H138.138ZM162.852 92V76.062H156.612V73.8H171.666V76.062H165.426V92H162.852ZM176.864 81.652H186.224V83.862H176.864V81.652ZM177.098 89.738H187.706V92H174.498V73.8H187.342V76.062H177.098V89.738ZM191.916 92V73.8H199.014C200.608 73.8 201.969 74.0513 203.096 74.554C204.222 75.0567 205.089 75.7847 205.696 76.738C206.302 77.6913 206.606 78.8267 206.606 80.144C206.606 81.4613 206.302 82.5967 205.696 83.55C205.089 84.486 204.222 85.2053 203.096 85.708C201.969 86.2107 200.608 86.462 199.014 86.462H193.346L194.516 85.266V92H191.916ZM204.084 92L199.456 85.396H202.238L206.918 92H204.084ZM194.516 85.526L193.346 84.252H198.936C200.6 84.252 201.856 83.8967 202.706 83.186C203.572 82.458 204.006 81.444 204.006 80.144C204.006 78.844 203.572 77.8387 202.706 77.128C201.856 76.4173 200.6 76.062 198.936 76.062H193.346L194.516 74.762V85.526ZM216.058 92L208.05 73.8H210.858L218.216 90.596H216.604L224.014 73.8H226.614L218.632 92H216.058ZM231.301 81.652H240.661V83.862H231.301V81.652ZM231.535 89.738H242.143V92H228.935V73.8H241.779V76.062H231.535V89.738ZM246.353 92V73.8H248.485L260.523 88.75H259.405V73.8H262.005V92H259.873L247.835 77.05H248.953V92H246.353ZM271.067 92V76.062H264.827V73.8H279.881V76.062H273.641V92H271.067ZM282.712 92V73.8H285.312V92H282.712ZM298.977 92.208C297.591 92.208 296.299 91.974 295.103 91.506C293.925 91.038 292.902 90.388 292.035 89.556C291.169 88.7067 290.493 87.7187 290.007 86.592C289.522 85.4653 289.279 84.2347 289.279 82.9C289.279 81.5653 289.522 80.3347 290.007 79.208C290.493 78.0813 291.169 77.102 292.035 76.27C292.902 75.4207 293.925 74.762 295.103 74.294C296.282 73.826 297.573 73.592 298.977 73.592C300.364 73.592 301.638 73.826 302.799 74.294C303.978 74.7447 305.001 75.3947 305.867 76.244C306.751 77.076 307.427 78.0553 307.895 79.182C308.381 80.3087 308.623 81.548 308.623 82.9C308.623 84.252 308.381 85.4913 307.895 86.618C307.427 87.7447 306.751 88.7327 305.867 89.582C305.001 90.414 303.978 91.064 302.799 91.532C301.638 91.9827 300.364 92.208 298.977 92.208ZM298.977 89.894C299.983 89.894 300.91 89.7207 301.759 89.374C302.626 89.0273 303.371 88.542 303.995 87.918C304.637 87.2767 305.131 86.5313 305.477 85.682C305.841 84.8327 306.023 83.9053 306.023 82.9C306.023 81.8947 305.841 80.9673 305.477 80.118C305.131 79.2687 304.637 78.532 303.995 77.908C303.371 77.2667 302.626 76.7727 301.759 76.426C300.91 76.0793 299.983 75.906 298.977 75.906C297.955 75.906 297.01 76.0793 296.143 76.426C295.294 76.7727 294.549 77.2667 293.907 77.908C293.266 78.532 292.763 79.2687 292.399 80.118C292.053 80.9673 291.879 81.8947 291.879 82.9C291.879 83.9053 292.053 84.8327 292.399 85.682C292.763 86.5313 293.266 87.2767 293.907 87.918C294.549 88.542 295.294 89.0273 296.143 89.374C297.01 89.7207 297.955 89.894 298.977 89.894ZM312.597 92V73.8H314.729L326.767 88.75H325.649V73.8H328.249V92H326.117L314.079 77.05H315.197V92H312.597ZM339.001 92.208C337.614 92.208 336.288 92 335.023 91.584C333.757 91.1507 332.761 90.596 332.033 89.92L332.995 87.892C333.688 88.4987 334.572 89.0013 335.647 89.4C336.721 89.7987 337.839 89.998 339.001 89.998C340.058 89.998 340.916 89.8767 341.575 89.634C342.233 89.3913 342.719 89.062 343.031 88.646C343.343 88.2127 343.499 87.7273 343.499 87.19C343.499 86.566 343.291 86.0633 342.875 85.682C342.476 85.3007 341.947 84.9973 341.289 84.772C340.647 84.5293 339.937 84.3213 339.157 84.148C338.377 83.9747 337.588 83.7753 336.791 83.55C336.011 83.3073 335.291 83.004 334.633 82.64C333.991 82.276 333.471 81.7907 333.073 81.184C332.674 80.56 332.475 79.7627 332.475 78.792C332.475 77.856 332.717 76.998 333.203 76.218C333.705 75.4207 334.468 74.788 335.491 74.32C336.531 73.8347 337.848 73.592 339.443 73.592C340.5 73.592 341.549 73.7307 342.589 74.008C343.629 74.2853 344.53 74.684 345.293 75.204L344.435 77.284C343.655 76.764 342.831 76.3913 341.965 76.166C341.098 75.9233 340.257 75.802 339.443 75.802C338.42 75.802 337.579 75.932 336.921 76.192C336.262 76.452 335.777 76.7987 335.465 77.232C335.17 77.6653 335.023 78.1507 335.023 78.688C335.023 79.3293 335.222 79.8407 335.621 80.222C336.037 80.6033 336.565 80.9067 337.207 81.132C337.865 81.3573 338.585 81.5653 339.365 81.756C340.145 81.9293 340.925 82.1287 341.705 82.354C342.502 82.5793 343.221 82.874 343.863 83.238C344.521 83.602 345.05 84.0873 345.449 84.694C345.847 85.3007 346.047 86.0807 346.047 87.034C346.047 87.9527 345.795 88.8107 345.293 89.608C344.79 90.388 344.01 91.0207 342.953 91.506C341.913 91.974 340.595 92.208 339.001 92.208Z" fill="#194099"/>
<path d="M37.36 38.36H40.96C41.7067 37.4267 42.2933 36.0667 42.72 34.28C43.1733 32.4933 43.4 30.72 43.4 28.96C43.4 24.7733 42.6133 21.72 41.04 19.8H37.36V38.36ZM31.92 43V15H43.52C47.3067 18.36 49.2 22.92 49.2 28.68C49.2 34.4133 47.4267 39.1867 43.88 43H31.92ZM52.3106 43V15H57.7906V38.36H66.1106V43H52.3106ZM81.6466 15H92.2866C93.9666 15.56 95.3932 16.6 96.5666 18.12C97.7666 19.6133 98.3666 21.4533 98.3666 23.64C98.3666 27.2133 96.9532 29.84 94.1266 31.52L98.1666 43H92.5666L89.1666 32.8H87.0466V43H81.6466V15ZM87.0466 19.8V28.32H90.4866C90.9399 28.2133 91.4332 27.76 91.9666 26.96C92.5266 26.1333 92.8066 25.1733 92.8066 24.08C92.8066 22.9867 92.5666 22.0267 92.0866 21.2C91.6332 20.3733 91.1799 19.9067 90.7266 19.8H87.0466ZM101.256 43V15H115.616V19.8H106.736V26.48H114.656V31.12H106.736V38.36H115.776V43H101.256ZM118.873 43V15H133.473V19.8H124.353V26.8H132.273V31.44H124.353V43H118.873ZM135.787 15H146.427C148.107 15.56 149.534 16.6 150.707 18.12C151.907 19.6133 152.507 21.4533 152.507 23.64C152.507 27.2133 151.094 29.84 148.267 31.52L152.307 43H146.707L143.307 32.8H141.187V43H135.787V15ZM141.187 19.8V28.32H144.627C145.081 28.2133 145.574 27.76 146.107 26.96C146.667 26.1333 146.947 25.1733 146.947 24.08C146.947 22.9867 146.707 22.0267 146.227 21.2C145.774 20.3733 145.321 19.9067 144.867 19.8H141.187ZM155.397 43V15H160.877V43H155.397ZM178.013 43H169.533C167.613 41.24 166.213 39.1467 165.333 36.72C164.453 34.2933 164.013 31.76 164.013 29.12C164.013 26.4533 164.546 23.8267 165.613 21.24C166.679 18.6533 168.173 16.5733 170.093 15H179.813V19.8H172.373C171.679 20.6 171.079 21.8667 170.573 23.6C170.066 25.3067 169.813 27.1333 169.813 29.08C169.813 31 170.039 32.84 170.493 34.6C170.973 36.3333 171.559 37.5867 172.253 38.36H176.093V27.48H181.373V34.2C181.373 37.88 180.253 40.8133 178.013 43ZM184.498 43V15H198.858V19.8H189.978V26.48H197.898V31.12H189.978V38.36H199.018V43H184.498ZM202.115 15H212.755C214.435 15.56 215.862 16.6 217.035 18.12C218.235 19.6133 218.835 21.4533 218.835 23.64C218.835 27.2133 217.422 29.84 214.595 31.52L218.635 43H213.035L209.635 32.8H207.515V43H202.115V15ZM207.515 19.8V28.32H210.955C211.409 28.2133 211.902 27.76 212.435 26.96C212.995 26.1333 213.275 25.1733 213.275 24.08C213.275 22.9867 213.035 22.0267 212.555 21.2C212.102 20.3733 211.649 19.9067 211.195 19.8H207.515ZM233.645 43L232.805 38.56H226.485L225.645 43H220.205L225.605 15H233.885L239.005 43H233.645ZM229.565 20.2L228.005 29.52L227.125 34.28H232.125L231.205 29.52L229.645 20.2H229.565ZM243.432 19.8H237.392V15H254.912V19.8H248.872V43H243.432V19.8ZM257.233 43V15H262.713V43H257.233ZM279.608 15C281.475 16.52 282.862 18.56 283.768 21.12C284.675 23.68 285.128 26.32 285.128 29.04C285.128 31.7333 284.688 34.2933 283.808 36.72C282.928 39.1467 281.528 41.24 279.608 43H271.368C269.448 41.24 268.048 39.1467 267.168 36.72C266.288 34.2933 265.848 31.7333 265.848 29.04C265.848 26.32 266.302 23.68 267.208 21.12C268.115 18.56 269.502 16.52 271.368 15H279.608ZM274.048 38.36H276.928C277.595 37.5867 278.155 36.3333 278.608 34.6C279.088 32.84 279.328 30.9867 279.328 29.04C279.328 27.0933 279.102 25.2667 278.648 23.56C278.195 21.8267 277.635 20.5733 276.968 19.8H274.048C273.382 20.5733 272.808 21.8267 272.328 23.56C271.875 25.2667 271.648 27.0933 271.648 29.04C271.648 30.9867 271.875 32.84 272.328 34.6C272.808 36.3333 273.382 37.5867 274.048 38.36ZM300.728 43L293.248 27.52L293.048 27.6L293.288 32.32V43H288.248V15H292.288L299.648 31.08L299.848 31L299.408 26.08V15H304.448V43H300.728Z" fill="#194099"/>
<path d="M2 59H349" stroke="#194099"/>
</svg>
