<svg width="311" height="89" viewBox="0 0 311 89" fill="none" xmlns="http://www.w3.org/2000/svg">
<path d="M13.731 81.1318V62.9318H15.863L27.901 77.8818H26.783V62.9318H29.383V81.1318H27.251L15.213 66.1818H16.331V81.1318H13.731ZM43.0466 81.3398C41.6599 81.3398 40.3686 81.1058 39.1726 80.6378C37.9939 80.1698 36.9713 79.5198 36.1046 78.6878C35.2379 77.8385 34.5619 76.8505 34.0766 75.7238C33.5913 74.5972 33.3486 73.3665 33.3486 72.0318C33.3486 70.6972 33.5913 69.4665 34.0766 68.3398C34.5619 67.2132 35.2379 66.2338 36.1046 65.4018C36.9713 64.5525 37.9939 63.8938 39.1726 63.4258C40.3513 62.9578 41.6426 62.7238 43.0466 62.7238C44.4333 62.7238 45.7073 62.9578 46.8686 63.4258C48.0473 63.8765 49.0699 64.5265 49.9366 65.3758C50.8206 66.2078 51.4966 67.1872 51.9646 68.3138C52.4499 69.4405 52.6926 70.6798 52.6926 72.0318C52.6926 73.3838 52.4499 74.6232 51.9646 75.7498C51.4966 76.8765 50.8206 77.8645 49.9366 78.7138C49.0699 79.5458 48.0473 80.1958 46.8686 80.6638C45.7073 81.1145 44.4333 81.3398 43.0466 81.3398ZM43.0466 79.0258C44.0519 79.0258 44.9793 78.8525 45.8286 78.5058C46.6953 78.1592 47.4406 77.6738 48.0646 77.0498C48.7059 76.4085 49.1999 75.6632 49.5466 74.8138C49.9106 73.9645 50.0926 73.0372 50.0926 72.0318C50.0926 71.0265 49.9106 70.0992 49.5466 69.2498C49.1999 68.4005 48.7059 67.6638 48.0646 67.0398C47.4406 66.3985 46.6953 65.9045 45.8286 65.5578C44.9793 65.2112 44.0519 65.0378 43.0466 65.0378C42.0239 65.0378 41.0793 65.2112 40.2126 65.5578C39.3633 65.9045 38.6179 66.3985 37.9766 67.0398C37.3353 67.6638 36.8326 68.4005 36.4686 69.2498C36.1219 70.0992 35.9486 71.0265 35.9486 72.0318C35.9486 73.0372 36.1219 73.9645 36.4686 74.8138C36.8326 75.6632 37.3353 76.4085 37.9766 77.0498C38.6179 77.6738 39.3633 78.1592 40.2126 78.5058C41.0793 78.8525 42.0239 79.0258 43.0466 79.0258ZM61.9705 81.3398C60.5839 81.3398 59.2579 81.1318 57.9925 80.7158C56.7272 80.2825 55.7305 79.7278 55.0025 79.0518L55.9645 77.0238C56.6579 77.6305 57.5419 78.1332 58.6165 78.5318C59.6912 78.9305 60.8092 79.1298 61.9705 79.1298C63.0279 79.1298 63.8859 79.0085 64.5445 78.7658C65.2032 78.5232 65.6885 78.1938 66.0005 77.7778C66.3125 77.3445 66.4685 76.8592 66.4685 76.3218C66.4685 75.6978 66.2605 75.1952 65.8445 74.8138C65.4459 74.4325 64.9172 74.1292 64.2585 73.9038C63.6172 73.6612 62.9065 73.4532 62.1265 73.2798C61.3465 73.1065 60.5579 72.9072 59.7605 72.6818C58.9805 72.4392 58.2612 72.1358 57.6025 71.7718C56.9612 71.4078 56.4412 70.9225 56.0425 70.3158C55.6439 69.6918 55.4445 68.8945 55.4445 67.9238C55.4445 66.9878 55.6872 66.1298 56.1725 65.3498C56.6752 64.5525 57.4379 63.9198 58.4605 63.4518C59.5005 62.9665 60.8179 62.7238 62.4125 62.7238C63.4699 62.7238 64.5185 62.8625 65.5585 63.1398C66.5985 63.4172 67.4999 63.8158 68.2625 64.3358L67.4045 66.4158C66.6245 65.8958 65.8012 65.5232 64.9345 65.2978C64.0679 65.0552 63.2272 64.9338 62.4125 64.9338C61.3899 64.9338 60.5492 65.0638 59.8905 65.3238C59.2319 65.5838 58.7465 65.9305 58.4345 66.3638C58.1399 66.7972 57.9925 67.2825 57.9925 67.8198C57.9925 68.4612 58.1919 68.9725 58.5905 69.3538C59.0065 69.7352 59.5352 70.0385 60.1765 70.2638C60.8352 70.4892 61.5545 70.6972 62.3345 70.8878C63.1145 71.0612 63.8945 71.2605 64.6745 71.4858C65.4719 71.7112 66.1912 72.0058 66.8325 72.3698C67.4912 72.7338 68.0199 73.2192 68.4185 73.8258C68.8172 74.4325 69.0165 75.2125 69.0165 76.1658C69.0165 77.0845 68.7652 77.9425 68.2625 78.7398C67.7599 79.5198 66.9799 80.1525 65.9225 80.6378C64.8825 81.1058 63.5652 81.3398 61.9705 81.3398ZM79.7974 81.1318V62.9318H86.8954C88.4901 62.9318 89.8507 63.1832 90.9774 63.6858C92.1041 64.1885 92.9707 64.9165 93.5774 65.8698C94.1841 66.8232 94.4874 67.9585 94.4874 69.2758C94.4874 70.5932 94.1841 71.7285 93.5774 72.6818C92.9707 73.6178 92.1041 74.3458 90.9774 74.8658C89.8507 75.3685 88.4901 75.6198 86.8954 75.6198H81.2274L82.3974 74.3978V81.1318H79.7974ZM82.3974 74.6578L81.2274 73.3578H86.8174C88.4814 73.3578 89.7381 73.0025 90.5874 72.2918C91.4541 71.5812 91.8874 70.5758 91.8874 69.2758C91.8874 67.9758 91.4541 66.9705 90.5874 66.2598C89.7381 65.5492 88.4814 65.1938 86.8174 65.1938H81.2274L82.3974 63.8938V74.6578ZM94.6371 81.1318L102.879 62.9318H105.453L113.721 81.1318H110.991L103.633 64.3878H104.673L97.3151 81.1318H94.6371ZM98.1471 76.5818L98.8491 74.5018H109.093L109.847 76.5818H98.1471ZM116.436 81.1318V62.9318H123.534C125.129 62.9318 126.489 63.1832 127.616 63.6858C128.743 64.1885 129.609 64.9165 130.216 65.8698C130.823 66.8232 131.126 67.9585 131.126 69.2758C131.126 70.5932 130.823 71.7285 130.216 72.6818C129.609 73.6178 128.743 74.3372 127.616 74.8398C126.489 75.3425 125.129 75.5938 123.534 75.5938H117.866L119.036 74.3978V81.1318H116.436ZM128.604 81.1318L123.976 74.5278H126.758L131.438 81.1318H128.604ZM119.036 74.6578L117.866 73.3838H123.456C125.12 73.3838 126.377 73.0285 127.226 72.3178C128.093 71.5898 128.526 70.5758 128.526 69.2758C128.526 67.9758 128.093 66.9705 127.226 66.2598C126.377 65.5492 125.12 65.1938 123.456 65.1938H117.866L119.036 63.8938V74.6578ZM138.687 81.1318V65.1938H132.447V62.9318H147.501V65.1938H141.261V81.1318H138.687ZM152.699 70.7838H162.059V72.9938H152.699V70.7838ZM152.933 78.8698H163.541V81.1318H150.333V62.9318H163.177V65.1938H152.933V78.8698ZM167.751 81.1318V62.9318H169.883L181.921 77.8818H180.803V62.9318H183.403V81.1318H181.271L169.233 66.1818H170.351V81.1318H167.751ZM186.094 81.1318L194.336 62.9318H196.91L205.178 81.1318H202.448L195.09 64.3878H196.13L188.772 81.1318H186.094ZM189.604 76.5818L190.306 74.5018H200.55L201.304 76.5818H189.604ZM207.893 81.1318V62.9318H210.493V81.1318H207.893ZM215.942 81.1318V62.9318H223.04C224.635 62.9318 225.995 63.1832 227.122 63.6858C228.249 64.1885 229.115 64.9165 229.722 65.8698C230.329 66.8232 230.632 67.9585 230.632 69.2758C230.632 70.5932 230.329 71.7285 229.722 72.6818C229.115 73.6178 228.249 74.3372 227.122 74.8398C225.995 75.3425 224.635 75.5938 223.04 75.5938H217.372L218.542 74.3978V81.1318H215.942ZM228.11 81.1318L223.482 74.5278H226.264L230.944 81.1318H228.11ZM218.542 74.6578L217.372 73.3838H222.962C224.626 73.3838 225.883 73.0285 226.732 72.3178C227.599 71.5898 228.032 70.5758 228.032 69.2758C228.032 67.9758 227.599 66.9705 226.732 66.2598C225.883 65.5492 224.626 65.1938 222.962 65.1938H217.372L218.542 63.8938V74.6578ZM237.199 70.7838H246.559V72.9938H237.199V70.7838ZM237.433 78.8698H248.041V81.1318H234.833V62.9318H247.677V65.1938H237.433V78.8698ZM257.555 81.3398C256.168 81.3398 254.842 81.1318 253.577 80.7158C252.311 80.2825 251.315 79.7278 250.587 79.0518L251.549 77.0238C252.242 77.6305 253.126 78.1332 254.201 78.5318C255.275 78.9305 256.393 79.1298 257.555 79.1298C258.612 79.1298 259.47 79.0085 260.129 78.7658C260.787 78.5232 261.273 78.1938 261.585 77.7778C261.897 77.3445 262.053 76.8592 262.053 76.3218C262.053 75.6978 261.845 75.1952 261.429 74.8138C261.03 74.4325 260.501 74.1292 259.843 73.9038C259.201 73.6612 258.491 73.4532 257.711 73.2798C256.931 73.1065 256.142 72.9072 255.345 72.6818C254.565 72.4392 253.845 72.1358 253.187 71.7718C252.545 71.4078 252.025 70.9225 251.627 70.3158C251.228 69.6918 251.029 68.8945 251.029 67.9238C251.029 66.9878 251.271 66.1298 251.757 65.3498C252.259 64.5525 253.022 63.9198 254.045 63.4518C255.085 62.9665 256.402 62.7238 257.997 62.7238C259.054 62.7238 260.103 62.8625 261.143 63.1398C262.183 63.4172 263.084 63.8158 263.847 64.3358L262.989 66.4158C262.209 65.8958 261.385 65.5232 260.519 65.2978C259.652 65.0552 258.811 64.9338 257.997 64.9338C256.974 64.9338 256.133 65.0638 255.475 65.3238C254.816 65.5838 254.331 65.9305 254.019 66.3638C253.724 66.7972 253.577 67.2825 253.577 67.8198C253.577 68.4612 253.776 68.9725 254.175 69.3538C254.591 69.7352 255.119 70.0385 255.761 70.2638C256.419 70.4892 257.139 70.6972 257.919 70.8878C258.699 71.0612 259.479 71.2605 260.259 71.4858C261.056 71.7112 261.775 72.0058 262.417 72.3698C263.075 72.7338 263.604 73.2192 264.003 73.8258C264.401 74.4325 264.601 75.2125 264.601 76.1658C264.601 77.0845 264.349 77.9425 263.847 78.7398C263.344 79.5198 262.564 80.1525 261.507 80.6378C260.467 81.1058 259.149 81.3398 257.555 81.3398Z" fill="#194099"/>
<path d="M7.36 28.36H10.96C11.7067 27.4267 12.2933 26.0667 12.72 24.28C13.1733 22.4933 13.4 20.72 13.4 18.96C13.4 14.7733 12.6133 11.72 11.04 9.8H7.36V28.36ZM1.92 33V5H13.52C17.3067 8.36 19.2 12.92 19.2 18.68C19.2 24.4133 17.4267 29.1867 13.88 33H1.92ZM22.3106 33V5H27.7906V28.36H36.1106V33H22.3106ZM51.6466 5H62.2866C63.9666 5.56 65.3932 6.6 66.5666 8.12C67.7666 9.61333 68.3666 11.4533 68.3666 13.64C68.3666 17.2133 66.9532 19.84 64.1266 21.52L68.1666 33H62.5666L59.1666 22.8H57.0466V33H51.6466V5ZM57.0466 9.8V18.32H60.4866C60.9399 18.2133 61.4332 17.76 61.9666 16.96C62.5266 16.1333 62.8066 15.1733 62.8066 14.08C62.8066 12.9867 62.5666 12.0267 62.0866 11.2C61.6332 10.3733 61.1799 9.90667 60.7266 9.8H57.0466ZM71.2559 33V5H85.6159V9.8H76.7359V16.48H84.6559V21.12H76.7359V28.36H85.7759V33H71.2559ZM88.8731 33V5H103.473V9.8H94.3531V16.8H102.273V21.44H94.3531V33H88.8731ZM105.787 5H116.427C118.107 5.56 119.534 6.6 120.707 8.12C121.907 9.61333 122.507 11.4533 122.507 13.64C122.507 17.2133 121.094 19.84 118.267 21.52L122.307 33H116.707L113.307 22.8H111.187V33H105.787V5ZM111.187 9.8V18.32H114.627C115.081 18.2133 115.574 17.76 116.107 16.96C116.667 16.1333 116.947 15.1733 116.947 14.08C116.947 12.9867 116.707 12.0267 116.227 11.2C115.774 10.3733 115.321 9.90667 114.867 9.8H111.187ZM125.397 33V5H130.877V33H125.397ZM148.013 33H139.533C137.613 31.24 136.213 29.1467 135.333 26.72C134.453 24.2933 134.013 21.76 134.013 19.12C134.013 16.4533 134.546 13.8267 135.613 11.24C136.679 8.65333 138.173 6.57333 140.093 5H149.813V9.8H142.373C141.679 10.6 141.079 11.8667 140.573 13.6C140.066 15.3067 139.813 17.1333 139.813 19.08C139.813 21 140.039 22.84 140.493 24.6C140.973 26.3333 141.559 27.5867 142.253 28.36H146.093V17.48H151.373V24.2C151.373 27.88 150.253 30.8133 148.013 33ZM154.498 33V5H168.858V9.8H159.978V16.48H167.898V21.12H159.978V28.36H169.018V33H154.498ZM172.115 5H182.755C184.435 5.56 185.862 6.6 187.035 8.12C188.235 9.61333 188.835 11.4533 188.835 13.64C188.835 17.2133 187.422 19.84 184.595 21.52L188.635 33H183.035L179.635 22.8H177.515V33H172.115V5ZM177.515 9.8V18.32H180.955C181.409 18.2133 181.902 17.76 182.435 16.96C182.995 16.1333 183.275 15.1733 183.275 14.08C183.275 12.9867 183.035 12.0267 182.555 11.2C182.102 10.3733 181.649 9.90667 181.195 9.8H177.515ZM203.645 33L202.805 28.56H196.485L195.645 33H190.205L195.605 5H203.885L209.005 33H203.645ZM199.565 10.2L198.005 19.52L197.125 24.28H202.125L201.205 19.52L199.645 10.2H199.565ZM213.432 9.8H207.392V5H224.912V9.8H218.872V33H213.432V9.8ZM227.233 33V5H232.713V33H227.233ZM249.608 5C251.475 6.52 252.862 8.56 253.768 11.12C254.675 13.68 255.128 16.32 255.128 19.04C255.128 21.7333 254.688 24.2933 253.808 26.72C252.928 29.1467 251.528 31.24 249.608 33H241.368C239.448 31.24 238.048 29.1467 237.168 26.72C236.288 24.2933 235.848 21.7333 235.848 19.04C235.848 16.32 236.302 13.68 237.208 11.12C238.115 8.56 239.502 6.52 241.368 5H249.608ZM244.048 28.36H246.928C247.595 27.5867 248.155 26.3333 248.608 24.6C249.088 22.84 249.328 20.9867 249.328 19.04C249.328 17.0933 249.102 15.2667 248.648 13.56C248.195 11.8267 247.635 10.5733 246.968 9.8H244.048C243.382 10.5733 242.808 11.8267 242.328 13.56C241.875 15.2667 241.648 17.0933 241.648 19.04C241.648 20.9867 241.875 22.84 242.328 24.6C242.808 26.3333 243.382 27.5867 244.048 28.36ZM270.728 33L263.248 17.52L263.048 17.6L263.288 22.32V33H258.248V5H262.288L269.648 21.08L269.848 21L269.408 16.08V5H274.448V33H270.728Z" fill="#194099"/>
<path d="M2 48H275" stroke="#194099"/>
</svg>
