<svg width="299" height="98" viewBox="0 0 299 98" fill="none" xmlns="http://www.w3.org/2000/svg">
<path d="M2.73 91V72.8H9.828C11.4227 72.8 12.7833 73.0513 13.91 73.554C15.0367 74.0567 15.9033 74.7847 16.51 75.738C17.1167 76.6913 17.42 77.8267 17.42 79.144C17.42 80.4613 17.1167 81.5967 16.51 82.55C15.9033 83.486 15.0367 84.2053 13.91 84.708C12.7833 85.2107 11.4227 85.462 9.828 85.462H4.16L5.33 84.266V91H2.73ZM14.898 91L10.27 84.396H13.052L17.732 91H14.898ZM5.33 84.526L4.16 83.252H9.75C11.414 83.252 12.6707 82.8967 13.52 82.186C14.3867 81.458 14.82 80.444 14.82 79.144C14.82 77.844 14.3867 76.8387 13.52 76.128C12.6707 75.4173 11.414 75.062 9.75 75.062H4.16L5.33 73.762V84.526ZM23.9866 80.652H33.3466V82.862H23.9866V80.652ZM24.2206 88.738H34.8286V91H21.6206V72.8H34.4646V75.062H24.2206V88.738ZM26.1186 71.318L29.6546 67.938H32.8266L28.4586 71.318H26.1186ZM41.3786 81.406H50.7646V83.642H41.3786V81.406ZM41.6386 91H39.0386V72.8H51.8826V75.062H41.6386V91ZM57.9085 80.652H67.2685V82.862H57.9085V80.652ZM58.1425 88.738H68.7505V91H55.5425V72.8H68.3865V75.062H58.1425V88.738ZM60.0405 71.318L63.5765 67.938H66.7485L62.3805 71.318H60.0405ZM72.9605 91V72.8H80.0585C81.6531 72.8 83.0138 73.0513 84.1405 73.554C85.2671 74.0567 86.1338 74.7847 86.7405 75.738C87.3471 76.6913 87.6505 77.8267 87.6505 79.144C87.6505 80.4613 87.3471 81.5967 86.7405 82.55C86.1338 83.486 85.2671 84.2053 84.1405 84.708C83.0138 85.2107 81.6531 85.462 80.0585 85.462H74.3905L75.5605 84.266V91H72.9605ZM85.1285 91L80.5005 84.396H83.2825L87.9625 91H85.1285ZM75.5605 84.526L74.3905 83.252H79.9805C81.6445 83.252 82.9011 82.8967 83.7505 82.186C84.6171 81.458 85.0505 80.444 85.0505 79.144C85.0505 77.844 84.6171 76.8387 83.7505 76.128C82.9011 75.4173 81.6445 75.062 79.9805 75.062H74.3905L75.5605 73.762V84.526ZM94.2171 80.652H103.577V82.862H94.2171V80.652ZM94.4511 88.738H105.059V91H91.8511V72.8H104.695V75.062H94.4511V88.738ZM109.269 91V72.8H111.401L123.439 87.75H122.321V72.8H124.921V91H122.789L110.751 76.05H111.869V91H109.269ZM138.507 91.208C137.12 91.208 135.837 90.9827 134.659 90.532C133.497 90.064 132.483 89.414 131.617 88.582C130.767 87.7327 130.1 86.7447 129.615 85.618C129.129 84.4913 128.887 83.252 128.887 81.9C128.887 80.548 129.129 79.3087 129.615 78.182C130.1 77.0553 130.776 76.076 131.643 75.244C132.509 74.3947 133.523 73.7447 134.685 73.294C135.863 72.826 137.146 72.592 138.533 72.592C139.937 72.592 141.228 72.8347 142.407 73.32C143.603 73.788 144.617 74.49 145.449 75.426L143.759 77.064C143.065 76.336 142.285 75.7987 141.419 75.452C140.552 75.088 139.625 74.906 138.637 74.906C137.614 74.906 136.661 75.0793 135.777 75.426C134.91 75.7727 134.156 76.258 133.515 76.882C132.873 77.506 132.371 78.2513 132.007 79.118C131.66 79.9673 131.487 80.8947 131.487 81.9C131.487 82.9053 131.66 83.8413 132.007 84.708C132.371 85.5573 132.873 86.294 133.515 86.918C134.156 87.542 134.91 88.0273 135.777 88.374C136.661 88.7207 137.614 88.894 138.637 88.894C139.625 88.894 140.552 88.7207 141.419 88.374C142.285 88.01 143.065 87.4553 143.759 86.71L145.449 88.348C144.617 89.284 143.603 89.9947 142.407 90.48C141.228 90.9653 139.928 91.208 138.507 91.208ZM151.524 80.652H160.884V82.862H151.524V80.652ZM151.758 88.738H162.366V91H149.158V72.8H162.002V75.062H151.758V88.738ZM171.88 91.208C170.493 91.208 169.167 91 167.902 90.584C166.636 90.1507 165.64 89.596 164.912 88.92L165.874 86.892C166.567 87.4987 167.451 88.0013 168.526 88.4C169.6 88.7987 170.718 88.998 171.88 88.998C172.937 88.998 173.795 88.8767 174.454 88.634C175.112 88.3913 175.598 88.062 175.91 87.646C176.222 87.2127 176.378 86.7273 176.378 86.19C176.378 85.566 176.17 85.0633 175.754 84.682C175.355 84.3007 174.826 83.9973 174.168 83.772C173.526 83.5293 172.816 83.3213 172.036 83.148C171.256 82.9747 170.467 82.7753 169.67 82.55C168.89 82.3073 168.17 82.004 167.512 81.64C166.87 81.276 166.35 80.7907 165.952 80.184C165.553 79.56 165.354 78.7627 165.354 77.792C165.354 76.856 165.596 75.998 166.082 75.218C166.584 74.4207 167.347 73.788 168.37 73.32C169.41 72.8347 170.727 72.592 172.322 72.592C173.379 72.592 174.428 72.7307 175.468 73.008C176.508 73.2853 177.409 73.684 178.172 74.204L177.314 76.284C176.534 75.764 175.71 75.3913 174.844 75.166C173.977 74.9233 173.136 74.802 172.322 74.802C171.299 74.802 170.458 74.932 169.8 75.192C169.141 75.452 168.656 75.7987 168.344 76.232C168.049 76.6653 167.902 77.1507 167.902 77.688C167.902 78.3293 168.101 78.8407 168.5 79.222C168.916 79.6033 169.444 79.9067 170.086 80.132C170.744 80.3573 171.464 80.5653 172.244 80.756C173.024 80.9293 173.804 81.1287 174.584 81.354C175.381 81.5793 176.1 81.874 176.742 82.238C177.4 82.602 177.929 83.0873 178.328 83.694C178.726 84.3007 178.926 85.0807 178.926 86.034C178.926 86.9527 178.674 87.8107 178.172 88.608C177.669 89.388 176.889 90.0207 175.832 90.506C174.792 90.974 173.474 91.208 171.88 91.208ZM197.845 91.208C196.458 91.208 195.175 90.9827 193.997 90.532C192.835 90.064 191.821 89.414 190.955 88.582C190.105 87.7327 189.438 86.7447 188.953 85.618C188.467 84.4913 188.225 83.252 188.225 81.9C188.225 80.548 188.467 79.3087 188.953 78.182C189.438 77.0553 190.114 76.076 190.981 75.244C191.847 74.3947 192.861 73.7447 194.023 73.294C195.201 72.826 196.484 72.592 197.871 72.592C199.275 72.592 200.566 72.8347 201.745 73.32C202.941 73.788 203.955 74.49 204.787 75.426L203.097 77.064C202.403 76.336 201.623 75.7987 200.757 75.452C199.89 75.088 198.963 74.906 197.975 74.906C196.952 74.906 195.999 75.0793 195.115 75.426C194.248 75.7727 193.494 76.258 192.853 76.882C192.211 77.506 191.709 78.2513 191.345 79.118C190.998 79.9673 190.825 80.8947 190.825 81.9C190.825 82.9053 190.998 83.8413 191.345 84.708C191.709 85.5573 192.211 86.294 192.853 86.918C193.494 87.542 194.248 88.0273 195.115 88.374C195.999 88.7207 196.952 88.894 197.975 88.894C198.963 88.894 199.89 88.7207 200.757 88.374C201.623 88.01 202.403 87.4553 203.097 86.71L204.787 88.348C203.955 89.284 202.941 89.9947 201.745 90.48C200.566 90.9653 199.266 91.208 197.845 91.208ZM208.496 91V72.8H211.096V88.738H220.95V91H208.496ZM223.933 91V72.8H226.533V91H223.933ZM234.348 80.652H243.708V82.862H234.348V80.652ZM234.582 88.738H245.19V91H231.982V72.8H244.826V75.062H234.582V88.738ZM249.4 91V72.8H251.532L263.57 87.75H262.452V72.8H265.052V91H262.92L250.882 76.05H252V91H249.4ZM274.114 91V75.062H267.874V72.8H282.928V75.062H276.688V91H274.114ZM290.835 91.208C289.448 91.208 288.122 91 286.857 90.584C285.591 90.1507 284.595 89.596 283.867 88.92L284.829 86.892C285.522 87.4987 286.406 88.0013 287.481 88.4C288.555 88.7987 289.673 88.998 290.835 88.998C291.892 88.998 292.75 88.8767 293.409 88.634C294.067 88.3913 294.553 88.062 294.865 87.646C295.177 87.2127 295.333 86.7273 295.333 86.19C295.333 85.566 295.125 85.0633 294.709 84.682C294.31 84.3007 293.781 83.9973 293.123 83.772C292.481 83.5293 291.771 83.3213 290.991 83.148C290.211 82.9747 289.422 82.7753 288.625 82.55C287.845 82.3073 287.125 82.004 286.467 81.64C285.825 81.276 285.305 80.7907 284.907 80.184C284.508 79.56 284.309 78.7627 284.309 77.792C284.309 76.856 284.551 75.998 285.037 75.218C285.539 74.4207 286.302 73.788 287.325 73.32C288.365 72.8347 289.682 72.592 291.277 72.592C292.334 72.592 293.383 72.7307 294.423 73.008C295.463 73.2853 296.364 73.684 297.127 74.204L296.269 76.284C295.489 75.764 294.665 75.3913 293.799 75.166C292.932 74.9233 292.091 74.802 291.277 74.802C290.254 74.802 289.413 74.932 288.755 75.192C288.096 75.452 287.611 75.7987 287.299 76.232C287.004 76.6653 286.857 77.1507 286.857 77.688C286.857 78.3293 287.056 78.8407 287.455 79.222C287.871 79.6033 288.399 79.9067 289.041 80.132C289.699 80.3573 290.419 80.5653 291.199 80.756C291.979 80.9293 292.759 81.1287 293.539 81.354C294.336 81.5793 295.055 81.874 295.697 82.238C296.355 82.602 296.884 83.0873 297.283 83.694C297.681 84.3007 297.881 85.0807 297.881 86.034C297.881 86.9527 297.629 87.8107 297.127 88.608C296.624 89.388 295.844 90.0207 294.787 90.506C293.747 90.974 292.429 91.208 290.835 91.208Z" fill="#194099"/>
<path d="M15.36 38.36H18.96C19.7067 37.4267 20.2933 36.0667 20.72 34.28C21.1733 32.4933 21.4 30.72 21.4 28.96C21.4 24.7733 20.6133 21.72 19.04 19.8H15.36V38.36ZM9.92 43V15H21.52C25.3067 18.36 27.2 22.92 27.2 28.68C27.2 34.4133 25.4267 39.1867 21.88 43H9.92ZM30.3106 43V15H35.7906V38.36H44.1106V43H30.3106ZM59.6466 15H70.2866C71.9666 15.56 73.3932 16.6 74.5666 18.12C75.7666 19.6133 76.3666 21.4533 76.3666 23.64C76.3666 27.2133 74.9532 29.84 72.1266 31.52L76.1666 43H70.5666L67.1666 32.8H65.0466V43H59.6466V15ZM65.0466 19.8V28.32H68.4866C68.9399 28.2133 69.4332 27.76 69.9666 26.96C70.5266 26.1333 70.8066 25.1733 70.8066 24.08C70.8066 22.9867 70.5666 22.0267 70.0866 21.2C69.6332 20.3733 69.1799 19.9067 68.7266 19.8H65.0466ZM79.2559 43V15H93.6159V19.8H84.7359V26.48H92.6559V31.12H84.7359V38.36H93.7759V43H79.2559ZM96.8731 43V15H111.473V19.8H102.353V26.8H110.273V31.44H102.353V43H96.8731ZM113.787 15H124.427C126.107 15.56 127.534 16.6 128.707 18.12C129.907 19.6133 130.507 21.4533 130.507 23.64C130.507 27.2133 129.094 29.84 126.267 31.52L130.307 43H124.707L121.307 32.8H119.187V43H113.787V15ZM119.187 19.8V28.32H122.627C123.081 28.2133 123.574 27.76 124.107 26.96C124.667 26.1333 124.947 25.1733 124.947 24.08C124.947 22.9867 124.707 22.0267 124.227 21.2C123.774 20.3733 123.321 19.9067 122.867 19.8H119.187ZM133.397 43V15H138.877V43H133.397ZM156.013 43H147.533C145.613 41.24 144.213 39.1467 143.333 36.72C142.453 34.2933 142.013 31.76 142.013 29.12C142.013 26.4533 142.546 23.8267 143.613 21.24C144.679 18.6533 146.173 16.5733 148.093 15H157.813V19.8H150.373C149.679 20.6 149.079 21.8667 148.573 23.6C148.066 25.3067 147.813 27.1333 147.813 29.08C147.813 31 148.039 32.84 148.493 34.6C148.973 36.3333 149.559 37.5867 150.253 38.36H154.093V27.48H159.373V34.2C159.373 37.88 158.253 40.8133 156.013 43ZM162.498 43V15H176.858V19.8H167.978V26.48H175.898V31.12H167.978V38.36H177.018V43H162.498ZM180.115 15H190.755C192.435 15.56 193.862 16.6 195.035 18.12C196.235 19.6133 196.835 21.4533 196.835 23.64C196.835 27.2133 195.422 29.84 192.595 31.52L196.635 43H191.035L187.635 32.8H185.515V43H180.115V15ZM185.515 19.8V28.32H188.955C189.409 28.2133 189.902 27.76 190.435 26.96C190.995 26.1333 191.275 25.1733 191.275 24.08C191.275 22.9867 191.035 22.0267 190.555 21.2C190.102 20.3733 189.649 19.9067 189.195 19.8H185.515ZM211.645 43L210.805 38.56H204.485L203.645 43H198.205L203.605 15H211.885L217.005 43H211.645ZM207.565 20.2L206.005 29.52L205.125 34.28H210.125L209.205 29.52L207.645 20.2H207.565ZM221.432 19.8H215.392V15H232.912V19.8H226.872V43H221.432V19.8ZM235.233 43V15H240.713V43H235.233ZM257.608 15C259.475 16.52 260.862 18.56 261.768 21.12C262.675 23.68 263.128 26.32 263.128 29.04C263.128 31.7333 262.688 34.2933 261.808 36.72C260.928 39.1467 259.528 41.24 257.608 43H249.368C247.448 41.24 246.048 39.1467 245.168 36.72C244.288 34.2933 243.848 31.7333 243.848 29.04C243.848 26.32 244.302 23.68 245.208 21.12C246.115 18.56 247.502 16.52 249.368 15H257.608ZM252.048 38.36H254.928C255.595 37.5867 256.155 36.3333 256.608 34.6C257.088 32.84 257.328 30.9867 257.328 29.04C257.328 27.0933 257.102 25.2667 256.648 23.56C256.195 21.8267 255.635 20.5733 254.968 19.8H252.048C251.382 20.5733 250.808 21.8267 250.328 23.56C249.875 25.2667 249.648 27.0933 249.648 29.04C249.648 30.9867 249.875 32.84 250.328 34.6C250.808 36.3333 251.382 37.5867 252.048 38.36ZM278.728 43L271.248 27.52L271.048 27.6L271.288 32.32V43H266.248V15H270.288L277.648 31.08L277.848 31L277.408 26.08V15H282.448V43H278.728Z" fill="#194099"/>
<path d="M0 58H297" stroke="#194099"/>
</svg>
