<svg width="311" height="88" viewBox="0 0 311 88" fill="none" xmlns="http://www.w3.org/2000/svg">
<path d="M17.73 81V62.8H19.862L31.9 77.75H30.782V62.8H33.382V81H31.25L19.212 66.05H20.33V81H17.73ZM47.0456 81.208C45.6589 81.208 44.3676 80.974 43.1716 80.506C41.9929 80.038 40.9703 79.388 40.1036 78.556C39.2369 77.7067 38.5609 76.7187 38.0756 75.592C37.5903 74.4653 37.3476 73.2347 37.3476 71.9C37.3476 70.5653 37.5903 69.3347 38.0756 68.208C38.5609 67.0813 39.2369 66.102 40.1036 65.27C40.9703 64.4207 41.9929 63.762 43.1716 63.294C44.3503 62.826 45.6416 62.592 47.0456 62.592C48.4323 62.592 49.7063 62.826 50.8676 63.294C52.0463 63.7447 53.0689 64.3947 53.9356 65.244C54.8196 66.076 55.4956 67.0553 55.9636 68.182C56.4489 69.3087 56.6916 70.548 56.6916 71.9C56.6916 73.252 56.4489 74.4913 55.9636 75.618C55.4956 76.7447 54.8196 77.7327 53.9356 78.582C53.0689 79.414 52.0463 80.064 50.8676 80.532C49.7063 80.9827 48.4323 81.208 47.0456 81.208ZM47.0456 78.894C48.0509 78.894 48.9783 78.7207 49.8276 78.374C50.6943 78.0273 51.4396 77.542 52.0636 76.918C52.7049 76.2767 53.1989 75.5313 53.5456 74.682C53.9096 73.8327 54.0916 72.9053 54.0916 71.9C54.0916 70.8947 53.9096 69.9673 53.5456 69.118C53.1989 68.2687 52.7049 67.532 52.0636 66.908C51.4396 66.2667 50.6943 65.7727 49.8276 65.426C48.9783 65.0793 48.0509 64.906 47.0456 64.906C46.0229 64.906 45.0783 65.0793 44.2116 65.426C43.3623 65.7727 42.6169 66.2667 41.9756 66.908C41.3343 67.532 40.8316 68.2687 40.4676 69.118C40.1209 69.9673 39.9476 70.8947 39.9476 71.9C39.9476 72.9053 40.1209 73.8327 40.4676 74.682C40.8316 75.5313 41.3343 76.2767 41.9756 76.918C42.6169 77.542 43.3623 78.0273 44.2116 78.374C45.0783 78.7207 46.0229 78.894 47.0456 78.894ZM64.0256 81V65.062H57.7856V62.8H72.8396V65.062H66.5996V81H64.0256ZM75.6714 81V62.8H82.7694C84.3641 62.8 85.7247 63.0513 86.8514 63.554C87.9781 64.0567 88.8447 64.7847 89.4514 65.738C90.0581 66.6913 90.3614 67.8267 90.3614 69.144C90.3614 70.4613 90.0581 71.5967 89.4514 72.55C88.8447 73.486 87.9781 74.2053 86.8514 74.708C85.7247 75.2107 84.3641 75.462 82.7694 75.462H77.1014L78.2714 74.266V81H75.6714ZM87.8394 81L83.2114 74.396H85.9934L90.6734 81H87.8394ZM78.2714 74.526L77.1014 73.252H82.6914C84.3554 73.252 85.6121 72.8967 86.4614 72.186C87.3281 71.458 87.7614 70.444 87.7614 69.144C87.7614 67.844 87.3281 66.8387 86.4614 66.128C85.6121 65.4173 84.3554 65.062 82.6914 65.062H77.1014L78.2714 63.762V74.526ZM96.928 70.652H106.288V72.862H96.928V70.652ZM97.162 78.738H107.77V81H94.562V62.8H107.406V65.062H97.162V78.738ZM121.328 70.652H130.688V72.862H121.328V70.652ZM121.562 78.738H132.17V81H118.962V62.8H131.806V65.062H121.562V78.738ZM133.785 81L141.351 70.678V72.68L134.201 62.8H137.165L142.833 70.574L141.663 70.6L147.305 62.8H150.139L143.041 72.524V70.652L150.607 81H147.617L141.585 72.706H142.729L136.775 81H133.785ZM153.062 81V62.8H160.16C161.755 62.8 163.115 63.0513 164.242 63.554C165.369 64.0567 166.235 64.7847 166.842 65.738C167.449 66.6913 167.752 67.8267 167.752 69.144C167.752 70.4613 167.449 71.5967 166.842 72.55C166.235 73.486 165.369 74.214 164.242 74.734C163.115 75.2367 161.755 75.488 160.16 75.488H154.492L155.662 74.266V81H153.062ZM155.662 74.526L154.492 73.226H160.082C161.746 73.226 163.003 72.8707 163.852 72.16C164.719 71.4493 165.152 70.444 165.152 69.144C165.152 67.844 164.719 66.8387 163.852 66.128C163.003 65.4173 161.746 65.062 160.082 65.062H154.492L155.662 63.762V74.526ZM173.938 70.652H183.298V72.862H173.938V70.652ZM174.172 78.738H184.78V81H171.572V62.8H184.416V65.062H174.172V78.738ZM188.99 81V62.8H196.088C197.682 62.8 199.043 63.0513 200.17 63.554C201.296 64.0567 202.163 64.7847 202.77 65.738C203.376 66.6913 203.68 67.8267 203.68 69.144C203.68 70.4613 203.376 71.5967 202.77 72.55C202.163 73.486 201.296 74.2053 200.17 74.708C199.043 75.2107 197.682 75.462 196.088 75.462H190.42L191.59 74.266V81H188.99ZM201.158 81L196.53 74.396H199.312L203.992 81H201.158ZM191.59 74.526L190.42 73.252H196.01C197.674 73.252 198.93 72.8967 199.78 72.186C200.646 71.458 201.08 70.444 201.08 69.144C201.08 67.844 200.646 66.8387 199.78 66.128C198.93 65.4173 197.674 65.062 196.01 65.062H190.42L191.59 63.762V74.526ZM211.24 81V65.062H205V62.8H220.054V65.062H213.814V81H211.24ZM222.886 81V62.8H225.486V81H222.886ZM236.239 81.208C234.852 81.208 233.526 81 232.261 80.584C230.996 80.1507 229.999 79.596 229.271 78.92L230.233 76.892C230.926 77.4987 231.81 78.0013 232.885 78.4C233.96 78.7987 235.078 78.998 236.239 78.998C237.296 78.998 238.154 78.8767 238.813 78.634C239.472 78.3913 239.957 78.062 240.269 77.646C240.581 77.2127 240.737 76.7273 240.737 76.19C240.737 75.566 240.529 75.0633 240.113 74.682C239.714 74.3007 239.186 73.9973 238.527 73.772C237.886 73.5293 237.175 73.3213 236.395 73.148C235.615 72.9747 234.826 72.7753 234.029 72.55C233.249 72.3073 232.53 72.004 231.871 71.64C231.23 71.276 230.71 70.7907 230.311 70.184C229.912 69.56 229.713 68.7627 229.713 67.792C229.713 66.856 229.956 65.998 230.441 65.218C230.944 64.4207 231.706 63.788 232.729 63.32C233.769 62.8347 235.086 62.592 236.681 62.592C237.738 62.592 238.787 62.7307 239.827 63.008C240.867 63.2853 241.768 63.684 242.531 64.204L241.673 66.284C240.893 65.764 240.07 65.3913 239.203 65.166C238.336 64.9233 237.496 64.802 236.681 64.802C235.658 64.802 234.818 64.932 234.159 65.192C233.5 65.452 233.015 65.7987 232.703 66.232C232.408 66.6653 232.261 67.1507 232.261 67.688C232.261 68.3293 232.46 68.8407 232.859 69.222C233.275 69.6033 233.804 69.9067 234.445 70.132C235.104 70.3573 235.823 70.5653 236.603 70.756C237.383 70.9293 238.163 71.1287 238.943 71.354C239.74 71.5793 240.46 71.874 241.101 72.238C241.76 72.602 242.288 73.0873 242.687 73.694C243.086 74.3007 243.285 75.0807 243.285 76.034C243.285 76.9527 243.034 77.8107 242.531 78.608C242.028 79.388 241.248 80.0207 240.191 80.506C239.151 80.974 237.834 81.208 236.239 81.208ZM249.45 70.652H258.81V72.862H249.45V70.652ZM249.684 78.738H260.292V81H247.084V62.8H259.928V65.062H249.684V78.738Z" fill="#194099"/>
<path d="M7.36 28.36H10.96C11.7067 27.4267 12.2933 26.0667 12.72 24.28C13.1733 22.4933 13.4 20.72 13.4 18.96C13.4 14.7733 12.6133 11.72 11.04 9.8H7.36V28.36ZM1.92 33V5H13.52C17.3067 8.36 19.2 12.92 19.2 18.68C19.2 24.4133 17.4267 29.1867 13.88 33H1.92ZM22.3106 33V5H27.7906V28.36H36.1106V33H22.3106ZM51.6466 5H62.2866C63.9666 5.56 65.3932 6.6 66.5666 8.12C67.7666 9.61333 68.3666 11.4533 68.3666 13.64C68.3666 17.2133 66.9532 19.84 64.1266 21.52L68.1666 33H62.5666L59.1666 22.8H57.0466V33H51.6466V5ZM57.0466 9.8V18.32H60.4866C60.9399 18.2133 61.4332 17.76 61.9666 16.96C62.5266 16.1333 62.8066 15.1733 62.8066 14.08C62.8066 12.9867 62.5666 12.0267 62.0866 11.2C61.6332 10.3733 61.1799 9.90667 60.7266 9.8H57.0466ZM71.2559 33V5H85.6159V9.8H76.7359V16.48H84.6559V21.12H76.7359V28.36H85.7759V33H71.2559ZM88.8731 33V5H103.473V9.8H94.3531V16.8H102.273V21.44H94.3531V33H88.8731ZM105.787 5H116.427C118.107 5.56 119.534 6.6 120.707 8.12C121.907 9.61333 122.507 11.4533 122.507 13.64C122.507 17.2133 121.094 19.84 118.267 21.52L122.307 33H116.707L113.307 22.8H111.187V33H105.787V5ZM111.187 9.8V18.32H114.627C115.081 18.2133 115.574 17.76 116.107 16.96C116.667 16.1333 116.947 15.1733 116.947 14.08C116.947 12.9867 116.707 12.0267 116.227 11.2C115.774 10.3733 115.321 9.90667 114.867 9.8H111.187ZM125.397 33V5H130.877V33H125.397ZM148.013 33H139.533C137.613 31.24 136.213 29.1467 135.333 26.72C134.453 24.2933 134.013 21.76 134.013 19.12C134.013 16.4533 134.546 13.8267 135.613 11.24C136.679 8.65333 138.173 6.57333 140.093 5H149.813V9.8H142.373C141.679 10.6 141.079 11.8667 140.573 13.6C140.066 15.3067 139.813 17.1333 139.813 19.08C139.813 21 140.039 22.84 140.493 24.6C140.973 26.3333 141.559 27.5867 142.253 28.36H146.093V17.48H151.373V24.2C151.373 27.88 150.253 30.8133 148.013 33ZM154.498 33V5H168.858V9.8H159.978V16.48H167.898V21.12H159.978V28.36H169.018V33H154.498ZM172.115 5H182.755C184.435 5.56 185.862 6.6 187.035 8.12C188.235 9.61333 188.835 11.4533 188.835 13.64C188.835 17.2133 187.422 19.84 184.595 21.52L188.635 33H183.035L179.635 22.8H177.515V33H172.115V5ZM177.515 9.8V18.32H180.955C181.409 18.2133 181.902 17.76 182.435 16.96C182.995 16.1333 183.275 15.1733 183.275 14.08C183.275 12.9867 183.035 12.0267 182.555 11.2C182.102 10.3733 181.649 9.90667 181.195 9.8H177.515ZM203.645 33L202.805 28.56H196.485L195.645 33H190.205L195.605 5H203.885L209.005 33H203.645ZM199.565 10.2L198.005 19.52L197.125 24.28H202.125L201.205 19.52L199.645 10.2H199.565ZM213.432 9.8H207.392V5H224.912V9.8H218.872V33H213.432V9.8ZM227.233 33V5H232.713V33H227.233ZM249.608 5C251.475 6.52 252.862 8.56 253.768 11.12C254.675 13.68 255.128 16.32 255.128 19.04C255.128 21.7333 254.688 24.2933 253.808 26.72C252.928 29.1467 251.528 31.24 249.608 33H241.368C239.448 31.24 238.048 29.1467 237.168 26.72C236.288 24.2933 235.848 21.7333 235.848 19.04C235.848 16.32 236.302 13.68 237.208 11.12C238.115 8.56 239.502 6.52 241.368 5H249.608ZM244.048 28.36H246.928C247.595 27.5867 248.155 26.3333 248.608 24.6C249.088 22.84 249.328 20.9867 249.328 19.04C249.328 17.0933 249.102 15.2667 248.648 13.56C248.195 11.8267 247.635 10.5733 246.968 9.8H244.048C243.382 10.5733 242.808 11.8267 242.328 13.56C241.875 15.2667 241.648 17.0933 241.648 19.04C241.648 20.9867 241.875 22.84 242.328 24.6C242.808 26.3333 243.382 27.5867 244.048 28.36ZM270.728 33L263.248 17.52L263.048 17.6L263.288 22.32V33H258.248V5H262.288L269.648 21.08L269.848 21L269.408 16.08V5H274.448V33H270.728Z" fill="#194099"/>
<path d="M2 48H276" stroke="#194099"/>
</svg>
