<svg width="49" height="69" viewBox="0 0 49 69" fill="none" xmlns="http://www.w3.org/2000/svg">
<path d="M35.0114 51.7333C36.3244 47.4357 39.046 43.7712 41.7402 40.1203C42.4514 39.1637 43.1626 38.2072 43.8464 37.2372C46.5543 33.3976 48.1407 28.7497 48.1407 23.7246C48.1407 10.6161 37.3638 0 24.0704 0C10.777 0 0 10.6161 0 23.7111C0 28.7362 1.58645 33.3976 4.29437 37.2237C4.97819 38.1938 5.68936 39.1503 6.40053 40.1068C9.10845 43.7578 11.83 47.4357 13.1293 51.7199H35.0114V51.7333ZM24.0704 68.9778C30.1153 68.9778 35.0114 64.1547 35.0114 58.2V56.0444H13.1293V58.2C13.1293 64.1547 18.0254 68.9778 24.0704 68.9778ZM13.1293 23.7111C13.1293 24.8967 12.1446 25.8667 10.9411 25.8667C9.73756 25.8667 8.75286 24.8967 8.75286 23.7111C8.75286 15.3718 15.6047 8.62222 24.0704 8.62222C25.2739 8.62222 26.2586 9.59222 26.2586 10.7778C26.2586 11.9633 25.2739 12.9333 24.0704 12.9333C18.0254 12.9333 13.1293 17.7564 13.1293 23.7111Z" fill="#104594"/>
</svg>
