<svg width="95" height="80" viewBox="0 0 95 80" fill="none" xmlns="http://www.w3.org/2000/svg">
<g clip-path="url(#clip0_548_134)">
<path d="M88.3614 73.0118C87.9894 77.6637 85.4306 79.9897 80.6851 79.9897C77.9003 79.9897 75.1208 79.9897 72.336 79.9897C68.357 79.9846 67.4392 79.0931 67.3923 75.1994C67.3818 74.5231 67.3923 73.8469 67.3923 73.0015H27.6025C27.6025 74.062 27.6442 75.1328 27.5921 76.1984C27.4669 78.8882 26.3092 79.9641 23.4671 79.9846C19.2952 80.0153 15.118 80.0102 10.9409 79.9846C7.84322 79.9641 6.8211 78.9087 6.7846 75.7681C6.77417 74.851 6.7846 73.934 6.7846 73.0579C0.996048 72.3611 0 71.2289 0 65.6291C0 45.8994 0 26.1696 0 6.445C0 1.6035 1.61662 0.0306552 6.576 0.0306552C16.6669 0.0306552 26.7525 0.0306552 36.8433 0.0306552C37.5369 0.0306552 38.2983 -0.0923034 38.9084 0.143367C39.3674 0.317559 39.9045 0.973339 39.9045 1.41394C39.9045 1.8238 39.3204 2.46421 38.8615 2.60254C38.1418 2.82284 37.3179 2.73575 36.5357 2.73575C26.7055 2.74087 16.8807 2.73575 7.05056 2.74087C3.26453 2.74087 2.76912 3.20197 2.76912 6.79338C2.7639 26.5231 2.76912 46.2478 2.76912 65.9775C2.76912 69.6202 3.24889 70.0864 6.98798 70.0864C34.0377 70.0864 61.0822 70.0864 88.132 70.0864C91.7094 70.0864 92.2309 69.5843 92.2309 66.1158C92.2361 46.3041 92.2361 26.4873 92.2309 6.67555C92.2309 3.24295 91.6937 2.74087 88.0955 2.73575C74.4428 2.73062 60.785 2.73575 47.1323 2.73062C46.3501 2.73062 45.5262 2.8126 44.8117 2.58205C44.3737 2.44372 43.8261 1.77257 43.8365 1.35758C43.847 0.922106 44.3997 0.271449 44.8482 0.133121C45.5679 -0.0871802 46.3918 0.0204087 47.1741 0.0204087C60.9154 0.0204087 74.6566 0.0204087 88.3979 0.0204087C93.3834 0.0204087 95 1.57789 95 6.40401C95 26.2157 95 46.0326 95 65.8443C95 71.193 93.8944 72.4072 88.3666 73.0015L88.3614 73.0118ZM8.93835 72.9708C9.68409 74.7024 10.1586 77.0335 10.7949 77.0797C15.3318 77.3973 19.9053 77.2487 24.5622 77.2487V72.9708H8.93835ZM85.2377 73.0425H70.443C70.1788 75.8603 71.3556 77.2709 73.9735 77.2743C76.5809 77.2743 79.1884 77.2743 81.7959 77.2743C84.4172 77.2743 85.5662 75.8637 85.2429 73.0425H85.2377Z" fill="white"/>
<path d="M41.3072 30.2069C42.6944 32.5789 44.1859 33.5524 46.8455 33.6241C49.698 33.7009 52.6809 34.5616 55.3197 35.7144C59.1892 37.4153 60.7015 40.9504 59.4082 44.8799C57.7811 49.8188 54.6209 53.5741 49.3382 55.0855C46.1049 56.0128 44.165 54.8037 43.3098 51.5965C42.637 49.0759 41.9852 46.5501 41.3594 44.1524C37.8915 44.1371 35.9776 45.3871 34.314 47.9795C32.8486 50.2645 30.5124 52.196 28.1709 53.7073C24.9011 55.8181 21.3133 55.2341 18.711 52.4214C15.144 48.5636 13.4753 43.9834 14.6695 38.7627C15.4517 35.3404 17.6941 34.2542 21.1255 35.2533C23.587 35.9705 26.0588 36.6468 28.4577 37.318C29.9961 34.1723 30.6219 31.6721 29.0209 28.6033C27.8997 26.4566 27.7641 23.6593 27.7485 21.1438C27.7224 17.1066 30.1734 14.3862 34.2619 13.7304C39.3516 12.9107 43.9616 14.2274 47.6538 17.8034C50.5168 20.5751 50.1726 23.1162 47.028 25.5652C45.0776 27.0868 43.1794 28.6801 41.3177 30.2017L41.3072 30.2069ZM32.6192 30.0941C34.5956 29.8431 36.1393 29.7048 37.6516 29.423C38.2513 29.3103 38.8771 28.9773 39.3464 28.5777C41.2394 26.9638 43.0125 25.2117 44.9472 23.6439C47.028 21.9584 47.2053 20.8722 45.088 19.1867C41.9487 16.6865 38.2669 15.8258 34.3088 16.5328C32.3689 16.8761 31.1121 18.1569 30.7053 20.1396C29.9648 23.772 31.1017 27.0151 32.6192 30.0941ZM33.7456 44.7467C33.5214 44.5623 33.2971 44.383 33.0677 44.1985C32.0455 43.0663 31.0651 41.8982 29.9804 40.8223C29.5476 40.3971 28.927 40.064 28.3325 39.9052C25.8398 39.2443 23.3106 38.7218 20.8231 38.0301C18.346 37.3385 17.4699 37.7893 17.1987 40.3407C16.818 43.8911 17.9027 47.0829 20.1347 49.8495C22.1946 52.4009 24.7708 52.9184 27.4199 50.91C29.751 49.1374 31.6544 46.8217 33.7456 44.7467ZM45.1923 35.8015C45.1141 36.114 45.0411 36.4316 44.9629 36.7442C44.4779 38.1838 43.9303 39.6081 43.5392 41.0733C43.3828 41.6574 43.461 42.3593 43.6383 42.9536C44.3319 45.3154 45.1976 47.6311 45.8233 50.0083C46.5065 52.6058 47.3617 53.2001 49.8127 52.0423C53.0773 50.5002 55.3093 47.9232 56.5504 44.5879C57.6038 41.7599 56.8372 39.3314 54.016 38.1889C51.2156 37.0567 48.144 36.57 45.1923 35.7964V35.8015ZM36.8068 42.0263C39.5289 42.0416 41.7661 39.8386 41.7818 37.1335C41.7974 34.4028 39.6385 32.2562 36.8589 32.2459C34.095 32.2357 31.8578 34.3926 31.8474 37.0772C31.837 39.7208 34.1315 42.0109 36.8015 42.0263H36.8068Z" fill="white"/>
<path d="M7.07131 36.8517C6.9983 24.4278 14.9041 13.3359 26.841 9.11429C38.658 4.93369 51.9143 8.49437 59.8566 18.0237C60.7327 19.0739 61.5463 20.2113 62.1668 21.4153C62.3859 21.8405 62.1408 22.8549 61.7601 23.1111C61.395 23.3621 60.4876 23.1418 59.9974 22.8447C59.5229 22.5578 59.2882 21.902 58.9388 21.4153C51.5284 11.0201 37.542 7.26479 25.772 12.5161C13.9237 17.7982 7.49372 30.8011 10.6383 43.1021C13.835 55.5927 25.5477 64.0615 38.4964 63.2315C55.1371 62.1658 66.7038 47.0727 63.1733 31.0266C63.0794 30.6116 62.8135 30.1658 62.8917 29.7918C63.0742 28.926 63.4236 28.096 63.7052 27.2507C64.3571 27.9014 65.4314 28.47 65.5774 29.2129C66.1145 31.9641 66.7038 34.7819 66.6308 37.5639C66.2084 53.6919 52.6027 66.3925 36.2331 66.1108C20.1712 65.8341 7.15475 52.7851 7.05566 36.8517H7.07131Z" fill="white"/>
<path d="M36.9529 40.689C34.8356 40.7454 33.0782 39.1674 32.9791 37.1232C32.88 35.1047 34.5279 33.3423 36.6191 33.2398C38.8824 33.1271 40.6815 34.746 40.6972 36.9183C40.7128 39.0035 39.091 40.6327 36.9529 40.689Z" fill="white"/>
</g>
<defs>
<clipPath id="clip0_548_134">
<rect width="95" height="80" fill="white"/>
</clipPath>
</defs>
</svg>
