<svg width="91" height="77" viewBox="0 0 91 77" fill="none" xmlns="http://www.w3.org/2000/svg">
<path d="M0 0.79418C0.483902 0.157595 1.12988 -0.00684947 1.9121 0.000215725C4.81313 0.0330842 7.71416 0.0119399 10.6152 0.0142949C10.8783 0.0142949 11.1461 0.00725532 11.4045 0.0495185C12.0669 0.159925 12.4498 0.573367 12.485 1.24046C12.5226 1.94755 12.1749 2.45962 11.4726 2.56767C10.8125 2.66868 10.1313 2.64518 9.45713 2.64754C7.23261 2.65458 5.00575 2.64989 2.70841 2.64989C2.70841 5.87037 2.70841 9.04389 2.70841 12.2644C30.9154 12.2644 59.1176 12.2644 87.3434 12.2644C87.3434 9.05564 87.3434 5.90093 87.3434 2.64989C86.8994 2.64989 86.4977 2.64989 86.096 2.64989C63.2965 2.64989 40.4993 2.64989 17.6998 2.64754C17.2911 2.64754 16.8753 2.65458 16.4736 2.58646C15.7666 2.46666 15.4001 1.99685 15.4166 1.28982C15.433 0.582736 15.823 0.143491 16.5324 0.0424789C16.8213 0.00254519 17.1173 0.0142949 17.4085 0.0142949C40.941 0.0142949 64.471 0.0119399 88.0034 0.0142949C89.69 0.0142949 90.0236 0.343159 90.0236 1.99449C90.0236 22.6235 90.0236 43.2549 90.0236 63.884C90.0236 64.0883 90.0306 64.295 90.0212 64.4994C89.9743 65.3404 89.4857 65.8665 88.7387 65.883C87.9541 65.8994 87.4326 65.3591 87.3904 64.4782C87.3786 64.2152 87.388 63.9497 87.388 63.6866C87.388 47.8332 87.388 31.9797 87.388 16.1262C87.388 15.7785 87.388 15.4309 87.388 15.0245C84.6702 15.0245 82.0229 15.0245 79.2205 15.0245C79.2205 15.3933 79.2205 15.7574 79.2205 16.1238C79.2205 23.7135 79.2205 31.3031 79.2205 38.8928C79.2205 40.664 78.8987 40.9834 77.104 40.9834C68.9576 40.9834 60.8113 40.9834 52.6649 40.9834C50.8632 40.9834 50.5602 40.6828 50.5602 38.8905C50.5602 31.329 50.5602 23.7699 50.5602 16.2084C50.5602 15.8325 50.5602 15.4567 50.5602 15.0221C34.5657 15.0221 18.6653 15.0221 2.63795 15.0221C2.63795 16.495 2.65909 17.9795 2.6309 19.4618C2.60976 20.5423 1.66076 21.2118 0.786931 20.7584C0.472165 20.5963 0.260747 20.2322 0.00236146 19.9598C0 13.5705 0 7.18114 0 0.79418ZM53.2521 15.0151C53.2521 20.796 53.2521 26.5205 53.2521 32.2944C61.0321 32.2944 68.7697 32.2944 76.5191 32.2944C76.5191 26.4994 76.5191 20.7749 76.5191 15.0151C68.7392 15.0151 61.0227 15.0151 53.2521 15.0151ZM76.5215 35.085C68.7251 35.085 60.9874 35.085 53.2756 35.085C53.2756 36.2032 53.2756 37.2368 53.2756 38.2774C61.0696 38.2774 68.7838 38.2774 76.5215 38.2774C76.5215 37.1733 76.5215 36.1351 76.5215 35.085Z" fill="white"/>
<path d="M0 24.7072C0.45806 24.1458 0.937258 23.636 1.76646 23.9555C2.57922 24.2679 2.64264 24.9468 2.64264 25.6891C2.6356 41.3664 2.63794 57.0437 2.63794 72.721C2.63794 73.0663 2.63794 73.414 2.63794 73.8109C5.2477 73.8109 7.78463 73.8109 10.4625 73.8109C10.4625 73.3787 10.4625 72.9817 10.4625 72.5848C10.4625 57.9622 10.4625 43.3396 10.4625 28.717C10.4625 28.3951 10.4484 28.071 10.4743 27.7492C10.5424 26.8565 10.9722 26.4173 11.8743 26.3961C13.1639 26.3679 14.4535 26.3844 15.7431 26.3844C24.0656 26.3844 32.3882 26.3844 40.7084 26.3844C42.7896 26.3844 42.994 26.584 42.994 28.6324C42.994 43.3137 42.994 57.9951 42.994 72.6764C42.994 73.8579 42.994 73.8603 44.1802 73.8603C58.2156 73.8603 72.2533 73.8603 86.2887 73.8603C86.634 73.8603 86.9769 73.8603 87.3903 73.8603C87.3903 72.6458 87.3809 71.5371 87.3927 70.4284C87.4021 69.4747 87.9118 68.878 88.6917 68.8663C89.4763 68.8545 90.0142 69.4535 90.0236 70.3955C90.0377 71.92 90.04 73.4421 90.0236 74.9667C90.0142 75.9485 89.5608 76.4113 88.5907 76.4888C88.3863 76.5053 88.1796 76.4982 87.9752 76.4982C59.3455 76.4982 30.7157 76.4959 2.08829 76.5076C1.26378 76.5076 0.526191 76.409 0.00236146 75.6972C0 58.6997 0 41.7046 0 24.7072ZM13.1827 29.0834C13.1827 44.0231 13.1827 58.9064 13.1827 73.7874C22.2663 73.7874 31.2677 73.7874 40.2879 73.7874C40.2879 58.8477 40.2879 43.9832 40.2879 29.0834C31.2184 29.0834 22.2123 29.0834 13.1827 29.0834Z" fill="white"/>
<path d="M26.7715 16.7181C28.2349 16.7181 29.6983 16.7017 31.1618 16.7228C33.4849 16.7557 35.1715 18.353 35.2373 20.5564C35.3007 22.7434 33.6916 24.5239 31.3755 24.5897C28.2748 24.6766 25.1694 24.6766 22.0711 24.5897C19.7596 24.5239 18.1459 22.7386 18.214 20.5517C18.2821 18.353 19.9734 16.7557 22.2942 16.7228C23.7858 16.7017 25.2798 16.7181 26.7715 16.7181ZM26.748 19.3561C25.2869 19.3561 23.8258 19.3443 22.3647 19.3608C21.4251 19.3725 20.8942 19.8282 20.8613 20.5964C20.8237 21.4021 21.3664 21.9682 22.3201 21.9776C25.2422 22.0034 28.1644 22.0034 31.0866 21.9823C32.0638 21.9752 32.604 21.4467 32.5923 20.6433C32.5805 19.8423 32.0356 19.3725 31.0443 19.3608C29.6114 19.3443 28.1809 19.3561 26.748 19.3561Z" fill="white"/>
<path d="M65.2785 17.498C67.503 17.498 69.7252 17.4933 71.9497 17.5004C72.9716 17.5051 73.5658 18.003 73.5658 18.8205C73.5635 19.6427 72.9739 20.1313 71.9474 20.1336C67.4702 20.1383 62.9929 20.1383 58.5181 20.1336C57.4916 20.1336 56.9019 19.6403 56.9043 18.8182C56.9043 17.9984 57.4963 17.5051 58.5228 17.5004C60.7708 17.491 63.0258 17.498 65.2785 17.498Z" fill="white"/>
<path d="M65.2325 24.881C63.008 24.881 60.7858 24.8834 58.5613 24.8787C57.5042 24.8764 56.9311 24.4277 56.9053 23.6079C56.877 22.7505 57.476 22.2455 58.5613 22.2455C63.008 22.2408 67.457 22.2408 71.9037 22.2455C72.9889 22.2455 73.5879 22.7529 73.5597 23.6079C73.5339 24.4277 72.9584 24.8764 71.9013 24.8787C69.6815 24.8858 67.457 24.881 65.2325 24.881Z" fill="white"/>
<path d="M65.2369 29.6307C63.0124 29.6307 60.7902 29.6354 58.5657 29.6283C57.4734 29.626 56.8815 29.1327 56.905 28.273C56.9285 27.4555 57.5087 26.9951 58.5587 26.9951C63.0054 26.9904 67.4544 26.9904 71.9011 26.9951C72.9887 26.9951 73.5877 27.4978 73.5618 28.3552C73.5383 29.175 72.9605 29.626 71.9081 29.6284C69.6836 29.633 67.4591 29.6307 65.2369 29.6307Z" fill="white"/>
<path d="M28.0588 50.1398C28.0588 51.0324 28.0307 51.9251 28.0823 52.8153C28.0941 53.008 28.3666 53.2264 28.5686 53.358C29.1065 53.7103 29.6867 53.9969 30.2199 54.3563C30.8612 54.7862 31.0327 55.512 30.6921 56.118C30.3538 56.7194 29.527 57.0624 28.9515 56.6043C27.4364 55.3969 26.0598 55.3617 24.5353 56.5902C23.9481 57.0624 23.1424 56.7476 22.783 56.1509C22.4071 55.5214 22.6021 54.7885 23.2716 54.3234C23.3444 54.2741 23.4242 54.2365 23.4971 54.1895C25.6206 52.8905 25.7192 52.6744 25.2941 49.9871C24.5776 50.7012 23.9293 51.3472 23.281 51.9932C23.0531 52.221 22.8346 52.4606 22.5903 52.6674C21.9984 53.1654 21.2725 53.1559 20.7699 52.6603C20.2413 52.1435 20.2155 51.366 20.7887 50.7788C21.6249 49.9214 22.5081 49.1133 23.3726 48.2841C23.3467 48.2042 23.3185 48.1244 23.2927 48.0445C22.3554 48.0445 21.4182 48.021 20.4833 48.068C20.3236 48.075 20.1521 48.3616 20.0346 48.5495C19.7081 49.0687 19.4262 49.6183 19.0903 50.1304C18.644 50.8093 17.89 50.9949 17.2651 50.6261C16.6661 50.2713 16.349 49.4562 16.8235 48.876C18.0708 47.3515 18.0051 45.975 16.8094 44.4622C16.3514 43.882 16.6873 43.0622 17.2886 42.7216C17.8947 42.3787 18.6088 42.5619 19.0598 43.1797C19.1279 43.2736 19.1843 43.3793 19.2453 43.478C20.5467 45.6109 20.7464 45.7002 23.4336 45.2562C22.541 44.3613 21.7001 43.5344 20.8803 42.6864C20.2507 42.0357 20.2108 41.2911 20.7417 40.7391C21.2772 40.18 22.0571 40.1776 22.689 40.786C23.5417 41.6105 24.3615 42.4703 25.3998 43.229C25.3998 42.3387 25.4232 41.4461 25.381 40.5558C25.3716 40.3773 25.1508 40.1659 24.9746 40.0484C24.486 39.7266 23.9669 39.4565 23.4665 39.1511C22.6491 38.6531 22.386 37.932 22.7595 37.2531C23.1518 36.5414 23.9363 36.4028 24.8219 36.8961C25.2823 37.1521 25.7075 37.4927 26.1961 37.6689C26.5226 37.7887 26.9666 37.7863 27.2907 37.6619C27.8028 37.4669 28.2515 37.1122 28.7401 36.8444C29.527 36.4122 30.2763 36.5555 30.6686 37.1967C31.0797 37.8686 30.8401 38.6156 30.0532 39.1229C30.0297 39.1394 30.0015 39.1511 29.978 39.1676C27.8051 40.5206 27.777 40.5817 28.1505 43.3653C28.827 42.7005 29.4377 42.1015 30.0461 41.5025C30.3186 41.2347 30.5746 40.9528 30.8612 40.7038C31.4461 40.1988 32.1814 40.2011 32.6817 40.6874C33.2102 41.1995 33.2361 41.977 32.6817 42.5713C32.0028 43.2995 31.2817 43.9877 30.5817 44.6948C30.4196 44.8592 30.274 45.0354 29.9827 45.3619C31.0397 45.3619 31.9371 45.3901 32.8273 45.3408C33.0246 45.329 33.2549 45.073 33.3841 44.8757C33.7364 44.3378 34.0253 43.7575 34.3753 43.2196C34.8193 42.5384 35.5733 42.3552 36.2005 42.7334C36.7972 43.0928 37.1119 43.9055 36.6351 44.4857C35.376 46.0126 35.4747 47.3891 36.6562 48.9019C37.1119 49.4844 36.7713 50.3066 36.1676 50.6402C35.5616 50.9737 34.8475 50.7858 34.3988 50.168C34.3471 50.0975 34.2908 50.0247 34.2649 49.9425C33.6143 47.8213 32.0099 47.7603 30.0626 48.122C30.5488 48.6153 30.9787 49.0522 31.4132 49.4891C31.8267 49.9049 32.2565 50.3042 32.6512 50.7365C33.2173 51.3519 33.2337 52.0918 32.7216 52.6227C32.1861 53.1794 31.4038 53.1794 30.7743 52.5664C29.9357 51.7489 29.1347 50.8938 28.3172 50.0552C28.228 50.0881 28.1434 50.114 28.0588 50.1398Z" fill="white"/>
</svg>
