<svg width="121" height="77" viewBox="0 0 121 77" fill="none" xmlns="http://www.w3.org/2000/svg">
<path d="M0 7.44637C0.0788981 7.22308 0.179882 7.00307 0.236682 6.77324C1.21494 2.82646 4.3454 0.127393 8.2616 0.0518939C12.6291 -0.0335101 16.9997 0.00919194 21.3703 0.022331C22.6768 0.0256158 23.4152 0.741443 23.4026 1.87095C23.39 2.99063 22.639 3.69986 21.3293 3.70643C17.2364 3.72614 13.1403 3.70971 9.04737 3.71628C5.51931 3.72285 3.55331 5.76191 3.55016 9.4099C3.547 22.15 3.547 34.8867 3.55016 47.6268C3.55016 51.2419 5.56664 53.3269 9.05684 53.3466C10.2308 53.3532 11.4078 53.3466 12.7585 53.3466C12.7585 52.8279 12.7585 52.3944 12.7585 51.9643C12.7585 48.73 12.7585 45.4925 12.7585 42.2582C12.7585 39.9335 13.2318 39.4311 15.4345 39.4311C29.4868 39.4311 43.5422 39.4311 57.5945 39.4311C73.5371 39.4311 89.4797 39.4311 105.425 39.4311C107.732 39.4311 108.19 39.9072 108.19 42.2911C108.19 45.5253 108.19 48.7629 108.19 51.9971C108.19 52.3977 108.19 52.7983 108.19 53.4222C110.096 53.3302 111.913 53.4189 113.671 53.1135C115.953 52.7162 117.392 50.5163 117.395 47.8369C117.404 39.4409 117.398 31.0417 117.398 22.6458C117.398 18.2623 117.401 13.8788 117.398 9.49856C117.395 5.75534 115.454 3.71957 111.866 3.71957C84.5473 3.71628 57.2253 3.71628 29.9065 3.71628C29.4363 3.71628 28.9503 3.75239 28.4959 3.65718C27.5271 3.45032 26.9433 2.78376 27.0064 1.74946C27.0695 0.738133 27.6628 0.107685 28.6884 0.0387549C29.0418 0.0157615 29.3953 0.0157615 29.7519 0.0157615C57.0328 0.0157615 84.3138 0.0124767 111.595 0.0157615C116.171 0.0157615 119.415 2.25512 120.541 6.28399C120.831 7.32488 120.929 8.46096 120.932 9.5511C120.958 22.1664 120.951 34.7817 120.948 47.3969C120.948 53.3663 117.417 57.0472 111.671 57.0472C88.7191 57.0537 65.771 57.0505 42.8196 57.0505C40.1025 57.0505 37.3855 57.0701 34.6716 57.0341C34.1414 57.0275 33.4251 56.9782 33.1316 56.6368C32.7182 56.154 32.3585 55.3299 32.4626 54.7454C32.5541 54.2299 33.2484 53.7144 33.7912 53.432C34.2046 53.2153 34.7947 53.3499 35.3059 53.3499C57.8628 53.3466 80.4197 53.3466 102.977 53.3466C103.481 53.3466 103.986 53.3466 104.573 53.3466C104.573 52.2434 104.573 51.2419 104.573 50.073C103.885 50.073 103.188 50.073 102.491 50.073C99.7735 50.073 97.0565 50.0861 94.3426 50.0631C93.0298 50.0533 92.2409 49.367 92.1999 48.2933C92.1588 47.1835 92.992 46.379 94.3331 46.3692C97.716 46.3429 101.099 46.3593 104.57 46.3593C104.57 45.2889 104.57 44.2874 104.57 43.1973C75.2001 43.1973 45.8207 43.1973 16.378 43.1973C16.378 44.2349 16.378 45.2331 16.378 46.356C16.9808 46.356 17.5204 46.356 18.0632 46.356C40.579 46.356 63.0981 46.356 85.6139 46.3593C86.163 46.3593 86.7247 46.3527 87.2549 46.4677C88.1922 46.6746 88.656 47.3477 88.6055 48.3393C88.5582 49.2751 88.0438 49.8596 87.1539 50.0007C86.6521 50.0795 86.1346 50.0664 85.6234 50.0664C63.0665 50.0697 40.5096 50.0697 17.9527 50.0697C17.4478 50.0697 16.9461 50.0697 16.3749 50.0697C16.3749 51.196 16.3749 52.1941 16.3749 53.3434C18.1358 53.3434 19.8588 53.3434 21.5786 53.3434C23.3111 53.3434 25.0436 53.327 26.776 53.3532C27.9815 53.3729 28.7484 54.092 28.7673 55.1427C28.7831 56.177 28.0068 57.0242 26.836 57.0275C20.5783 57.0472 14.3142 57.1457 8.05964 56.9651C4.14658 56.8502 1.28121 54.1708 0.255611 50.27C0.186184 50.0008 0.0915136 49.7381 0.00947069 49.4754C0 35.4646 0 21.4538 0 7.44637Z" fill="white"/>
<path d="M76.3297 11.3472C81.7985 11.3472 87.2705 11.3407 92.7393 11.3505C94.0616 11.3538 94.8126 12.0204 94.8063 13.1532C94.8 14.1547 94.2667 14.7555 93.3578 14.9723C92.9823 15.0609 92.5752 15.0313 92.1839 15.0313C81.5587 15.0346 70.9335 15.0346 60.3083 15.0346C60.0716 15.0346 59.8349 15.0445 59.6014 15.0281C58.4433 14.9493 57.6606 14.1678 57.6859 13.1269C57.7111 12.0762 58.4874 11.3538 59.6866 11.3538C65.2311 11.3407 70.7789 11.3472 76.3297 11.3472Z" fill="white"/>
<path d="M35.162 64.3202C34.6823 69.0354 32.6185 72.969 28.8253 75.8782C27.9386 76.5579 26.9098 76.4298 26.2976 75.6352C25.6633 74.8176 25.7895 73.6816 26.7142 72.946C28.9453 71.1762 30.5199 68.95 31.23 66.1098C31.4067 65.4005 31.5266 64.6716 31.6181 63.9459C31.7822 62.6161 32.4828 61.897 33.5652 62.002C34.5876 62.0973 35.2093 62.9444 35.162 64.3202Z" fill="white"/>
<path d="M85.7693 64.2711C85.7535 62.8756 86.4226 62.0449 87.4544 61.9957C88.4643 61.9464 89.1932 62.6261 89.2974 63.7884C89.6319 67.5415 91.216 70.5623 94.1161 72.828C94.9366 73.4683 95.3721 74.3647 94.8009 75.261C94.4632 75.7864 93.627 75.9998 92.9801 76.2592C92.7939 76.3348 92.4499 76.1312 92.2353 75.9703C88.3443 73.0348 86.2332 69.0454 85.7693 64.2711Z" fill="white"/>
<path d="M76.5904 69.1534C76.5904 70.828 76.6061 72.5059 76.5841 74.1805C76.5651 75.5694 75.9371 76.3049 74.8295 76.3017C73.7439 76.2983 73.0592 75.53 73.0497 74.1739C73.0244 70.8214 73.0244 67.4723 73.0497 64.1198C73.0592 62.7703 73.7566 61.9921 74.8358 61.9954C75.9245 61.9954 76.5683 62.7572 76.5872 64.1297C76.603 65.801 76.5904 67.4756 76.5904 69.1534Z" fill="white"/>
<path d="M44.3558 69.1437C44.3558 67.4691 44.34 65.7912 44.3621 64.1166C44.3779 62.7441 45.0248 61.9889 46.1167 61.9922C47.1959 61.9955 47.887 62.7704 47.8965 64.1265C47.9217 67.479 47.9217 70.8282 47.8965 74.1806C47.887 75.5367 47.1991 76.3018 46.1104 76.3018C45.0059 76.3018 44.3811 75.563 44.3621 74.1741C44.34 72.4962 44.3558 70.8216 44.3558 69.1437Z" fill="white"/>
<path d="M62.7624 69.2092C62.7624 70.8444 62.7845 72.4796 62.7561 74.1115C62.7309 75.553 62.0493 76.3312 60.9132 76.2983C59.8245 76.2655 59.2249 75.5333 59.2154 74.1148C59.1997 70.805 59.1997 67.4952 59.2154 64.1854C59.2217 62.7801 59.8308 62.0282 60.9132 61.9953C62.0429 61.9592 62.7309 62.744 62.7561 64.1854C62.7845 65.86 62.7624 67.5346 62.7624 69.2092Z" fill="white"/>
<path d="M103.845 11.3537C104.71 11.3537 105.574 11.3209 106.436 11.3636C107.461 11.4128 108.187 12.1582 108.171 13.1367C108.156 14.1841 107.591 14.9196 106.622 14.9722C104.741 15.0772 102.851 15.0674 100.97 14.982C99.9666 14.936 99.3323 14.0298 99.4301 13.0283C99.5311 11.9809 100.128 11.4063 101.134 11.3636C102.037 11.3242 102.942 11.3537 103.845 11.3537Z" fill="white"/>
</svg>
