<svg width="411" height="334" viewBox="0 0 411 334" fill="none" xmlns="http://www.w3.org/2000/svg">
<path d="M159.573 139.649C156.265 141.048 158.923 145.711 158.923 146.177C156.211 147.524 155.126 151.825 151.764 151.514C152.361 152.447 153.337 153.12 154.313 153.638C149.432 155.918 147.968 161.307 142.491 163.016C139.128 165.711 133.271 164.208 130.506 161.358C126.709 158.975 124.161 166.747 120.527 162.706C117.436 161.514 118.141 164.26 117.599 165.244C112.447 166.281 109.193 170.529 105.288 173.535C104.963 170.788 106.21 167.68 105.505 165.193C99.7025 166.281 104.095 157.939 98.4551 158.25C94.1167 158.198 94.9301 154.623 94.7674 152.032C92.8151 153.431 89.7782 151.825 89.019 153.379C86.5243 154.105 83.4874 154.83 80.7759 154.934C77.9558 151.307 73.4547 149.752 68.7908 150.011C67.1097 146.799 63.2593 143.379 61.8493 149.027C60.4935 154.156 56.9685 149.908 57.782 146.695C60.1682 143.638 57.4566 141.669 54.6366 140.27C51.1116 136.177 49.9185 144.26 46.7189 142.757C43.7904 140.737 43.8989 144.934 42.272 144.674C37.4454 146.332 35.9269 141.98 33.8662 139.079C30.775 135.711 26.545 140.633 23.8877 138.509C26.545 136.903 25.135 132.861 28.172 131.099C30.9377 128.353 30.5039 124.571 32.1308 121.255C33.2154 117.473 32.185 112.395 35.7643 109.701C36.4693 109.182 37.4454 108.664 37.6081 107.732C39.9943 105.452 44.2785 110.737 40.5366 112.343C36.8489 114.726 43.2481 115.245 42.9228 118.094C44.4955 120.944 46.6105 116.385 49.1051 117.939C50.8947 117.68 53.3351 119.079 55.2875 119.908C55.7213 123.379 60.9275 117.213 61.6325 121.151C64.8863 122.757 68.1402 119.131 71.6652 120.322C73.5633 119.649 74.5394 117.058 76.7629 119.338C79.4744 119.908 81.3183 116.333 84.1926 115.97C86.2533 114.986 90.8087 111.048 90.7544 115.555C92.4356 118.923 99.7568 116.074 100.299 119.908C98.7806 121.929 103.661 122.239 102.631 119.96C105.071 121.566 111.091 117.265 109.627 122.291C106.373 126.022 112.718 124.882 114.562 123.846C119.172 124.882 117.49 117.162 121.937 118.302C124.866 119.804 124.812 124.156 127.794 125.296C129.855 122.239 133.38 126.488 136.58 125.245C139.671 125.245 137.393 129.752 140.213 127.783C142.816 127.991 144.768 129.856 146.667 131.151C145.094 134.364 148.185 135.4 151.005 135.089C151.547 133.535 151.981 129.182 154.53 132.602C155.018 135.607 157.458 137.835 159.573 139.649Z" fill="#194099"/>
<path d="M156.483 217.524C153.066 219.234 151.765 215.451 149.433 213.586C150.192 207.317 142.491 209.13 139.725 212.135C138.153 211.462 135.712 211.255 133.163 211.255C129.476 213.224 127.523 209.7 128.5 206.488C126.656 209.13 123.836 206.332 121.666 205.866C120.311 205.659 120.094 204.26 120.69 203.275C124.053 199.752 119.823 195.503 123.402 192.239C128.391 194.053 132.079 187.783 136.743 191.203C140.593 194.882 145.203 187.783 139.888 186.747C137.882 185.918 133.923 190.478 135.116 185.814L135.658 185.763C139.78 185.918 144.064 181.514 147.86 184.934C152.849 186.902 155.127 191.928 159.411 194.364C161.255 197.524 156.7 200.944 161.472 201.876C162.231 204.571 158.001 206.177 159.14 209.493C157.893 212.032 154.964 213.69 156.754 216.85L156.483 217.524Z" fill="#194099"/>
<path d="M156.483 217.524C153.066 219.234 151.765 215.451 149.433 213.586C150.192 207.317 142.491 209.13 139.725 212.135C138.153 211.462 135.712 211.255 133.163 211.255C129.476 213.224 127.523 209.7 128.5 206.488C126.656 209.13 123.836 206.332 121.666 205.866C120.311 205.659 120.094 204.26 120.69 203.275C124.053 199.752 119.823 195.503 123.402 192.239C128.391 194.053 132.079 187.783 136.743 191.203C140.593 194.882 145.203 187.783 139.888 186.747C137.882 185.918 133.923 190.478 135.116 185.814L135.658 185.763C139.78 185.918 144.064 181.514 147.86 184.934C152.849 186.902 155.127 191.928 159.411 194.364C161.255 197.524 156.7 200.944 161.472 201.876C162.231 204.571 158.001 206.177 159.14 209.493C157.893 212.032 154.964 213.69 156.754 216.85L156.483 217.524ZM156.483 217.524V217.524Z" stroke="white" stroke-width="2.1712"/>
<path d="M159.52 194.363C155.236 191.928 152.958 186.902 147.969 184.933C144.118 181.514 139.888 185.918 135.767 185.762L135.225 185.814C134.845 183.224 135.279 180.374 133.164 178.353C131.862 173.431 125.788 175.762 121.938 175.4C120.745 171.876 127.795 165.97 119.66 165.659L118.63 165.503L117.762 165.348C118.25 164.363 117.599 161.566 120.691 162.809C124.324 166.799 126.873 159.027 130.669 161.462C133.435 164.312 139.292 165.814 142.654 163.12C148.132 161.41 149.596 156.073 154.477 153.742C158.815 153.12 158.056 159.182 156.808 161.307C159.574 164.83 162.286 169.027 159.574 173.224C159.574 177.11 153.229 178.509 157.08 182.654C160.93 182.291 155.832 186.125 158.381 188.405C158.652 190.426 160.984 192.084 159.52 194.363Z" fill="#194099"/>
<path d="M159.52 194.363C155.236 191.928 152.958 186.902 147.969 184.933C144.118 181.514 139.888 185.918 135.767 185.762L135.225 185.814C134.845 183.224 135.279 180.374 133.164 178.353C131.862 173.431 125.788 175.762 121.938 175.4C120.745 171.876 127.795 165.97 119.66 165.659L118.63 165.503L117.762 165.348C118.25 164.363 117.599 161.566 120.691 162.809C124.324 166.799 126.873 159.027 130.669 161.462C133.435 164.312 139.292 165.814 142.654 163.12C148.132 161.41 149.596 156.073 154.477 153.742C158.815 153.12 158.056 159.182 156.808 161.307C159.574 164.83 162.286 169.027 159.574 173.224C159.574 177.11 153.229 178.509 157.08 182.654C160.93 182.291 155.832 186.125 158.381 188.405C158.652 190.426 160.984 192.084 159.52 194.363ZM159.52 194.363V194.363Z" stroke="white" stroke-width="2.1712"/>
<path d="M121.831 175.348C120.638 171.825 127.688 165.918 119.553 165.607L118.523 165.452L117.655 165.296C112.503 166.333 109.249 170.581 105.345 173.586C101.548 174.882 98.5115 178.509 98.5115 182.291C100.193 185.296 94.9322 191.151 100.084 192.084C102.633 193.172 102.904 196.488 106.104 196.799C107.351 197.835 108.219 199.13 108.978 200.478C109.575 204.571 117.763 202.136 115.92 207.731C116.841 209.752 119.499 206.436 119.445 209.545C121.072 209.597 121.722 207.058 121.614 205.814C120.258 205.607 120.041 204.208 120.638 203.224C124 199.7 119.77 195.452 123.349 192.187C120.746 190.84 117.926 189.959 114.998 189.493C113.316 186.954 105.941 185.037 110.117 181.307C114.347 179.752 118.251 178.146 121.831 175.348Z" fill="#194099" stroke="white" stroke-width="2.1712"/>
<path d="M121.668 205.814C121.776 207.058 121.125 209.596 119.498 209.545C119.553 206.488 116.895 209.752 115.973 207.731C117.817 202.135 109.628 204.622 109.032 200.477C108.435 202.705 104.856 199.337 103.717 201.203C104.748 205.296 100.951 203.897 98.1856 204.933C96.7213 207.524 94.4437 207.731 91.5694 207.783C93.3591 211.825 91.3525 216.799 86.8513 218.094C82.2417 216.384 82.1333 222.291 79.4217 223.69C77.7947 226.384 84.6279 229.597 84.6821 233.12C81.1571 233.897 81.5367 237.317 80.4521 240.011C79.6929 245.555 73.3478 243.949 69.1721 242.861C64.5082 244.83 71.2871 247.887 73.2936 248.975C71.2871 250.218 68.6298 251.41 68.2502 254.363C68.5213 257.783 63.1524 260.425 65.5929 263.586C69.3347 266.28 67.5993 270.425 66.4062 273.69C68.0332 275.037 75.0832 273.171 72.2632 277.213C71.7752 280.011 76.0593 282.342 72.5344 284.933C71.2871 287.679 75.4628 291.98 70.799 293.482C70.2025 295.399 73.0767 298.249 75.246 298.042C77.9033 297.886 81.9163 298.819 83.489 296.643C85.9836 296.228 88.9663 297.316 90.3221 294.467C92.2202 293.949 92.1117 297.057 94.281 295.814C95.9078 296.021 100.246 296.436 97.6432 293.897C97.6975 291.358 102.578 294.519 101.928 291.099C103.066 288.819 105.181 285.658 106.917 288.871C109.357 289.285 111.038 290.166 110.225 292.757C110.713 295.244 110.984 296.746 112.882 294.052C114.617 291.099 118.685 296.125 119.064 291.772C120.149 287.265 123.999 290.943 125.138 293.379C127.47 294.778 131.049 293.949 132.622 291.772C127.687 286.021 138.316 291.306 137.015 286.747C136.201 282.55 139.998 280.684 143.902 279.441C140.919 276.332 146.776 277.213 148.349 276.125C155.833 275.917 148.837 271.513 147.156 268.508C146.722 264.156 146.559 259.648 148.512 255.607C146.18 252.291 146.993 248.612 147.807 244.985C150.789 243.431 149.271 240.166 150.464 238.405C155.67 235.71 149.054 232.705 149.596 229.907C155.67 229.13 150.139 223.793 153.393 221.513C156.05 222.446 160.822 219.026 156.701 217.317C153.284 219.026 151.983 215.244 149.651 213.379C150.41 207.109 142.709 208.923 139.943 211.928C138.371 211.255 135.93 211.047 133.381 211.047C129.694 213.016 127.741 209.493 128.718 206.28C126.657 209.13 123.837 206.332 121.668 205.814Z" fill="#194099" stroke="white" stroke-width="2.1712"/>
<path d="M105.344 173.586C101.548 174.882 98.5107 178.509 98.5107 182.291C100.192 185.296 94.9316 191.151 100.084 192.084C102.632 193.172 102.903 196.488 106.103 196.799C107.35 197.835 108.218 199.13 108.977 200.477C108.381 202.705 104.802 199.337 103.663 201.203C104.693 205.296 100.897 203.897 98.1311 204.933C96.6669 207.524 94.3892 207.731 91.515 207.783C93.3046 211.825 91.2981 216.799 86.7969 218.094C82.1873 216.384 82.0788 222.291 79.3673 223.69C77.7403 226.384 84.5734 229.597 84.6276 233.12C81.1027 233.897 81.4823 237.317 80.3976 240.011C79.6384 245.555 73.2934 243.949 69.1176 242.861C64.4538 244.83 71.2327 247.887 73.2392 248.975C71.2326 250.218 68.5754 251.41 68.1957 254.363C68.4668 257.783 63.098 260.425 65.5384 263.586C65.5384 265.348 63.8572 266.591 62.1761 267.006C58.5426 267.368 53.9872 265.866 53.4991 262.032C50.7333 261.721 47.7507 261.565 47.6422 258.094C45.8526 253.949 44.3883 249.441 46.666 245.089C45.2561 244.001 43.5749 239.545 40.7549 239.804C37.4468 241.047 33.6506 237.679 36.6875 234.83C39.5076 230.995 33.3253 232.964 32.5118 230.685C30.2341 233.12 28.8783 229.286 28.1191 227.628C28.6072 222.861 21.6113 225.089 21.6113 220.529C23.5636 217.99 22.2079 215.4 18.954 215.037C19.9302 211.203 23.1299 208.509 25.0279 205.296C25.0279 201.566 18.0321 202.861 19.4422 198.56C17.0017 195.244 20.5268 192.291 20.0387 188.871C21.6656 186.902 20.6894 185.711 18.8999 184.363C19.9302 182.757 19.4422 181.151 17.056 181.047C12.2294 180.529 17.7609 177.835 16.5679 175.503C13.3682 174.415 15.2121 170.84 13.0971 169.389C10.0601 170.374 10.2229 167.317 8.81289 165.659C11.8497 163.638 5.45054 160.84 9.73481 159.649C12.7717 155.452 5.66742 159.286 4.09474 157.835C2.08818 155.4 7.51127 154.726 5.77587 151.617C4.04047 148.82 -0.0809946 144.467 3.28126 141.462C5.17938 142.291 7.8367 144.467 9.5721 141.566C10.3855 140.27 10.9278 135.4 11.7955 139.338C13.9105 139.96 18.6829 139.856 21.1232 137.732C22.1537 137.265 23.7263 137.162 24.1601 138.457C26.7632 140.581 30.9932 135.607 34.1386 139.027C36.1994 141.928 37.7179 146.281 42.5444 144.623C44.1713 144.882 44.0086 140.633 46.9914 142.706C50.2452 144.208 51.4383 136.125 54.9091 140.219C57.7291 141.618 60.4406 143.638 58.0544 146.643C57.1868 149.856 60.7118 154.105 62.1217 148.975C63.5317 143.327 67.3821 146.695 69.0633 149.959C73.7271 149.7 78.1741 151.255 81.0483 154.882C83.8141 154.778 86.7967 154.053 89.2914 153.327C90.0506 151.773 93.1417 153.379 95.0398 151.98C95.2026 154.571 94.4434 158.146 98.7275 158.198C104.368 157.887 99.9749 166.229 105.778 165.141C106.266 167.731 105.018 170.84 105.344 173.586Z" fill="#194099"/>
<path d="M105.344 173.586C101.548 174.882 98.5107 178.509 98.5107 182.291C100.192 185.296 94.9316 191.151 100.084 192.084C102.632 193.172 102.903 196.488 106.103 196.799C107.35 197.835 108.218 199.13 108.977 200.477C108.381 202.705 104.802 199.337 103.663 201.203C104.693 205.296 100.897 203.897 98.1311 204.933C96.6669 207.524 94.3892 207.731 91.515 207.783C93.3045 211.825 91.2981 216.799 86.7969 218.094C82.1873 216.384 82.0788 222.291 79.3673 223.69C77.7403 226.384 84.5734 229.597 84.6276 233.12C81.1027 233.897 81.4823 237.317 80.3976 240.011C79.6384 245.555 73.2934 243.949 69.1176 242.861C64.4538 244.83 71.2327 247.887 73.2392 248.975C71.2326 250.218 68.5754 251.41 68.1957 254.363C68.4668 257.783 63.098 260.425 65.5384 263.586C65.5384 265.348 63.8572 266.591 62.1761 267.006C58.5426 267.368 53.9872 265.866 53.4991 262.032C50.7333 261.721 47.7507 261.565 47.6422 258.094C45.8526 253.949 44.3883 249.441 46.666 245.089C45.2561 244.001 43.5749 239.545 40.7549 239.804C37.4468 241.047 33.6506 237.679 36.6875 234.83C39.5076 230.995 33.3253 232.964 32.5118 230.685C30.2341 233.12 28.8783 229.286 28.1191 227.628C28.6072 222.861 21.6113 225.089 21.6113 220.529C23.5636 217.99 22.2079 215.4 18.954 215.037C19.9302 211.203 23.1299 208.509 25.0279 205.296C25.0279 201.566 18.0321 202.861 19.4422 198.56C17.0017 195.244 20.5268 192.291 20.0387 188.871C21.6656 186.902 20.6894 185.711 18.8999 184.363C19.9302 182.757 19.4422 181.151 17.056 181.047C12.2294 180.529 17.7609 177.835 16.5679 175.503C13.3682 174.415 15.2121 170.84 13.0971 169.389C10.0601 170.374 10.2229 167.317 8.81289 165.659C11.8497 163.638 5.45054 160.84 9.73481 159.649C12.7717 155.452 5.66742 159.286 4.09474 157.835C2.08818 155.4 7.51127 154.726 5.77587 151.617C4.04047 148.82 -0.0809946 144.467 3.28126 141.462C5.17938 142.291 7.8367 144.467 9.5721 141.566C10.3855 140.27 10.9278 135.4 11.7955 139.338C13.9105 139.96 18.6829 139.856 21.1232 137.732C22.1537 137.265 23.7263 137.162 24.1601 138.457C26.7632 140.581 30.9932 135.607 34.1387 139.027C36.1994 141.928 37.7179 146.281 42.5444 144.623C44.1713 144.882 44.0086 140.633 46.9914 142.706C50.2452 144.208 51.4383 136.125 54.9091 140.219C57.7291 141.618 60.4406 143.638 58.0544 146.643C57.1868 149.856 60.7118 154.105 62.1217 148.975C63.5317 143.327 67.3821 146.695 69.0633 149.959C73.7271 149.7 78.1741 151.255 81.0483 154.882C83.8141 154.778 86.7967 154.053 89.2914 153.327C90.0506 151.773 93.1417 153.379 95.0398 151.98C95.2026 154.571 94.4434 158.146 98.7275 158.198C104.368 157.887 99.9749 166.229 105.778 165.141C106.266 167.731 105.018 170.84 105.344 173.586ZM105.344 173.586V173.586Z" stroke="white" stroke-width="2.1712"/>
<path d="M283.383 185.348C280.346 184.26 280.672 190.27 278.177 186.54C279.424 183.638 276.387 183.586 273.947 182.498C271.29 183.949 272.645 179.545 269.825 181.151C269.392 180.633 268.795 177.731 267.602 176.436C268.09 175.141 268.198 168.871 265.921 171.566C263.968 175.503 258.057 173.12 259.305 168.975C259.305 164.363 255.834 168.457 253.339 168.146C250.79 166.592 252.743 160.996 248.838 160.529C246.994 157.939 244.988 155.866 242.059 154.001C237.287 153.535 239.402 150.218 240.92 147.731C244.174 144.623 238.48 141.307 238.209 138.094C239.727 135.763 237.07 135.504 235.226 134.778C232.298 133.483 228.556 134.726 226.007 132.239C224.76 134.208 222.59 135.97 225.031 138.094C223.241 138.82 220.15 138.094 217.926 137.783C214.618 136.54 214.618 143.638 212.72 140.322C212.558 135.814 208.545 139.079 206.484 140.011C202.742 137.369 199.868 142.291 196.234 141.358C195.095 139.234 193.414 139.079 191.353 137.887C188.805 134.726 187.286 138.82 185.063 139.182C187.557 140.581 181.212 146.281 178.772 142.291C178.446 137.68 176.386 143.016 174.108 142.809C173.295 140.478 171.668 137.213 168.468 136.333C165.268 132.498 162.286 137.783 159.574 139.752C156.266 141.151 158.923 145.814 158.923 146.281C156.212 147.628 155.127 151.928 151.765 151.617C152.361 152.55 153.338 153.224 154.314 153.742C158.652 153.12 157.893 159.182 156.646 161.306C159.411 164.83 162.123 169.027 159.411 173.224C159.411 177.11 153.066 178.508 156.917 182.654C160.767 182.291 155.669 186.125 158.218 188.405C158.598 190.477 160.93 192.135 159.466 194.363C161.31 197.524 156.754 200.944 161.527 201.876C162.286 204.571 158.056 206.177 159.195 209.493C157.947 212.032 155.019 213.69 156.808 216.85L156.483 217.524C160.605 219.234 155.832 222.653 153.175 221.721C149.921 224.001 155.453 229.337 149.379 230.115C148.837 232.861 155.398 235.918 150.246 238.612C149.053 240.425 150.572 243.638 147.589 245.192C146.721 248.819 145.962 252.498 148.294 255.814C146.342 259.855 146.505 264.363 146.938 268.715C148.62 271.772 155.615 276.125 148.131 276.332C146.613 277.368 140.702 276.539 143.685 279.648C139.78 280.892 135.984 282.757 136.797 286.954C138.099 291.513 127.47 286.228 132.405 291.98C134.248 294.622 135.658 297.731 134.628 300.943C134.248 305.348 139.021 306.28 142.329 305.866C141.786 309.441 147.698 307.316 146.938 310.529C149.542 313.534 148.511 317.627 147.101 320.84C149.433 324 146.125 325.503 143.305 323.793C142.112 326.591 139.834 328.819 137.99 330.736C140.648 332.29 143.901 329.441 146.993 331.099C149.65 330.891 151.873 326.384 155.236 328.508C157.513 331.047 161.093 329.959 163.75 328.819C167.329 328.715 168.576 333.741 172.535 331.358C175.843 332.083 177.091 327.783 180.616 327.627C184.249 327.213 176.548 322.083 180.995 324C183.165 324.208 190.811 320.943 188.533 325.347C185.496 328.301 189.672 332.498 192.926 329.389C195.638 327.524 197.536 324.208 201.44 324.674C203.284 324.415 205.182 324.104 207.026 323.793C205.182 319.7 210.334 318.353 212.178 316.384C213.751 313.949 218.198 315.658 218.035 311.358C218.089 307.835 223.024 307.161 222.536 303.845C222.482 301.565 218.143 301.41 219.879 298.871C217.276 295.399 220.042 292.705 221.506 289.648C219.987 285.607 224.543 283.586 227.905 284.363C229.912 286.539 231.267 286.021 232.189 283.482C234.359 280.84 237.016 283.949 239.402 281.358C241.68 281.203 243.035 284.415 246.018 282.912C248.404 281.669 252.417 284.415 253.719 280.684C257.298 280.166 262.721 282.861 265.487 280.943C267.494 282.135 266.734 274.415 270.259 276.902C271.344 277.835 272.537 278.146 273.893 278.146C274.056 275.918 276.279 273.12 272.537 272.861C273.784 271.306 271.886 272.187 271.127 270.995C272.212 268.301 273.025 265.399 271.127 262.705C268.47 260.581 270.802 259.493 273.242 258.612C278.069 258.975 275.899 254.571 273.947 252.187C270.639 250.011 274.923 248.819 276.984 250.166C279.587 250.633 285.444 247.109 281.973 244.467C279.207 240.84 285.064 239.182 287.071 237.161C285.281 232.913 291.897 234.726 293.253 231.824C291.952 229.13 287.342 230.581 289.349 227.058C287.071 226.902 284.143 226.073 282.299 228.146C277.581 231.306 280.509 225.296 278.286 223.69C275.357 220.633 281.648 219.389 281.919 216.902C279.153 214.467 282.624 209.597 279.37 208.094C275.737 210.167 277.364 202.964 274.001 205.192C270.151 206.488 271.886 200.477 273.296 199.338C276.171 200.685 279.207 197.472 276.387 195.607C273.676 196.488 270.802 192.55 274.76 192.861C277.852 195.607 279.912 190.011 282.624 193.068C283.98 191.255 284.522 187.576 283.383 185.348Z" fill="#194099" stroke="white" stroke-width="2.1712"/>
<path d="M135.116 185.814C133.922 190.477 137.881 185.918 139.888 186.747C145.203 187.731 140.593 194.83 136.742 191.203C132.024 187.783 128.391 194.053 123.402 192.239C120.799 190.892 117.979 190.011 115.05 189.545C113.369 187.006 105.994 185.089 110.169 181.358C114.345 179.804 118.25 178.198 121.883 175.4C125.734 175.762 131.862 173.431 133.109 178.353C135.17 180.374 134.79 183.172 135.116 185.814Z" fill="#194099"/>
<path d="M135.116 185.814C133.922 190.477 137.881 185.918 139.888 186.747C145.203 187.731 140.593 194.83 136.742 191.203C132.024 187.783 128.391 194.053 123.402 192.239C120.799 190.892 117.979 190.011 115.05 189.545C113.369 187.006 105.994 185.089 110.169 181.358C114.345 179.804 118.25 178.198 121.883 175.4C125.734 175.762 131.862 173.431 133.109 178.353C135.17 180.374 134.79 183.172 135.116 185.814ZM135.116 185.814V185.814Z" stroke="white" stroke-width="2.1712"/>
<path d="M39.6159 72.2395C40.1582 71.3069 40.5921 70.2706 40.8632 69.2343C41.514 65.2447 44.9305 62.4468 47.9133 59.8043C48.0217 57.11 52.4686 53.9494 48.4013 51.9287C44.6594 50.6333 45.256 58.0944 42.4359 54.1566C37.5552 52.3432 45.744 49.9598 44.1713 46.5401C41.2971 46.1256 42.3275 43.1722 41.8394 40.996C42.0021 38.1981 38.0432 39.8561 37.7721 38.1463C38.5314 37.7836 42.9783 36.9546 39.7244 35.6593C34.5182 33.3277 44.9305 29.908 40.104 26.6956C37.1213 24.9339 40.0498 24.1567 41.1887 22.136C40.6464 18.5091 46.1779 18.82 45.744 15.6075C44.1713 10.8925 41.514 17.8355 39.1278 16.9547C34.681 14.364 41.2429 12.9133 40.8632 10.1671C39.0194 5.97026 45.1475 8.25005 44.8221 4.36406C43.4663 0.529864 48.3472 2.60241 50.4622 2.23971C52.8483 3.0169 54.8548 5.14125 56.2106 5.97026C60.3864 5.86663 52.8482 10.2708 57.2952 11.3588C59.8983 15.193 65.7552 15.193 68.4667 11.307C71.124 8.76817 73.5102 17.0583 74.9203 11.0998C79.4214 12.8614 85.8206 10.8925 87.7187 16.4366C85.7122 18.5609 92.9248 15.6075 94.0637 15.8148C98.8361 18.7681 102.198 11.0479 107.35 14.7785C112.936 11.9288 117.058 18.5091 121.993 17.7837C124.921 15.4521 125.301 23.3795 129.476 22.4987C133.164 24.9857 138.913 20.478 141.353 26.1256C141.841 27.6282 144.282 27.3691 144.01 29.8562C145.908 30.4779 149.271 25.2448 151.386 29.8044C152.958 31.8769 157.948 30.3225 156.429 34.0531C158.598 37.6282 163.805 29.0272 165.811 34.8303C162.829 39.079 170.746 43.3795 171.234 37.2137C171.56 34.2085 173.62 27.68 177.959 30.8406C181.43 28.25 189.239 36.6956 188.154 28.5091C185.877 23.7422 191.191 21.877 194.987 23.0687C195.313 20.6852 197.428 15.6594 199.977 19.7008C203.176 21.6179 198.567 15.3485 198.621 14.0013C199.814 11.4107 202.742 16.5402 204.857 14.2604C205.183 16.3847 208.925 22.3951 209.847 20.3225C207.352 16.5402 213.751 13.0687 216.463 14.6749C216.734 17.3174 221.615 20.7889 221.723 16.1775C225.682 17.4728 221.94 9.70082 227.038 12.706C228.285 13.7941 226.279 18.6127 228.827 15.193C228.99 13.3796 231.105 13.8977 232.407 13.9495C233.762 16.3847 232.027 20.0117 233.057 22.0324C230.183 22.4469 228.665 24.9858 231.431 26.5919C232.244 29.5453 227.309 31.2552 231.431 33.2759C234.142 36.0738 235.606 39.3898 233.654 42.7059C234.63 45.8665 234.305 51.3587 229.858 51.7732C229.695 55.5556 236.203 57.8872 230.942 61.4623C232.732 63.1721 241.951 64.882 237.287 67.7835C234.359 70.6333 228.719 65.1411 229.153 70.6333C230.292 75.711 227.96 80.6332 226.387 85.1928C223.513 87.4726 221.398 92.1876 217.819 87.9389C212.667 87.369 210.118 93.8974 214.294 96.6954C216.68 97.5762 217.493 97.9389 219.12 98.8715C222.753 97.9907 218.469 102.55 220.259 104.519C221.018 106.903 222.645 113.017 217.71 110.996C217.168 106.229 207.243 109.286 211.907 113.638C211.474 116.125 212.341 120.426 215.215 117.68C217.33 118.25 221.832 124.985 220.91 119.338C219.608 116.54 215.487 119.286 215.921 115.089C215.921 110.27 222.916 114.001 224.489 115.918C228.882 117.162 227.417 120.789 228.394 123.69C228.122 122.032 229.424 113.379 231.919 118.612C231.322 121.566 232.949 122.602 235.172 124.364C235.281 127.939 230.617 124.882 231.376 128.56C228.068 126.177 229.749 131.773 226.116 132.291C224.869 134.26 222.699 136.022 225.14 138.146C223.35 138.871 220.259 138.146 218.035 137.835C214.727 136.592 214.727 143.69 212.829 140.374C212.667 135.866 208.654 139.13 206.593 140.063C202.851 137.421 199.977 142.343 196.343 141.41C195.204 139.286 193.523 139.13 191.462 137.939C188.914 134.778 187.395 138.871 185.172 139.234C187.666 140.633 181.321 146.333 178.881 142.343C178.555 137.731 176.495 143.068 174.217 142.861C173.404 140.529 171.777 137.265 168.577 136.384C165.377 132.55 162.395 137.835 159.683 139.804C157.568 137.991 155.128 135.711 154.748 132.809C152.199 129.39 151.765 133.742 151.223 135.296C148.403 135.607 145.312 134.571 146.885 131.358C145.041 130.063 143.088 128.198 140.431 127.991C137.611 129.959 139.889 125.452 136.798 125.452C133.652 126.643 130.127 122.447 128.012 125.504C124.975 124.364 125.03 120.011 122.155 118.509C117.708 117.369 119.39 125.089 114.78 124.053C112.936 125.089 106.537 126.229 109.845 122.498C111.309 117.472 105.29 121.773 102.849 120.167C103.88 122.498 99.0531 122.187 100.517 120.115C99.975 116.281 92.6538 119.079 90.9726 115.763C91.0268 111.255 86.4715 115.193 84.4107 116.177C81.4823 116.54 79.6926 120.115 76.9811 119.545C74.7577 117.265 73.7815 119.856 71.8833 120.529C68.3041 119.338 65.1045 122.965 61.8507 121.358C61.1999 117.421 55.9394 123.586 55.5056 120.115C53.5534 119.338 51.0587 117.887 49.3233 118.146C46.8287 116.592 44.7136 121.203 43.141 118.301C43.5206 115.452 37.0671 114.934 40.7548 112.55C44.4425 110.944 40.2125 105.659 37.8263 107.939C36.6875 106.125 37.5552 101.359 40.5921 101.307C43.7917 99.545 45.9067 101.359 47.0998 104.105C51.4924 106.903 51.3298 99.6487 50.679 97.2135C47.3167 96.3845 47.2624 93.6383 47.0455 90.9441C48.3471 88.0425 46.5032 85.7627 45.9609 83.0684C46.2321 79.6488 41.4597 77.3172 41.1343 74.7783C44.2798 73.0685 41.026 73.3276 39.6159 72.2395ZM214.727 113.483C211.799 111.514 218.361 109.597 215.432 113.068L214.727 113.483Z" fill="#194099"/>
<path d="M39.6159 72.2395C40.1582 71.3069 40.5921 70.2706 40.8632 69.2343C41.514 65.2447 44.9305 62.4468 47.9133 59.8043C48.0217 57.11 52.4686 53.9494 48.4013 51.9287C44.6594 50.6333 45.256 58.0944 42.4359 54.1566C37.5552 52.3432 45.744 49.9598 44.1713 46.5401C41.2971 46.1256 42.3275 43.1722 41.8394 40.996C42.0021 38.1981 38.0432 39.8561 37.7721 38.1463C38.5314 37.7836 42.9783 36.9546 39.7244 35.6593C34.5182 33.3277 44.9305 29.908 40.104 26.6956C37.1213 24.9339 40.0498 24.1567 41.1887 22.136C40.6464 18.5091 46.1779 18.82 45.744 15.6075C44.1713 10.8925 41.514 17.8355 39.1278 16.9547C34.681 14.364 41.2429 12.9133 40.8632 10.1671C39.0194 5.97026 45.1475 8.25005 44.8221 4.36406C43.4663 0.529864 48.3472 2.60241 50.4622 2.23971C52.8483 3.0169 54.8548 5.14125 56.2106 5.97026C60.3864 5.86663 52.8482 10.2708 57.2952 11.3588C59.8983 15.193 65.7552 15.193 68.4667 11.307C71.124 8.76817 73.5102 17.0583 74.9203 11.0998C79.4214 12.8614 85.8206 10.8925 87.7187 16.4366C85.7122 18.5609 92.9248 15.6075 94.0637 15.8148C98.8361 18.7681 102.198 11.0479 107.35 14.7785C112.936 11.9288 117.058 18.5091 121.993 17.7837C124.921 15.4521 125.301 23.3795 129.476 22.4987C133.164 24.9857 138.913 20.478 141.353 26.1256C141.841 27.6282 144.282 27.3691 144.01 29.8562C145.908 30.4779 149.271 25.2448 151.386 29.8044C152.958 31.8769 157.948 30.3225 156.429 34.0531C158.598 37.6282 163.805 29.0272 165.811 34.8303C162.829 39.079 170.746 43.3795 171.234 37.2137C171.56 34.2085 173.62 27.68 177.959 30.8406C181.43 28.25 189.239 36.6956 188.154 28.5091C185.877 23.7422 191.191 21.877 194.987 23.0687C195.313 20.6852 197.428 15.6594 199.977 19.7008C203.176 21.6179 198.567 15.3485 198.621 14.0013C199.814 11.4107 202.742 16.5402 204.857 14.2604C205.183 16.3847 208.925 22.3951 209.847 20.3226C207.352 16.5402 213.751 13.0687 216.463 14.6749C216.734 17.3174 221.615 20.7889 221.723 16.1775C225.682 17.4728 221.94 9.70082 227.038 12.706C228.285 13.7941 226.279 18.6127 228.827 15.193C228.99 13.3796 231.105 13.8977 232.407 13.9495C233.762 16.3847 232.027 20.0117 233.057 22.0324C230.183 22.4469 228.665 24.9858 231.431 26.5919C232.244 29.5453 227.309 31.2552 231.431 33.2759C234.142 36.0738 235.606 39.3898 233.654 42.7059C234.63 45.8665 234.305 51.3587 229.858 51.7732C229.695 55.5556 236.203 57.8872 230.942 61.4623C232.732 63.1721 241.951 64.882 237.287 67.7835C234.359 70.6333 228.719 65.1411 229.153 70.6333C230.292 75.711 227.96 80.6332 226.387 85.1928C223.513 87.4726 221.398 92.1876 217.819 87.9389C212.667 87.369 210.118 93.8974 214.294 96.6954C216.68 97.5762 217.493 97.9389 219.12 98.8715C222.753 97.9907 218.469 102.55 220.259 104.519C221.018 106.903 222.645 113.017 217.71 110.996C217.168 106.229 207.244 109.286 211.907 113.638C211.474 116.125 212.341 120.426 215.215 117.68C217.33 118.25 221.832 124.985 220.91 119.338C219.608 116.54 215.487 119.286 215.92 115.089C215.92 110.27 222.916 114.001 224.489 115.918C228.882 117.162 227.417 120.789 228.394 123.69C228.122 122.032 229.424 113.379 231.919 118.612C231.322 121.566 232.949 122.602 235.172 124.364C235.281 127.939 230.617 124.882 231.376 128.56C228.068 126.177 229.749 131.773 226.116 132.291C224.869 134.26 222.699 136.022 225.14 138.146C223.35 138.871 220.259 138.146 218.035 137.835C214.727 136.592 214.727 143.69 212.829 140.374C212.667 135.866 208.654 139.13 206.593 140.063C202.851 137.421 199.977 142.343 196.343 141.41C195.204 139.286 193.523 139.13 191.462 137.939C188.914 134.778 187.395 138.871 185.172 139.234C187.666 140.633 181.321 146.332 178.881 142.343C178.555 137.731 176.495 143.068 174.217 142.861C173.404 140.529 171.777 137.265 168.577 136.384C165.377 132.55 162.395 137.835 159.683 139.804C157.568 137.991 155.128 135.711 154.748 132.809C152.199 129.39 151.765 133.742 151.223 135.296C148.403 135.607 145.312 134.571 146.885 131.358C145.041 130.063 143.088 128.198 140.431 127.991C137.611 129.959 139.889 125.452 136.798 125.452C133.652 126.643 130.127 122.447 128.012 125.504C124.975 124.364 125.03 120.011 122.155 118.509C117.708 117.369 119.39 125.089 114.78 124.053C112.936 125.089 106.537 126.229 109.845 122.498C111.309 117.472 105.29 121.773 102.849 120.167C103.88 122.498 99.0531 122.187 100.517 120.115C99.975 116.281 92.6538 119.079 90.9726 115.763C91.0268 111.255 86.4715 115.193 84.4107 116.177C81.4823 116.54 79.6926 120.115 76.9811 119.545C74.7577 117.265 73.7815 119.856 71.8833 120.529C68.3041 119.338 65.1045 122.965 61.8507 121.358C61.1999 117.421 55.9394 123.586 55.5056 120.115C53.5534 119.338 51.0587 117.887 49.3233 118.146C46.8287 116.592 44.7136 121.203 43.141 118.301C43.5206 115.452 37.0671 114.934 40.7548 112.55C44.4425 110.944 40.2125 105.659 37.8263 107.939C36.6875 106.125 37.5552 101.359 40.5921 101.307C43.7917 99.545 45.9067 101.359 47.0998 104.105C51.4924 106.903 51.3298 99.6487 50.679 97.2135C47.3167 96.3845 47.2624 93.6383 47.0455 90.9441C48.3471 88.0425 46.5032 85.7627 45.9609 83.0684C46.2321 79.6488 41.4597 77.3172 41.1343 74.7783C44.2798 73.0685 41.026 73.3276 39.6159 72.2395ZM39.6159 72.2395V72.2395ZM214.727 113.483C211.799 111.514 218.361 109.597 215.432 113.068L214.727 113.483ZM214.727 113.483V113.483Z" stroke="white" stroke-width="2.1712"/>
<path d="M52.2496 193L57.6856 180.976L58.0816 181.552H50.2876L50.9536 180.922V183.91H49.6756V180.4H58.9276V181.318L53.6536 193H52.2496ZM65.0892 193.108C64.0812 193.108 63.2112 192.964 62.4792 192.676C61.7592 192.388 61.2012 191.974 60.8052 191.434C60.4212 190.882 60.2292 190.234 60.2292 189.49C60.2292 188.77 60.4152 188.158 60.7872 187.654C61.1712 187.138 61.7232 186.742 62.4432 186.466C63.1752 186.19 64.0572 186.052 65.0892 186.052C66.1092 186.052 66.9852 186.19 67.7172 186.466C68.4492 186.742 69.0072 187.138 69.3912 187.654C69.7872 188.158 69.9852 188.77 69.9852 189.49C69.9852 190.234 69.7872 190.882 69.3912 191.434C68.9952 191.974 68.4312 192.388 67.6992 192.676C66.9672 192.964 66.0972 193.108 65.0892 193.108ZM65.0892 192.01C66.2052 192.01 67.0752 191.782 67.6992 191.326C68.3352 190.87 68.6532 190.252 68.6532 189.472C68.6532 188.692 68.3352 188.08 67.6992 187.636C67.0752 187.18 66.2052 186.952 65.0892 186.952C63.9732 186.952 63.1032 187.18 62.4792 187.636C61.8552 188.08 61.5432 188.692 61.5432 189.472C61.5432 190.252 61.8552 190.87 62.4792 191.326C63.1032 191.782 63.9732 192.01 65.0892 192.01ZM65.0892 186.79C64.1532 186.79 63.3552 186.664 62.6952 186.412C62.0472 186.16 61.5492 185.8 61.2012 185.332C60.8532 184.852 60.6792 184.282 60.6792 183.622C60.6792 182.926 60.8592 182.332 61.2192 181.84C61.5912 181.336 62.1072 180.952 62.7672 180.688C63.4272 180.424 64.2012 180.292 65.0892 180.292C65.9772 180.292 66.7512 180.424 67.4112 180.688C68.0832 180.952 68.6052 181.336 68.9772 181.84C69.3492 182.332 69.5352 182.926 69.5352 183.622C69.5352 184.282 69.3612 184.852 69.0132 185.332C68.6652 185.8 68.1552 186.16 67.4832 186.412C66.8232 186.664 66.0252 186.79 65.0892 186.79ZM65.0892 185.926C66.0732 185.926 66.8412 185.722 67.3932 185.314C67.9452 184.906 68.2212 184.36 68.2212 183.676C68.2212 182.956 67.9332 182.398 67.3572 182.002C66.7932 181.594 66.0372 181.39 65.0892 181.39C64.1412 181.39 63.3852 181.594 62.8212 182.002C62.2572 182.398 61.9752 182.95 61.9752 183.658C61.9752 184.354 62.2452 184.906 62.7852 185.314C63.3372 185.722 64.1052 185.926 65.0892 185.926Z" fill="white"/>
<path d="M135.793 84.108C134.677 84.108 133.735 83.862 132.967 83.37C132.199 82.866 131.617 82.146 131.221 81.21C130.825 80.262 130.627 79.128 130.627 77.808C130.627 76.38 130.867 75.186 131.347 74.226C131.839 73.254 132.517 72.522 133.381 72.03C134.245 71.538 135.247 71.292 136.387 71.292C136.951 71.292 137.491 71.346 138.007 71.454C138.523 71.562 138.979 71.736 139.375 71.976L138.853 73.02C138.529 72.804 138.157 72.654 137.737 72.57C137.317 72.474 136.873 72.426 136.405 72.426C135.049 72.426 133.963 72.858 133.147 73.722C132.343 74.586 131.941 75.876 131.941 77.592C131.941 77.856 131.953 78.186 131.977 78.582C132.013 78.966 132.085 79.35 132.193 79.734L131.743 79.392C131.875 78.768 132.133 78.24 132.517 77.808C132.901 77.364 133.381 77.028 133.957 76.8C134.533 76.572 135.163 76.458 135.847 76.458C136.687 76.458 137.425 76.614 138.061 76.926C138.697 77.238 139.195 77.676 139.555 78.24C139.915 78.804 140.095 79.47 140.095 80.238C140.095 81.018 139.909 81.702 139.537 82.29C139.165 82.866 138.649 83.316 137.989 83.64C137.341 83.952 136.609 84.108 135.793 84.108ZM135.739 83.01C136.339 83.01 136.867 82.902 137.323 82.686C137.791 82.458 138.157 82.14 138.421 81.732C138.685 81.312 138.817 80.826 138.817 80.274C138.817 79.446 138.529 78.786 137.953 78.294C137.389 77.802 136.621 77.556 135.649 77.556C135.001 77.556 134.437 77.676 133.957 77.916C133.477 78.156 133.099 78.486 132.823 78.906C132.547 79.314 132.409 79.782 132.409 80.31C132.409 80.766 132.535 81.204 132.787 81.624C133.039 82.032 133.411 82.368 133.903 82.632C134.407 82.884 135.019 83.01 135.739 83.01ZM146.618 84.108C145.646 84.108 144.782 83.856 144.026 83.352C143.27 82.836 142.676 82.104 142.244 81.156C141.812 80.196 141.596 79.044 141.596 77.7C141.596 76.356 141.812 75.21 142.244 74.262C142.676 73.302 143.27 72.57 144.026 72.066C144.782 71.55 145.646 71.292 146.618 71.292C147.59 71.292 148.454 71.55 149.21 72.066C149.966 72.57 150.56 73.302 150.992 74.262C151.436 75.21 151.658 76.356 151.658 77.7C151.658 79.044 151.436 80.196 150.992 81.156C150.56 82.104 149.966 82.836 149.21 83.352C148.454 83.856 147.59 84.108 146.618 84.108ZM146.618 82.92C147.362 82.92 148.01 82.722 148.562 82.326C149.114 81.918 149.546 81.33 149.858 80.562C150.17 79.782 150.326 78.828 150.326 77.7C150.326 76.572 150.17 75.624 149.858 74.856C149.546 74.076 149.114 73.488 148.562 73.092C148.01 72.684 147.362 72.48 146.618 72.48C145.898 72.48 145.256 72.684 144.692 73.092C144.128 73.488 143.69 74.076 143.378 74.856C143.066 75.624 142.91 76.572 142.91 77.7C142.91 78.828 143.066 79.782 143.378 80.562C143.69 81.33 144.128 81.918 144.692 82.326C145.256 82.722 145.898 82.92 146.618 82.92Z" fill="white"/>
<path d="M200.875 227L206.311 214.976L206.707 215.552H198.913L199.579 214.922V217.91H198.301V214.4H207.553V215.318L202.279 227H200.875ZM211.475 227L216.911 214.976L217.307 215.552H209.513L210.179 214.922V217.91H208.901V214.4H218.153V215.318L212.879 227H211.475Z" fill="white"/>
<path d="M106.293 240.292C107.409 240.292 108.351 240.544 109.119 241.048C109.887 241.54 110.469 242.254 110.865 243.19C111.261 244.126 111.459 245.26 111.459 246.592C111.459 248.008 111.213 249.202 110.721 250.174C110.241 251.146 109.569 251.878 108.705 252.37C107.841 252.862 106.839 253.108 105.699 253.108C105.135 253.108 104.595 253.054 104.079 252.946C103.575 252.838 103.119 252.664 102.711 252.424L103.233 251.38C103.557 251.596 103.929 251.752 104.349 251.848C104.781 251.932 105.225 251.974 105.681 251.974C107.037 251.974 108.117 251.542 108.921 250.678C109.737 249.814 110.145 248.524 110.145 246.808C110.145 246.532 110.127 246.202 110.091 245.818C110.067 245.434 110.001 245.05 109.893 244.666L110.343 245.008C110.223 245.632 109.965 246.166 109.569 246.61C109.185 247.042 108.705 247.372 108.129 247.6C107.565 247.828 106.935 247.942 106.239 247.942C105.411 247.942 104.673 247.786 104.025 247.474C103.389 247.162 102.891 246.724 102.531 246.16C102.171 245.596 101.991 244.93 101.991 244.162C101.991 243.37 102.177 242.686 102.549 242.11C102.921 241.534 103.431 241.09 104.079 240.778C104.739 240.454 105.477 240.292 106.293 240.292ZM106.347 241.39C105.747 241.39 105.213 241.504 104.745 241.732C104.289 241.948 103.929 242.26 103.665 242.668C103.401 243.076 103.269 243.562 103.269 244.126C103.269 244.954 103.551 245.614 104.115 246.106C104.691 246.598 105.465 246.844 106.437 246.844C107.085 246.844 107.649 246.724 108.129 246.484C108.621 246.244 108.999 245.914 109.263 245.494C109.539 245.074 109.677 244.606 109.677 244.09C109.677 243.622 109.551 243.184 109.299 242.776C109.047 242.368 108.675 242.038 108.183 241.786C107.691 241.522 107.079 241.39 106.347 241.39ZM115.533 253V240.94L116.109 241.552H112.563V240.4H116.829V253H115.533Z" fill="white"/>
<path d="M141.306 170.528C142.05 170.528 142.678 170.696 143.19 171.032C143.702 171.36 144.09 171.836 144.354 172.46C144.618 173.084 144.75 173.84 144.75 174.728C144.75 175.672 144.586 176.468 144.258 177.116C143.938 177.764 143.49 178.252 142.914 178.58C142.338 178.908 141.67 179.072 140.91 179.072C140.534 179.072 140.174 179.036 139.83 178.964C139.494 178.892 139.19 178.776 138.918 178.616L139.266 177.92C139.482 178.064 139.73 178.168 140.01 178.232C140.298 178.288 140.594 178.316 140.898 178.316C141.802 178.316 142.522 178.028 143.058 177.452C143.602 176.876 143.874 176.016 143.874 174.872C143.874 174.688 143.862 174.468 143.838 174.212C143.822 173.956 143.778 173.7 143.706 173.444L144.006 173.672C143.926 174.088 143.754 174.444 143.49 174.74C143.234 175.028 142.914 175.248 142.53 175.4C142.154 175.552 141.734 175.628 141.27 175.628C140.718 175.628 140.226 175.524 139.794 175.316C139.37 175.108 139.038 174.816 138.798 174.44C138.558 174.064 138.438 173.62 138.438 173.108C138.438 172.58 138.562 172.124 138.81 171.74C139.058 171.356 139.398 171.06 139.83 170.852C140.27 170.636 140.762 170.528 141.306 170.528ZM141.342 171.26C140.942 171.26 140.586 171.336 140.274 171.488C139.97 171.632 139.73 171.84 139.554 172.112C139.378 172.384 139.29 172.708 139.29 173.084C139.29 173.636 139.478 174.076 139.854 174.404C140.238 174.732 140.754 174.896 141.402 174.896C141.834 174.896 142.21 174.816 142.53 174.656C142.858 174.496 143.11 174.276 143.286 173.996C143.47 173.716 143.562 173.404 143.562 173.06C143.562 172.748 143.478 172.456 143.31 172.184C143.142 171.912 142.894 171.692 142.566 171.524C142.238 171.348 141.83 171.26 141.342 171.26ZM148.393 179.072C147.785 179.072 147.209 178.976 146.665 178.784C146.129 178.584 145.697 178.32 145.369 177.992L145.789 177.308C146.061 177.588 146.425 177.82 146.881 178.004C147.345 178.188 147.849 178.28 148.393 178.28C149.089 178.28 149.621 178.128 149.989 177.824C150.365 177.52 150.553 177.112 150.553 176.6C150.553 176.088 150.369 175.68 150.001 175.376C149.641 175.072 149.069 174.92 148.285 174.92H147.685V174.284L150.277 171.032L150.397 171.368H145.717V170.6H151.117V171.212L148.525 174.464L148.105 174.188H148.429C149.437 174.188 150.189 174.412 150.685 174.86C151.189 175.308 151.441 175.884 151.441 176.588C151.441 177.06 151.329 177.484 151.105 177.86C150.881 178.236 150.541 178.532 150.085 178.748C149.637 178.964 149.073 179.072 148.393 179.072Z" fill="white"/>
<path d="M139.719 196.94C140.339 196.94 140.862 197.08 141.289 197.36C141.716 197.633 142.039 198.03 142.259 198.55C142.479 199.07 142.589 199.7 142.589 200.44C142.589 201.227 142.452 201.89 142.179 202.43C141.912 202.97 141.539 203.377 141.059 203.65C140.579 203.923 140.022 204.06 139.389 204.06C139.076 204.06 138.776 204.03 138.489 203.97C138.209 203.91 137.956 203.813 137.729 203.68L138.019 203.1C138.199 203.22 138.406 203.307 138.639 203.36C138.879 203.407 139.126 203.43 139.379 203.43C140.132 203.43 140.732 203.19 141.179 202.71C141.632 202.23 141.859 201.513 141.859 200.56C141.859 200.407 141.849 200.223 141.829 200.01C141.816 199.797 141.779 199.583 141.719 199.37L141.969 199.56C141.902 199.907 141.759 200.203 141.539 200.45C141.326 200.69 141.059 200.873 140.739 201C140.426 201.127 140.076 201.19 139.689 201.19C139.229 201.19 138.819 201.103 138.459 200.93C138.106 200.757 137.829 200.513 137.629 200.2C137.429 199.887 137.329 199.517 137.329 199.09C137.329 198.65 137.432 198.27 137.639 197.95C137.846 197.63 138.129 197.383 138.489 197.21C138.856 197.03 139.266 196.94 139.719 196.94ZM139.749 197.55C139.416 197.55 139.119 197.613 138.859 197.74C138.606 197.86 138.406 198.033 138.259 198.26C138.112 198.487 138.039 198.757 138.039 199.07C138.039 199.53 138.196 199.897 138.509 200.17C138.829 200.443 139.259 200.58 139.799 200.58C140.159 200.58 140.472 200.513 140.739 200.38C141.012 200.247 141.222 200.063 141.369 199.83C141.522 199.597 141.599 199.337 141.599 199.05C141.599 198.79 141.529 198.547 141.389 198.32C141.249 198.093 141.042 197.91 140.769 197.77C140.496 197.623 140.156 197.55 139.749 197.55ZM143.513 202.16V201.64L147.223 197H148.023L144.343 201.64L143.953 201.52H149.583V202.16H143.513ZM147.463 204V202.16L147.483 201.52V199.9H148.183V204H147.463Z" fill="white"/>
<path d="M112.473 193.764C112.845 193.764 113.159 193.848 113.415 194.016C113.671 194.18 113.865 194.418 113.997 194.73C114.129 195.042 114.195 195.42 114.195 195.864C114.195 196.336 114.113 196.734 113.949 197.058C113.789 197.382 113.565 197.626 113.277 197.79C112.989 197.954 112.655 198.036 112.275 198.036C112.087 198.036 111.907 198.018 111.735 197.982C111.567 197.946 111.415 197.888 111.279 197.808L111.453 197.46C111.561 197.532 111.685 197.584 111.825 197.616C111.969 197.644 112.117 197.658 112.269 197.658C112.721 197.658 113.081 197.514 113.349 197.226C113.621 196.938 113.757 196.508 113.757 195.936C113.757 195.844 113.751 195.734 113.739 195.606C113.731 195.478 113.709 195.35 113.673 195.222L113.823 195.336C113.783 195.544 113.697 195.722 113.565 195.87C113.437 196.014 113.277 196.124 113.085 196.2C112.897 196.276 112.687 196.314 112.455 196.314C112.179 196.314 111.933 196.262 111.717 196.158C111.505 196.054 111.339 195.908 111.219 195.72C111.099 195.532 111.039 195.31 111.039 195.054C111.039 194.79 111.101 194.562 111.225 194.37C111.349 194.178 111.519 194.03 111.735 193.926C111.955 193.818 112.201 193.764 112.473 193.764ZM112.491 194.13C112.291 194.13 112.113 194.168 111.957 194.244C111.805 194.316 111.685 194.42 111.597 194.556C111.509 194.692 111.465 194.854 111.465 195.042C111.465 195.318 111.559 195.538 111.747 195.702C111.939 195.866 112.197 195.948 112.521 195.948C112.737 195.948 112.925 195.908 113.085 195.828C113.249 195.748 113.375 195.638 113.463 195.498C113.555 195.358 113.601 195.202 113.601 195.03C113.601 194.874 113.559 194.728 113.475 194.592C113.391 194.456 113.267 194.346 113.103 194.262C112.939 194.174 112.735 194.13 112.491 194.13ZM114.743 198V197.694L116.489 195.984C116.649 195.828 116.769 195.692 116.849 195.576C116.929 195.456 116.983 195.344 117.011 195.24C117.039 195.136 117.053 195.038 117.053 194.946C117.053 194.702 116.969 194.51 116.801 194.37C116.637 194.23 116.393 194.16 116.069 194.16C115.821 194.16 115.601 194.198 115.409 194.274C115.221 194.35 115.059 194.468 114.923 194.628L114.617 194.364C114.781 194.172 114.991 194.024 115.247 193.92C115.503 193.816 115.789 193.764 116.105 193.764C116.389 193.764 116.635 193.81 116.843 193.902C117.051 193.99 117.211 194.12 117.323 194.292C117.439 194.464 117.497 194.666 117.497 194.898C117.497 195.034 117.477 195.168 117.437 195.3C117.401 195.432 117.333 195.572 117.233 195.72C117.137 195.864 116.995 196.028 116.807 196.212L115.205 197.784L115.085 197.616H117.689V198H114.743Z" fill="white"/>
<path d="M120.976 188L123.996 181.32L124.216 181.64H119.886L120.256 181.29V182.95H119.546V181H124.686V181.51L121.756 188H120.976ZM127.659 188.06C127.159 188.06 126.682 187.98 126.229 187.82C125.776 187.653 125.416 187.433 125.149 187.16L125.499 186.59C125.719 186.823 126.019 187.017 126.399 187.17C126.786 187.323 127.202 187.4 127.649 187.4C128.242 187.4 128.692 187.27 128.999 187.01C129.312 186.743 129.469 186.397 129.469 185.97C129.469 185.67 129.396 185.413 129.249 185.2C129.109 184.98 128.869 184.81 128.529 184.69C128.189 184.57 127.722 184.51 127.129 184.51H125.639L125.999 181H129.829V181.64H126.289L126.659 181.29L126.349 184.23L125.979 183.87H127.289C127.996 183.87 128.562 183.957 128.989 184.13C129.416 184.303 129.722 184.547 129.909 184.86C130.102 185.167 130.199 185.527 130.199 185.94C130.199 186.333 130.106 186.693 129.919 187.02C129.732 187.34 129.452 187.593 129.079 187.78C128.706 187.967 128.232 188.06 127.659 188.06Z" fill="white"/>
<path d="M120.946 139.292C122.062 139.292 123.004 139.544 123.772 140.048C124.54 140.54 125.122 141.254 125.518 142.19C125.914 143.126 126.112 144.26 126.112 145.592C126.112 147.008 125.866 148.202 125.374 149.174C124.894 150.146 124.222 150.878 123.358 151.37C122.494 151.862 121.492 152.108 120.352 152.108C119.788 152.108 119.248 152.054 118.732 151.946C118.228 151.838 117.772 151.664 117.364 151.424L117.886 150.38C118.21 150.596 118.582 150.752 119.002 150.848C119.434 150.932 119.878 150.974 120.334 150.974C121.69 150.974 122.77 150.542 123.574 149.678C124.39 148.814 124.798 147.524 124.798 145.808C124.798 145.532 124.78 145.202 124.744 144.818C124.72 144.434 124.654 144.05 124.546 143.666L124.996 144.008C124.876 144.632 124.618 145.166 124.222 145.61C123.838 146.042 123.358 146.372 122.782 146.6C122.218 146.828 121.588 146.942 120.892 146.942C120.064 146.942 119.326 146.786 118.678 146.474C118.042 146.162 117.544 145.724 117.184 145.16C116.824 144.596 116.644 143.93 116.644 143.162C116.644 142.37 116.83 141.686 117.202 141.11C117.574 140.534 118.084 140.09 118.732 139.778C119.392 139.454 120.13 139.292 120.946 139.292ZM121 140.39C120.4 140.39 119.866 140.504 119.398 140.732C118.942 140.948 118.582 141.26 118.318 141.668C118.054 142.076 117.922 142.562 117.922 143.126C117.922 143.954 118.204 144.614 118.768 145.106C119.344 145.598 120.118 145.844 121.09 145.844C121.738 145.844 122.302 145.724 122.782 145.484C123.274 145.244 123.652 144.914 123.916 144.494C124.192 144.074 124.33 143.606 124.33 143.09C124.33 142.622 124.204 142.184 123.952 141.776C123.7 141.368 123.328 141.038 122.836 140.786C122.344 140.522 121.732 140.39 121 140.39ZM131.969 152.108C131.069 152.108 130.211 151.964 129.395 151.676C128.579 151.376 127.931 150.98 127.451 150.488L128.081 149.462C128.477 149.882 129.017 150.23 129.701 150.506C130.397 150.782 131.147 150.92 131.951 150.92C133.019 150.92 133.829 150.686 134.381 150.218C134.945 149.738 135.227 149.114 135.227 148.346C135.227 147.806 135.095 147.344 134.831 146.96C134.579 146.564 134.147 146.258 133.535 146.042C132.923 145.826 132.083 145.718 131.015 145.718H128.333L128.981 139.4H135.875V140.552H129.503L130.169 139.922L129.611 145.214L128.945 144.566H131.303C132.575 144.566 133.595 144.722 134.363 145.034C135.131 145.346 135.683 145.784 136.019 146.348C136.367 146.9 136.541 147.548 136.541 148.292C136.541 149 136.373 149.648 136.037 150.236C135.701 150.812 135.197 151.268 134.525 151.604C133.853 151.94 133.001 152.108 131.969 152.108Z" fill="white"/>
</svg>
