<svg width="51" height="66" viewBox="0 0 51 66" fill="none" xmlns="http://www.w3.org/2000/svg">
<path d="M23.6845 39.8437C23.1325 39.8437 22.5805 39.6336 22.1603 39.2134L16.6363 33.6901C15.796 32.8498 15.796 31.482 16.6363 30.6409L18.2664 29.0109C19.1067 28.1705 20.4738 28.1705 21.3149 29.0109L23.6845 31.3806L28.7622 26.3029C29.5758 25.4893 30.9965 25.4879 31.8115 26.3029L33.4408 27.9329C34.2811 28.7733 34.2811 30.1411 33.4408 30.9814L25.2088 39.2134C24.7886 39.6336 24.2366 39.8437 23.6845 39.8437Z" fill="#194099"/>
<path d="M47.288 9.40721C39.5081 7.99162 32.7192 5.06556 27.1098 0.710145C25.8898 -0.236715 24.1866 -0.236715 22.9666 0.710145C17.3579 5.06556 10.5698 7.99162 2.78914 9.40721C1.17289 9.70061 0 11.1111 0 12.76V36.3243C0 48.987 9.17737 60.2167 23.3796 64.9344C23.9142 65.1119 24.4764 65.201 25.0385 65.201C25.6007 65.201 26.1629 65.1119 26.6975 64.9344C40.8997 60.2174 50.0764 48.987 50.0764 36.3243V12.76C50.0771 11.1104 48.9035 9.70061 47.288 9.40721ZM25.0385 47.4526C16.4502 47.4526 9.46281 40.4652 9.46281 31.8768C9.46281 23.2885 16.4502 16.3011 25.0385 16.3011C33.6269 16.3011 40.6143 23.2885 40.6143 31.8768C40.6143 40.4652 33.6269 47.4526 25.0385 47.4526Z" fill="#194099"/>
</svg>
