<svg width="125" height="129" viewBox="0 0 125 129" fill="none" xmlns="http://www.w3.org/2000/svg">
<g clip-path="url(#clip0_548_211)">
<path d="M21.5097 5.8088L21.4757 6.59009H21.334L21.3566 6.04375V6.02111V5.8003C21.2858 2.64962 18.9301 0.138708 16.0585 0.138708H14.1791C11.3075 0.138708 8.95186 2.65812 8.881 5.8003V6.02111V6.04375L8.90367 6.59009H8.76193L8.75342 5.82011C8.82428 2.60716 11.265 0 14.1933 0H16.0727C19.0095 0 21.4502 2.60716 21.5097 5.8088Z" fill="#877B77"/>
<path d="M60.6032 120.319C60.3185 120.309 60.0347 120.358 59.77 120.464C59.5053 120.569 59.2655 120.728 59.0657 120.931C58.8659 121.134 58.7108 121.376 58.61 121.642C58.509 121.908 58.4648 122.192 58.48 122.476C58.4673 122.762 58.5129 123.047 58.6142 123.314C58.7154 123.581 58.8701 123.824 59.0687 124.03C59.2676 124.235 59.506 124.398 59.7698 124.508C60.0338 124.618 60.3171 124.673 60.6032 124.67C60.8941 124.684 61.1846 124.636 61.4559 124.53C61.7273 124.425 61.9733 124.263 62.1782 124.056C62.3828 123.849 62.5418 123.602 62.6445 123.33C62.7474 123.058 62.7915 122.767 62.7745 122.476C62.7796 122.191 62.7269 121.907 62.6194 121.642C62.5119 121.378 62.3519 121.137 62.1492 120.936C61.9462 120.734 61.7047 120.576 61.4391 120.47C61.1735 120.364 60.889 120.313 60.6032 120.319Z" fill="#877B77"/>
<path d="M91.1362 92.4729C90.6089 92.0171 89.989 91.681 89.3191 91.488C88.49 91.2496 87.6304 91.1351 86.7677 91.1482H82.8276V101.277H86.7677C87.626 101.292 88.481 101.168 89.2993 100.909C89.9734 100.696 90.5948 100.343 91.1219 99.8728C91.6082 99.4218 91.982 98.8632 92.2133 98.2421C92.4676 97.5617 92.5926 96.8397 92.5818 96.1133C92.5922 95.4053 92.4699 94.7017 92.2218 94.0383C91.9921 93.4365 91.6195 92.8993 91.1362 92.4729Z" fill="#877B77"/>
<path d="M85.0841 120.319C84.7992 120.309 84.5157 120.358 84.251 120.464C83.9863 120.569 83.7465 120.728 83.5467 120.931C83.3469 121.134 83.1918 121.376 83.0907 121.642C82.9899 121.908 82.9457 122.193 82.9609 122.477C82.948 122.762 82.9938 123.047 83.0949 123.314C83.1962 123.581 83.3511 123.824 83.5497 124.03C83.7483 124.235 83.987 124.398 84.2507 124.508C84.5145 124.618 84.7981 124.673 85.0841 124.67C85.3748 124.684 85.6653 124.636 85.9364 124.53C86.2076 124.424 86.4534 124.262 86.658 124.055C86.8626 123.848 87.0216 123.601 87.1245 123.329C87.2274 123.057 87.272 122.767 87.2555 122.477C87.2605 122.191 87.2076 121.907 87.1001 121.642C86.9926 121.378 86.8327 121.137 86.6299 120.936C86.4271 120.734 86.1857 120.576 85.9201 120.47C85.6545 120.364 85.37 120.313 85.0841 120.319Z" fill="#877B77"/>
<path d="M42.648 91.8139C42.512 92.3941 42.3645 92.9207 42.2057 93.4048C42.0471 93.8889 41.8995 94.3135 41.7663 94.6815L38.1238 104.326H47.1948L43.5523 94.6617C43.197 93.7303 42.895 92.7796 42.648 91.8139Z" fill="#877B77"/>
<path d="M113.599 92.4732C113.074 92.0169 112.456 91.6808 111.787 91.488C110.953 91.2487 110.087 91.1342 109.219 91.1482H105.284V101.277H109.219C110.077 101.292 110.932 101.168 111.751 100.909C112.425 100.697 113.046 100.344 113.573 99.8728C114.059 99.4218 114.433 98.8635 114.665 98.2424C114.92 97.562 115.046 96.8399 115.036 96.1136C115.048 95.4054 114.925 94.7015 114.676 94.0386C114.447 93.4384 114.078 92.9017 113.599 92.4732Z" fill="#877B77"/>
<path d="M21.3452 6.5907L18.485 72.0926V72.3245C18.485 72.8256 18.519 73.2927 18.5644 73.7401C18.6389 74.5758 18.8169 75.3995 19.0945 76.1916C19.4232 77.1671 19.9633 78.0583 20.6763 78.8015C22.5784 80.7831 25.1892 81.3068 26.1899 83.8261C26.3535 84.2693 26.4649 84.7302 26.5216 85.1991C26.563 85.5278 26.5849 85.8586 26.5867 86.1898V88.4544L25.7363 125.371V125.385H22.6181V92.1686H19.5962V125.374H16.6566V92.1686H13.6263V125.374H10.6867V92.1686H7.67337V125.374H4.55517V125.36L3.70473 88.4432V86.1785C3.70659 85.8473 3.72837 85.5165 3.76993 85.1878C3.82655 84.7189 3.93786 84.258 4.10159 83.8148C5.10226 81.2955 7.71305 80.7802 9.61515 78.7902C10.3281 78.0468 10.8682 77.1556 11.1969 76.1803C11.4742 75.3877 11.6531 74.5646 11.7299 73.7288C11.7724 73.2927 11.7979 72.8256 11.8064 72.3133V72.0926L8.93765 6.5907H0.320068V128.726H122.624V6.5907H21.3452ZM33.6791 120.519C33.4125 120.395 33.123 120.327 32.8288 120.321C31.658 120.321 31.1788 121.702 31.1788 123.228V125.374H30.3512V119.619H31.1788V120.924C31.4624 119.939 31.9924 119.494 32.8288 119.494C33.1557 119.485 33.4793 119.562 33.767 119.718L33.6791 120.519ZM42.0219 122.86H37.1347C37.1922 123.289 37.3814 123.691 37.6762 124.008C37.9711 124.326 38.357 124.545 38.7815 124.636C39.2059 124.726 39.6478 124.683 40.0466 124.512C40.4457 124.342 40.782 124.053 41.0099 123.684C41.2564 123.746 41.5767 123.808 41.8375 123.871C41.6062 124.368 41.2343 124.787 40.7673 125.076C40.3003 125.365 39.7587 125.51 39.2098 125.495C37.5685 125.495 36.2985 124.301 36.2985 122.478C36.2985 120.655 37.5685 119.494 39.2098 119.494C40.8511 119.494 42.0444 120.655 42.0444 122.478C42.0331 122.6 42.0331 122.764 42.0219 122.86ZM46.974 125.495C45.9988 125.495 45.0123 124.842 44.9642 123.721H45.6899C45.8004 124.154 46.0727 124.72 47.0479 124.72C47.7876 124.72 48.2696 124.349 48.2696 123.808C48.2696 123.426 48.0484 123.069 47.4419 122.919L46.6396 122.735C45.9251 122.563 45.0351 122.206 45.1854 120.861C45.3072 120.038 46.1235 119.494 47.0591 119.494C47.9492 119.494 48.726 119.927 48.8762 120.986H48.0712C48.0106 120.77 47.8764 120.581 47.6916 120.453C47.5068 120.325 47.2833 120.265 47.0591 120.284C46.5063 120.284 46.0499 120.581 45.9875 120.986C45.8628 121.651 46.4299 121.835 46.838 121.948L47.6288 122.133C48.7117 122.393 49.0832 123.018 49.0832 123.808C49.0832 124.805 48.1703 125.495 46.974 125.495ZM54.9368 120.358H53.7151V125.374H52.8872V120.358H51.8414V119.619H52.8787V117.462H53.7066V119.619H54.9283L54.9368 120.358ZM52.0142 114.252C51.6844 114.267 51.3594 114.167 51.0957 113.968C50.8628 113.78 50.6798 113.537 50.5629 113.261L48.3545 107.418H36.9475L34.7394 113.261C34.6264 113.526 34.4492 113.76 34.2234 113.94C33.9658 114.153 33.6392 114.265 33.305 114.254H29.9684L40.4796 87.7922H44.8395L55.3479 114.254L52.0142 114.252ZM63.5998 125.374H62.7749V124.386C62.5344 124.737 62.2098 125.023 61.8305 125.217C61.4512 125.41 61.0294 125.506 60.6033 125.495C58.9621 125.495 57.6552 124.301 57.6552 122.478C57.6366 122.085 57.6999 121.691 57.841 121.324C57.982 120.956 58.1977 120.621 58.4748 120.341C58.7517 120.061 59.0838 119.841 59.4502 119.695C59.8166 119.549 60.2093 119.481 60.6033 119.494C61.4538 119.494 62.341 119.84 62.7749 120.567V119.619H63.5998V125.374ZM72.3421 125.374H71.5143V124.425C71.1571 125.176 70.2698 125.495 69.6037 125.495C68.1864 125.495 67.37 124.536 67.3813 122.97V119.619H68.2089V122.97C68.2089 124.029 68.7137 124.669 69.6037 124.669C70.4937 124.669 71.5143 124.179 71.5143 122.764V119.621H72.3421V125.374ZM73.2662 109.383C72.8738 110.391 72.2763 111.306 71.5115 112.072C70.7023 112.865 69.737 113.482 68.6769 113.884C67.452 114.346 66.1506 114.574 64.8413 114.555C64.0092 114.555 63.179 114.472 62.3638 114.305C61.5771 114.145 60.8073 113.911 60.0648 113.606C59.346 113.311 58.6585 112.945 58.0124 112.514C57.3954 112.099 56.825 111.618 56.3115 111.081L57.559 109.023C57.6667 108.856 57.8124 108.716 57.9841 108.616C58.1574 108.52 58.3531 108.471 58.551 108.474C58.899 108.5 59.2293 108.638 59.4921 108.867C59.8323 109.128 60.2464 109.416 60.7338 109.731C61.2876 110.076 61.8743 110.365 62.4858 110.594C63.2785 110.872 64.1149 111.004 64.9547 110.985C66.5111 110.985 67.7187 110.608 68.5689 109.852C69.4194 109.097 69.8475 108.049 69.8475 106.71C69.8758 106.06 69.6884 105.418 69.3146 104.885C68.9328 104.392 68.4495 103.988 67.8973 103.698C67.2653 103.362 66.6004 103.092 65.9129 102.892C65.1646 102.671 64.4019 102.436 63.6308 102.184C62.8554 101.93 62.0938 101.636 61.349 101.303C60.6197 100.973 59.9492 100.525 59.3646 99.9788C58.7598 99.408 58.2776 98.7203 57.9473 97.9576C57.5627 97.0041 57.3811 95.9814 57.4145 94.9541C57.4159 94 57.6085 93.0557 57.9814 92.1771C58.3565 91.2809 58.9121 90.4715 59.6141 89.7992C60.384 89.0767 61.2883 88.5121 62.2759 88.1375C63.4272 87.7023 64.6509 87.4902 65.8818 87.5118C67.3079 87.4966 68.7254 87.7384 70.0659 88.2253C71.2892 88.674 72.4073 89.3686 73.3512 90.2663L72.3051 92.3242C72.1997 92.5139 72.0558 92.6798 71.8828 92.8111C71.7166 92.9253 71.5175 92.9819 71.3159 92.9725C71.0307 92.9536 70.758 92.849 70.5336 92.6725C70.25 92.4799 69.8873 92.2592 69.4647 92.0213C68.9864 91.7558 68.4845 91.5351 67.9652 91.3618C66.6614 90.9685 65.2719 90.9586 63.9625 91.3335C63.4426 91.4921 62.9602 91.7551 62.5452 92.1063C62.1765 92.4251 61.8856 92.8242 61.6947 93.2724C61.5012 93.734 61.4047 94.2303 61.4114 94.7305C61.3884 95.3362 61.5778 95.9308 61.947 96.4119C62.3364 96.888 62.8186 97.2799 63.3646 97.564C63.998 97.904 64.6624 98.1826 65.3488 98.3964C66.1046 98.6377 66.8692 98.8936 67.6421 99.1634C68.4189 99.4324 69.1841 99.7296 69.9326 100.081C70.6581 100.41 71.3274 100.85 71.9168 101.386C72.5141 101.927 72.996 102.582 73.3341 103.313C73.713 104.188 73.895 105.135 73.8672 106.087C73.8771 107.214 73.6732 108.332 73.2662 109.383ZM79.5026 120.519C79.2361 120.394 78.9464 120.327 78.6522 120.321C77.4814 120.321 76.9994 121.702 76.9994 123.228V125.374H76.1745V119.619H76.9994V120.924C77.283 119.939 77.813 119.494 78.6522 119.494C78.9793 119.485 79.3029 119.562 79.5906 119.718L79.5026 120.519ZM88.0692 125.374H87.2443V124.386C87.0035 124.738 86.6786 125.023 86.2988 125.217C85.9188 125.411 85.4965 125.507 85.07 125.495C83.4315 125.495 82.1219 124.301 82.1219 122.478C82.1037 122.085 82.1672 121.692 82.3083 121.324C82.4496 120.957 82.6653 120.622 82.9424 120.342C83.2193 120.062 83.5511 119.842 83.9173 119.696C84.2835 119.55 84.6759 119.481 85.07 119.494C85.9204 119.494 86.8104 119.84 87.2443 120.567V119.619H88.0692V125.374ZM86.7425 104.678H82.8022V114.252H78.5132V87.7892H86.7538C88.2729 87.7616 89.7873 87.9669 91.244 88.3979C92.3985 88.7404 93.4692 89.3187 94.3877 90.0964C95.2062 90.8117 95.841 91.7126 96.2389 92.7233C96.6539 93.8073 96.8596 94.9599 96.8454 96.1202C96.8599 97.3052 96.6412 98.4814 96.2019 99.5825C95.7807 100.618 95.1261 101.543 94.2885 102.286C93.3665 103.08 92.2933 103.68 91.1335 104.049C89.7167 104.491 88.2379 104.703 86.7538 104.678H86.7425ZM96.8852 125.374H96.0631V122.022C96.0631 120.96 95.5586 120.309 94.6683 120.309C93.7783 120.309 92.755 120.825 92.755 122.232V125.374H91.9301V119.619H92.755V120.567C93.115 119.817 94.0022 119.494 94.6683 119.494C96.0859 119.494 96.9022 120.457 96.8907 122.022L96.8852 125.374ZM103.096 120.358H101.874V125.374H101.046V120.358H100.032V119.619H101.069V117.462H101.897V119.619H103.119L103.096 120.358ZM107.873 125.495C106.897 125.495 105.911 124.842 105.86 123.721H106.588C106.702 124.154 106.974 124.72 107.946 124.72C108.689 124.72 109.168 124.349 109.168 123.808C109.168 123.426 108.947 123.069 108.343 122.919L107.541 122.735C106.824 122.563 105.936 122.206 106.084 120.861C106.208 120.038 107.022 119.494 107.96 119.494C108.848 119.494 109.625 119.927 109.772 120.986H108.972C108.911 120.77 108.777 120.582 108.592 120.454C108.408 120.326 108.184 120.266 107.96 120.284C107.394 120.284 106.948 120.581 106.886 120.986C106.761 121.651 107.331 121.835 107.737 121.948L108.527 122.133C109.613 122.393 109.981 123.018 109.981 123.808C109.993 124.805 109.08 125.495 107.884 125.495H107.873ZM112.269 123.197L112.964 122.24C112.513 123.939 117.72 125.354 118.497 122.24L119.237 123.197C117.992 126.005 114.035 126.676 112.281 123.197H112.269ZM112.859 121.34L116.102 119.554C118.815 121.479 117.054 122.863 115.742 123.975C115.782 122.557 113.715 121.496 112.87 121.348L112.859 121.34ZM118.667 99.5767C118.246 100.613 117.591 101.538 116.754 102.28C115.831 103.075 114.757 103.675 113.596 104.044C112.177 104.489 110.695 104.703 109.208 104.678H105.284V114.252H100.979V87.7892H109.219C110.741 87.7603 112.258 87.9655 113.718 88.3979C114.874 88.7379 115.946 89.3165 116.864 90.0964C117.684 90.8097 118.319 91.7112 118.713 92.7233C119.537 94.9357 119.525 97.3726 118.679 99.5767H118.667Z" fill="#877B77"/>
<path d="M39.2094 120.308C38.7021 120.291 38.2071 120.466 37.8227 120.797C37.4383 121.128 37.1925 121.591 37.1345 122.094H41.1966C41.035 120.999 40.2698 120.308 39.2094 120.308Z" fill="#877B77"/>
<path d="M38.1238 104.326L41.7663 94.6815C41.8995 94.3135 42.0498 93.8859 42.2057 93.4048C42.3617 92.9235 42.512 92.3941 42.648 91.8139C42.895 92.7796 43.197 93.7303 43.5523 94.6617L47.1948 104.326H38.1238Z" fill="#877B77"/>
<path d="M11.1887 76.1589C11.4644 75.37 11.6433 74.5505 11.7216 73.7186C11.6449 74.5544 11.4659 75.3778 11.1887 76.1701C10.86 77.1457 10.3199 78.0369 9.60694 78.78C7.70483 80.7617 5.09404 81.2853 4.09338 83.8047C3.92964 84.2479 3.81834 84.7087 3.76172 85.1777C3.81705 84.7048 3.92838 84.24 4.09338 83.7934C5.09404 81.2741 7.70483 80.7587 9.60694 78.7688C10.3199 78.0254 10.86 77.1344 11.1887 76.1589Z" fill="#877B77"/>
<path d="M26.5215 85.1777C26.4649 84.7087 26.3537 84.2479 26.1898 83.8047C25.1893 81.2853 22.5784 80.7702 20.6763 78.78C19.9633 78.0369 19.4232 77.1457 19.0945 76.1701C18.817 75.378 18.6389 74.5546 18.5645 73.7186C18.6405 74.5505 18.8186 75.3702 19.0945 76.1589C19.4232 77.1344 19.9633 78.0254 20.6763 78.7688C22.5784 80.7502 25.1893 81.2741 26.1898 83.7934C26.3548 84.24 26.4662 84.7048 26.5215 85.1777Z" fill="#877B77"/>
</g>
<defs>
<clipPath id="clip0_548_211">
<rect width="124.286" height="128.725" fill="white"/>
</clipPath>
</defs>
</svg>
