<svg width="67" height="67" viewBox="0 0 67 67" fill="none" xmlns="http://www.w3.org/2000/svg">
<path d="M10.1787 0.648821C8.94886 -0.309131 7.20125 -0.192623 6.08795 0.907726L0.909838 6.08584C-0.190511 7.18619 -0.307018 8.9338 0.637987 10.1766L10.9942 23.6397C11.5768 24.4034 12.4959 24.8565 13.4538 24.8565H20.4572L34.5676 38.9669C32.6646 42.721 33.2731 47.4331 36.4188 50.5658L50.9175 65.0646C52.5356 66.6827 55.1635 66.6827 56.7817 65.0646L65.0667 56.7796C66.6848 55.1614 66.6848 52.5335 65.0667 50.9154L50.568 36.4167C47.4352 33.2839 42.7231 32.6625 38.969 34.5655L24.8586 20.4551V13.4647C24.8586 12.4938 24.4055 11.5876 23.6418 11.005L10.1787 0.648821ZM2.57978 51.2778C0.935729 52.9219 0.00366839 55.1614 0.00366839 57.4916C0.00366839 62.3461 3.93903 66.2814 8.79352 66.2814C11.1237 66.2814 13.3632 65.3494 15.0073 63.7053L30.2568 48.4558C29.2471 45.7502 29.0917 42.8116 29.7908 40.0284L21.8035 32.0411L2.57978 51.2778ZM66.2835 18.6428C66.2835 17.2835 66.1411 15.9631 65.8693 14.6945C65.5586 13.2446 63.7851 12.8692 62.7365 13.9177L54.4645 22.1898C54.0761 22.5781 53.5454 22.7982 53.0017 22.7982H45.5711C44.4319 22.7982 43.4998 21.8661 43.4998 20.727V13.2834C43.4998 12.7397 43.7199 12.209 44.1083 11.8206L52.3803 3.54856C53.4289 2.5 53.0535 0.726492 51.6036 0.415804C50.322 0.143954 49.0016 0.00155617 47.6423 0.00155617C37.3508 0.00155617 29.0011 8.35127 29.0011 18.6428V18.7463L40.0434 29.7887C44.7037 28.6106 49.856 29.8534 53.5065 33.504L55.5389 35.5364C61.8821 32.559 66.2835 26.1122 66.2835 18.6428ZM13.4668 55.9252C13.4668 57.6469 12.0816 59.0321 10.3599 59.0321C8.63817 59.0321 7.25303 57.6469 7.25303 55.9252C7.25303 54.2035 8.63817 52.8183 10.3599 52.8183C12.0816 52.8183 13.4668 54.2035 13.4668 55.9252Z" fill="#194099"/>
</svg>
