<svg width="92" height="92" viewBox="0 0 92 92" fill="none" xmlns="http://www.w3.org/2000/svg">
<g clip-path="url(#clip0_548_164)">
<path d="M85.1001 82.8H34.5001C30.6959 82.8 27.6001 79.7042 27.6001 75.9C27.6001 75.6792 27.6507 70.426 31.8505 65.251C34.2655 62.2794 37.5591 59.9242 41.6393 58.2498C46.5659 56.2258 52.6793 55.2046 59.8001 55.2046C66.9209 55.2046 73.0297 56.2304 77.9609 58.2498C82.0411 59.9242 85.3347 62.2794 87.7497 65.251C91.9541 70.426 92.0001 75.6792 92.0001 75.9C92.0001 79.7042 88.9043 82.8 85.1001 82.8ZM32.2001 75.9138C32.2047 77.1788 33.2351 78.2 34.5001 78.2H85.1001C86.3651 78.2 87.3955 77.1742 87.4001 75.9138C91.0005 81 63.2527 84.8594 60.0005 81C55.5201 75.6778 71.1529 79.5 59.8001 79.5C48.4473 79.5 60.9809 74.6824 56.5005 80C53.2483 83.864 27.6001 81.5 32.2001 75.9138Z" fill="#194099"/>
<path d="M59.7999 50.6C49.6523 50.6 41.3999 42.3476 41.3999 32.2C41.3999 22.0524 49.6523 13.8 59.7999 13.8C69.9475 13.8 78.1999 22.0524 78.1999 32.2C78.1999 42.3476 69.9475 50.6 59.7999 50.6ZM59.7999 48C52.1915 48 59.7999 16.3916 59.7999 24C59.7999 31.6084 59.8911 31 67.4995 31C75.1079 31 54.9995 34.1084 54.9995 26.5C54.9995 18.8916 67.4083 48 59.7999 48Z" fill="#194099"/>
<path d="M20.7 82.8H6.9C3.0958 82.8 0 79.7042 0 75.9C0 75.7298 0.0368001 71.6358 3.0498 67.62C4.7886 65.297 7.1622 63.4616 10.1016 62.1552C13.616 60.5912 17.9584 59.8 23.0046 59.8C23.828 59.8 24.6422 59.823 25.4288 59.8644C26.6984 59.9334 27.669 61.0144 27.6046 62.284C27.5402 63.5536 26.4546 64.5288 25.185 64.4598C24.4812 64.423 23.7498 64.4047 23.0092 64.4047C5.0968 64.4047 4.623 75.348 4.6092 75.9184C4.6138 77.1788 5.6442 78.2046 6.9092 78.2046H20.7092C21.9788 78.2046 23.0092 79.235 23.0092 80.5046C23.0092 81.7742 21.9788 82.8046 20.7092 82.8046L20.7 82.8Z" fill="#194099"/>
<circle cx="23" cy="38" r="14" fill="#D9D9D9" stroke="#194099" stroke-width="5"/>
</g>
<defs>
<clipPath id="clip0_548_164">
<rect width="92" height="92" fill="white"/>
</clipPath>
</defs>
</svg>
